<?xml version="1.0" encoding="utf-8"?>
<!-- Generator: Adobe Illustrator 16.0.0, SVG Export Plug-In . SVG Version: 6.00 Build 0)  -->
<!DOCTYPE svg PUBLIC "-//W3C//DTD SVG 1.1//EN" "http://www.w3.org/Graphics/SVG/1.1/DTD/svg11.dtd">
<svg version="1.1" id="Calque_1" xmlns="http://www.w3.org/2000/svg" xmlns:xlink="http://www.w3.org/1999/xlink" x="0px" y="0px"
	 width="16px" height="16px" viewBox="0 0 16 16" enable-background="new 0 0 16 16" xml:space="preserve">
<g>
	<path d="M1.398,2.846H2.01l0.609,2.502L3.86,2.846h0.581L4.49,6.438H3.86L3.831,4.289L2.765,6.438H2.25L1.704,4.182L1.13,6.438
		H0.486L1.398,2.846z"/>
	<path d="M7.085,5.66l0.574,0.297C7.531,6.126,7.36,6.26,7.147,6.358C6.936,6.457,6.7,6.506,6.441,6.506
		c-0.405,0-0.725-0.114-0.958-0.342c-0.233-0.228-0.35-0.531-0.35-0.908c0-0.431,0.146-0.796,0.438-1.095
		c0.292-0.299,0.645-0.448,1.059-0.448c0.249,0,0.471,0.055,0.665,0.164c0.195,0.109,0.348,0.268,0.46,0.476
		s0.168,0.435,0.168,0.679c0,0.077-0.008,0.166-0.023,0.269h-2.12c0.006,0.185,0.067,0.332,0.182,0.441
		c0.115,0.109,0.273,0.164,0.475,0.164C6.68,5.905,6.896,5.824,7.085,5.66z M7.251,4.821c-0.049-0.163-0.13-0.286-0.244-0.37
		C6.894,4.368,6.756,4.326,6.595,4.326c-0.16,0-0.304,0.043-0.432,0.129S5.937,4.664,5.87,4.821H7.251z"/>
	<path d="M10.113,4.152L9.803,4.65c-0.08-0.119-0.164-0.206-0.252-0.263c-0.09-0.056-0.172-0.084-0.248-0.084
		c-0.059,0-0.109,0.016-0.148,0.049c-0.041,0.033-0.062,0.069-0.062,0.11c0,0.039,0.018,0.078,0.049,0.117s0.125,0.115,0.281,0.227
		c0.25,0.179,0.414,0.333,0.494,0.46c0.078,0.128,0.119,0.267,0.119,0.417c0,0.197-0.082,0.383-0.244,0.559S9.395,6.506,9.088,6.506
		c-0.178,0-0.34-0.036-0.484-0.107C8.458,6.327,8.294,6.196,8.116,6.005l0.402-0.469c0.184,0.241,0.383,0.361,0.6,0.361
		c0.086,0,0.154-0.021,0.205-0.062C9.375,5.794,9.4,5.745,9.4,5.688c0-0.045-0.02-0.092-0.059-0.14
		C9.303,5.5,9.195,5.414,9.021,5.29C8.82,5.147,8.68,5.024,8.604,4.921C8.497,4.778,8.443,4.627,8.443,4.467
		c0-0.223,0.084-0.404,0.252-0.544s0.367-0.21,0.598-0.21c0.16,0,0.314,0.038,0.459,0.115S10.018,4.012,10.113,4.152z"/>
	<path d="M4.013,8.846h0.569l0.895,3.592H4.822l-0.19-0.764H3.207l-0.409,0.764H2.073L4.013,8.846z M4.466,11.039L4.179,9.855
		l-0.632,1.184H4.466z"/>
	<path d="M6.218,9.781h0.646l-0.358,2.656h-0.65L6.218,9.781z M6.666,8.695c0.111,0,0.206,0.039,0.284,0.118
		c0.079,0.079,0.119,0.173,0.119,0.284S7.029,9.303,6.95,9.382C6.871,9.461,6.776,9.5,6.666,9.5S6.46,9.461,6.381,9.382
		C6.302,9.303,6.263,9.209,6.263,9.098s0.04-0.205,0.119-0.284C6.46,8.734,6.555,8.695,6.666,8.695z"/>
	<path d="M9.596,8.756h0.652l-0.512,3.682H9.092l0.039-0.285c-0.143,0.131-0.273,0.224-0.396,0.275
		c-0.123,0.053-0.261,0.078-0.416,0.078c-0.352,0-0.631-0.129-0.839-0.389c-0.208-0.258-0.312-0.56-0.312-0.902
		c0-0.263,0.066-0.512,0.199-0.749c0.133-0.236,0.312-0.421,0.535-0.554c0.225-0.133,0.459-0.199,0.703-0.199
		c0.164,0,0.316,0.037,0.455,0.113c0.139,0.075,0.252,0.186,0.344,0.329L9.596,8.756z M8.475,11.925c0.16,0,0.3-0.036,0.419-0.107
		s0.219-0.184,0.301-0.337c0.08-0.152,0.121-0.309,0.121-0.467c0-0.211-0.061-0.381-0.184-0.508
		c-0.121-0.129-0.281-0.192-0.482-0.192c-0.23,0-0.427,0.085-0.589,0.257c-0.162,0.17-0.243,0.391-0.243,0.661
		c0,0.208,0.062,0.376,0.185,0.503C8.124,11.861,8.282,11.925,8.475,11.925z"/>
	<path d="M12.432,11.66l0.574,0.297c-0.129,0.17-0.299,0.303-0.512,0.401c-0.211,0.099-0.447,0.147-0.707,0.147
		c-0.404,0-0.725-0.113-0.957-0.342c-0.234-0.229-0.352-0.531-0.352-0.908c0-0.432,0.146-0.797,0.439-1.095
		c0.291-0.299,0.645-0.448,1.059-0.448c0.248,0,0.471,0.055,0.664,0.164c0.195,0.108,0.348,0.268,0.461,0.476
		c0.111,0.208,0.168,0.435,0.168,0.679c0,0.076-0.008,0.166-0.023,0.269h-2.119c0.006,0.185,0.066,0.331,0.182,0.441
		c0.115,0.109,0.273,0.164,0.475,0.164C12.027,11.905,12.244,11.824,12.432,11.66z M12.598,10.821
		c-0.049-0.163-0.129-0.286-0.244-0.37c-0.113-0.084-0.25-0.125-0.412-0.125c-0.158,0-0.303,0.043-0.432,0.129
		s-0.227,0.209-0.293,0.366H12.598z"/>
	<path d="M15.459,10.152l-0.311,0.498c-0.08-0.119-0.164-0.206-0.252-0.263c-0.088-0.056-0.17-0.084-0.246-0.084
		c-0.061,0-0.109,0.017-0.15,0.049s-0.061,0.069-0.061,0.11c0,0.039,0.016,0.078,0.049,0.117c0.031,0.039,0.125,0.114,0.281,0.227
		c0.25,0.18,0.414,0.332,0.492,0.46c0.08,0.128,0.119,0.267,0.119,0.417c0,0.196-0.08,0.383-0.242,0.559s-0.396,0.264-0.705,0.264
		c-0.178,0-0.338-0.035-0.484-0.107c-0.145-0.072-0.309-0.203-0.486-0.393l0.402-0.469c0.182,0.24,0.381,0.361,0.598,0.361
		c0.086,0,0.156-0.021,0.207-0.062c0.051-0.042,0.076-0.091,0.076-0.148c0-0.045-0.02-0.092-0.059-0.14s-0.145-0.134-0.318-0.258
		c-0.203-0.144-0.342-0.267-0.418-0.368c-0.107-0.144-0.162-0.295-0.162-0.455c0-0.223,0.084-0.404,0.254-0.544
		c0.168-0.14,0.367-0.21,0.596-0.21c0.162,0,0.314,0.038,0.459,0.115C15.242,9.904,15.363,10.012,15.459,10.152z"/>
</g>
</svg>
