<?xml version="1.0" standalone="no"?>
<!DOCTYPE svg PUBLIC "-//W3C//DTD SVG 20010904//EN"
 "http://www.w3.org/TR/2001/REC-SVG-20010904/DTD/svg10.dtd">
<svg version="1.0" xmlns="http://www.w3.org/2000/svg"
 width="16.000000pt" height="16.000000pt" viewBox="0 0 16.000000 16.000000"
 preserveAspectRatio="xMidYMid meet">
<metadata>
Created by potrace 1.11, written by Peter Selinger 2001-2013
</metadata>
<g transform="translate(0.000000,16.000000) scale(0.003125,-0.003125)"
fill="#000000" stroke="none">
<path d="M684 3862 c-28 -10 -70 -33 -94 -52 l-42 -33 5 41 4 42 -98 0 c-55 0
-99 -3 -99 -7 0 -5 -5 -35 -10 -68 -5 -33 -12 -78 -15 -100 -2 -21 -9 -74 -15
-117 -6 -43 -12 -90 -14 -105 -6 -43 -17 -125 -22 -153 -2 -14 -9 -61 -14
-105 -6 -44 -14 -95 -16 -112 l-5 -33 99 0 99 0 8 63 c5 34 9 71 10 82 19 174
43 309 66 362 51 120 202 172 263 90 22 -30 26 -93 12 -192 -35 -245 -43 -308
-51 -369 l-5 -36 100 0 c88 0 100 2 101 18 1 17 1 21 13 107 3 28 9 68 12 90
26 203 51 294 95 348 73 89 201 101 237 22 13 -28 7 -149 -13 -265 -2 -14 -7
-50 -10 -80 -3 -30 -8 -62 -10 -70 -2 -8 -7 -40 -10 -70 -3 -30 -9 -65 -12
-77 -5 -23 -4 -23 96 -23 101 0 101 0 102 25 1 14 2 28 3 33 1 4 5 34 10 67 8
65 9 71 27 190 42 283 37 350 -31 428 -50 56 -101 76 -189 74 -80 -3 -175 -44
-230 -101 l-34 -35 -27 43 c-52 81 -187 117 -296 78z"/>
<path d="M2025 3869 c-166 -37 -307 -181 -342 -349 -19 -91 -3 -223 36 -298
37 -72 138 -149 217 -168 50 -11 198 -13 244 -3 65 14 159 61 208 104 23 20
42 40 42 44 0 4 -37 27 -83 50 l-82 42 -59 -32 c-95 -52 -217 -48 -279 9 -25
22 -57 86 -57 112 0 20 4 20 310 20 171 -1 316 2 322 6 7 4 9 38 6 98 -8 142
-67 251 -173 319 -76 49 -208 69 -310 46z m148 -180 c48 -13 102 -62 122 -111
l15 -38 -205 0 c-113 0 -205 4 -205 8 0 17 59 90 90 112 55 39 114 48 183 29z"/>
<path d="M2825 3864 c-137 -48 -196 -198 -125 -321 24 -42 63 -81 135 -136
112 -85 129 -106 113 -143 -31 -68 -155 -51 -227 32 l-30 34 -62 -72 -62 -72
49 -43 c27 -24 74 -56 104 -71 48 -23 67 -27 145 -27 108 0 167 24 218 88 45
56 61 100 60 162 -1 93 -45 153 -190 261 -82 61 -99 84 -83 114 25 47 104 33
168 -32 l40 -40 24 38 c13 22 34 56 47 76 l23 38 -39 39 c-57 58 -116 84 -198
86 -41 2 -87 -3 -110 -11z"/>
<path d="M2183 2377 c-37 -21 -64 -64 -65 -105 -1 -82 58 -139 134 -129 147
20 131 248 -17 246 -16 0 -40 -5 -52 -12z"/>
<path d="M3125 2348 c-2 -7 -6 -31 -9 -53 -8 -65 -37 -278 -41 -300 -2 -11 -4
-27 -4 -35 -1 -9 -10 -2 -23 16 -100 141 -337 136 -494 -8 -185 -171 -202
-461 -37 -634 109 -113 292 -125 419 -28 24 19 46 34 48 34 2 0 0 -18 -4 -40
l-7 -40 98 0 c92 0 99 1 100 20 2 35 15 127 24 180 1 8 6 44 11 80 4 36 8 67
9 70 1 3 5 30 9 60 4 30 9 66 11 80 3 14 7 48 10 75 3 28 8 57 10 65 2 8 7 36
10 62 3 26 7 62 10 80 2 18 9 69 15 113 6 44 13 91 15 104 2 13 7 44 11 68 l6
43 -96 0 c-68 0 -98 -4 -101 -12z m-199 -467 c54 -25 90 -64 103 -115 49 -182
-70 -350 -243 -342 -140 7 -216 121 -182 276 33 148 194 239 322 181z"/>
<path d="M1386 2070 c-107 -28 -221 -118 -274 -218 -45 -85 -60 -148 -57 -238
7 -231 161 -388 366 -371 73 6 129 30 182 77 l34 30 -7 -40 c-4 -22 -5 -42 -2
-45 3 -3 47 -5 98 -5 l92 0 11 78 c6 42 13 100 17 127 3 28 8 57 9 67 2 9 6
38 10 65 4 26 8 59 10 73 2 14 6 43 9 65 5 37 31 219 41 293 l5 32 -100 0
-100 0 0 -27 c0 -16 -3 -38 -6 -51 -7 -23 -7 -23 -40 12 -50 53 -105 77 -188
82 -39 2 -88 -1 -110 -6z m182 -185 c117 -50 157 -191 91 -323 -51 -102 -141
-153 -247 -138 -103 14 -164 93 -164 212 0 177 171 311 320 249z"/>
<path d="M3722 2064 c-54 -14 -147 -67 -186 -107 -52 -53 -106 -139 -121 -192
-15 -54 -15 -59 -18 -125 -12 -246 142 -401 397 -400 67 0 165 24 224 54 49
25 141 100 132 109 -3 2 -41 23 -84 46 l-79 42 -60 -32 c-97 -51 -218 -48
-280 9 -24 22 -48 68 -54 104 l-4 28 312 0 c188 -1 316 3 322 9 5 5 8 48 5 98
-7 138 -68 249 -173 316 -83 53 -222 70 -333 41z m171 -175 c48 -13 102 -62
122 -111 l15 -38 -205 0 c-113 0 -205 4 -205 8 0 17 59 90 90 112 55 39 114
48 183 29z"/>
<path d="M4547 2064 c-95 -34 -160 -122 -159 -212 2 -57 42 -141 86 -179 60
-51 81 -68 106 -84 93 -60 118 -124 59 -154 -57 -30 -147 -1 -202 65 l-25 29
-38 -42 c-20 -23 -49 -54 -62 -69 l-25 -28 49 -45 c99 -93 227 -126 348 -91
104 31 181 131 179 236 -2 99 -42 155 -191 268 -77 57 -96 85 -81 114 24 45
106 29 167 -33 l40 -39 16 25 c10 14 30 48 46 75 l29 50 -29 33 c-49 56 -122
90 -204 93 -42 1 -87 -3 -109 -12z"/>
<path d="M2115 2048 c-2 -7 -6 -31 -9 -53 -2 -22 -16 -125 -31 -230 -35 -257
-34 -257 -40 -285 -2 -14 -7 -47 -10 -75 -5 -42 -10 -74 -18 -130 -1 -6 37
-11 95 -13 l96 -3 6 28 c3 15 8 46 11 68 5 36 11 77 20 145 2 14 6 48 10 75 3
28 15 115 26 195 27 203 27 200 34 248 l6 42 -96 0 c-68 0 -97 -4 -100 -12z"/>
</g>
</svg>
