<?xml version="1.0" encoding="UTF-8" standalone="no"?>
<!-- Created with Inkscape (http://www.inkscape.org/) -->

<svg
   xmlns:dc="http://purl.org/dc/elements/1.1/"
   xmlns:cc="http://creativecommons.org/ns#"
   xmlns:rdf="http://www.w3.org/1999/02/22-rdf-syntax-ns#"
   xmlns:svg="http://www.w3.org/2000/svg"
   xmlns="http://www.w3.org/2000/svg"
   xmlns:sodipodi="http://sodipodi.sourceforge.net/DTD/sodipodi-0.dtd"
   xmlns:inkscape="http://www.inkscape.org/namespaces/inkscape"
   version="1.1"
   id="svg2"
   xml:space="preserve"
   width="3966.6667"
   height="2266.6667"
   viewBox="0 0 3966.6667 2266.6667"
   sodipodi:docname="5220.svg"
   inkscape:version="0.92.3 (2405546, 2018-03-11)"><metadata
     id="metadata8"><rdf:RDF><cc:Work
         rdf:about=""><dc:format>image/svg+xml</dc:format><dc:type
           rdf:resource="http://purl.org/dc/dcmitype/StillImage" /><dc:title></dc:title></cc:Work></rdf:RDF></metadata><defs
     id="defs6" /><sodipodi:namedview
     pagecolor="#ffffff"
     bordercolor="#666666"
     borderopacity="1"
     objecttolerance="10"
     gridtolerance="10"
     guidetolerance="10"
     inkscape:pageopacity="0"
     inkscape:pageshadow="2"
     inkscape:window-width="2560"
     inkscape:window-height="1385"
     id="namedview4"
     showgrid="false"
     inkscape:zoom="0.41647057"
     inkscape:cx="1599.5633"
     inkscape:cy="1068.0575"
     inkscape:window-x="0"
     inkscape:window-y="27"
     inkscape:window-maximized="1"
     inkscape:current-layer="g12" /><g
     id="g10"
     inkscape:groupmode="layer"
     inkscape:label="ink_ext_XXXXXX"
     transform="matrix(1.3333333,0,0,-1.3333333,0,2266.6667)"><g
       id="g12"
       transform="scale(0.1)"><g
         id="g18"
         transform="scale(1.70317)"><path
           d="m 5190.47,1061.73 c 0,0 -2404.8,2174.41 -1050.52,5113.45 649.76,1410.08 2380.12,1740.98 2904.67,1452.42 691.59,-380.47 1608.94,647.38 3591.68,1353.1 1490.3,530.43 4863.5,-551.08 3764.9,-3877.67 -666.4,-2017.9 1898.8,-1487.07 1501,-4065.96 l -10711.73,24.66"
           style="fill:#fbecdb;fill-opacity:1;fill-rule:nonzero;stroke:none"
           id="path20"
           inkscape:connector-curvature="0" /></g><path
         d="M 10289.2,6250.8 V 1811 H 7037.82 v 4439.8 h 3251.38"
         style="fill:#f9ddbf;fill-opacity:1;fill-rule:nonzero;stroke:none"
         id="path22"
         inkscape:connector-curvature="0" /><path
         d="m 12814.9,6250.8 v -4440 h -2525.7 v 4440 h 2525.7"
         style="fill:#fff3e9;fill-opacity:1;fill-rule:nonzero;stroke:none"
         id="path24"
         inkscape:connector-curvature="0" /><path
         d="M 11115.6,8144.76 10050.3,5951.5 H 6813.9 l 1687.32,2185.25 2614.38,8.01"
         style="fill:#ed9f4a;fill-opacity:1;fill-rule:nonzero;stroke:none"
         id="path26"
         inkscape:connector-curvature="0" /><path
         d="M 11243.3,8144.76 10178.1,5951.5 H 6941.62 l 1687.33,2185.25 2614.35,8.01"
         style="fill:#f9ddbf;fill-opacity:1;fill-rule:nonzero;stroke:none"
         id="path28"
         inkscape:connector-curvature="0" /><path
         d="m 8658.01,7048.13 h -67.99 c -230.9,0 -418.1,-187.23 -418.1,-418.13 V 5567.6 h 890.61 v 1076 c 0,223.4 -181.1,404.53 -404.52,404.53"
         style="fill:#efcdaf;fill-opacity:1;fill-rule:nonzero;stroke:none"
         id="path30"
         inkscape:connector-curvature="0" /><path
         d="M 13166.7,5829.8 H 10229 l -1736.38,2314.99 977.49,-0.2 1909.59,-0.32 1787,-2314.47"
         style="fill:#ed9f4a;fill-opacity:1;fill-rule:nonzero;stroke:none"
         id="path32"
         inkscape:connector-curvature="0" /><path
         d="m 13166.7,5829.8 h -538.3 l -3158.29,2314.79 1909.59,-0.32 1787,-2314.47"
         style="fill:#e58638;fill-opacity:1;fill-rule:nonzero;stroke:none"
         id="path34"
         inkscape:connector-curvature="0" /><path
         d="M 8276.16,5338.9 7517.71,3777.5 H 5213.55 l 1201.29,1555.7 1861.32,5.7"
         style="fill:#ed9f4a;fill-opacity:1;fill-rule:nonzero;stroke:none"
         id="path36"
         inkscape:connector-curvature="0" /><path
         d="M 8345.2,5338.9 7586.77,3777.5 H 5282.6 l 1201.28,1555.7 1861.32,5.7"
         style="fill:#f9ddbf;fill-opacity:1;fill-rule:nonzero;stroke:none"
         id="path38"
         inkscape:connector-curvature="0" /><path
         d="M 7581.74,3777.5 V 2105.2 h -762.82 c -25.53,3.8 -38.52,6.3 -38.52,6.3 0,0 -389.29,0 -849.84,158 -211.24,72.5 -437.36,178.2 -647.92,332.3 v 1175.7 h 2299.1"
         style="fill:#f9ddbf;fill-opacity:1;fill-rule:nonzero;stroke:none"
         id="path40"
         inkscape:connector-curvature="0" /><path
         d="M 9528.61,3777.5 V 2418.1 c -139.08,-40.5 -273.5,-76.6 -403.15,-108.5 -446.12,-109.9 -835.53,-171.7 -1162.21,-204.4 h -381.51 v 1672.3 h 1946.87"
         style="fill:#fff3e9;fill-opacity:1;fill-rule:nonzero;stroke:none"
         id="path42"
         inkscape:connector-curvature="0" /><path
         d="M 9742.56,3685.1 H 7651.09 l -1236.28,1648.2 623,-0.1 1432.54,-0.3 1272.21,-1647.8"
         style="fill:#ed9f4a;fill-opacity:1;fill-rule:nonzero;stroke:none"
         id="path44"
         inkscape:connector-curvature="0" /><path
         d="M 6899.18,3430.8 V 2105.2 h -80.26 c -25.53,3.8 -38.52,6.3 -38.52,6.3 0,0 -389.29,0 -849.84,158 v 1145.3 c 0,143.6 61.38,272.8 159.4,362.7 87.58,80.6 204.47,129.6 332.9,129.6 126.44,0 241.43,-49.2 326.57,-129.6 92.24,-86.8 149.75,-210 149.75,-346.7"
         style="fill:#efcdaf;fill-opacity:1;fill-rule:nonzero;stroke:none"
         id="path46"
         inkscape:connector-curvature="0" /><path
         d="m 6306.14,4466.4 c 0,60 48.67,108.7 108.7,108.7 60.03,0 108.7,-48.7 108.7,-108.7 0,-60 -48.67,-108.7 -108.7,-108.7 -60.03,0 -108.7,48.7 -108.7,108.7"
         style="fill:#efcdaf;fill-opacity:1;fill-rule:nonzero;stroke:none"
         id="path48"
         inkscape:connector-curvature="0" /><path
         d="M 9742.56,3685.1 H 9345.63 L 7037.81,5333.2 8470.35,5332.9 9742.56,3685.1"
         style="fill:#e58638;fill-opacity:1;fill-rule:nonzero;stroke:none"
         id="path50"
         inkscape:connector-curvature="0" /><g
         id="g52"
         transform="scale(1.23829)"><path
           d="m 16300,1462.34 c -1347.6,399.5 -2981.3,766.79 -4323.2,445.37 -1342,-321.33 -1857.7,-754.99 -3331.4,242.68 -133.73,90.53 -257.13,157.63 -372.69,205.61 260.2,47.16 607.94,129.53 453.85,212.87 -160.7,86.89 -429.62,-61.62 -585.08,-165.47 -38.92,11.87 -76.92,21.56 -114.18,29.15 355.08,254.22 984.74,735.13 691.83,751.28 -288.95,15.99 -638.3,-466.61 -808.82,-733.59 -29.22,2.82 -58.04,4.52 -86.48,5 -15.1,138.75 -70.63,384.41 -274.54,399.75 -208.44,15.67 37.7,-255.27 185.11,-402.09 -793.46,-52.73 -1330.54,-953.57 -2996.6,-385.04 -255.93,87.29 -520.16,82.04 -769.15,28.1 -156.68,346.12 -621.88,1287.42 -1006.6,1189.54 -384.3,-97.87 567.59,-912.95 928.85,-1208.04 -43.02,-11.06 -85.46,-23.58 -127.24,-37.14 -218.73,161.27 -628.94,421.95 -863.3,307.52 -229.06,-111.93 345.19,-271.99 718.98,-359.69 -498.49,-197.69 -869.98,-524.84 -869.98,-524.84 L 16300,1462.34"
           style="fill:#a8d29f;fill-opacity:1;fill-rule:nonzero;stroke:none"
           id="path54"
           inkscape:connector-curvature="0" /></g><g
         id="g56"
         transform="scale(1.63126)"><path
           d="m 16124.2,1109.82 h -1189.8 c -64.3,53.94 43.6,177.04 156.5,185.38 49.1,3.68 110.9,-6.44 181.6,-21.46 16.4,217.56 110,1194.91 462.2,1155.74 396.2,-44.14 0,-430.53 -111.9,-659.37 -83,-169.38 -170.6,-412.57 -210.5,-527.39 32.2,-6.93 65.5,-13.91 99.5,-20.11 52.4,161.29 247.8,703.76 496.4,672.18 291.8,-36.96 174.5,-254.46 -32.2,-383.62 -151.9,-94.9 -338.3,-229.89 -426.8,-295.05 75,-12.26 153.4,-20.35 232.9,-18.58 204.3,4.85 303.8,-55.54 342.1,-87.72"
           style="fill:#a8d29f;fill-opacity:1;fill-rule:nonzero;stroke:none"
           id="path58"
           inkscape:connector-curvature="0" /></g><g
         id="g60"
         transform="scale(1.06002)"><path
           d="m 15177.4,11993.7 c 0,0 435.7,-206.1 534.7,-180.1 99,25.9 475.2,92.4 528,69 0,0 59.9,-95.6 14.7,-158.4 -45.2,-62.9 -411.1,-232.9 -543.4,-239.1 -132.1,-6.1 -634,84.8 -740.4,168 l 206.4,340.6"
           style="fill:#e8945b;fill-opacity:1;fill-rule:nonzero;stroke:none"
           id="path62"
           inkscape:connector-curvature="0" /></g><g
         id="g64"
         transform="scale(1.07537)"><path
           d="m 15995.2,11711 c 0,0 165.6,68.8 219.9,-8.1 54.2,-76.8 84.9,-154.6 78.2,-193.9 -6.7,-39.4 -118.6,-56.7 -163.3,-26.1 -44.7,30.6 -155.5,73.3 -155.5,73.3 l 20.7,154.8"
           style="fill:#e8945b;fill-opacity:1;fill-rule:nonzero;stroke:none"
           id="path66"
           inkscape:connector-curvature="0" /></g><g
         id="g68"
         transform="scale(1.14982)"><path
           d="m 15700.1,1935.62 c 0,0 -85.5,-138.38 -87.3,-298.92 -0.5,-35.75 28.7,-64.79 64.4,-64.79 h 533.1 c 51.7,0 89.7,48.52 77,98.53 -24.8,97.67 -77.9,245.17 -184.4,334.66 -169.9,142.9 -402.8,-69.48 -402.8,-69.48"
           style="fill:#163560;fill-opacity:1;fill-rule:nonzero;stroke:none"
           id="path70"
           inkscape:connector-curvature="0" /></g><g
         id="g72"
         transform="scale(1.04799)"><path
           d="m 16300,2279.02 c 0,0 -33.6,-542.37 -138.5,-550.1 -14,-1.05 -532.2,-1.05 -532.2,-1.05 h -668.4 c 0,0 11.2,163.27 204.6,196.95 193.4,33.68 517,169.56 634.1,425.19 123.3,268.8 500.4,-70.99 500.4,-70.99"
           style="fill:#163560;fill-opacity:1;fill-rule:nonzero;stroke:none"
           id="path74"
           inkscape:connector-curvature="0" /></g><g
         id="g76"
         transform="scale(1.09211)"><path
           d="m 15910.3,5401.93 c -22.4,-289.17 -25.4,-517.35 4.3,-625.58 132.4,-484.02 -238.6,-2669.51 -238.6,-2669.51 -273.4,-130.85 -661.9,1.37 -661.9,1.37 23.7,302.72 -120.3,3012.88 -254.2,4666.27 -56.1,694.12 -98.2,1179.78 -98.2,1179.78 l 1638.3,190.73 c 0,0 -312.1,-1738.95 -389.7,-2743.06"
           style="fill:#2b478b;fill-opacity:1;fill-rule:nonzero;stroke:none"
           id="path78"
           inkscape:connector-curvature="0" /></g><g
         id="g80"
         transform="scale(1.09211)"><path
           d="m 16300,8144.99 c 0,0 -312.1,-1738.95 -389.7,-2743.06 l -1150.4,1372.55 c -56.1,694.12 -98.2,1179.78 -98.2,1179.78 l 1638.3,190.73"
           style="fill:#233862;fill-opacity:1;fill-rule:nonzero;stroke:none"
           id="path82"
           inkscape:connector-curvature="0" /></g><g
         id="g84"
         transform="scale(1.14819)"><path
           d="m 14739.5,7394.44 c 0,0 788.8,-4592.9 924.5,-5482.21 0,0 295.3,-82.48 597,45.29 0,0 39,2134.23 -64.2,2777.15 -103.3,642.92 55,2630.42 -111.4,2815.31 -166.4,184.87 -1345.9,-155.54 -1345.9,-155.54"
           style="fill:#2b478b;fill-opacity:1;fill-rule:nonzero;stroke:none"
           id="path86"
           inkscape:connector-curvature="0" /></g><g
         id="g88"
         transform="scale(1.09592)"><path
           d="m 15527.6,11850.5 c 0,0 -63.4,-427.7 -35.6,-555.4 27.7,-127.7 452.6,-197.2 630.3,-91.6 177.7,105.5 124.3,144.7 124.3,144.7 0,0 -27.2,489.6 -52.1,524.5 -24.9,34.9 -666.9,-22.2 -666.9,-22.2"
           style="fill:#ffb27d;fill-opacity:1;fill-rule:nonzero;stroke:none"
           id="path90"
           inkscape:connector-curvature="0" /></g><g
         id="g92"
         transform="scale(1.14401)"><path
           d="m 16184.6,8852.3 c 53.9,514.65 40,901.94 -10.7,1193.3 -148.7,855.1 -614.5,883.6 -614.5,878.1 0,-115.1 -247.6,-221.3 -447.2,-208.2 -168.3,11 -277.5,138.9 -277.5,208.2 0,0.6 -3.1,0.5 -8.8,-0.1 -43.5,-0.4 -243.2,-4 -432,-36.7 -136.8,-23.6 -267.8,-62.5 -329.4,-126.6 -31.8,-33 -145,-125.6 -290.5,-251.4 -370.5,-320.5 -949.9,-856.81 -924.3,-1176.43 0,0 716.1,-525.9 1170,-196.24 -24.7,-855.82 -180,-1762.32 -142,-1761.66 0,0 253,-219.06 1021.6,-219.06 420.3,0 724.1,35.99 935,77.64 287.3,56.67 401.6,123.62 401.6,123.62 64.1,0.96 -69.9,1317.88 -51.3,1495.53"
           style="fill:#f99746;fill-opacity:1;fill-rule:nonzero;stroke:none"
           id="path94"
           inkscape:connector-curvature="0" /></g><g
         id="g96"
         transform="scale(1.14401)"><path
           d="m 16235.9,7356.77 c 0,0 -114.3,-66.95 -401.6,-123.62 -397.1,175.89 -1185.3,630.49 -1216.1,1393.83 -40.9,1015.41 1198.8,1620.02 1198.8,1620.02 0,0 166.3,-92.4 356.9,-201.4 50.7,-291.36 64.6,-678.65 10.7,-1193.3 -18.6,-177.65 115.4,-1494.57 51.3,-1495.53"
           style="fill:#ed7d2b;fill-opacity:1;fill-rule:nonzero;stroke:none"
           id="path98"
           inkscape:connector-curvature="0" /></g><g
         id="g100"
         transform="scale(1.09001)"><path
           d="m 15605.1,11866.3 c 0,0 165.7,-233.5 340.9,-235.6 175.2,-2.1 354,231.9 354,231.9 l -694.9,3.7"
           style="fill:#e8945b;fill-opacity:1;fill-rule:nonzero;stroke:none"
           id="path102"
           inkscape:connector-curvature="0" /></g><g
         id="g104"
         transform="scale(1.09735)"><path
           d="m 15484.8,11798.4 c 45.5,-35.8 147.3,-85.3 230.6,-118.1 63.2,-24.8 133.1,-26.3 197.3,-4.1 96,33.1 241.4,84.8 278.2,107.1 87.1,52.8 81.6,159.7 86,308.4 5.4,175.9 23.1,314.1 3.5,415.6 -23.4,121.3 -100.3,190.4 -315.8,209.1 -395.4,34.3 -560.1,-64.7 -567,-197.2 -1.8,-35.7 -3.4,-69.6 -4.6,-101.7 -15.8,-413.5 16.9,-560.1 91.8,-619.1"
           style="fill:#ffb27d;fill-opacity:1;fill-rule:nonzero;stroke:none"
           id="path106"
           inkscape:connector-curvature="0" /></g><g
         id="g108"
         transform="scale(1.12404)"><path
           d="m 15029.6,12174.2 c 0,0 63.2,93.2 182,56.6 118.9,-36.5 131.1,-138.1 334.1,-121.8 203.1,16.2 251.7,112.3 288.3,64.3 36.6,-48.1 57.7,-332 57.7,-332 0,0 408.3,930.9 -419.2,930.9 0,0 -852.8,51.5 -442.9,-894.7 v 296.7"
           style="fill:#2c3a64;fill-opacity:1;fill-rule:nonzero;stroke:none"
           id="path110"
           inkscape:connector-curvature="0" /></g><path
         d="m 15203.9,12693.3 1.3,-0.7 c -1.1,-0.6 -1.3,0.7 -1.3,0.7"
         style="fill:#ffb27d;fill-opacity:1;fill-rule:nonzero;stroke:none"
         id="path112"
         inkscape:connector-curvature="0" /><g
         id="g114"
         transform="scale(1.06409)"><path
           d="m 16300,8904.61 c 0,0 -114.4,-90.09 -281.6,-90.09 0,0 -170.7,188.07 -314.5,369.97 -93,117.8 -174.8,233.03 -191.7,292.91 -43,152.22 -845.7,195.11 -944.1,302.36 -98.4,107.24 398.9,376.34 398.9,376.34 0,0 815,-124.7 937.5,-284.79 48.7,-63.75 121.4,-229.85 191.1,-406.78 105.4,-267.6 204.4,-559.92 204.4,-559.92"
           style="fill:#e8945b;fill-opacity:1;fill-rule:nonzero;stroke:none"
           id="path116"
           inkscape:connector-curvature="0" /></g><g
         id="g118"
         transform="scale(1.00967)"><path
           d="m 15976.3,11739.3 c 0,0 162.9,316 243.3,306.8 80.4,-9.2 -184.8,-654.2 -209,-967.6 -24.1,-313.5 -34.3,660.8 -34.3,660.8"
           style="fill:#ed7d2b;fill-opacity:1;fill-rule:nonzero;stroke:none"
           id="path120"
           inkscape:connector-curvature="0" /></g><g
         id="g122"
         transform="scale(1.03342)"><path
           d="m 16106.9,9343.71 c -110.4,-267.16 -253.3,-510.71 -271.6,-541.45 -1.2,-2.14 -1.9,-3.28 -1.9,-3.28 0,0 -0.9,0 -2.6,0 -26.7,0.26 -257.1,5.31 -279.7,97.8 0,0 -7.4,320.17 5.3,574.5 5.8,113.71 15.4,214.15 31.6,267.16 0,0 -1249.5,8.39 -1227.6,361.86 21.9,353.5 675.3,540.5 1050.8,357.2 0,0 498,-181 760.1,-420 128.7,-117.43 49.5,-418.15 -64.4,-693.79"
           style="fill:#ffb27d;fill-opacity:1;fill-rule:nonzero;stroke:none"
           id="path124"
           inkscape:connector-curvature="0" /></g><g
         id="g126"
         transform="scale(1.0186)"><path
           d="m 14607.1,10750.1 c 0,0 -168.8,-248.1 -129.2,-479.5 39.5,-231.5 521.2,-355.21 858.2,-369.94 0,0 963.9,220.94 814.5,605.14 -34,87.2 -1543.5,244.3 -1543.5,244.3"
           style="fill:#2b478b;fill-opacity:1;fill-rule:nonzero;stroke:none"
           id="path128"
           inkscape:connector-curvature="0" /></g><path
         d="m 15235.3,14055.6 c 0,0 -156,319.2 -532.6,124 -376.7,-195.2 -10,-930.5 -207.7,-1114.3 -197.7,-183.8 71.7,-304.2 31.6,-435.9 -40.2,-131.8 74.4,-281.7 338,-264.1 263.6,17.6 541.2,3.4 660.3,234 119.1,230.6 92,738 46,809.4 -46,71.3 -335.6,646.9 -335.6,646.9"
         style="fill:#aa443e;fill-opacity:1;fill-rule:nonzero;stroke:none"
         id="path130"
         inkscape:connector-curvature="0" /><path
         d="m 15845.7,12306.1 -640.5,386.5 c 3.5,1.4 16.5,20.7 64.4,159.3 20.4,59 31.2,110.3 36.5,150.9 0.5,4.1 1.1,8 1.4,11.9 6.6,59.1 1.8,93.1 1.8,93.1 l 140.3,-50.7 259.5,-94 c -3,-65.8 6.2,-112.1 20.2,-143.9 33.9,-77.1 97,-77.7 98.8,-77.7 l 17.6,-435.4"
         style="fill:#ffb27d;fill-opacity:1;fill-rule:nonzero;stroke:none"
         id="path132"
         inkscape:connector-curvature="0" /><path
         d="m 15729.3,12819.2 c -250.8,-21.3 -392,142.3 -423.2,183.6 -4.6,6 -6.9,9.4 -6.9,9.4 0,0 3,0.9 8.3,2.5 20.4,6 75.8,22.7 142.1,42.4 l 259.5,-94 c -3,-65.8 6.2,-112.1 20.2,-143.9"
         style="fill:#ed985f;fill-opacity:1;fill-rule:nonzero;stroke:none"
         id="path134"
         inkscape:connector-curvature="0" /><path
         d="m 15741.9,12909.3 c 0,0 -557.2,-61.2 -568.6,315.6 -11.4,376.7 -93.8,549.1 291.7,582.7 385.5,33.6 476.6,-105.3 499.3,-232.8 71,-398.2 -65.5,-648.6 -222.4,-665.5"
         style="fill:#ffb27d;fill-opacity:1;fill-rule:nonzero;stroke:none"
         id="path136"
         inkscape:connector-curvature="0" /><path
         d="m 15495,13623.6 c -197.2,49.9 -121.8,-299.5 -171.6,-275.5 -55.8,26.7 -151.5,26.3 -136.4,-41 15.1,-67.3 36.9,-91.4 48.3,-133.4 11.4,-42 -0.1,-125.2 -45.9,-108.4 -45.9,16.7 -472.3,503.6 -171.2,882.9 301,379.2 1198.8,145.6 916.1,-251.1 -49.7,-69.8 -298.9,-109.1 -439.3,-73.5"
         style="fill:#aa443e;fill-opacity:1;fill-rule:nonzero;stroke:none"
         id="path138"
         inkscape:connector-curvature="0" /><g
         id="g140"
         transform="scale(1.00554)"><path
           d="m 16121.2,10747.7 c 0,0 -166.5,-88.4 -428.6,-84.2 -167,2.5 -521.6,75.1 -749.7,157.4 -129.9,46.7 -218.8,96.8 -208,138.7 15.3,60.5 126.7,525 229.5,954.8 94,392.9 181,756.9 181,756.9 0,0 259.5,-184.4 410.7,-119.3 151.3,65.1 131.8,138.6 131.8,138.6 0,0 178.2,21.9 226.5,16.2 77.2,-9.1 349.8,-108.5 349.8,-108.5 0,0 35.8,-100.6 -59.2,-257.7 -78.7,-130.2 -155.2,-155.4 -155.2,-155.4 0,0 222.7,-702.1 71.4,-1437.5"
           style="fill:#739af0;fill-opacity:1;fill-rule:nonzero;stroke:none"
           id="path142"
           inkscape:connector-curvature="0" /></g><path
         d="m 15372.1,11437.6 c 0,0 160.9,30 223.8,-11.2 63,-41.2 81.6,-105.7 36.3,-132 -142,-82.6 -286,8.7 -286,8.7 l 25.9,134.5"
         style="fill:#ffb27d;fill-opacity:1;fill-rule:nonzero;stroke:none"
         id="path144"
         inkscape:connector-curvature="0" /><path
         d="m 15025.7,10880.8 c -130.6,47 -220,97.3 -209.2,139.6 15.4,60.8 127.4,527.8 230.8,960 30.5,56 49.9,89.4 49.9,89.4 0,0 196.2,-897 -71.5,-1189"
         style="fill:#4a82d3;fill-opacity:1;fill-rule:nonzero;stroke:none"
         id="path146"
         inkscape:connector-curvature="0" /><path
         d="m 15235.7,12691.1 c 0,0 -495.6,-104.9 -691.1,-875.4 -19.1,-75.5 0.6,-155.9 52.8,-213.7 89.8,-99.6 288,-245.3 748.8,-298.9 50.3,-5.8 57,121.8 57,121.8 -5,-10.2 -313,199 -444.1,311.4 -23.7,20.3 -22.7,63 -5.6,89.1 44.3,67.7 118.6,184.5 143.6,244.5 36.5,87.5 277.2,581.5 138.6,621.2"
         style="fill:#ffb27d;fill-opacity:1;fill-rule:nonzero;stroke:none"
         id="path148"
         inkscape:connector-curvature="0" /><path
         d="m 15229.3,12741.5 c 0,0 -291.4,-20.7 -529,-337.5 0,0 80.4,-291.5 457.9,-369.3 0,0 232.6,524.8 71.1,706.8"
         style="fill:#739af0;fill-opacity:1;fill-rule:nonzero;stroke:none"
         id="path150"
         inkscape:connector-curvature="0" /><g
         id="g152"
         transform="scale(1.02117)"><path
           d="m 16300,9455.75 c -111.6,-270.36 -256.3,-516.83 -274.8,-547.94 -1.5,-1.08 -3,-2.16 -4.6,-3.32 -27,0.27 -260.2,5.37 -283,98.97 0,0 -7.5,324.01 5.4,581.39 37.1,-35.58 180.3,-141.79 557,-129.1"
           style="fill:#ebf2f9;fill-opacity:1;fill-rule:nonzero;stroke:none"
           id="path154"
           inkscape:connector-curvature="0" /></g><g
         id="g156"
         transform="scale(1.06409)"><path
           d="m 16300,8904.61 c 0,0 -114.4,-90.09 -281.6,-90.09 0,0 -170.7,188.07 -314.5,369.97 161.8,69.93 332.8,224.1 391.7,280.04 105.4,-267.6 204.4,-559.92 204.4,-559.92"
           style="fill:#ebf2f9;fill-opacity:1;fill-rule:nonzero;stroke:none"
           id="path158"
           inkscape:connector-curvature="0" /></g><g
         id="g160"
         transform="scale(1.02769)"><path
           d="m 16279.2,8500.52 c -5.2,-29.3 -34.1,-48.2 -63.3,-42.26 -69.4,14.16 -195,40.98 -247,59.93 -73.9,26.86 -215.5,110.55 -289.3,137.39 -25.4,9.25 -86.4,33.87 -125.8,49.92 -21,8.52 -32.1,31.41 -25.8,53.11 13.1,45.02 38.4,121.71 74.5,185.83 6.6,11.9 17.3,20.85 30.9,27.34 38.2,-30.73 98.6,-64.54 179.4,-64.87 66.2,-0.29 121.1,15.93 161.9,34.09 5.1,-10.29 105.8,-213.38 177.1,-239.32 64.1,-23.35 148.2,-84.64 127.4,-201.16"
           style="fill:#aa443e;fill-opacity:1;fill-rule:nonzero;stroke:none"
           id="path162"
           inkscape:connector-curvature="0" /></g><g
         id="g164"
         transform="scale(1.09372)"><path
           d="m 16286.8,8661.05 c 13.2,-24.67 2.9,-55.41 -22.1,-68 -59.4,-29.97 -167.7,-83.24 -217.1,-99.55 -70.1,-23.15 -223.3,-43.86 -293.3,-67 -24.2,-7.96 -83.5,-25.29 -122,-36.42 -20.4,-5.9 -41.9,4.52 -49.8,24.2 -16.6,40.86 -42.6,112.16 -53.3,180.46 -2,12.64 0.8,25.46 6.9,38.1 46.2,-0.39 110.4,9.83 170.1,56.59 49.1,38.3 80.1,82.25 99.6,119.38 9.7,-4.67 202.3,-95.88 269.9,-73.52 61,20.12 158.7,23.8 211.1,-74.24"
           style="fill:#aa443e;fill-opacity:1;fill-rule:nonzero;stroke:none"
           id="path166"
           inkscape:connector-curvature="0" /></g><g
         id="g168"
         transform="scale(1.02874)"><path
           d="m 16300,9613.89 c 0,0 -36.2,-209.35 -172.2,-305.73 0,0 -552.9,76.06 -1067.5,206.25 -378.3,95.67 -736.2,220.54 -838.5,365.99 -241.7,343.1 126.5,760.7 126.5,760.7 0,0 709.7,-342.4 1478,-762.04 157.4,-85.9 317,-175.09 473.7,-265.17"
           style="fill:#f99746;fill-opacity:1;fill-rule:nonzero;stroke:none"
           id="path170"
           inkscape:connector-curvature="0" /></g><path
         d="m 15912.9,9575.73 c 0,0 -169,-13.72 -232.9,-77.62 -63.9,-63.91 -160.7,-249.79 -91.7,-323.47 68.9,-73.68 397.6,87.83 406.7,114.34 9.1,26.53 -82.1,286.75 -82.1,286.75"
         style="fill:#ffb27d;fill-opacity:1;fill-rule:nonzero;stroke:none"
         id="path172"
         inkscape:connector-curvature="0" /><g
         id="g174"
         transform="scale(1.02874)"><path
           d="m 16300,9613.89 c 0,0 -36.2,-209.35 -172.2,-305.73 0,0 -552.9,76.06 -1067.5,206.25 241.9,210.33 558,315.05 766,364.65 157.4,-85.9 317,-175.09 473.7,-265.17"
           style="fill:#ed7d2b;fill-opacity:1;fill-rule:nonzero;stroke:none"
           id="path176"
           inkscape:connector-curvature="0" /></g><g
         id="g178"
         transform="scale(1.16434)"><path
           d="m 16058.7,10489.2 c -97.5,231.9 -739.7,240.8 -739.7,240.8 -326.8,-857.3 -405.3,-1419.58 -491.6,-1780.93 -14,1.34 -27.1,1.38 -39.1,-0.05 0,0 -458.9,-179.08 -1141.1,-674.48 0,0 -71.4,-195.62 56.7,-355.76 0,0 1175.5,259.43 1503.8,451.87 0.3,-0.05 0.5,-0.1 0.5,-0.1 3.3,2.09 6.6,4.2 9.8,6.31 5,3.07 9.8,6.13 14.3,9.17 1067.7,693.74 966.1,1771.37 826.4,2103.17"
           style="fill:#f99746;fill-opacity:1;fill-rule:nonzero;stroke:none"
           id="path180"
           inkscape:connector-curvature="0" /></g><path
         d="m 15517.1,7423.54 c 0,0 383.7,-132.56 329.7,-574.54 0,0 -35.4,-179.4 -145.9,-99.9 -110.5,79.6 -58.7,64.9 -216.4,173.7 -157.8,108.79 -260.8,280.31 -242.8,416.56 l 275.4,84.18"
         style="fill:#ffb27d;fill-opacity:1;fill-rule:nonzero;stroke:none"
         id="path182"
         inkscape:connector-curvature="0" /><path
         d="m 15534.6,7395.14 -227.3,-275.77 c -10.5,-12.89 -27.3,-18.75 -43.6,-15.73 -213.1,39.13 -946.4,511.76 -1186.6,704.64 -26,20.9 -46.2,38.51 -59.4,51.93 -89.5,91.24 -398.3,541.47 -617.5,942.43 -126.2,230.93 -222.7,445.5 -230.3,565.74 -27.4,429.24 198.4,1029.52 198.4,1029.52 667.9,-232.5 738.2,-765.77 738.2,-765.77 l 370.3,-1378.07 1048.8,-783.87 c 23.9,-17.88 28,-52.1 9,-75.05"
         style="fill:#739af0;fill-opacity:1;fill-rule:nonzero;stroke:none"
         id="path184"
         inkscape:connector-curvature="0" /><path
         d="m 14077.1,7808.28 c -26,20.9 -46.2,38.51 -59.4,51.93 -89.5,91.24 -398.3,541.47 -617.5,942.43 -28.4,242.32 -8.9,469.62 90.9,628.52 0,0 567.8,-999.07 586,-1622.88"
         style="fill:#4a82d3;fill-opacity:1;fill-rule:nonzero;stroke:none"
         id="path186"
         inkscape:connector-curvature="0" /><path
         d="m 13692.3,3837.9 -113.5,-473.5 -70.3,-293 -233.9,-975.6 c 0,0 -200.2,-61.7 -408.3,0 0,0 -77.1,322.9 -79.3,725.5 -1.2,210.6 18.1,443.1 79.7,662.6 24.9,89.3 57,176.4 97.5,259.1 330,674.1 728.1,94.9 728.1,94.9"
         style="fill:#ffb27d;fill-opacity:1;fill-rule:nonzero;stroke:none"
         id="path188"
         inkscape:connector-curvature="0" /><path
         d="m 13886.2,1810.8 h -1099.3 c 0,0 -17.4,166.4 31,325.5 7.2,23.6 15.8,47.1 26.1,69.9 0,0 245.5,-55.7 457.1,0 0,0 199,-169.5 319.3,-221.4 120.2,-52.1 253.1,-23.8 265.8,-174"
         style="fill:#2b478b;fill-opacity:1;fill-rule:nonzero;stroke:none"
         id="path190"
         inkscape:connector-curvature="0" /><path
         d="m 13578.8,3364.4 -70.3,-293 c -119.5,-76.3 -377.3,-214.4 -721.5,-250.1 -1.2,210.6 18.1,443.1 79.7,662.6 101.1,51.3 204,78.1 291.6,62.8 218.2,-38 347.9,-117.8 420.5,-182.3"
         style="fill:#e8945b;fill-opacity:1;fill-rule:nonzero;stroke:none"
         id="path192"
         inkscape:connector-curvature="0" /><path
         d="m 13315.2,1810.8 h -528.3 c 0,0 -17.4,166.4 31,325.5 132.7,-41.3 402.6,-144.9 497.3,-325.5"
         style="fill:#1f396d;fill-opacity:1;fill-rule:nonzero;stroke:none"
         id="path194"
         inkscape:connector-curvature="0" /><path
         d="m 12816,3837.9 -113.5,-473.5 -70.3,-293 -233.9,-975.6 c 0,0 -200.2,-61.7 -408.3,0 0,0 -77.1,322.9 -79.3,725.5 -1.3,210.6 18.1,443.1 79.6,662.6 25,89.3 57.1,176.4 97.6,259.1 330,674.1 728.1,94.9 728.1,94.9"
         style="fill:#ffb27d;fill-opacity:1;fill-rule:nonzero;stroke:none"
         id="path196"
         inkscape:connector-curvature="0" /><path
         d="m 11967.7,2206.2 c 0,0 245.4,-55.7 457.1,0 0,0 199,-169.5 319.2,-221.5 120.3,-51.9 253.2,-23.7 265.9,-173.9 h -1099.3 c 0,0 -23,219.4 57.1,395.4"
         style="fill:#2b478b;fill-opacity:1;fill-rule:nonzero;stroke:none"
         id="path198"
         inkscape:connector-curvature="0" /><path
         d="m 12702.5,3364.4 -70.3,-293 c -119.5,-76.3 -377.4,-214.4 -721.5,-250.1 -1.3,210.6 18.1,443.1 79.6,662.6 101.1,51.3 204.1,78.1 291.7,62.8 218.2,-38 347.9,-117.8 420.5,-182.3"
         style="fill:#e8945b;fill-opacity:1;fill-rule:nonzero;stroke:none"
         id="path200"
         inkscape:connector-curvature="0" /><path
         d="m 13921.7,3395.8 c -26.4,-97.7 -115,-165.5 -216.3,-165.5 h -1762.6 c -132.8,0 -237.3,112.9 -227.1,245.1 18.5,240.1 84.6,632.2 113.4,897 12,110.1 17.5,198.1 10.6,244 -178,1177.3 -327.3,2563.99 -309.2,2829.07 2.6,37.31 4.4,56.58 4.4,56.58 0,0 128.4,10.83 323.7,18.42 567.6,22.41 1700.7,18.51 1889,-352.71 191.8,-378.16 307.6,-2888.96 307.6,-2888.96 28,-234.6 -71,-651.8 -133.5,-883"
         style="fill:#c65447;fill-opacity:1;fill-rule:nonzero;stroke:none"
         id="path202"
         inkscape:connector-curvature="0" /><path
         d="m 11829.1,4372.4 c 12,110.1 17.5,198.1 10.6,244 -178,1177.3 -327.3,2563.99 -309.2,2829.07 2.6,37.31 4.4,56.58 4.4,56.58 0,0 128.4,10.83 323.7,18.42 293.6,-172.97 484.7,-467.68 484.7,-467.68 0,0 -59.1,-2203.09 -514.2,-2680.39"
         style="fill:#b2443b;fill-opacity:1;fill-rule:nonzero;stroke:none"
         id="path204"
         inkscape:connector-curvature="0" /><path
         d="m 12923.7,12351.3 c -140.9,35.2 -222.7,-75.7 -222.7,-206.4 0,-130.6 106,-236.5 236.6,-236.5 130.7,0 236.6,151.3 236.6,282 0,130.6 -123.8,129.2 -250.5,160.9"
         style="fill:#b2443b;fill-opacity:1;fill-rule:nonzero;stroke:none"
         id="path206"
         inkscape:connector-curvature="0" /><path
         d="m 12851,10996.7 c 0,0 -733.6,660.6 -69.5,1128.3 0,0 198.1,52.8 298.9,34 0,0 360.9,105.6 572.1,-139.6 211.3,-245.2 303.1,-422.5 122,-641.2 -181,-218.8 -923.5,-381.5 -923.5,-381.5"
         style="fill:#c65447;fill-opacity:1;fill-rule:nonzero;stroke:none"
         id="path208"
         inkscape:connector-curvature="0" /><path
         d="m 12009.2,7006.72 c 0,0 181.1,-363.42 -167,-641.02 0,0 -150.9,-103.3 -174,30.9 -23.2,134.1 3.5,87.4 -32.9,275.5 -36.4,188.2 10.2,382.7 118.4,467.4 l 255.5,-132.78"
         style="fill:#ffb27d;fill-opacity:1;fill-rule:nonzero;stroke:none"
         id="path210"
         inkscape:connector-curvature="0" /><path
         d="m 13451.9,11002.8 c 0,0 -9.1,-98.9 -25.9,-232.6 -8.1,-65.3 -18.1,-139 -29.9,-213.4 -8.3,-53.5 -17.6,-107.4 -27.8,-159 l -227.1,-766.98 -533.3,862.98 c 0,0 125.4,103.7 295.2,665.6 1.6,6 2.8,9.3 2.8,9.3 l 546,-165.9"
         style="fill:#ffb27d;fill-opacity:1;fill-rule:nonzero;stroke:none"
         id="path212"
         inkscape:connector-curvature="0" /><path
         d="m 13762.6,7218.75 c 6.9,-86.2 -14.9,-101.87 -14.9,-101.87 0,0 -327.9,-118.88 -1152.6,-77.76 -89.2,4.46 -173.3,9.02 -251.8,13.67 -531.5,31.34 -815.7,64.09 -815.7,64.09 0,0 -435.3,1004.75 382.5,2242.69 92.5,139.94 201,282.92 327.9,427.71 132.5,151.05 161.7,353.12 211.9,545.22 14.3,55.1 -27.2,67.2 -6.5,119.2 0,0 149.1,42.1 164.5,42.1 84.7,-74.6 196.5,-219.7 473.8,-248.3 187.5,-19.6 260.9,86.1 287.6,149.4 71.4,-25.8 145.5,-70.5 206.2,-99.6 502.5,-241.2 548.6,-709.11 548.6,-709.11 0,0 -461.8,-1518.48 -490.4,-1708.07 -12.9,-84.32 93.1,-215.42 128.9,-659.37"
         style="fill:#739af0;fill-opacity:1;fill-rule:nonzero;stroke:none"
         id="path214"
         inkscape:connector-curvature="0" /><path
         d="m 13426,10770.2 c -8.1,-65.3 -35.8,-244.1 -47.5,-318.5 -564.7,220.1 -490.8,649.2 -475.4,707.7 1.6,6 2.8,9.3 2.8,9.3 0,0 298.7,-212.1 520.1,-398.5"
         style="fill:#e8945b;fill-opacity:1;fill-rule:nonzero;stroke:none"
         id="path216"
         inkscape:connector-curvature="0" /><path
         d="m 13547.1,10694.3 c 0,0 -652.3,-20.9 -659,385.5 -6.8,406.3 -95.6,677.3 320.6,707.9 416.1,30.5 499.6,-123.2 534.9,-258.3 35.2,-135.1 -27,-819.2 -196.5,-835.1"
         style="fill:#ffb27d;fill-opacity:1;fill-rule:nonzero;stroke:none"
         id="path218"
         inkscape:connector-curvature="0" /><path
         d="m 13604,11848.5 c 0,0 -40.9,-678.4 -836,-605.6 0,0 16.9,939.6 836,605.6"
         style="fill:#c65447;fill-opacity:1;fill-rule:nonzero;stroke:none"
         id="path220"
         inkscape:connector-curvature="0" /><path
         d="m 13451.9,11781.1 c 0,0 222.8,-275.8 323.8,-363.8 0,0 247.9,355.7 -323.8,363.8"
         style="fill:#c65447;fill-opacity:1;fill-rule:nonzero;stroke:none"
         id="path222"
         inkscape:connector-curvature="0" /><path
         d="m 13451.9,11781.1 c 0,0 200.1,-338.1 301.2,-426 0,0 270.5,417.9 -301.2,426 v 0"
         style="fill:#c65447;fill-opacity:1;fill-rule:nonzero;stroke:none"
         id="path224"
         inkscape:connector-curvature="0" /><path
         d="m 12343.3,7052.79 c -531.5,31.34 -815.7,64.09 -815.7,64.09 0,0 -435.3,1004.75 382.5,2242.69 165.6,-385.94 556.1,-1417.36 433.2,-2306.78"
         style="fill:#4a82d3;fill-opacity:1;fill-rule:nonzero;stroke:none"
         id="path226"
         inkscape:connector-curvature="0" /><path
         d="m 12607.9,10493.8 c 0,0 -630.9,-129.4 -912.1,-454.9 -215.3,-249.48 -451,-1468.96 -451,-1670.46 0,-192.54 221.4,-1216.3 359.5,-1412.54 9.6,-13.7 25.6,-21.2 42.2,-19.5 l 355.4,37.7 c 29.6,3.2 50.6,30.46 46.1,59.93 l -199.7,1294.11 700.8,1242.97 c 0,0 413.3,489.79 58.8,922.69"
         style="fill:#739af0;fill-opacity:1;fill-rule:nonzero;stroke:none"
         id="path228"
         inkscape:connector-curvature="0" /><path
         d="m 15314.8,2161.2 c 0,0 53.5,-104.3 171.9,-130.1 74.6,-16.3 138.5,-55.1 178.2,-109.5 33.6,-46.1 1.1,-110.8 -55.8,-110.8 h -601.2 c -51.2,0 -91.1,44.2 -86,95.1 4.5,44.6 9.2,96.4 11.2,136.2 4.4,86.8 91.4,156.7 91.4,156.7 l 290.3,-37.6"
         style="fill:#2c3a64;fill-opacity:1;fill-rule:nonzero;stroke:none"
         id="path230"
         inkscape:connector-curvature="0" /><path
         d="m 15451,3677.2 c 25.1,-457.1 -37.3,-1496.1 -37.3,-1496.1 0,0 -41.9,-115.8 -306.6,-143.5 -141.7,-14.8 -269.4,22 -269.4,22 -53.4,246 -102.8,481 -148.2,704.2 -326.8,1603.1 -454.2,2593.3 -454.2,2593.3 l 1289.8,299.8 c 0,0 -56.5,-905 -73.1,-1522.2 -5.2,-192.6 -6.5,-357.2 -1,-457.5"
         style="fill:#35488b;fill-opacity:1;fill-rule:nonzero;stroke:none"
         id="path232"
         inkscape:connector-curvature="0" /><path
         d="m 15525.1,5656.9 c 0,0 -56.5,-905 -73.1,-1522.2 l -762.5,-1370.9 c -326.8,1603.1 -454.2,2593.3 -454.2,2593.3 l 1289.8,299.8"
         style="fill:#2c3a64;fill-opacity:1;fill-rule:nonzero;stroke:none"
         id="path234"
         inkscape:connector-curvature="0" /><path
         d="m 14228.3,7729.67 c 0,0 -499.1,227.18 -876.7,28.44 C 12974,7559.36 13204.9,5919 13744.8,5760 v 0 c 0,0 1011.6,-323.5 483.5,1969.67"
         style="fill:#35488b;fill-opacity:1;fill-rule:nonzero;stroke:none"
         id="path236"
         inkscape:connector-curvature="0" /><path
         d="m 15518.9,5319 3.4,2 -1.7,-2.2 c -0.2,-0.2 -0.8,-0.1 -1.7,0.2 z m 153.2,-44.5 c -1.5,2.2 -3.1,4.3 -4.9,6.4 -11.9,18.1 -32,63.3 -46.8,98.3 v 0 c 100.4,491.5 32.9,775.7 32.9,775.7 11.9,143.1 97.3,1142.72 -99.4,1605.83 -94.9,223.45 -253.9,223.84 -253.9,223.84 0,0 37.3,-357 12.7,-548.9 -22.6,-176.15 145.3,-1826.97 173,-2096.77 -0.4,0.1 -0.8,0.1 -0.9,-0.1 l 8,-274.3 80.5,19 c 3.4,0.9 6.8,2.1 10,3.6 v 0 0 c 9.8,4.5 18.4,11.7 24.6,21.5 l 65,103 c 12.5,19.8 11.4,44.5 -0.8,62.9 v 0"
         style="fill:#e8945b;fill-opacity:1;fill-rule:nonzero;stroke:none"
         id="path238"
         inkscape:connector-curvature="0" /><path
         d="m 14268.3,2161.2 c 0,0 53.5,-104.3 171.9,-130.1 74.6,-16.3 138.5,-55.1 178.2,-109.5 33.6,-46.1 1.1,-110.8 -55.8,-110.8 h -601.2 c -51.2,0 -91.1,44.2 -86,95.1 4.5,44.6 9.2,96.4 11.2,136.2 4.5,86.8 91.4,156.7 91.4,156.7 l 290.3,-37.6"
         style="fill:#2c3a64;fill-opacity:1;fill-rule:nonzero;stroke:none"
         id="path240"
         inkscape:connector-curvature="0" /><path
         d="m 14686.5,9816.74 c -128.5,0 -290,-55.36 -376.7,-139.57 -92,-89.46 -187.8,-94.02 -256,-199.62 -71.1,-110.09 -115.1,-224.47 -79.4,-379.35 39,-169.18 31.1,-332.85 137.3,-457.06 52.7,-61.48 138.3,-68.44 198.1,-124.94 109.7,-103.71 234.4,-136.53 376.7,-136.53 268.2,0 435.2,158.88 572.4,356.87 110,158.63 88.2,265.56 114,401.25 81.3,427.08 -275,678.95 -686.4,678.95"
         style="fill:#35488b;fill-opacity:1;fill-rule:nonzero;stroke:none"
         id="path242"
         inkscape:connector-curvature="0" /><path
         d="m 15064.1,8095.12 -512.7,-262.03 -102.7,355.68 c 0,0 65.3,123.1 94.9,324.74 12.3,84.79 18.5,183.48 10.6,292.78 l 417.7,-213.91 c 0,0 -9.9,-38.61 -16.6,-95.62 -7.1,-61.58 -10.3,-144.64 7.2,-223.52 15.1,-67.73 45.4,-132.39 101.6,-178.12"
         style="fill:#ffb27d;fill-opacity:1;fill-rule:nonzero;stroke:none"
         id="path244"
         inkscape:connector-curvature="0" /><path
         d="m 13876.3,5517.7 c 0,0 -97.4,-1292 -75.7,-3351.1 0,0 117.6,-61.9 259.4,-76 264.8,-26.3 329.3,78.6 329.3,78.6 0,0 270.8,1005 338.5,1457.8 62.4,417.5 472.3,1923.9 472.3,1923.9 l -1323.8,-33.2"
         style="fill:#35488b;fill-opacity:1;fill-rule:nonzero;stroke:none"
         id="path246"
         inkscape:connector-curvature="0" /><path
         d="m 15403,8059.27 c -45.6,21.36 -188.9,79.24 -404,114.64 2.3,-73.71 -17.1,-143.08 -146.4,-160.01 -172.1,-22.43 -326,95 -403.9,174.84 0,-0.01 0,-0.01 0,-0.01 v 0.04 c 0,0 -121.3,-13.02 -262.8,-43.98 -70.8,-15.53 -146.6,-35.56 -214.8,-60.83 -82.6,-30.41 -154,-68.34 -192.1,-115.01 -0.1,-0.02 -0.1,-0.03 -0.1,-0.05 v -0.06 c -132.4,-162.49 -350.2,-651.85 -350.2,-651.85 0,0 362.5,-134.41 454,-212.85 l 2.1,-17.5 56.8,-471.24 -169,-938.7 c -1.5,-8.3 -2.3,-16.5 -2.3,-24.6 0,-62.7 42.9,-119.2 106,-134.3 0,0 14.5,-2.4 41.3,-6.1 179.2,-25.2 906.6,-112 1476.9,42.9 128.2,34.8 212.7,157.2 202.1,289.8 l -93,1166.76 c 49.7,8.52 106.9,17.55 153.5,22.74 38.7,4.19 69.8,5.64 82.7,1.77 0,0 -64.4,911.16 -336.8,1023.6"
         style="fill:#f99746;fill-opacity:1;fill-rule:nonzero;stroke:none"
         id="path248"
         inkscape:connector-curvature="0" /><path
         d="m 14326.8,6327.7 c -7.2,-327.5 -221.8,-712.3 -409.2,-816 -26.8,3.7 -41.3,6.1 -41.3,6.1 -63.1,15.1 -106,71.6 -106,134.3 0,8.1 0.8,16.3 2.3,24.6 l 169,938.7 -56.8,471.24 c 2.8,8.22 4.2,12.59 4.2,12.59 0,0 450.6,-192.93 437.8,-771.53"
         style="fill:#ed7d2b;fill-opacity:1;fill-rule:nonzero;stroke:none"
         id="path250"
         inkscape:connector-curvature="0" /><path
         d="m 15657.1,7033.9 c -47.8,-5.33 -153.8,-22.78 -153.8,-22.78 l -53.6,488.74 c 0,0 179.3,-344.51 207.4,-465.96"
         style="fill:#ed7d2b;fill-opacity:1;fill-rule:nonzero;stroke:none"
         id="path252"
         inkscape:connector-curvature="0" /><path
         d="m 13802.8,5844.3 43.9,243.8 c 743.4,1075.63 799.7,1268.58 465.4,1751.52 -95.8,138.3 -270,224.75 -341,244.34 68.2,25.27 144,45.3 214.8,60.83 70.6,-33.15 135.5,-65.73 185.8,-109.3 1020.4,-883.39 -568.9,-2191.19 -568.9,-2191.19"
         style="fill:#35488b;fill-opacity:1;fill-rule:nonzero;stroke:none"
         id="path254"
         inkscape:connector-curvature="0" /><path
         d="m 14670.9,7224.72 c -291,-20.13 -331.3,-318.42 -331.3,-318.42 0,0 -488.5,-44.3 -560.7,-76.4 0,0 39.6,107.2 110.1,269.31 -63.7,62.63 -273,155.79 -411.6,198.59 -105.7,-269.68 -146.4,-536.6 -87.1,-794 6.3,-27.2 30.2,-46.7 58,-48 155.5,-7.2 669.3,-4.6 1045.4,306.8 l 6.6,1.8 c 90.1,5.4 174.6,94.8 207.1,212.4 32.4,117.59 35,81.65 59.9,164.41 24.9,82.77 -96.4,83.51 -96.4,83.51"
         style="fill:#ffb27d;fill-opacity:1;fill-rule:nonzero;stroke:none"
         id="path256"
         inkscape:connector-curvature="0" /><path
         d="m 14962.5,8273.24 c -237.5,6.35 -418.9,240.27 -418.9,240.27 l 411.7,-16.75 c -7.1,-61.58 -10.3,-144.64 7.2,-223.52"
         style="fill:#e8945b;fill-opacity:1;fill-rule:nonzero;stroke:none"
         id="path258"
         inkscape:connector-curvature="0" /><path
         d="m 14985.1,8416.72 c 0,0 -524.8,-63.96 -536,305.79 -11.2,369.76 207.5,609.26 353.6,606.53 291.1,-5.46 339.1,-123.12 372.9,-245.63 33.7,-122.5 51.1,-640.63 -190.5,-666.69"
         style="fill:#ffb27d;fill-opacity:1;fill-rule:nonzero;stroke:none"
         id="path260"
         inkscape:connector-curvature="0" /><path
         d="m 14844.7,8629.83 c 0,0 11.5,-46.11 126.4,-37.6 0,0 96.5,7.1 93,57.88 0,0 -94.1,35.05 -219.4,-20.28"
         style="fill:#ffffff;fill-opacity:1;fill-rule:nonzero;stroke:none"
         id="path262"
         inkscape:connector-curvature="0" /><path
         d="m 14932.6,9325.61 c 0,0 -448.6,0.27 -345.5,-307.66 65,-194.07 -151,-224.25 -151,-224.25 l -104,311.07 65.1,242.34 535.4,-21.5"
         style="fill:#35488b;fill-opacity:1;fill-rule:nonzero;stroke:none"
         id="path264"
         inkscape:connector-curvature="0" /><g
         id="g266"
         transform="scale(1.33284)"><path
           d="m 15775.9,7143.08 c -83.8,139.25 -135.8,760.88 -196.4,927.38 -38.2,105.24 -140.6,231.01 -129.8,238.82 -109,64.26 -403.8,95.15 -403.8,95.15 0,-0.21 -0.1,-0.42 -0.1,-0.62 -11.4,2.4 -22.9,4.8 -34,6.99 -35.3,7.12 -68.7,27.74 -72.7,63.56 0,1.78 -0.3,3.64 -0.5,5.42 -4.5,44.05 -5.5,89.05 -4.9,128.09 0,0.54 0,1.09 0,1.64 0.9,63.77 5.8,111.1 5.8,111.1 l -1.2,0.14 -382.2,61.44 c -5.1,-119.32 -12,-208.16 -19.4,-274.4 -5.6,-50.68 -46.8,-90.14 -97.7,-93.23 -7.6,-0.4 -15.3,-0.88 -23,-1.43 v 0.07 c 0,0 -246.4,9.59 -340.6,-19.19 -7.5,-2.26 -15.4,-5.6 -24,-9.92 5.7,-6 -907.4,-921.16 -883.8,-1027.16 23.6,-106 424.2,-707.84 569.5,-818.75 h 145.4 c 0,0 -322.3,734.98 -326.5,794.57 -6.1,87.24 810.4,575.42 810.4,664.42 0,32.36 227.6,42.15 376.5,41 157.6,-1.21 454.5,81.13 454.5,81.13 0,0 128.4,-972.53 290.5,-1260.99 127.9,-227.48 692.9,-810.31 692.9,-810.31 l 119.2,105.69 c 0,0 -321,652.12 -524.1,989.39"
           style="fill:#ffb27d;fill-opacity:1;fill-rule:nonzero;stroke:none"
           id="path268"
           inkscape:connector-curvature="0" /></g><g
         id="g270"
         transform="scale(1.20969)"><path
           d="m 16107.4,3746.34 c 76,-748.46 -16.1,-1728.55 -16.1,-1728.55 h -257.9 c -389.3,1024.24 -401.1,1666.8 -423.2,1908.1 -12.2,131.44 -189.7,656.95 -349,1162.37 -133.1,422.01 -253.4,830.11 -254.2,983.01 -1.8,350.41 347.4,912.45 347.4,912.45 0,0 501.6,-193.51 811.2,-384.68 103.3,-63.85 182.5,-126.26 209.5,-179.17 71.7,-140.75 124.9,-1145.45 -66.1,-1759.16 -114.9,-369.52 -56.1,-558.99 -56.1,-558.99 23.9,-107.88 41.6,-228.24 54.5,-355.38"
           style="fill:#c65447;fill-opacity:1;fill-rule:nonzero;stroke:none"
           id="path272"
           inkscape:connector-curvature="0" /></g><g
         id="g274"
         transform="scale(1.20969)"><path
           d="m 16109,4660.71 c -114.9,-369.52 -56.1,-558.99 -56.1,-558.99 23.9,-107.88 41.6,-228.24 54.5,-355.38 l -1046.2,1341.92 c -133.1,422.01 -253.4,830.11 -254.2,983.01 -1.8,350.41 347.4,912.45 347.4,912.45 0,0 501.6,-193.51 811.2,-384.68 103.3,-63.85 182.5,-126.26 209.5,-179.17 71.7,-140.75 124.9,-1145.45 -66.1,-1759.16"
           style="fill:#b2443b;fill-opacity:1;fill-rule:nonzero;stroke:none"
           id="path276"
           inkscape:connector-curvature="0" /></g><g
         id="g278"
         transform="scale(1.20362)"><path
           d="m 15913.3,2027.97 c 0,0 -14.8,-169.08 -36.4,-203.89 -21.8,-34.73 -113.1,-152.12 -217.5,-191.25 -104.3,-39.14 -402.8,-18.86 -426,-127.37 h 1052.1 c 0,0 14.5,162.59 -26,269.6 -40.7,107.01 -87,252.91 -87,252.91 h -259.2"
           style="fill:#2b478b;fill-opacity:1;fill-rule:nonzero;stroke:none"
           id="path280"
           inkscape:connector-curvature="0" /></g><g
         id="g282"
         transform="scale(1.33203)"><path
           d="m 15968.6,1866.85 c 0,0 106.3,-145.27 132.5,-202.85 26.2,-57.66 198.9,-301.57 178,-303.67 -20.9,-2.03 -481.9,0 -481.9,0 0,0 -47.1,115.09 -41.9,193.69 5.2,78.53 -62.9,227.7 -49.7,312.83 13,85.21 263,0 263,0"
           style="fill:#2b478b;fill-opacity:1;fill-rule:nonzero;stroke:none"
           id="path284"
           inkscape:connector-curvature="0" /></g><g
         id="g286"
         transform="scale(1.30494)"><path
           d="m 16300,1905.6 h -268.4 c 0,0 -1046.8,1513.17 -1082.8,1897.93 -45,481.09 -381.1,2380.23 -381.1,2380.23 l 1073.7,334.27 c 0,0 93.8,-241.32 172.5,-484.65 34.2,-106.11 65.6,-212.61 85.1,-299.63 43,-192.09 -78.1,-917.92 -160.6,-1433.95 -40.9,-254.11 -72.3,-457.41 -70.2,-520.94 6.2,-192.5 359.1,-217.48 631.8,-1873.26"
           style="fill:#c65447;fill-opacity:1;fill-rule:nonzero;stroke:none"
           id="path288"
           inkscape:connector-curvature="0" /></g><g
         id="g290"
         transform="scale(1.18982)"><path
           d="m 16300,9722.36 c -0.6,-10.64 -1.3,-21 -2,-31 0.7,10 1.4,20.36 2,31"
           style="fill:#2b478b;fill-opacity:1;fill-rule:nonzero;stroke:none"
           id="path292"
           inkscape:connector-curvature="0" /></g><g
         id="g294"
         transform="scale(1.19)"><path
           d="m 16300,9764.79 c -0.6,-11.36 -1.2,-22.44 -1.8,-33.28 0.6,10.84 1.1,21.92 1.8,33.28"
           style="fill:#2b478b;fill-opacity:1;fill-rule:nonzero;stroke:none"
           id="path296"
           inkscape:connector-curvature="0" /></g><g
         id="g298"
         transform="scale(1.19026)"><path
           d="m 16300,9834.22 c -0.4,-8.35 -0.8,-16.57 -1.2,-24.62 0.4,8.05 0.8,16.27 1.1,24.62 h 0.1"
           style="fill:#2b478b;fill-opacity:1;fill-rule:nonzero;stroke:none"
           id="path300"
           inkscape:connector-curvature="0" /></g><g
         id="g302"
         transform="scale(1.27641)"><path
           d="m 16144.3,6405.2 c 35.8,-107.54 -480.7,-170.41 -1053.9,-162.81 -162,2.13 -312.6,21.84 -436.6,54 -262.4,67.86 -406.8,191.33 -291.6,322.25 32.8,37.23 396.1,557.19 396.1,557.19 21.5,46.54 -1.8,199.11 -112.7,561.64 -45.5,148.24 13.8,240.48 34.9,299.26 0,0 0,0.08 0.1,0.14 7.3,20.45 10.1,36.84 2.3,50.22 -49.6,85.77 -121.3,168.48 -186.2,234.41 -83.3,84.9 -155.6,141.85 -155.6,141.85 0,0 212.7,231.87 331.7,291.47 122.5,-128.46 388.2,-358.6 722,-361.21 288,-2.19 567.8,160.03 738.1,283.09 12.8,-7.52 23.2,-15.52 30.3,-23.9 106.4,-124.86 136.8,-350.15 136.8,-350.15 0,0 -342.5,-188.99 -336.4,-250.53 17,-169.54 33,-219.14 25.6,-279.68 l -0.1,-0.6 c -2.6,-21.25 -8.3,-43.96 -17.7,-73.72 -58.4,-183.47 -184.9,-466.82 -153.3,-562.25 8.2,-24.77 275,-576.24 326.2,-730.67"
           style="fill:#2b478b;fill-opacity:1;fill-rule:nonzero;stroke:none"
           id="path304"
           inkscape:connector-curvature="0" /></g><g
         id="g306"
         transform="scale(1.15235)"><path
           d="m 16280.1,9708.82 c 6.1,1.85 12.8,3.62 19.9,5.17 -7.1,-1.63 -13.9,-3.4 -20,-5.24 l 0.1,0.07"
           style="fill:#ffb27d;fill-opacity:1;fill-rule:nonzero;stroke:none"
           id="path308"
           inkscape:connector-curvature="0" /></g><g
         id="g310"
         transform="scale(1.22541)"><path
           d="m 16268,9177.97 c 8.7,-8.88 19.8,-15.96 32,-21.16 -12.2,5.2 -23.2,12.19 -32,21.16"
           style="fill:#ffb27d;fill-opacity:1;fill-rule:nonzero;stroke:none"
           id="path312"
           inkscape:connector-curvature="0" /></g><g
         id="g314"
         transform="scale(1.22645)"><path
           d="m 16286.2,9149.06 c 4.5,-1.87 9.1,-3.53 13.8,-4.99 -4.7,1.39 -9.3,3.06 -13.8,4.99"
           style="fill:#ffb27d;fill-opacity:1;fill-rule:nonzero;stroke:none"
           id="path316"
           inkscape:connector-curvature="0" /></g><g
         id="g318"
         transform="scale(1.3602)"><path
           d="m 15972.2,6029.93 c 0,0 196.8,-50.95 223.8,-78.44 26.9,-27.48 104,-240.96 76.9,-242.93 -141,-10.26 -215.4,65.41 -215.4,65.41 -85.3,93.85 -212.7,108.83 -206.4,177.52 6.3,68.69 121.1,78.44 121.1,78.44"
           style="fill:#ffb27d;fill-opacity:1;fill-rule:nonzero;stroke:none"
           id="path320"
           inkscape:connector-curvature="0" /></g><g
         id="g322"
         transform="scale(1.13529)"><path
           d="m 16127.4,7675.85 c 0,0 -170.8,-215.7 -170.8,-254.89 0,-39.16 34.6,-202.8 76.1,-205.1 41.5,-2.31 55.3,133.67 87.5,159.02 32.3,25.35 147.6,73.01 163.7,117.16 16.1,44.16 14.2,183.81 14.2,183.81 h -170.7"
           style="fill:#ffb27d;fill-opacity:1;fill-rule:nonzero;stroke:none"
           id="path324"
           inkscape:connector-curvature="0" /></g><g
         id="g326"
         transform="scale(1.22151)"><path
           d="m 15863.1,9296.1 c 197,25.34 436.9,219.51 436.9,219.51 -140,75.94 -261.5,83.27 -355.8,57.18 -22.5,-6.21 -43.5,-14.28 -62.9,-23.85 l -18.2,-252.84"
           style="fill:#e8945b;fill-opacity:1;fill-rule:nonzero;stroke:none"
           id="path328"
           inkscape:connector-curvature="0" /></g><g
         id="g330"
         transform="scale(1.24401)"><path
           d="m 15506.1,9315.5 c 0,0 478.5,-159.68 573.4,139.83 94.9,299.51 220.5,480.61 -81,595.27 -301.5,114.6 -397.4,19.2 -453.3,-73.09 -56,-92.27 -161.1,-612.74 -39.1,-662.01"
           style="fill:#ffb27d;fill-opacity:1;fill-rule:nonzero;stroke:none"
           id="path332"
           inkscape:connector-curvature="0" /></g><g
         id="g334"
         transform="scale(1.19652)"><path
           d="m 16300,9822.22 c 0,0 -18.4,-36.13 -112.2,-6.99 0,0 -78.9,24.44 -66.2,65.98 0,0 84.9,11.07 178.4,-58.99"
           style="fill:#ffffff;fill-opacity:1;fill-rule:nonzero;stroke:none"
           id="path336"
           inkscape:connector-curvature="0" /></g><g
         id="g338"
         transform="scale(1.29074)"><path
           d="m 16182.1,9655.91 c -51.7,66.36 117.9,203.21 -226.6,367.69 -261.3,124.8 -342.2,-64.22 -366.2,-162.8 -155.3,88.68 -408.9,344.1 -570.7,177.7 -193.6,-199.23 16.5,-374.6 16.5,-374.6 73.4,-53.48 109.1,-38.7 216.4,-62.29 107.4,-23.58 38.8,-147.82 47.2,-189.71 8.4,-41.9 81.7,-126.62 181,-83.83 99.2,42.78 87.9,-120.79 -6.6,-154.43 -26.9,-9.59 -54.8,-159.99 -15.8,-166.34 32.8,-5.33 151.1,-6.45 163.2,90.11 7.1,57.32 79.9,87.26 157.2,146.46 53.3,-50.83 128.5,-76.76 169.9,-70.82 61,8.75 61.6,57.69 192.4,144.91 130.7,87.23 93.8,271.6 42.1,337.95"
           style="fill:#c65447;fill-opacity:1;fill-rule:nonzero;stroke:none"
           id="path340"
           inkscape:connector-curvature="0" /></g><g
         id="g342"
         transform="scale(1.16331)"><path
           d="m 16078.5,6908.51 c -287.9,74.48 -446.3,209.94 -320,353.64 36,40.8 434.7,611.36 434.7,611.36 0,0 106.8,-644.26 -114.7,-965"
           style="fill:#233862;fill-opacity:1;fill-rule:nonzero;stroke:none"
           id="path344"
           inkscape:connector-curvature="0" /></g><g
         id="g346"
         transform="scale(1.28069)"><path
           d="m 16300,1414.31 -39.1,4193.04 c 0,0 -33.8,302 -297.3,302 -281.2,0 -297.2,-302 -297.2,-302 0,0 4,-26.1 32.8,-26.1 30.3,0 35.2,26.1 35.2,26.1 0,0 12.5,232.82 229.2,232.82 203.1,0 229.2,-232.82 229.2,-232.82 V 1414.31 h 107.2"
           style="fill:#233862;fill-opacity:1;fill-rule:nonzero;stroke:none"
           id="path348"
           inkscape:connector-curvature="0" /></g><g
         id="g350"
         transform="scale(1.28317)"><path
           d="m 16125.5,1411.59 h 174.5 l -15.5,182.51 c 0,0 1.5,25.33 -33.8,26.74 -32.8,1.4 -97.4,6 -103.6,-13.8 -5.4,-17.38 -21.6,-195.45 -21.6,-195.45"
           style="fill:#233862;fill-opacity:1;fill-rule:nonzero;stroke:none"
           id="path352"
           inkscape:connector-curvature="0" /></g><g
         id="g354"
         transform="scale(1.26821)"><path
           d="m 16118.6,6191.91 -12.1,-60.56 c 0,0 -299.4,1.13 -369.3,-319.68 0,0 -19,-133.5 77.2,-105 96.2,28.51 81.2,96.63 217.6,133.94 136.2,37.33 225,65.91 245.7,165.11 l 22.3,110.4 -181.4,75.79"
           style="fill:#ffb27d;fill-opacity:1;fill-rule:nonzero;stroke:none"
           id="path356"
           inkscape:connector-curvature="0" /></g><g
         id="g358"
         transform="scale(1.33645)"><path
           d="m 16300,8367.04 c 0,0 -75.1,-295.66 -139.9,-565.98 -26.1,-108.89 -50.5,-213.61 -67.7,-293.25 -17.6,-81.85 -27.6,-137.25 -23.8,-143.39 56.4,-91.48 -46.6,-649.25 -128,-851.8 -7.2,-17.96 -17,-39 -28.9,-62.37 -113.9,-223.24 -417.1,-661.4 -417.1,-661.4 0,0 -85.5,-8.95 -141.4,12.16 -46.7,17.69 -78.6,74.74 -78.6,74.74 27.1,43.65 136.8,559.13 278,848.16 60.4,123.65 149.3,1270.82 266.2,1425.28 97.6,128.84 481.2,217.85 481.2,217.85"
           style="fill:#f99746;fill-opacity:1;fill-rule:nonzero;stroke:none"
           id="path360"
           inkscape:connector-curvature="0" /></g><g
         id="g362"
         transform="scale(1.3221)"><path
           d="m 16243,7444.35 c 57,-92.47 -47.1,-656.3 -129.4,-861.04 -7.2,-18.16 -17.2,-39.43 -29.2,-63.05 -110,486.63 72.3,1175.99 72.3,1175.99 45.4,-18.01 82.5,-245.7 86.3,-251.9"
           style="fill:#ed7d2b;fill-opacity:1;fill-rule:nonzero;stroke:none"
           id="path364"
           inkscape:connector-curvature="0" /></g><g
         id="g366"
         transform="scale(1.38451)"><path
           d="m 16272,1735.49 c 0,0 28,-420.58 -51.5,-426.43 -10.5,-0.8 -402.8,-0.8 -402.8,-0.8 h -505.9 c 0,0 8.5,123.58 154.8,149.08 146.4,25.5 391.4,128.35 480.1,321.85 93.3,203.46 325.3,-43.7 325.3,-43.7"
           style="fill:#0f2949;fill-opacity:1;fill-rule:nonzero;stroke:none"
           id="path368"
           inkscape:connector-curvature="0" /></g><g
         id="g370"
         transform="scale(1.44915)"><path
           d="m 16273.3,1658.08 c 0,0 26.7,-401.82 -49.1,-407.41 -10.2,-0.76 -385,-0.76 -385,-0.76 h -483.3 c 0,0 8.1,118.07 148,142.43 139.8,24.36 373.8,122.62 458.5,307.49 89.2,194.39 310.9,-41.75 310.9,-41.75"
           style="fill:#163560;fill-opacity:1;fill-rule:nonzero;stroke:none"
           id="path372"
           inkscape:connector-curvature="0" /></g><g
         id="g374"
         transform="scale(1.40656)"><path
           d="m 16040.6,2706.11 c 12.2,-175.04 37.2,-400.13 28.3,-603.03 -12.5,-283.75 -21.4,-522.98 -21.4,-522.98 -187.1,-63.63 -530.3,13.51 -530.3,13.51 0,0 -121.7,716.99 -222.1,1289.39 -44.9,256.44 -82.2,478.33 -96.2,583.05 -45.1,338.63 48,2139.04 48,2139.04 0,0 506.2,324.41 715.3,157.14 209,-167.19 337.8,-330.65 0.9,-2162.66 -25.6,-138.99 50,-501.37 77.5,-893.46"
           style="fill:#2b478b;fill-opacity:1;fill-rule:nonzero;stroke:none"
           id="path376"
           inkscape:connector-curvature="0" /></g><g
         id="g378"
         transform="scale(1.40656)"><path
           d="m 16040.6,2706.11 c 12.2,-175.04 34.8,-455.23 25.9,-658.13 -175.9,186.27 -522.7,579.14 -771.4,835.02 -44.9,256.44 -82.2,478.33 -96.2,583.05 -45.1,338.63 48,2139.04 48,2139.04 0,0 506.2,324.41 715.3,157.14 209,-167.19 337.8,-330.65 0.9,-2162.66 -25.6,-138.99 50,-501.37 77.5,-893.46"
           style="fill:#233862;fill-opacity:1;fill-rule:nonzero;stroke:none"
           id="path380"
           inkscape:connector-curvature="0" /></g><g
         id="g382"
         transform="scale(1.44898)"><path
           d="m 15244.6,5405.44 c 0,0 44.1,-1749.49 113,-2073.86 69,-324.36 428.8,-1809.27 428.8,-1809.27 0,0 337.3,-30.71 513.6,44.79 0,0 -11.3,687.66 -71,1091.73 -55.9,377.44 -156.1,722.58 -141.8,858.95 189.5,1798.26 52.8,1946.83 -162.2,2093.11 -214.8,146.28 -680.4,-205.45 -680.4,-205.45"
           style="fill:#2b478b;fill-opacity:1;fill-rule:nonzero;stroke:none"
           id="path384"
           inkscape:connector-curvature="0" /></g><g
         id="g386"
         transform="scale(1.43798)"><path
           d="m 16033.1,5292.48 c 0,0 -117.7,-236.32 108.6,-416.91 0,0 98.2,-67.14 113.2,20.1 15.1,87.25 -2.3,56.86 21.4,179.21 23.7,122.35 -6.6,248.87 -77,303.95 l -166.2,-86.35"
           style="fill:#ffb27d;fill-opacity:1;fill-rule:nonzero;stroke:none"
           id="path388"
           inkscape:connector-curvature="0" /></g><g
         id="g390"
         transform="scale(1.38621)"><path
           d="m 15602.1,8481.05 c 0,0 140.9,-214.31 112.9,-414.33 l 208.6,-502.72 376.4,575.51 c 0,0 -198.8,216.45 -273,511.54 l -424.9,-170"
           style="fill:#ffb27d;fill-opacity:1;fill-rule:nonzero;stroke:none"
           id="path392"
           inkscape:connector-curvature="0" /></g><g
         id="g394"
         transform="scale(1.37866)"><path
           d="m 15625.4,8343.69 c 0,0 516.3,-22.35 525.7,287.58 9.3,309.94 148.9,516.11 -237.3,543.35 -317.5,22.4 -423.1,-110.03 -451.4,-212.71 -28.3,-102.69 -28.4,-601.61 163,-618.22"
           style="fill:#ffb27d;fill-opacity:1;fill-rule:nonzero;stroke:none"
           id="path396"
           inkscape:connector-curvature="0" /></g><g
         id="g398"
         transform="scale(1.46353)"><path
           d="m 15909.8,5268.23 c -104.4,-9.73 -248.3,-21.77 -422.8,-32.75 -34.9,-2.18 -71,-4.36 -108.2,-6.42 -527,-29.5 -736.5,55.83 -736.5,55.83 0,0 -13.9,11.28 -9.5,73.18 22.9,318.7 90.5,412.83 82.4,473.4 -18.4,136.12 -348.6,1246.93 -348.6,1246.93 0,0 -6.4,350.9 383.9,515.58 40.2,17.03 84.6,32 133.6,44.42 17.1,-45.42 64,-121.27 183.8,-107.29 177.1,20.65 303.3,125.07 357.4,178.65 9.7,0 13.6,-0.31 13.6,-0.31 13.2,-37.3 23.5,-76.24 32.7,-115.78 32,-137.92 50.8,-283.02 135.4,-391.5 83.5,-107.1 155,-212.72 216,-316.02 50.8,-85.97 94.3,-170.37 131.5,-252.58 345.5,-763.54 78.3,-1353.8 -44.7,-1365.34"
           style="fill:#f99746;fill-opacity:1;fill-rule:nonzero;stroke:none"
           id="path400"
           inkscape:connector-curvature="0" /></g><g
         id="g402"
         transform="scale(1.44187)"><path
           d="m 16148.9,5347.4 c -106,-9.87 -252.1,-22.1 -429.2,-33.24 -51.7,870.69 303.1,1706.95 303.1,1706.95 13.4,-9.38 26,-19.89 38,-31.47 61.8,-60.03 104.9,-149.12 133.5,-256.38 105.7,-394.8 17.3,-1036.21 -45.4,-1385.86"
           style="fill:#ed7d2b;fill-opacity:1;fill-rule:nonzero;stroke:none"
           id="path404"
           inkscape:connector-curvature="0" /></g><g
         id="g406"
         transform="scale(1.36617)"><path
           d="m 15600.2,8718.25 c 0,0 -101.4,-402.38 70.7,-459.05 172.1,-56.67 629.1,-11.26 628.9,482.06 0,0 -239.8,-143.02 -354.3,-139.4 -114.5,3.62 -188.5,69.71 -294.4,18.08 0,0 -38.7,2.57 -50.9,98.31"
           style="fill:#c8d9e8;fill-opacity:1;fill-rule:nonzero;stroke:none"
           id="path408"
           inkscape:connector-curvature="0" /></g><g
         id="g410"
         transform="scale(1.45829)"><path
           d="m 15494.4,7737.23 c 0,0 341.2,-7.68 521.5,-242.23 138.1,-179.72 284.1,-1144.07 284.1,-1289.28 0,-145.2 -155.5,-946.55 -242.5,-1033.62 0,0 -56.4,-14.53 -131.6,0 -79.9,15.41 -126.8,61.59 -126.8,61.59 0,0 43.3,892.17 43.3,975.86 0,121.15 -378.8,862.78 -378.8,862.78 0,0 -196.5,352.94 30.8,664.9"
           style="fill:#f99746;fill-opacity:1;fill-rule:nonzero;stroke:none"
           id="path412"
           inkscape:connector-curvature="0" /></g><g
         id="g414"
         transform="scale(1.38904)"><path
           d="m 16006.2,9010.35 c -8.6,31.4 -47.3,47.89 -47.3,47.89 -288.6,125.71 -499.5,-11.82 -499.5,-11.82 176.9,237.44 603.8,187.59 693.7,-26.58 146.9,-349.69 -121.7,-422.51 -121.7,-422.51 0,0 -268.2,112.68 -112.9,253.96 51.5,46.81 76.4,88.43 84.6,124.64 v 0 0 c 2.8,12.08 3.7,23.56 3.1,34.42"
           style="fill:#c8d9e8;fill-opacity:1;fill-rule:nonzero;stroke:none"
           id="path416"
           inkscape:connector-curvature="0" /></g><g
         id="g418"
         transform="scale(1.32504)"><path
           d="m 16300,8791.55 c 0,0 -9.9,-35.25 -98.3,-26.02 0,0 -74.1,7.73 -70.1,46.74 0,0 73.2,24.8 168.4,-20.72"
           style="fill:#ffffff;fill-opacity:1;fill-rule:nonzero;stroke:none"
           id="path420"
           inkscape:connector-curvature="0" /></g><g
         id="g422"
         transform="scale(1.68606)"><path
           d="M 16282.6,1031.75 H 1472.91 c -9.58,0 -17.42,7.83 -17.42,17.44 v 7.36 c 0,9.6 7.84,17.43 17.42,17.43 H 16282.6 c 9.5,0 17.4,-7.83 17.4,-17.43 v -7.36 c 0,-9.61 -7.9,-17.44 -17.4,-17.44"
           style="fill:#2e3552;fill-opacity:1;fill-rule:nonzero;stroke:none"
           id="path424"
           inkscape:connector-curvature="0" /></g></g></g></svg>