<svg xmlns="http://www.w3.org/2000/svg" height="53" width="445"><path d="M27.988 28.9c.766-5.45 3.532-8.05 6.882-8.05 3 0 4.248 2.15 3.636 6.5L36.446 42h6.65l2.187-15.55c.492-3.5.7-6.4-.742-8.6-1.23-1.9-3.71-3.1-6.66-3.1-4 0-6.68 1.65-9.57 4.75-1.2-3.2-3.78-4.75-7.08-4.75-3.15 0-6.23 1.3-8.82 3.75l.43-3.05H6.18L2.446 42h6.65l1.827-13c.766-5.45 3.546-8.15 6.846-8.15 3.7 0 4.25 3.15 3.53 8.3L19.49 42h6.65l1.84-13.1zm41.828 5.3c-2.103 1.8-4.115 2.6-6.965 2.6-3.8 0-6.49-2.2-6.58-6.15h21.4c.09-.6.18-.9.26-1.5 1.18-8.4-3.67-14.4-12.07-14.4-8.55 0-14.74 6.7-15.76 13.95-1.09 7.8 3.49 14 11.94 14 5.6 0 9.61-1.8 13.02-5.85l-5.23-2.65zm-12.513-8.8c1.77-3.35 4.553-5 7.853-5 3.55 0 6.133 1.9 6.597 5h-14.45zm33.055 6.25c1.717.95 2.697 1.8 2.536 2.95-.17 1.2-1.603 2.15-3.253 2.15-1.75 0-3.81-1.3-5.11-3.1l-4.73 4.5c1.88 3 4.81 4.55 8.66 4.55 5.8 0 10.05-3.55 10.72-8.3.56-3.95-1.47-6.25-5.55-8.5l-2.27-1.25c-1.34-.75-2.23-1.2-2.09-2.2.15-1.05 1.28-1.6 2.63-1.6 1.6 0 2.966.95 4.256 2.45l4.684-4.15c-1.75-2.85-4.68-4.4-8.13-4.4-5.1 0-9.09 3.5-9.676 7.65-.47 3.35 1.316 5.95 5.26 8.1l2.09 1.15zm15.352.15h12.4l.857-6.1h-12.4l-.857 6.1zM143.972 42h6.65l3.732-26.55h-6.65l-.408 2.9c-2.063-2.4-4.644-3.6-7.844-3.6-6.9 0-13.3 5.7-14.468 14-1.145 8.15 3.94 13.95 10.69 13.95 3.35 0 6.02-1.2 8.692-3.5l-.394 2.8zm-4.027-21.15c4.2 0 6.857 3.15 6.204 7.8-.69 4.85-4.32 7.95-8.42 7.95-4.15 0-6.68-3.35-6.04-7.9.61-4.35 3.85-7.85 8.25-7.85zM156.68 42h6.65l3.73-26.55h-6.65L156.68 42zm8.57-37.5c-2.3 0-4.496 1.75-4.82 4.05-.343 2.45 1.155 4.6 3.605 4.6 2.35 0 4.517-1.9 4.847-4.25.337-2.4-1.232-4.4-3.632-4.4zM188.992 42h6.65l5.172-36.8h-6.65l-1.848 13.15c-2.063-2.4-4.644-3.6-7.844-3.6-6.9 0-13.302 5.7-14.468 14-1.145 8.15 3.94 13.95 10.69 13.95 3.35 0 6.018-1.2 8.69-3.5l-.392 2.8zm-4.028-21.15c4.2 0 6.858 3.15 6.204 7.8-.682 4.85-4.317 7.95-8.417 7.95-4.15 0-6.67-3.35-6.04-7.9.62-4.35 3.86-7.85 8.26-7.85zm37.782 13.35c-2.103 1.8-4.116 2.6-6.966 2.6-3.8 0-6.49-2.2-6.585-6.15h21.4c.084-.6.176-.9.26-1.5 1.18-8.4-3.676-14.4-12.076-14.4-8.55 0-14.75 6.7-15.76 13.95-1.1 7.8 3.48 14 11.93 14 5.6 0 9.6-1.8 13.02-5.85l-5.23-2.65zm-12.513-8.8c1.77-3.35 4.552-5 7.852-5 3.55 0 6.133 1.9 6.598 5h-14.45zm33.055 6.25c1.716.95 2.697 1.8 2.535 2.95-.168 1.2-1.602 2.15-3.252 2.15-1.75 0-3.81-1.3-5.11-3.1l-4.73 4.5c1.88 3 4.81 4.55 8.66 4.55 5.8 0 10.05-3.55 10.72-8.3.56-3.95-1.47-6.25-5.55-8.5l-2.27-1.25c-1.34-.75-2.23-1.2-2.09-2.2.15-1.05 1.28-1.6 2.63-1.6 1.6 0 2.967.95 4.256 2.45l4.685-4.15c-1.75-2.85-4.68-4.4-8.13-4.4-5.1 0-9.092 3.5-9.675 7.65-.47 3.35 1.314 5.95 5.26 8.1l2.09 1.15zm17.595 3.4c-2.1 0-4.082 1.65-4.384 3.8-.3 2.1 1.2 3.85 3.3 3.85 2.15 0 4.04-1.75 4.34-3.85.29-2.1-1.17-3.8-3.27-3.8zm39.37-19.6h-6.65l-.408 2.9c-2.17-2.35-4.595-3.6-7.895-3.6-6.75 0-13.158 5.4-14.31 13.6C269.87 36.3 274.67 42 281.82 42c3.45 0 6.012-1.15 8.515-3.3-.352 2.5-.655 4.3-2.466 5.8-1.36 1.1-3.45 1.75-5.9 1.75-2.8 0-4.7-.7-5.83-2.3h-7.35c1.02 5.55 5.27 8.4 12.57 8.4 4.05 0 7.38-.95 10.06-2.95 3.41-2.6 4.9-6.05 5.62-11.2l3.19-22.75zm-14.31 5.4c4.4 0 6.786 3.3 6.182 7.6-.632 4.5-4.097 7.45-8.197 7.45-4.15 0-6.864-3.1-6.246-7.5.576-4.1 3.86-7.55 8.26-7.55zm33.615-6.1c-7.25 0-14.586 5.95-15.717 14-1.09 7.8 4.14 13.95 11.84 13.95 8.1 0 14.94-6.3 16.02-14 1.11-7.85-4.39-13.95-12.14-13.95zm-.785 6.3c4.35 0 6.85 3.2 6.218 7.7-.65 4.65-4.27 7.65-8.37 7.65-4.3 0-6.7-3.2-6.07-7.7.62-4.4 4.08-7.65 8.23-7.65zm18.463 6.55c-.31 2.2-.585 3.45-.537 5.6.17 6.2 3.67 9.45 10.07 9.45 3.7 0 6.59-1 9.02-3.35 3.23-3.1 4.04-6.7 4.73-11.6l1.72-12.25h-6.65L353.6 29.6c-.633 4.5-2.427 6.95-5.977 6.95-3.5 0-4.65-2.5-3.98-7.25l1.945-13.85h-6.65l-1.706 12.15zM373.74 42h4.3l15.032-26.55h-6.75l-8.9 15.65-4.5-15.65h-6.8L373.74 42zm24.154-6.95c-2.1 0-4.082 1.65-4.384 3.8-.295 2.1 1.21 3.85 3.31 3.85 2.15 0 4.045-1.75 4.34-3.85.295-2.1-1.166-3.8-3.266-3.8zm9.276-13.95h2.4L406.632 42h6.65l2.938-20.9h4.2l.794-5.65h-4.2c.612-4 .252-5.35 2.852-5.35.85 0 1.715.25 2.336.45l.717-5.1c-1.05-.4-2.42-.95-4.57-.95-7 0-7.11 5-7.99 10.95h-2.4l-.8 5.65zm22.056-5.65h-5.75L419.746 42h6.65l1.51-10.75c.204-1.45.435-3.1.69-4.55.697-3.9 2.507-6.1 4.407-6.1.7 0 1.407.3 1.872.55l2.85-5.7c-.607-.3-1.4-.7-2.8-.7-2.2 0-4.533 1.3-6.17 4.05l.47-3.35z" fill="#1889b8"/></svg>
