<svg version="1.1" xmlns="http://www.w3.org/2000/svg" viewBox="0 0 701.5 339">
  <!-- svg-source:excalidraw -->
  <defs>
  </defs>
  <rect x="0" y="0" width="701.5" height="339" fill="#ffffff"></rect><g transform="translate(180.5 10) rotate(0 20.5 13)"><text x="0" y="18" font-family="Virgil" font-size="20px" fill="#000000" text-anchor="start">Vous</text></g><g transform="translate(207 72) rotate(0 53 39)"><text x="53" y="18" font-family="Virgil" font-size="20px" fill="#000000" text-anchor="middle">Documents</text><text x="53" y="44" font-family="Virgil" font-size="20px" fill="#000000" text-anchor="middle">de</text><text x="53" y="70" font-family="Virgil" font-size="20px" fill="#000000" text-anchor="middle">référence</text></g><g transform="translate(138.5 189) rotate(0 61.5 26)"><text x="61.5" y="18" font-family="Virgil" font-size="20px" fill="#000000" text-anchor="middle">Aide dans</text><text x="61.5" y="44" font-family="Virgil" font-size="20px" fill="#000000" text-anchor="middle">le simulateur</text></g><g><g transform="translate(200 47) rotate(0 0.5772166758180219 66.3315602295101)"><path d="M-0.2559201948344707 -0.7237248547375201 C-0.5373379223048687 21.694485755016405, -0.43347313329577447 111.0850493463377, -0.522463034838438 133.38684531375765 M1.641806861702353 1.6790212342701851 C1.8490558838285507 23.51990162129824, 1.100170558039099 110.78967377201342, 0.9939994561113417 132.7477459505759" style="stroke: rgb(0, 0, 0); stroke-width: 1px; fill: none;"></path></g><g transform="translate(200 47) rotate(0 0.5772166758180219 66.3315602295101)"><path d="M-10.284532321599194 103.61837738249949 C-6.364137509610378 114.41767210907624, -2.8633671892867767 126.68490775479972, 2.854615443442017 134.54207038959487 M-8.529263984394142 104.17628260758272 C-5.357806016604573 116.35710707709121, -0.29575165179462104 126.65840908508002, 1.4535592152364551 132.15687867892905" style="stroke: rgb(0, 0, 0); stroke-width: 1px; fill: none;"></path></g><g transform="translate(200 47) rotate(0 0.5772166758180219 66.3315602295101)"><path d="M10.236219693587216 103.75526827723826 C6.007662140318926 114.45643005204893, 1.3581996882897034 126.669296703122, 2.854615443442017 134.54207038959487 M11.991488030792269 104.31317350232149 C7.123202070300101 116.29994916243189, 4.146256055871579 126.54762419057586, 1.4535592152364551 132.15687867892905" style="stroke: rgb(0, 0, 0); stroke-width: 1px; fill: none;"></path></g></g><g transform="translate(10 228) rotate(0 33 13)"><text x="0" y="18" font-family="Virgil" font-size="20px" fill="#000000" text-anchor="start">Usager</text></g><g><g transform="translate(91 245) rotate(0 246.70447003766895 1.5731883175671442)"><path d="M0.2748666398227215 0.8875708825886248 C82.57584626202782 1.2415810115635395, 410.67780435408156 1.9273092038929465, 493.1340734355152 2.2588057525455953 M1.772283496018499 1.0566363089717923 C83.92182070906586 1.3741139840520917, 411.10308324292924 0.7145527702011167, 493.13127037739383 1.172387176696211" style="stroke: rgb(0, 0, 0); stroke-width: 1px; fill: none;"></path></g><g transform="translate(91 245) rotate(0 246.70447003766895 1.5731883175671442)"><path d="M466.406293255889 9.952659459319747 C470.5625048936821 10.524038888530661, 478.4743788100547 6.597662884075655, 492.3307470180653 3.1093090302683413 M464.8949900378074 11.835019442719258 C475.228759747712 7.187802371560185, 484.51840105171675 3.847676694776328, 493.02273777915167 0.1953374292142689" style="stroke: rgb(0, 0, 0); stroke-width: 1px; fill: none;"></path></g><g transform="translate(91 245) rotate(0 246.70447003766895 1.5731883175671442)"><path d="M466.4333087173022 -10.568531357752363 C470.6059708704238 -4.98958481843958, 478.51125257362924 -3.908455593201901, 492.3307470180653 3.1093090302683413 M464.92200549922063 -8.686171374352853 C475.14869340388003 -5.992413826604155, 484.4286702051202 -1.9912950822741964, 493.02273777915167 0.1953374292142689" style="stroke: rgb(0, 0, 0); stroke-width: 1px; fill: none;"></path></g></g><g transform="translate(314 77) rotate(0 40 38)"><path d="M36.09479276853846 -0.40591539908152185 C43.53704906221575 -1.7082804681084063, 53.197579909061965 1.0676575924439766, 59.961736169756435 4.96583823275629 C66.7258924304509 8.864018873068604, 73.46872567489396 16.123211649659268, 76.67973033270528 22.983168442792362 C79.89073499051659 29.843125235925456, 80.8633869947579 38.83341296972058, 79.22776411662429 46.12557899155486 C77.59214123849067 53.417745013389144, 72.59378031139818 61.72806194647037, 66.8659930639036 66.73616457379805 C61.13820581640902 71.74426720112572, 52.67516668126726 75.37480726525783, 44.8610406316568 76.17419475552093 C37.04691458204634 76.97358224578403, 27.04793980022437 75.43583646034703, 19.981236766240862 71.53248951537661 C12.914533732257354 67.62914257040619, 5.504182401117475 59.74308938163263, 2.460822427755751 52.75411308569836 C-0.5825375456059732 45.765136789764085, -0.07375718794934016 36.93508910686045, 1.7210769260705163 29.59863173977098 C3.515911040090373 22.262174372681507, 6.950088780260766 13.703719665497207, 13.22982711187489 8.735368883161513 C19.509565443489013 3.76701810082582, 34.02452683662659 1.1408465547885562, 39.39950691575526 -0.21147295424317747 C44.77448699488393 -1.5637924632749112, 45.27652416761339 -0.07553172756547022, 45.4797075866469 0.6214518289711108 M48.1615203384482 0.9424008002681674 C55.53087953496488 2.0275902761878255, 66.05454966132177 7.0471383465439645, 71.41352905066677 12.934441975144182 C76.77250844001176 18.8217456037444, 79.9709846989401 28.823875922689826, 80.31539667451813 36.26622257186947 C80.65980865009615 43.70856922104912, 77.67309679526723 51.46230909160084, 73.48000090413493 57.58852187022205 C69.28690501300262 63.71473464884327, 62.256997269584616 70.03525965644204, 55.156821327724344 73.02349924359676 C48.05664538586407 76.01173883075148, 38.3751690791404 77.34681582151266, 30.878945252973274 75.51795939315038 C23.382721426806146 73.68910296478809, 15.415949640023982 68.16492106508429, 10.17947837072158 62.050360673423015 C4.943007101419177 55.93580028176174, -0.08009820467208267 46.10504302439824, -0.5398823628411407 38.830597043182756 C-0.9996665210101987 31.556151061967274, 3.1235739442573296 24.312989278103988, 7.420773421707231 18.40368478613012 C11.717972899157132 12.494380294156255, 18.12000222700988 6.477234549369491, 25.243314501858272 3.374770091339556 C32.36662677670667 0.272305633309621, 46.13771794283135 -0.0913396542123562, 50.16064707079758 -0.21110196204949006 C54.18357619876381 -0.33086426988662393, 49.84860217652508 1.8291594639683795, 49.38088926965566 2.656196244316753" style="stroke: rgb(0, 0, 0); stroke-width: 1px; fill: none;"></path></g><g transform="translate(345 96) rotate(0 11.5 21.5)"><text x="11.5" y="34" font-family="Helvetica" font-size="36px" fill="#000000" text-anchor="middle">1</text></g><g transform="translate(77 253) rotate(0 40 38)"><path d="M47.420218564918464 0.36681963730526235 C54.940447249854955 1.467290616937257, 64.1263006839022 7.712124246195624, 69.39256835864624 13.214868116548956 C74.65883603339029 18.717611986902288, 78.26214910416232 26.01323476926703, 79.01782461338271 33.38328285942526 C79.77350012260311 40.753330949583486, 77.74908515617632 50.781473672561205, 73.92662141396863 57.435156657498325 C70.10415767176094 64.08883964243545, 63.286733008504626 70.37403288820121, 56.08304216013655 73.305380769048 C48.879351311768474 76.23672864989479, 38.51622066577336 76.84927933798551, 30.70447632376016 75.02324394257906 C22.892731981746962 73.19720854717261, 14.451996659396311 67.78111887272246, 9.212576108057359 62.34916839660931 C3.9731555567184076 56.917217920496164, -0.07890152570576647 49.59787087991127, -0.7320469842735449 42.43154108590018 C-1.3851924428413231 35.26521129188909, 1.0542257653673515 26.050847836035285, 5.293703356650688 19.351189632542752 C9.533180947934024 12.65153142905022, 16.969993575690903 5.120589732217429, 24.704818563426475 2.233591864944991 C32.43964355116204 -0.6534060023274475, 46.31760353922367 1.893483037781292, 51.70265328306411 2.029202428908121 C57.08770302690455 2.1649218200349503, 57.205849867907986 2.5671069016771013, 57.01511702646911 3.047908211705966 M55.52740867071678 2.8884591663738988 C62.362233920082936 4.8571680351673505, 69.71526641728174 10.282876828128504, 74.01206469810813 16.87316199497221 C78.30886297893453 23.463447161815917, 82.17791218445481 34.59907566698176, 81.30819835567517 42.43017016743614 C80.43848452689554 50.261264667890515, 74.1376552995708 58.50160476530999, 68.79378172543032 63.85972899769848 C63.449908151289854 69.21785323008697, 56.64818639652717 72.91146297749798, 49.244956910832364 74.5789155617671 C41.841727425137556 76.24636814603623, 31.806646318106132 76.9315034691809, 24.374404811261485 73.86444450331328 C16.942163304416837 70.79738553744566, 8.444668038379968 62.75822466673299, 4.65150786976448 56.17656176656143 C0.858347701148992 49.59489886638986, 0.8761289953033753 41.57976878096236, 1.6154437995685598 34.37446710228387 C2.3547586038337442 27.169165423605385, 4.132934489809806 18.31905425096597, 9.087396695355586 12.944751694490499 C14.041858900901367 7.57044913801503, 23.57258363088091 3.9670981709816147, 31.342217032843244 2.1286517634310584 C39.111850434805575 0.2902053558805022, 51.877920609184066 1.5823467029450253, 55.705197107129585 1.9140732491871617 C59.532473605075104 2.245799795429298, 54.70544258266553 3.402274461055475, 54.305876020516344 4.119011040883876" style="stroke: rgb(0, 0, 0); stroke-width: 1px; fill: none;"></path></g><g transform="translate(105 273) rotate(0 11.5 21.5)"><text x="11.5" y="34" font-family="Helvetica" font-size="36px" fill="#000000" text-anchor="middle">2</text></g><g transform="translate(358.5 189) rotate(0 89.5 26)"><text x="89.5" y="18" font-family="Virgil" font-size="20px" fill="#000000" text-anchor="middle">Ressources</text><text x="89.5" y="44" font-family="Virgil" font-size="20px" fill="#000000" text-anchor="middle">pour aller plus loin</text></g><g transform="translate(297.5 208) rotate(0 6.5 13)"><text x="6.5" y="18" font-family="Virgil" font-size="20px" fill="#000000" text-anchor="middle">+</text></g><g transform="translate(606.5 222) rotate(0 42.5 26)"><text x="42.5" y="18" font-family="Virgil" font-size="20px" fill="#000000" text-anchor="middle">Bénéfice</text><text x="42.5" y="44" font-family="Virgil" font-size="20px" fill="#000000" text-anchor="middle">de l'aide</text></g><g transform="translate(381 252) rotate(0 40 38)"><path d="M56.8915206912305 3.1069795224019074 C64.10129347168544 6.045199268023293, 72.51694821287141 14.523510386231521, 76.35473962367082 21.227073550644164 C80.19253103447024 27.930636715056806, 81.17243763506684 36.1260935495669, 79.91826915602697 43.32835850887776 C78.66410067698709 50.53062346818862, 74.35573996779566 58.95188573802983, 68.82972874943161 64.44066330650934 C63.30371753106756 69.92944087498884, 54.59068433653157 75.07036479401165, 46.762201845842704 76.2610239197548 C38.93371935515384 77.45168304549796, 28.792884887138094 75.09217979278061, 21.858833805298453 71.58461806096827 C14.924782723458812 68.07705632915592, 8.69216067610966 61.68919429746597, 5.1578953548048645 55.21565352888076 C1.6236300335000684 48.74211276029555, -0.551333508818389 40.047724583336844, 0.6532418774696751 32.74337344945701 C1.8578172637577393 25.439022315577176, 6.900609172180432 16.8675030686355, 12.38534767253325 11.389546725601747 C17.87008617288607 5.911590382567993, 25.28074239802411 0.6063219920389233, 33.56167287958658 -0.12436460874551614 C41.84260336114905 -0.8550512095299556, 56.419369313114764 5.142474141282795, 62.07093056190808 7.00542712089511 C67.7224918107014 8.868380100507425, 67.65155822684022 10.682645423872081, 67.47104037234648 11.053353268928372 M23.678656811659785 2.7566493985370926 C29.965360713655937 -0.864765692429827, 39.382004774613485 -1.0779828472891282, 47.07625833749427 0.6296847617148345 C54.77051190037505 2.337352370718797, 64.48731018897138 7.53129051744324, 69.84417818894448 13.002655052560868 C75.20104618891759 18.474019587678498, 78.18494466830494 26.035657985998103, 79.2174663373329 33.457871972420605 C80.24998800636085 40.880085958843104, 79.69137601406975 50.87612316113421, 76.0393082031122 57.535938971095874 C72.38724039215465 64.19575478105754, 64.57021989003127 70.69322413242465, 57.30505947158764 73.4167668321906 C50.03989905314401 76.14030953195656, 40.227219724903954 75.41211793898452, 32.44834569245044 73.87719516969165 C24.669471659996926 72.34227240039877, 16.194428652587856 69.6588480086763, 10.631815276866561 64.20723021643337 C5.069201901145266 58.75561242419044, 0.04391043415467044 48.89804245254382, -0.9273345618773376 41.167488416234036 C-1.8985795579093456 33.43693437992425, 0.9366147311532362 24.304989808319277, 4.8043453006745125 17.823905998574666 C8.672075870195789 11.342822188830056, 19.0683854572128 4.482178429391395, 22.27904885525032 2.2809855577663782 C25.48971225328784 0.07979268614136226, 23.50628681914464 3.643695054351675, 24.06832568889965 4.616748768824571" style="stroke: rgb(0, 0, 0); stroke-width: 1px; fill: none;"></path></g><g transform="translate(409.5 268.5) rotate(0 11.5 21.5)"><text x="11.5" y="34" font-family="Helvetica" font-size="36px" fill="#000000" text-anchor="middle">3</text></g></svg>
