<svg width="52" height="37" viewBox="0 0 52 37" fill="none" xmlns="http://www.w3.org/2000/svg">
    <path fill-rule="evenodd" clip-rule="evenodd" d="M51.96 27.7005L50.1 29.4004H49.62L50.72 27.4605H51.96V27.7005ZM50.62 34.2795H50.22C49.72 34.8794 49.16 35.3594 48.62 35.3594C48.06 35.3594 47.78 35.0194 47.78 34.2795C47.78 33.9795 47.82 33.6595 47.88 33.3795L51.14 32.2996C51.78 30.7797 51.02 30.1197 50.12 30.1197C48.58 30.1197 46.82 32.8196 46.82 34.9794C46.82 35.9994 47.3 36.5594 48.06 36.5594C48.94 36.5394 49.86 35.6794 50.62 34.2795ZM49.5012 31.0002C49.9412 31.0002 50.3213 31.3402 50.1213 32.1201L48.1012 32.6601C48.4212 31.7002 49.0212 31.0002 49.5012 31.0002ZM43.1421 31.0397H44.2221L42.5021 35.7594C42.3421 36.1594 42.5621 36.5594 42.9821 36.5594C44.2021 36.5594 45.6621 35.5195 46.2221 34.0395H45.9221C45.4821 34.6595 44.5221 35.3395 43.8021 35.4595L45.3821 31.0397H47.0021L47.2021 30.3597H45.6221L46.2221 28.6598H45.6021L44.4821 30.3597L43.1421 30.5397V31.0397ZM41.6409 30.1409C41.8609 30.1409 42.161 30.3809 42.021 30.8208L40.0809 35.5206C40.5809 35.4406 41.1009 34.9606 41.4009 34.5206H41.7209C41.2609 35.7006 40.2209 36.5605 39.3209 36.5605C39.1009 36.5605 38.7809 36.3205 38.9409 35.8805L40.7409 31.1808C40.2409 31.2608 39.7209 31.7408 39.4209 32.1808H39.1209C39.5809 30.9808 40.7009 30.1409 41.6409 30.1409ZM42.2023 28.9404C42.6023 28.9404 42.9423 28.6204 42.9423 28.2005C42.9423 27.8005 42.6023 27.4605 42.2023 27.4605C41.7823 27.4605 41.4623 27.8005 41.4623 28.2005C41.4623 28.6004 41.8023 28.9404 42.2023 28.9404ZM33.4619 32.8407C33.9019 31.8808 33.7419 31.4408 33.4619 31.4408C33.2219 31.4408 32.9418 31.7008 32.6618 32.1808H32.3618C32.8218 31.1608 33.4219 30.1409 34.0819 30.1409C34.6419 30.1409 34.8419 30.7008 34.8419 31.3208V32.2008C34.9319 32.0961 35.0195 31.9932 35.1051 31.8928L35.1067 31.8909L35.108 31.8894C35.9529 30.8979 36.5981 30.1409 37.3419 30.1409C37.9219 30.1409 38.2219 30.5009 38.2219 31.0408C38.2219 31.3608 38.1219 31.7608 37.9019 32.1808L36.2419 35.5206C36.7419 35.4406 37.2619 34.9606 37.5619 34.5206H37.8619C37.4019 35.7206 36.2819 36.5605 35.3419 36.5605C34.9219 36.5605 34.6819 36.1205 34.8619 35.7606L36.7819 32.0608C37.0019 31.6408 37.0419 31.3608 36.7019 31.3608C36.2419 31.3608 35.1619 32.1208 34.5819 32.8207L33.3219 36.1405C33.1819 36.4805 33.0419 36.5605 32.7218 36.5605C32.2018 36.5605 31.9418 36.2205 32.1818 35.6806L33.4619 32.8407ZM32.1604 31.5596C32.3804 30.7997 32.2604 30.1197 31.6803 30.1197C30.957 30.1197 30.7305 30.5974 30.0296 32.0758L29.9803 32.1796V31.2997C29.9803 30.6797 29.7803 30.1197 29.2203 30.1197C28.5603 30.1197 27.9603 31.1397 27.5003 32.1596H27.8003C28.1203 31.6996 28.4203 31.4196 28.6603 31.4196C28.9403 31.4196 29.1003 31.8596 28.6603 32.8196L27.3803 35.6594C27.1403 36.1994 27.4003 36.5394 27.9203 36.5394C28.2403 36.5394 28.3803 36.4594 28.5203 36.1194L29.7803 32.7996C30.1403 32.3596 30.4603 31.9796 30.8603 31.5596H32.1604ZM25.8407 32.1201C26.0407 31.3402 25.6607 31.0002 25.2207 31.0002C24.7407 31.0002 24.1407 31.7002 23.8207 32.6601L25.8407 32.1201ZM26.3395 34.2795H25.9395C25.4395 34.8794 24.8795 35.3594 24.3394 35.3594C23.7794 35.3594 23.4994 35.0194 23.4994 34.2795C23.4994 33.9795 23.5394 33.6595 23.5994 33.3795L26.8595 32.2996C27.4995 30.7797 26.7395 30.1197 25.8395 30.1197C24.2994 30.1197 22.5394 32.8196 22.5394 34.9794C22.5394 35.9994 23.0194 36.5594 23.7794 36.5594C24.6595 36.5394 25.5795 35.6794 26.3395 34.2795ZM19.9415 31.0397H18.8615V30.5397L20.2016 30.3597L21.3216 28.6598H21.9416L21.3416 30.3597H22.9216L22.7216 31.0397H21.1016L19.5215 35.4595C20.2416 35.3395 21.2016 34.6595 21.6416 34.0395H21.9416C21.3816 35.5195 19.9215 36.5594 18.7015 36.5594C18.2815 36.5594 18.0615 36.1594 18.2215 35.7594L19.9415 31.0397ZM13.1424 34.6999C13.1424 33.24 14.7625 31.2801 15.6625 31.2801C15.8625 31.2801 16.0625 31.3001 16.2225 31.3601L15.2825 33.88C14.7425 34.5399 13.9025 35.3399 13.5024 35.3399C13.2824 35.3399 13.1424 35.1399 13.1424 34.6999ZM17.603 29.8203L18.103 29.8603L16.363 33.86C15.943 34.82 16.123 35.2599 16.363 35.2599C16.603 35.2599 16.903 34.98 17.223 34.52H17.523C17.063 35.5399 16.463 36.5599 15.803 36.5599C15.243 36.5599 14.903 35.9599 15.003 34.88L15.043 34.5L14.9341 34.6521C14.2176 35.6536 13.5693 36.5599 12.9029 36.5599C12.3229 36.5599 12.0229 36.1999 12.0229 35.6599C12.0229 33.3401 14.563 30.3802 16.943 30.3802H17.043L17.603 29.8203ZM13.0217 31.5596C13.2417 30.7997 13.1217 30.1197 12.5417 30.1197C11.8183 30.1197 11.5918 30.5974 10.8909 32.0758L10.8417 32.1796V31.2997C10.8417 30.6797 10.6417 30.1197 10.0816 30.1197C9.42163 30.1197 8.82162 31.1397 8.36162 32.1596H8.66162C8.98163 31.6996 9.28163 31.4196 9.50164 31.4196C9.78164 31.4196 9.94164 31.8596 9.50164 32.8196L8.22161 35.6794C7.98161 36.2194 8.24161 36.5594 8.76162 36.5594C9.08163 36.5594 9.22163 36.4794 9.36163 36.1394L10.6217 32.8196C10.9817 32.3796 11.3017 31.9996 11.7017 31.5796H13.0217V31.5596ZM4.78008 35.9582L4.66008 36.3181H0L0.120002 35.9382C1.56003 35.6782 1.80003 35.5582 2.40004 33.9383L3.70006 30.4585C4.28007 28.8386 4.16007 28.7186 2.90005 28.4586L3.02005 28.0986H9.08015L8.72014 30.0385H8.28014C8.28014 28.8786 8.16014 28.5786 7.06012 28.5786H6.78011C5.70009 28.5786 5.56009 28.7386 5.26009 29.5785L4.40007 31.9184H5.66009C6.50011 31.9184 6.82011 31.3984 7.20012 30.7185H7.64013L6.60011 33.5583H6.1601C6.2601 32.6984 6.2601 32.3584 5.48009 32.3584H4.22007L3.64006 33.9583C3.01309 35.6236 3.19225 35.6575 4.68522 35.9402C4.71627 35.9461 4.74789 35.9521 4.78008 35.9582Z" fill="black"/>
    <path fill-rule="evenodd" clip-rule="evenodd" d="M8.73971 12.4005L6.87971 13.7405V13.7605H6.39972L7.49971 12.1605H8.73971V12.4005ZM21.7415 21.7803L24.7214 13.8603L24.6214 13.7403L22.5615 13.9803V14.2203L22.9615 14.5203C23.3029 14.7859 23.2125 15.0335 22.9292 15.8094L22.8815 15.9403L20.6015 22.0203C20.4215 22.3803 20.6615 22.8202 21.0815 22.8202C22.0215 22.8202 23.0215 21.9603 23.4815 20.7803H23.1815C22.8615 21.2203 22.2215 21.7003 21.7415 21.7803ZM35.4 15.6803L37.26 13.9803V13.7403H36.02L34.92 15.6803H35.4ZM35.5187 20.5402H35.9187C35.1787 21.9602 34.2587 22.8202 33.3787 22.8202C32.6187 22.8202 32.1387 22.2602 32.1387 21.2402C32.1387 19.0802 33.8987 16.3803 35.4387 16.3803C36.3187 16.3803 37.0987 17.0403 36.4587 18.5602L33.1787 19.6402C33.1187 19.9202 33.0787 20.2402 33.0787 20.5402C33.0787 21.2802 33.3587 21.6202 33.9187 21.6202C34.4587 21.6202 35.0187 21.1402 35.5187 20.5402ZM35.4177 18.3803C35.6177 17.6203 35.2377 17.2803 34.7977 17.2803C34.3377 17.2803 33.7377 17.9803 33.3977 18.9203L35.4177 18.3803ZM29.5377 17.3198H28.4577V16.8198L29.7977 16.6398L30.9177 14.9398H31.5377L30.9377 16.6398H32.5177L32.3177 17.3198H30.6977L29.1177 21.7398C29.8377 21.6198 30.7977 20.9398 31.2377 20.3198H31.5377C30.9777 21.7998 29.5177 22.8398 28.2977 22.8398C27.8777 22.8398 27.6577 22.4398 27.8177 22.0398L29.5377 17.3198ZM27.3376 17.0798C27.4576 16.6398 27.1776 16.3998 26.9376 16.3998C25.9976 16.3998 24.8776 17.2598 24.4176 18.4398H24.7176C25.0176 17.9998 25.5376 17.5198 26.0376 17.4398L24.2376 22.1398C24.0776 22.5798 24.3976 22.8198 24.6176 22.8198C25.5176 22.8198 26.5576 21.9598 27.0176 20.7798H26.7176C26.4176 21.2198 25.8976 21.6998 25.3976 21.7798L27.3376 17.0798ZM28.2591 14.4803C28.2591 14.8803 27.9191 15.2203 27.5191 15.2203C27.1191 15.2203 26.7791 14.8803 26.7791 14.4803C26.7791 14.0803 27.0991 13.7403 27.5191 13.7403C27.9191 13.7403 28.2591 14.0803 28.2591 14.4803ZM18.1612 17.5603C17.2612 17.5603 15.6412 19.5203 15.6412 20.9802C15.6412 21.4202 15.7812 21.6202 16.0212 21.6202C16.4012 21.6202 17.2412 20.8202 17.7812 20.1603L18.7212 17.6403C18.5412 17.5803 18.3612 17.5603 18.1612 17.5603ZM20.6017 16.1403L20.1017 16.1003L19.5417 16.6603H19.4417C17.0617 16.6603 14.5217 19.6203 14.5217 21.9403C14.5217 22.4803 14.8217 22.8403 15.4017 22.8403C16.0681 22.8403 16.7164 21.934 17.4328 20.9324L17.5417 20.7803L17.5017 21.1603C17.4017 22.2403 17.7417 22.8403 18.3017 22.8403C18.9617 22.8403 19.5617 21.8203 20.0217 20.8003H19.7217C19.4017 21.2603 19.1017 21.5403 18.8617 21.5403C18.6217 21.5403 18.4417 21.1003 18.8617 20.1403L20.6017 16.1403ZM10.5206 22.6205C9.66061 22.9605 9.06062 23.3605 9.06062 23.9804C9.06062 24.5604 9.60062 24.8004 10.7206 24.8004C12.2206 24.8004 13.0406 24.3604 13.0406 23.7805C13.0406 23.5205 12.7006 23.4005 11.8006 23.1005C11.2206 22.9205 10.8006 22.7605 10.5206 22.6205ZM11.5193 20.1604C11.1193 20.1604 10.9793 19.8204 10.9793 19.4604C10.9793 18.3004 11.5393 16.8604 12.4393 16.8604C12.8393 16.8604 12.9793 17.2004 12.9793 17.5604C12.9593 18.7404 12.3993 20.1604 11.5193 20.1604ZM12.2813 22.0402C13.3813 22.3802 14.0613 22.6402 14.0613 23.4002C14.0613 24.3802 12.2613 25.5402 10.0813 25.5202C8.82132 25.5202 7.74133 25.1802 7.74133 24.3602C7.74133 23.5802 8.46132 22.9402 10.2213 22.4202C9.98132 22.2602 9.88132 22.0602 9.88132 21.7802C9.88132 21.3002 10.3213 20.9202 11.0813 20.5602C10.3413 20.4602 9.86132 19.9002 9.86132 19.0802C9.86132 17.8203 10.9013 16.3803 12.5413 16.3803C12.8813 16.3803 13.1813 16.4603 13.4213 16.6203H15.2213L15.0213 17.3003H13.9613C14.0213 17.4803 14.0613 17.6803 14.0613 17.9003C14.0613 19.1202 13.0813 20.5202 11.5213 20.6002C11.1213 20.8202 10.9213 21.1202 10.9213 21.3602C10.9213 21.6427 11.2485 21.7381 11.9715 21.9492C12.0677 21.9772 12.1709 22.0073 12.2813 22.0402ZM5.93998 18.6204C6.71997 18.6204 6.73997 18.9604 6.61998 19.8204H7.05997L8.09997 16.9804H7.65997C7.27997 17.6604 6.95997 18.1804 6.11998 18.1804H4.39998L5.23998 15.8404C5.53998 15.0004 5.67998 14.8404 6.75997 14.8404H7.51997C8.61997 14.8404 8.73997 15.1404 8.73997 16.3004H9.17997L9.53996 14.3604H3.01999L2.89999 14.7204C4.15998 14.9804 4.27998 15.1004 3.69999 16.7204L2.39999 20.2204C1.79999 21.8404 1.55999 21.9604 0.0999996 22.2204L0 22.6004H7.23997L8.53997 20.5404H8.03997C7.19997 21.3604 6.35998 22.1204 4.71998 22.1204C2.91611 22.1204 2.94824 22.0321 3.48949 20.5453C3.52432 20.4496 3.56129 20.348 3.59999 20.2404L4.19998 18.6404H5.93998V18.6204Z" fill="black"/>
    <path fill-rule="evenodd" clip-rule="evenodd" d="M11.9182 1.48037C12.3182 1.48037 12.6582 1.1404 12.6582 0.740431C12.6582 0.340462 12.3182 0.000488281 11.9182 0.000488281C11.4982 0.000488281 11.1782 0.340462 11.1782 0.740431C11.1782 1.1604 11.4982 1.48037 11.9182 1.48037ZM17.8403 3.99965C17.8403 3.03973 17.6003 2.67976 16.9203 2.67976C16.0803 2.67976 15.3003 3.57969 14.5203 4.6596L16.2003 0.159951L16.1003 0.0199616L14.0403 0.259943V0.499924L14.4403 0.799901C14.7886 1.07076 14.6876 1.34161 14.391 2.13755L14.3603 2.21979L12.5403 6.97942C12.3803 7.37939 12.2003 7.85936 12.2003 7.97935C12.2003 8.5393 12.9603 9.07926 13.6603 9.07926C15.2203 9.09926 17.8403 6.21948 17.8403 3.99965ZM35.18 1.95981L37.04 0.259943V0.0199616H35.8L34.7 1.95981H35.18ZM35.3005 6.81947H35.7005C34.9405 8.23936 34.0205 9.09929 33.1405 9.07929C32.3805 9.07929 31.9005 8.53933 31.9005 7.51941C31.9005 5.35958 33.6605 2.65979 35.2005 2.65979C36.0805 2.65979 36.8605 3.31974 36.2205 4.83962L32.9605 5.91954C32.9005 6.19951 32.8605 6.51949 32.8605 6.81947C32.8605 7.55941 33.1405 7.89938 33.7005 7.89938C34.2405 7.89938 34.8005 7.41942 35.3005 6.81947ZM35.1986 4.6597C35.3985 3.89976 35.0186 3.55978 34.5786 3.55978C34.0986 3.55978 33.4986 4.25973 33.1786 5.19966L35.1986 4.6597ZM29.2964 3.60091H28.2164V3.10095L29.5564 2.92097L30.6764 1.2211H31.2964L30.6964 2.92097H32.2764L32.0764 3.60091H30.4564L28.8764 8.02057C29.5964 7.90058 30.5564 7.22063 30.9964 6.60068H31.2964C30.7364 8.08057 29.2764 9.12049 28.0564 9.12049C27.6364 9.12049 27.4164 8.72052 27.5764 8.32055L29.2964 3.60091ZM27.6602 4.12083C27.8802 3.36089 27.7602 2.68095 27.1802 2.68095C26.4569 2.68095 26.2304 3.15864 25.5295 4.637L25.4802 4.74079V3.86085C25.4802 3.2409 25.2802 2.68095 24.7202 2.68095C24.0603 2.68095 23.4603 3.70087 23.0003 4.72079H23.3003C23.6203 4.26082 23.9203 3.98084 24.1403 3.98084C24.4203 3.98084 24.5803 4.42081 24.1403 5.38074L22.8603 8.22052C22.6203 8.76048 22.8803 9.10045 23.4003 9.10045C23.7203 9.10045 23.8603 9.02046 24.0003 8.68048L25.2602 5.36074C25.6202 4.92077 25.9402 4.5408 26.3402 4.12083H27.6602ZM21.3208 4.6597C21.5208 3.89976 21.1408 3.55978 20.7008 3.55978C20.2208 3.55978 19.6408 4.25973 19.3008 5.19966L21.3208 4.6597ZM21.8195 6.81947H21.4195C20.9195 7.41942 20.3595 7.89938 19.8195 7.89938C19.2595 7.89938 18.9796 7.55941 18.9796 6.81947C18.9796 6.51949 19.0196 6.19951 19.0795 5.91954L22.3395 4.83962C22.9795 3.31974 22.2195 2.65979 21.3195 2.65979C19.7795 2.65979 18.0196 5.35958 18.0196 7.51941C18.0196 8.53933 18.4996 9.07929 19.2595 9.07929C20.1395 9.09929 21.0595 8.23936 21.8195 6.81947ZM13.4211 7.58011C13.4211 7.84009 13.8811 8.14007 14.2011 8.14007C15.5011 8.14007 16.7211 5.80025 16.7011 4.50035C16.7011 4.06038 16.4811 3.8804 16.1811 3.8804C15.7011 3.8804 14.8211 4.60034 14.2611 5.28029L13.7411 6.68018C13.5611 7.14014 13.4211 7.50012 13.4211 7.58011ZM11.3215 2.68095C11.5615 2.68095 11.8415 2.92093 11.7215 3.36089L9.80153 8.06053C10.3015 7.98054 10.8215 7.50057 11.1215 7.06061H11.4215C10.9615 8.24051 9.92153 9.10045 9.02154 9.10045C8.78154 9.10045 8.46155 8.86047 8.62155 8.4205L10.4215 3.72086C9.92153 3.80086 9.40154 4.28082 9.10154 4.72079H8.80154C9.26154 3.54088 10.3815 2.68095 11.3215 2.68095ZM3.01996 0.601028H7.3199L7.1999 0.980998C5.73992 1.24098 5.49992 1.36097 4.89993 2.98084L3.61995 6.50057C2.99996 8.18044 3.15996 8.38043 4.25994 8.38043C5.61896 8.38043 6.51009 7.39272 7.2882 6.53027C7.34601 6.4662 7.40319 6.40282 7.45989 6.34058H7.95989L6.53991 8.86039H0L0.119998 8.50042C1.55998 8.24044 1.79997 8.12045 2.39997 6.50057L3.69995 2.96085C4.27994 1.34097 4.15994 1.22098 2.89996 0.961L3.01996 0.601028Z" fill="black"/>
</svg>
