<svg viewBox="0 0 230 60" xmlns="http://www.w3.org/2000/svg"><g id="Page-1" stroke="none" stroke-width="1" fill="none" fill-rule="evenodd"><g id="bouton-fc-standard" fill-rule="nonzero"><path d="M2.235 0C.828 0 0 1.25 0 2.667V57.5C0 58.917.828 60 2.235 60h225.448c1.407 0 2.317-1.083 2.317-2.5V2.667C230 1.25 229.09 0 227.683 0H2.235z" id="Fond" fill="#034EA2"/><g id="Typo" transform="translate(78 13)" fill="#FFF"><path d="M7.489 13.256c-.861.516-2.066.688-3.357.688-.861 0-2.066 0-3.271-.172v-1.55c1.033.087 2.066.173 3.098.173.861 0 1.722-.086 2.238-.344.69-.259 1.033-.947 1.033-1.808 0-1.119-.516-1.635-1.635-1.98-.689-.258-1.377-.43-2.066-.602C1.808 7.144.775 6.197.775 4.304c0-1.12.43-2.238 1.377-2.84.947-.603 1.98-.69 3.185-.69.86 0 1.893.087 3.012.173V2.41c-1.033-.086-2.065-.172-2.84-.172-.775 0-1.463 0-1.98.258-.688.345-.947 1.033-.947 1.722 0 1.033.517 1.55 1.464 1.893.602.173 1.29.345 2.065.603 1.894.516 2.927 1.463 2.927 3.529-.086 1.119-.516 2.324-1.55 3.013m3.272-7.833A40.96 40.96 0 0012.394.516h1.808c-.517 1.808-1.292 3.53-1.894 4.907h-1.55z" id="Path"/><path d="M16.613.43h1.807v1.722h-1.807V.43zm1.635 13.256h-1.55V4.39h1.636l-.086 9.296zm9.641 0l-.086-.516c-1.033.344-2.152.774-3.271.774-1.033 0-1.894-.344-2.583-1.033-.86-.86-1.205-2.152-1.205-3.873 0-1.808.603-3.27 1.55-4.046.774-.602 1.807-.86 3.012-.86.775 0 1.636.172 2.238.43V.516h1.636v13.17h-1.291zm-.259-1.721V5.939a5.54 5.54 0 00-2.065-.43c-2.066 0-3.1 1.033-3.1 3.529s1.034 3.53 2.497 3.53c.947 0 1.808-.345 2.668-.603m8.264 1.979c-1.033 0-2.152-.258-2.927-1.033-.86-.946-1.205-2.238-1.205-3.873 0-1.55.344-3.013 1.377-3.873.775-.603 1.636-.947 2.927-.947 1.033 0 2.066.258 2.84.947 1.12.946 1.205 2.41 1.205 4.303h-6.714c.087 2.152 1.033 3.185 2.841 3.185 1.119 0 2.238-.258 3.53-.516v1.29c-1.206.173-2.583.517-3.874.517m.086-8.607c-1.808 0-2.41 1.119-2.496 2.926h4.992c-.086-1.98-.775-2.926-2.496-2.926" id="Shape"/><path d="M49.235 13.686v-5.94c0-1.635-.86-2.237-2.238-2.237-.774 0-1.635.258-2.754.602V13.6h-1.635V4.39h1.377l.086.516c1.119-.344 2.324-.774 3.443-.774 1.033 0 1.98.258 2.668 1.033.603.688.689 1.549.689 2.582v5.94h-1.636zm7.747.258c-1.033 0-2.066-.344-2.496-1.55-.258-.688-.344-1.548-.344-2.495V5.767h-1.55V4.476h1.55l.172-2.84h1.463v2.84h2.755v1.291h-2.755v3.96c0 .688 0 1.29.172 1.807.173.775.603 1.12 1.464 1.12.43 0 .946-.087 1.377-.173v1.291c-.603 0-1.291.172-1.808.172" id="Path"/><path d="M60.942.43h1.807v1.722h-1.807V.43zm1.635 13.256h-1.55V4.39h1.636l-.086 9.296z" id="Shape"/><path d="M72.046 13.686V5.767h-4.304v7.92h-1.636v-7.92h-1.549V4.476h1.55c0-1.377.258-2.496 1.118-3.27C68 .515 69.12.343 70.668.343c.861 0 1.722.086 2.497.172v1.206c-.775-.087-1.636-.173-2.497-.173-2.41 0-2.926.861-2.926 2.755h5.939V13.6h-1.635v.086z" id="Path"/><path d="M80.309 13.944c-1.033 0-2.152-.258-2.927-1.033-.86-.946-1.205-2.238-1.205-3.873 0-1.55.345-3.013 1.377-3.873.775-.603 1.636-.947 2.927-.947 1.033 0 2.066.258 2.84.947 1.12.946 1.206 2.41 1.206 4.303h-6.714c.086 2.152 1.033 3.185 2.84 3.185 1.12 0 2.238-.258 3.53-.516v1.29c-1.206.173-2.583.517-3.874.517m.086-8.607c-1.808 0-2.41 1.119-2.496 2.926h4.992c-.086-1.98-.775-2.926-2.496-2.926" id="Shape"/><path d="M87.109 13.686V4.39h1.377l.086.602c1.377-.516 2.152-.86 3.271-.86h.172v1.463h-.344c-.947 0-1.636.172-2.927.602v7.49H87.11z" id="Path"/><path d="M105.185 13.686v-.516c-1.205.344-2.238.774-3.357.774-.775 0-1.55-.172-2.152-.774-.603-.517-.86-1.205-.86-2.152 0-.947.343-1.894 1.29-2.41.689-.345 1.464-.43 2.41-.43.69 0 1.636.085 2.497.171v-.43c0-1.808-.775-2.41-2.84-2.41-.776 0-1.55.086-2.325.172V4.304c.86-.086 1.722-.172 2.582-.172 1.205 0 2.497.086 3.271.946.775.775.947 1.722.947 3.1v5.594h-1.463v-.086zm-.258-4.218c-.775-.086-1.722-.086-2.41-.086-1.636 0-2.239.603-2.239 1.636 0 .947.69 1.635 1.894 1.635.86 0 1.808-.258 2.755-.602V9.468z" id="Shape"/><path id="Path" d="M111.727 13.686L108.11 4.39h1.808l2.754 7.66h.086l2.755-7.66h1.721l-3.615 9.296z"/><path d="M122.228 13.944c-1.033 0-2.152-.258-2.927-1.033-.86-.946-1.205-2.238-1.205-3.873 0-1.55.345-3.013 1.377-3.873.775-.603 1.636-.947 2.927-.947 1.033 0 2.066.258 2.84.947 1.12.946 1.206 2.41 1.206 4.303h-6.714c.086 2.152 1.033 3.185 2.84 3.185 1.12 0 2.238-.258 3.53-.516v1.29c-1.206.173-2.583.517-3.874.517m.086-8.607c-1.808 0-2.41 1.119-2.496 2.926h4.992c-.086-1.98-.688-2.926-2.496-2.926" id="Shape"/><path d="M132.127 13.944c-.947 0-1.98-.258-2.669-1.033-.86-.946-1.205-2.238-1.205-3.873 0-1.55.43-3.185 1.636-4.046.86-.688 1.98-.86 3.098-.86.689 0 1.378.086 2.238.172V5.68c-.688-.086-1.377-.172-2.066-.172-2.237 0-3.098 1.119-3.098 3.529 0 2.152.86 3.53 2.668 3.53.775 0 1.808-.26 2.668-.517v1.377c-1.119.258-2.238.516-3.27.516M3.615 28.75v4.992H1.463V21.175h8.178v1.721H3.615v4.132h5.25v1.721zm8.78 4.992v-9.296h1.721l.087.602c1.29-.516 2.151-.86 3.356-.86h.259v1.807h-.603c-.86 0-1.635.172-2.84.602v7.23h-1.98v-.085z" id="Path"/><path d="M25.478 33.742v-.517c-1.205.43-2.237.775-3.443.775-.774 0-1.549-.172-2.151-.775-.603-.516-.861-1.205-.861-2.152 0-1.032.344-1.98 1.377-2.496.689-.344 1.463-.43 2.41-.43.689 0 1.636 0 2.41.172v-.344c0-1.636-.602-2.152-2.668-2.152-.775 0-1.636.086-2.41.172v-1.55c.86-.086 1.893-.172 2.754-.172 1.291 0 2.582.173 3.443.861.861.775.947 1.808.947 3.099v5.595h-1.808v-.086zm-.258-4.132c-.688-.086-1.55-.086-2.152-.086-1.549 0-2.065.517-2.065 1.463 0 .861.602 1.55 1.721 1.55.775 0 1.635-.259 2.496-.517v-2.41z" id="Shape"/><path d="M37.443 33.742v-5.853c0-1.55-.775-2.066-2.066-2.066-.688 0-1.55.172-2.496.602v7.317h-1.98v-9.296h1.722l.086.516c1.205-.344 2.324-.775 3.443-.775 1.033 0 1.98.259 2.668 1.033.603.689.775 1.55.775 2.669v5.853h-2.152zm8.694.258c-.947 0-1.98-.258-2.755-1.033-.86-.86-1.205-2.238-1.205-3.787 0-1.55.43-3.099 1.636-4.046.86-.688 1.98-.86 3.184-.86.69 0 1.464.085 2.325.172v1.635c-.603-.086-1.378-.086-2.066-.086-2.066 0-2.927 1.033-2.927 3.27 0 1.98.775 3.272 2.496 3.272.775 0 1.808-.259 2.669-.517v1.55c-1.205.172-2.324.43-3.357.43" id="Path"/><path d="M55.26 34c-1.032 0-2.151-.258-3.012-1.033-.86-.86-1.205-2.238-1.205-3.873 0-1.55.344-3.013 1.377-3.96.775-.688 1.722-.947 3.013-.947 1.033 0 2.152.259 2.926.947 1.12 1.033 1.292 2.41 1.292 4.39h-6.542c0 1.98.947 2.927 2.668 2.927 1.12 0 2.324-.259 3.53-.517v1.55c-1.206.172-2.669.516-4.046.516m.172-8.435c-1.636 0-2.152 1.032-2.238 2.668h4.562c-.086-1.808-.689-2.668-2.324-2.668" id="Shape"/><path d="M67.14 34c-1.292 0-2.67-.344-3.616-1.377-1.205-1.205-1.635-3.013-1.635-5.165 0-2.066.602-4.131 2.152-5.423 1.205-.946 2.668-1.119 4.217-1.119.947 0 1.894.087 2.927.173v1.807c-.86-.086-1.894-.172-2.755-.172-3.27 0-4.39 1.808-4.39 4.734 0 2.84 1.206 4.648 3.702 4.648 1.119 0 2.496-.344 3.615-.688v1.807c-1.377.43-2.84.775-4.218.775" id="Path"/><path d="M74.972 33.053c-.947-.775-1.377-2.152-1.377-3.96 0-1.807.43-3.098 1.377-3.959.86-.775 1.98-.947 3.271-.947 1.205 0 2.324.259 3.27.947.948.775 1.378 2.152 1.378 3.874 0 1.807-.43 3.098-1.377 3.96-.86.774-2.066.946-3.271.946-1.205.086-2.41-.172-3.27-.86m5.852-3.96c0-2.238-.774-3.357-2.582-3.357-1.894 0-2.582 1.033-2.582 3.27 0 2.239.774 3.444 2.582 3.444 1.894 0 2.582-1.033 2.582-3.357" id="Shape"/><path d="M92.36 33.742v-5.853c0-1.55-.775-2.066-2.066-2.066-.689 0-1.55.172-2.497.602v7.317h-1.98v-9.296h1.722l.086.516c1.205-.344 2.324-.775 3.443-.775 1.033 0 1.98.259 2.669 1.033.602.689.774 1.55.774 2.669v5.853H92.36zm12.222 0v-5.853c0-1.55-.774-2.066-2.066-2.066-.688 0-1.549.172-2.496.602v7.317h-1.98v-9.296h1.722l.086.516c1.205-.344 2.324-.775 3.443-.775 1.033 0 1.98.259 2.668 1.033.603.689.775 1.55.775 2.669v5.853h-2.152z" id="Path"/><path d="M113.448 34c-1.033 0-2.152-.258-3.013-1.033-.86-.86-1.205-2.238-1.205-3.873 0-1.55.345-3.013 1.378-3.96.774-.688 1.721-.947 3.012-.947 1.033 0 2.152.259 2.927.947 1.119 1.033 1.291 2.41 1.291 4.39h-6.542c0 1.98.947 2.927 2.669 2.927 1.119 0 2.324-.259 3.529-.517v1.55c-1.205.172-2.669.516-4.046.516m.172-8.435c-1.635 0-2.152 1.032-2.238 2.668h4.562c-.172-1.808-.774-2.668-2.324-2.668" id="Shape"/><path d="M124.035 34c-.946 0-1.98-.258-2.754-1.033-.86-.86-1.205-2.238-1.205-3.787 0-1.55.43-3.099 1.635-4.046.861-.688 1.98-.86 3.185-.86.689 0 1.463.085 2.324.172v1.635c-.602-.086-1.377-.086-2.066-.086-2.065 0-2.926 1.033-2.926 3.27 0 1.98.775 3.272 2.496 3.272.775 0 1.808-.259 2.668-.517v1.55c-1.119.172-2.324.43-3.357.43m9.211 0c-1.033 0-1.98-.344-2.497-1.463-.344-.689-.43-1.55-.43-2.583v-3.96h-1.463v-1.548h1.463l.258-2.84h1.808v2.84h2.668v1.549h-2.668v3.615c0 .689 0 1.291.172 1.722.172.688.602.946 1.377.946.43 0 .947-.086 1.377-.172v1.55c-.774.172-1.463.344-2.065.344" id="Path"/></g><g id="Symbole" transform="translate(15 3)"><path id="Hexagone" fill="#FFF" d="M0 14.186v26.961l23.96 13.52L48 41.147V14.186L23.96.666z"/><g id="Mosaique" transform="translate(5 5.667)"><path id="Path" fill="#034EA2" d="M31.722 21.959l-6.857-11.85L19 0v44l19-11.02z"/><path id="Path" fill="#0069CC" d="M24.865 10.128L31.722 22 38 11.042l-7.683-4.484z"/><path id="Path" fill="#ED1C24" d="M30.317 6.558L19 0l5.865 10.128z"/><path id="Path" fill="#0069CC" d="M24.865 10.128L19 0z"/><path id="Path" fill="#ED1C24" d="M38 33.042v-22L31.722 22z"/><path id="Path" fill="#0069CC" d="M6.36 21.959l6.857-11.85L19 0v44L0 32.98z"/><path id="Path" fill="#ED1C24" d="M13.217 10.128L6.361 22 0 11.042l7.683-4.484z"/><path id="Path" fill="#034EA2" d="M7.683 6.558L19 0l-5.783 10.128zM0 33.042v-22L6.36 22z"/></g><g id="Marianne" transform="translate(3 16.667)"><path d="M26.246 13.21c.339 0 .677-.085 1.016 0 .253.085.592.085.592.17-.085.51-.846.595-1.185 1.105H26.5c-.17.085-.085.425-.254.425-.17-.085-.338 0-.592.085.254.255.592.425.93.34.085 0 .17.085.17.255 0 0 .084 0 .084-.085.085 0 .085 0 .085.085v.255c-.17.255-.508.17-.761.17a4.081 4.081 0 001.438 0c.338-.17 0-.765.254-1.02-.085 0 0-.17-.17-.17.085-.085.254-.34.34-.34.084 0 .338-.085.338-.17s-.254-.17-.17-.34c.339-.255.677-.595.508-1.02-.085-.17-.592-.17-.846-.255-.339-.085-.677 0-1.016.085-.338 0-.592.17-.93.255-.423.17-.762.425-1.185.68.592-.255 1.015-.34 1.523-.51z" id="Path" fill="#034EA2"/><path d="M32.232 16.77c-.17-.337-.426-.589-.682-.925-.256-.42-.597-.757-.682-1.262-.17-.504 0-.925 0-1.43 0-.924-.256-1.85-.512-2.69-.17-.42-.256-.925-.426-1.346-.085-.252-.17-.504-.341-.757-.085-.084-.085-.336 0-.42.256-.168.511-.42.682-.589.17-.336 0-.757-.256-.925-.426-.168-.34.42-.682.589h-.17c-.086-.168.085-.253.17-.337 0-.084 0-.168-.085-.168-.256 0-.512-.084-.597-.168-.682-.84-1.535-1.261-2.473-1.598.256.084.512.084.767.084.427.084.938 0 1.28-.168.34-.168.34-.589.426-.925.085-.084 0-.168 0-.336s-.17-.337-.256-.505c0 0-.085-.084-.17-.252-.683-.757-3.326-2.943-8.272-2.607-2.132.168-4.775.757-7.845 2.27-.085 0-.17.085-.34.085-.512.252-1.194.672-1.62 1.177-.512.589-.939 1.261-1.11 2.018-.767.505-1.278 1.262-1.705 2.018-.511 1.01-1.194 1.85-1.194 2.944v.168c.086.336.086.589.171.925.17.673.341 1.345.426 2.018l.256 1.01c.17.336 0 .756.256 1.093.085.168.085.42.341.504v.252c.085.085.085.085.17.085v.252c.512.588 1.11 1.093 1.45 1.766.17.336-.597.168-.938.084-.597-.252-1.023-.757-1.535-1.177l-.085.084c.256.42 1.194.925.682 1.261-.256.168-.597-.168-.767.084-.085.084 0 .252 0 .337-.341-.253-.768-.085-1.109-.253-.256-.084-.34-.504-.597-.504-.767-.168-1.534-.337-2.387-.337h-.17c-.768-.084-1.536-.168-2.218-.084v.841c.682-.168 1.365-.336 2.047-.336h.17c.17 0 .427-.084.597 0-.256 0-.597 0-.853.084-.682.084-1.364.336-2.046.589v.84c.341.085.767.085 1.109.169.426.084.852.168 1.279.336.596.168 1.023.42 1.534.673.256.168.342.336.597.504.341.169.768.169 1.024 0h.34c.939-.252 1.877-.504 2.473-1.261 0 .084.086.084.086.084-.17.505-.17 1.01-.512 1.514 0 .084-.085.168.085.252h.086c-.086 0-.086 0-.086.084s.17 0 .256.084c-.34.084-.597.168-.767.42 0 .085.085.085.17.085-.085.084-.34.084-.34.168l.085.084c-.086 0-.086 0-.086.084v.168c-.17 0-.256.169-.34.169.255.168.426 0 .681 0-.682.252-1.193.672-1.876.84-.085 0 0 .169-.085.169.17.084.341-.084.512-.084-.341.252-.682.42-1.024.588l2.047 1.178c.853-.505 1.62-1.094 2.302-1.85l.086.084c-.171.588-.512 1.009-1.024 1.43-.34.167-.597.504-.852.588l1.534.84c.342-.251.597-.42 1.024-.588.085 0 .17.084.34.084.512-.504 1.11-1.093 1.962-.925 0 .084 0 .084.085.084 0 0 .086 0 .086-.084 0 .084 0 .084-.086.084-.256.169-.426.337-.682.505-.085.084 0 .084.085.084.341-.168.512-.336.768-.505-.085.085-.085.169-.085.253a13.627 13.627 0 00-1.962 1.85L18.93 33c.256-.336.597-.84.938-1.261 1.535-2.187 3.752-5.13 4.434-5.803.256-.168.512-.168.853-.252 1.023 0 2.131.252 3.155.336.085 0 .256.084.34.084.342.084.768 0 1.195-.084.426-.168.938-.42 1.108-.925.17-.42.256-.925 0-1.345-.426-.505.341-.757.597-1.094.17-.336-.17-.504-.17-.756-.086-.085-.342-.085-.427-.253.426-.168 1.109-.588.768-1.093-.171-.336-.512-.757-.171-1.093.426-.253 1.109-.253 1.28-.673.51-.84-.257-1.43-.598-2.018zm-2.643-3.028c-.085.084.17.169.17.337-.085.084-.255.168-.34.168l-.342.336c.085 0 0 .168.17.168-.255.337.171.926-.255 1.01-.426.168-.938.168-1.45 0 .256-.084.597.084.768-.169v-.252c0-.084-.086-.084-.086-.084l-.085.084c0-.084-.17-.252-.17-.252-.341.084-.683-.084-.938-.337.17-.084.34-.168.597-.084.17 0 .085-.336.255-.42h.17c.342-.505 1.11-.673 1.195-1.093 0-.084-.341-.084-.597-.169-.341-.084-.682 0-1.023 0-.512.169-.938.169-1.365.421a5.457 5.457 0 011.194-.673c.341-.084.597-.252.938-.252.341-.084.767-.168 1.023-.084.341.084.768.084.853.252a1.638 1.638 0 01-.682 1.093z" id="Shape" fill="#FFF"/></g></g></g></g></svg>