<?xml version="1.0" encoding="UTF-8"?>
<svg width="282" height="168" viewBox="70 34 142 100" fill="none" xmlns="http://www.w3.org/2000/svg">
<path d="M157.361 71.1065L131.497 56.1025L105.632 71.2518C105.472 71.3429 105.339 71.4747 105.247 71.6338C105.154 71.7929 105.105 71.9736 105.104 72.1578V101.464C105.114 101.646 105.167 101.823 105.259 101.981C105.351 102.138 105.479 102.272 105.632 102.37L131.493 117.241L157.358 102.187C157.511 102.088 157.639 101.955 157.731 101.797C157.823 101.64 157.876 101.463 157.886 101.28V72.0195C157.887 71.8344 157.839 71.6524 157.746 71.492C157.654 71.3316 157.521 71.1986 157.361 71.1065Z" fill="#000091"/>
<path d="M122.256 71.9711L113.581 86.8903L105.72 71.0252L115.018 65.6423L122.761 71.1065L122.256 71.9711ZM157.887 101.332V72.0091C157.887 71.825 157.838 71.6442 157.746 71.4853C157.653 71.3263 157.52 71.195 157.359 71.1048L131.497 56.1025" fill="#FCC63A"/>
<path d="M105.108 101.332L131.5 56.1025V117.249L105.632 102.37C105.479 102.272 105.351 102.138 105.259 101.981C105.167 101.823 105.114 101.646 105.104 101.464V72.1578L105.108 101.332ZM147.662 65.4781L157.077 70.9336L149.333 86.7555L140.04 70.7849L147.662 65.4781Z" fill="#0063CB"/>
<path d="M165.32 66.2735L132.218 47.2181C131.995 47.1068 131.749 47.0488 131.5 47.0488C131.251 47.0488 131.005 47.1068 130.782 47.2181L97.6797 66.2735C97.4804 66.4065 97.3151 66.5845 97.197 66.7932C97.079 67.002 97.0115 67.2356 97 67.4753V105.517C97.0102 105.758 97.077 105.993 97.1951 106.204C97.3132 106.414 97.4793 106.594 97.6797 106.727L130.781 125.783C131.004 125.894 131.249 125.952 131.498 125.952C131.747 125.952 131.993 125.894 132.216 125.783L165.32 106.727C165.521 106.594 165.687 106.414 165.805 106.204C165.923 105.993 165.99 105.758 166 105.517V67.4753C165.989 67.2356 165.921 67.002 165.803 66.7932C165.685 66.5845 165.52 66.4065 165.32 66.2735ZM115.611 96.9766H115.747C115.675 96.9766 115.611 96.9887 115.611 97.063C115.611 97.2359 115.872 97.063 115.956 97.2359C115.546 97.2472 115.157 97.4184 114.871 97.7132C114.871 97.8014 115.044 97.8014 115.131 97.8014C115.002 97.9743 114.742 97.8878 114.654 98.0625C114.7 98.1092 114.761 98.1396 114.826 98.1489C114.74 98.1489 114.654 98.1489 114.654 98.2371V98.4982C114.436 98.4982 114.35 98.6712 114.176 98.7593C114.521 99.0204 114.74 98.7593 115.087 98.7593C114.176 99.1052 113.438 99.5859 112.527 99.847C112.354 99.847 112.527 100.108 112.354 100.108C112.615 100.281 112.746 100.022 113.005 100.022C111.876 100.674 110.705 101.232 109.491 101.979C109.397 102.072 109.337 102.194 109.318 102.325H108.973C108.801 102.411 108.887 102.629 108.713 102.804C109.103 103.065 109.575 102.458 109.841 102.804C109.927 102.804 109.668 102.89 109.496 102.89C109.41 102.89 109.41 103.063 109.323 103.063H109.058C108.885 103.193 108.713 103.281 108.713 103.54C108.638 103.527 108.561 103.536 108.491 103.567C108.422 103.597 108.363 103.649 108.323 103.713C110.176 103.706 112.012 103.368 113.746 102.714C115.091 102.027 116.309 101.116 117.348 100.018C117.395 100.065 117.425 100.126 117.434 100.191C117.181 100.946 116.694 101.6 116.044 102.059C115.566 102.32 115.219 102.71 114.837 102.885C114.581 103.029 114.334 103.188 114.098 103.362C113.008 103.703 111.888 103.941 110.753 104.075L110.227 104.151C109.839 104.208 109.453 104.27 109.07 104.338L105.632 102.37C105.506 102.29 105.397 102.187 105.312 102.065C105.227 101.943 105.167 101.805 105.135 101.659C105.193 101.628 105.247 101.592 105.297 101.55C105.244 101.493 105.177 101.451 105.102 101.427V100.303C106.91 99.9813 108.67 99.4341 110.343 98.6746C108.761 97.5723 106.982 96.784 105.104 96.3523V93.7327C106.062 93.89 107.006 94.1165 107.931 94.4105C108.643 94.6727 109.327 95.0076 109.97 95.4099C110.223 95.6537 110.499 95.8721 110.795 96.0618C111.003 96.1809 111.236 96.2506 111.475 96.2656C111.714 96.2806 111.953 96.2405 112.175 96.1483H112.744C113.98 95.9435 115.136 95.4022 116.085 94.5834C116.085 94.6699 116.172 94.6699 116.258 94.6699C116.123 95.3591 115.873 96.0208 115.52 96.6273C115.525 96.7155 115.437 96.8901 115.611 96.9766ZM120.47 103.151C120.903 102.979 121.16 102.672 121.555 102.5C121.469 102.586 121.469 102.761 121.383 102.845C121.059 103.048 120.754 103.28 120.472 103.537C119.496 104.399 118.583 105.329 117.738 106.321C117.303 106.84 116.827 107.32 116.358 107.799C116.192 107.955 116.013 108.097 115.823 108.223L111.464 105.716C112.084 105.768 112.708 105.737 113.32 105.624C113.828 105.481 114.322 105.292 114.795 105.059V105.232C116.003 104.753 116.92 103.665 118.136 103.274C118.18 103.274 118.354 103.447 118.526 103.361C118.839 102.973 119.236 102.662 119.687 102.452C120.139 102.242 120.632 102.139 121.129 102.15C121.129 102.237 121.129 102.323 121.216 102.323H121.259C120.998 102.541 120.695 102.757 120.396 102.975C120.298 103.065 120.384 103.151 120.47 103.151ZM105.104 92.4928V92.1712C105.998 91.9369 106.92 91.8275 107.843 91.8461C108.116 91.8025 108.395 91.8025 108.668 91.8461C107.451 91.8449 106.243 92.064 105.104 92.4928ZM157.889 101.291C157.879 101.473 157.826 101.65 157.734 101.808C157.642 101.965 157.515 102.099 157.361 102.197L139.975 112.314C137.979 111.742 136.016 111.058 134.096 110.265C133.818 109.658 133.667 109.001 133.652 108.333C133.637 107.666 133.759 107.002 134.01 106.383C134.148 105.851 134.352 105.338 134.617 104.856C134.66 104.813 134.703 104.77 134.703 104.725C134.715 104.725 134.726 104.72 134.734 104.712C134.742 104.704 134.746 104.693 134.746 104.682C134.938 104.345 135.155 104.025 135.397 103.722L135.423 103.696L135.457 103.66L135.483 103.634C135.483 103.591 135.526 103.547 135.569 103.502C135.612 103.414 135.699 103.371 135.742 103.285C136.045 102.963 136.379 102.673 136.741 102.42C137.107 102.287 137.485 102.184 137.869 102.114C139.268 102.217 140.659 102.407 142.035 102.681C142.204 102.707 142.366 102.765 142.512 102.854C143.032 102.955 143.568 102.926 144.074 102.768C144.403 102.707 144.711 102.563 144.969 102.35C145.228 102.136 145.427 101.86 145.548 101.547C145.7 101.268 145.787 100.958 145.802 100.641C145.817 100.324 145.76 100.007 145.635 99.7156C145.328 99.2383 145.612 98.9599 145.947 98.6954L146.064 98.6003C146.213 98.4944 146.347 98.3688 146.463 98.2268C146.68 97.791 146.29 97.5351 146.202 97.1374C146.116 96.9645 145.812 97.0509 145.638 96.7915C146.245 96.5304 147.113 96.0497 146.723 95.3097C146.463 94.9171 146.073 94.2203 146.551 93.8278C147.158 93.4819 148.026 93.5667 148.286 92.9995C148.371 92.6698 148.37 92.3236 148.281 91.9948C148.193 91.6659 148.021 91.3656 147.782 91.1233L147.653 90.9366C147.524 90.7516 147.396 90.5665 147.289 90.3833C147.015 89.9271 146.71 89.4898 146.378 89.0743C145.999 88.5358 145.692 87.949 145.467 87.3296C145.207 86.6759 145.554 86.1088 145.554 85.4551C145.579 84.1961 145.388 82.942 144.99 81.7478C144.772 81.1374 144.686 80.4838 144.425 79.9166C144.393 79.5521 144.257 79.2044 144.036 78.9137C143.993 78.8253 143.97 78.7284 143.97 78.6301C143.97 78.5319 143.993 78.4349 144.036 78.3465C144.389 78.0966 144.723 77.8197 145.034 77.5183C145.131 77.3068 145.149 77.068 145.085 76.8444C145.022 76.6208 144.882 76.427 144.689 76.2975C144.125 76.0364 144.172 76.8646 143.779 77.0393H143.518C143.432 76.8214 143.604 76.7332 143.779 76.5603C143.779 76.4738 143.779 76.2992 143.692 76.2992C143.347 76.2992 143.042 76.211 142.954 76.0381C142.123 74.9995 141.007 74.2267 139.744 73.8144C140.068 73.9142 140.404 73.9723 140.743 73.9873C141.325 74.1108 141.931 74.0504 142.478 73.8144C142.869 73.683 142.956 72.9861 143.128 72.5936C143.163 72.4036 143.158 72.2083 143.113 72.0204C143.068 71.8325 142.985 71.656 142.868 71.5025C142.476 70.9316 141.935 70.4794 141.305 70.1952C141.001 70.0638 140.523 69.8027 140.134 69.5848C140.001 69.4912 139.855 69.4177 139.701 69.367C134.586 66.7992 124.057 69.0211 123.255 69.367H123.239C122.5 69.5819 121.779 69.8565 121.084 70.1883C120.128 70.5444 119.264 71.1127 118.557 71.8509C117.851 72.589 117.32 73.4778 117.005 74.4507C116.02 75.0993 115.226 76.0002 114.705 77.06C113.967 78.4434 112.884 79.6693 113.056 81.2342C113.229 82.583 113.534 83.8003 113.795 85.1923C113.869 85.6627 113.984 86.1256 114.14 86.5756C114.312 87.0529 114.14 87.6633 114.4 88.0541C114.529 88.3152 114.443 88.6195 114.792 88.7942V89.14C114.878 89.2264 114.878 89.3129 115.052 89.3129V89.6587C115.802 90.3911 116.445 91.2258 116.962 92.1384C117.134 92.6156 116.137 92.3995 115.754 92.2248C115.037 91.7571 114.382 91.2018 113.802 90.5717C113.754 90.6181 113.723 90.6789 113.714 90.7447C114.059 91.3533 115.276 92.0934 114.624 92.4842C114.279 92.6571 113.886 92.2231 113.539 92.5724C113.453 92.7021 113.539 92.8767 113.539 93.0496C113.061 92.7038 112.542 92.8767 112.064 92.7038C111.719 92.6173 111.63 91.9654 111.24 91.9654C110.211 91.7137 109.168 91.5249 108.116 91.4C107.122 91.2506 106.12 91.1588 105.116 91.1251V72.1578C105.117 71.9736 105.166 71.7929 105.259 71.6338C105.351 71.4747 105.484 71.343 105.644 71.2518L131.497 56.1025L157.361 71.1065C157.521 71.1976 157.654 71.3293 157.747 71.4884C157.839 71.6475 157.888 71.8283 157.889 72.0126V101.291ZM144.168 87.0062C144.116 87.0874 144.044 87.1538 143.959 87.1989C143.874 87.2441 143.778 87.2664 143.682 87.2638C143.509 87.4098 143.347 87.5675 143.196 87.7359C143.368 87.7359 143.196 87.9935 143.368 87.9935C143.014 88.3792 143.501 89.1936 143.014 89.3648C142.378 89.5359 141.707 89.5359 141.07 89.3648C141.165 89.3444 141.262 89.3351 141.358 89.3371H141.505C141.613 89.3502 141.723 89.3362 141.824 89.2964C141.926 89.2565 142.016 89.1921 142.086 89.1089V88.763C142.086 88.6766 141.998 88.6766 141.914 88.6766C141.868 88.7251 141.807 88.7558 141.741 88.763C141.737 88.6852 141.709 88.6105 141.662 88.5488C141.615 88.4871 141.55 88.4412 141.476 88.4172C141.246 88.4479 141.013 88.4208 140.797 88.3384C140.581 88.2559 140.388 88.1208 140.237 87.9451C140.471 87.8325 140.736 87.802 140.989 87.8587C141.21 87.8587 141.122 87.4731 141.388 87.3019H141.653C142.183 86.6586 143.156 86.4874 143.333 85.8442C143.333 85.6713 142.847 85.6713 142.493 85.5866C142.021 85.5285 141.541 85.5578 141.079 85.673C140.458 85.7589 139.85 85.9173 139.266 86.1451C139.749 85.7893 140.287 85.5143 140.858 85.3306C141.259 85.1758 141.674 85.06 142.097 84.9848L142.324 84.9398L142.554 84.8932C142.867 84.7994 143.2 84.7994 143.513 84.8932C143.911 85.0661 144.574 85.0661 144.662 85.322C144.834 85.794 144.396 86.2644 143.911 86.6085C143.813 86.7486 144.168 86.8419 144.168 87.0062Z" fill="white"/>
<rect x="139.647" y="46.8594" width="50.8529" height="22.8838" rx="2" fill="#FCC63A"/>
<path d="M144.054 66.0712V50.8433H149.079C150.747 50.8433 152.059 51.2494 153.016 52.0615C153.988 52.8737 154.474 53.9831 154.474 55.3899C154.474 56.7822 153.988 57.8844 153.016 58.6965C152.059 59.5087 150.747 59.9147 149.079 59.9147H147.143V66.0712H144.054ZM149.209 53.4755H147.143V57.2825H149.209C149.862 57.2825 150.37 57.1157 150.732 56.7822C151.109 56.4486 151.298 55.97 151.298 55.3464C151.298 54.7663 151.109 54.3094 150.732 53.9759C150.37 53.6423 149.862 53.4755 149.209 53.4755Z" fill="#161616"/>
<path d="M157.246 66.0712V50.8433H161.902C163.57 50.8433 164.889 51.2494 165.861 52.0615C166.833 52.8737 167.319 53.9831 167.319 55.3899C167.319 56.3036 167.101 57.1012 166.666 57.7828C166.245 58.45 165.651 58.9648 164.882 59.3274L169.668 66.0712H165.97L161.924 59.9147H160.335V66.0712H157.246ZM162.076 53.4755H160.335V57.2825H162.076C162.728 57.2825 163.236 57.1157 163.599 56.7822C163.961 56.4486 164.142 55.97 164.142 55.3464C164.142 54.7663 163.961 54.3094 163.599 53.9759C163.236 53.6423 162.728 53.4755 162.076 53.4755Z" fill="#161616"/>
<path d="M178.437 50.4082C179.626 50.4082 180.714 50.6257 181.7 51.0608C182.701 51.4959 183.557 52.076 184.267 52.8012C184.978 53.5263 185.529 54.382 185.921 55.3681C186.312 56.3398 186.508 57.3695 186.508 58.4572C186.508 59.5449 186.312 60.5819 185.921 61.5681C185.529 62.5397 184.978 63.3881 184.267 64.1133C183.557 64.8384 182.701 65.4185 181.7 65.8536C180.714 66.2887 179.626 66.5062 178.437 66.5062C177.248 66.5062 176.153 66.2887 175.152 65.8536C174.152 65.4185 173.296 64.8384 172.585 64.1133C171.875 63.3881 171.324 62.5397 170.932 61.5681C170.541 60.5819 170.345 59.5449 170.345 58.4572C170.345 57.3695 170.541 56.3398 170.932 55.3681C171.324 54.382 171.875 53.5263 172.585 52.8012C173.296 52.076 174.152 51.4959 175.152 51.0608C176.153 50.6257 177.248 50.4082 178.437 50.4082ZM178.437 63.6129C179.148 63.6129 179.801 63.4824 180.395 63.2214C181.004 62.9458 181.519 62.5832 181.94 62.1337C182.375 61.6696 182.716 61.1257 182.962 60.5021C183.209 59.864 183.332 59.1824 183.332 58.4572C183.332 57.7321 183.209 57.0577 182.962 56.4341C182.716 55.796 182.375 55.2521 181.94 54.8025C181.519 54.3384 181.004 53.9759 180.395 53.7148C179.801 53.4393 179.148 53.3015 178.437 53.3015C177.727 53.3015 177.067 53.4393 176.458 53.7148C175.849 53.9759 175.326 54.3384 174.891 54.8025C174.471 55.2521 174.137 55.796 173.891 56.4341C173.644 57.0577 173.521 57.7321 173.521 58.4572C173.521 59.1824 173.644 59.864 173.891 60.5021C174.137 61.1257 174.471 61.6696 174.891 62.1337C175.326 62.5832 175.849 62.9458 176.458 63.2214C177.067 63.4824 177.727 63.6129 178.437 63.6129Z" fill="#161616"/>
</svg>
