<svg xmlns="http://www.w3.org/2000/svg" width="192.97" height="93" viewBox="0 0 192.97 93"><title>logo_footer</title><path d="M50.67,64.66a.07.07,0,0,1-.05.08l-6.44,1.52a.07.07,0,0,1-.08-.05l-1.52-6.44a.07.07,0,0,1,.05-.08l6.44-1.52a.07.07,0,0,1,.08,0ZM44.62,26.37C38.74,31.45,38.23,40,38.21,40.53l9-2.12a.21.21,0,0,0,.16-.26Zm.54,27.54a.11.11,0,0,0,.09-.14L42.58,42.41a.13.13,0,0,0-.15-.09l-4.27,1A33,33,0,0,0,40.43,55ZM17.58,31.08a.1.1,0,0,0-.13-.08L6.85,33.49a.11.11,0,0,0-.08.13l2.5,10.6a.11.11,0,0,0,.13.08L20,41.81a.13.13,0,0,0,.09-.14Zm5,13.39a.08.08,0,0,0-.08,0L16,46a.08.08,0,0,0,0,.09l1.54,6.53a.07.07,0,0,0,.08.05l6.54-1.54a.07.07,0,0,0,.05-.08Zm-12,4.06a.1.1,0,0,0-.07-.11L1.93,46.6a.1.1,0,0,0-.11.07L0,55.28a.08.08,0,0,0,.07.1l8.61,1.83a.08.08,0,0,0,.1-.07Zm21.45-28.4L22,22.46a.21.21,0,0,0-.15.26L26.66,43a.2.2,0,0,0,.25.16l4.48-1.05C29.94,37.1,28.82,28.33,32.06,20.13ZM31.08,45a.11.11,0,0,0-.09.14L33.66,56.5a.13.13,0,0,0,.14.09l4.49-1.06a41.3,41.3,0,0,1-6-10.81Zm7.53,8.91c0-.13-5.06-12.84,1.3-24,5.36-9.39,22.45-17.48,22.62-17.56l.07,0L57.1,7.08c-.16.07-15.66,7.5-21.13,21.34C30.56,43.76,38.44,53.86,38.52,54Zm-4.3-7.65A29.94,29.94,0,0,1,37.1,23.51c6.56-11.23,20-18,20-18.06L62,9.93l5.39-2.62L58.28,0C58.07.09,37.58,9.19,33,24.09c-4,13.4,1.21,22.13,1.26,22.21ZM23.74,65,26,64.5A40.07,40.07,0,0,0,42.12,79.13l.36,1.53A39.06,39.06,0,0,1,23.74,65ZM19.79,66l-1.89.44a.22.22,0,0,0-.16.25l4.69,19.9a.2.2,0,0,0,.25.16l18.17-4.28C31.88,79.28,24.37,73.61,19.79,66Zm9.14-2.16-2.3.55A39.63,39.63,0,0,0,42,78.41l-.4-1.67A41.28,41.28,0,0,1,28.93,63.8ZM41.87,82.19l.72-.17a.2.2,0,0,0,.15-.25l-.11-.45A39.63,39.63,0,0,1,23.1,65.18l-2.67.63C25.08,73.51,32.75,79.15,41.87,82.19Zm-.51-6.27L38.05,61.87a.2.2,0,0,0-.25-.15l-8.23,1.93A41,41,0,0,0,41.36,75.92Zm50.15-28.6A11.78,11.78,0,0,1,83,43.74a11.84,11.84,0,0,1,.24-16.94,12.12,12.12,0,0,1,8.8-3.42,12.49,12.49,0,0,1,5.17,1.15,14.89,14.89,0,0,1,4.48,3.61.19.19,0,0,1,0,.26l-2.53,2.31a.21.21,0,0,1-.13.05h0a.19.19,0,0,1-.12-.07A8.46,8.46,0,0,0,92.1,27,8.27,8.27,0,0,0,86,29.34a8,8,0,0,0-2.52,6,7.8,7.8,0,0,0,2.67,6.14,8.28,8.28,0,0,0,5.51,2.29,7,7,0,0,0,4.57-1.61,5.94,5.94,0,0,0,2.26-3.79h-5.6a.22.22,0,0,1-.15-.1.19.19,0,0,1,0-.15l.68-3.22c0-.08.1-.09.18-.09h9c.1,0,.18.13.18.23v.75a15.21,15.21,0,0,1-.68,4.58,9.85,9.85,0,0,1-2.11,3.46,10.91,10.91,0,0,1-8.43,3.53m30.56-.18a.18.18,0,0,0,.17-.1.19.19,0,0,0,0-.19l-7-9.47a6.48,6.48,0,0,0,3.58-2.21,6.62,6.62,0,0,0,1.47-4.26,6.37,6.37,0,0,0-2.33-5.12c-1.4-1.15-3.68-1.74-6.79-1.74H107a.2.2,0,0,0-.2.19V46.94a.17.17,0,0,0,.17.18h3.52a.17.17,0,0,0,.18-.18V37.83H111l6.59,9.23a.18.18,0,0,0,.15.08ZM110.68,34.47V27.64h1.08c3.14,0,4.68,1.09,4.67,3.31,0,2.38-1.58,3.53-4.82,3.53ZM145.57,47.2a.17.17,0,0,0,.15-.08.2.2,0,0,0,0-.17l-11-24.42a.19.19,0,0,0-.34,0L122.73,46.88a.15.15,0,0,0,0,.17.2.2,0,0,0,.15.1h3.78a.2.2,0,0,0,.17-.1l2.57-5.39h9.74l2.39,5.42a.17.17,0,0,0,.16.12Zm-14.51-9.13,3.36-7.33,3.16,7.33Zm38,10.48h.08a.19.19,0,0,0,.09-.17V24.28a.2.2,0,0,0-.19-.19h-3.52a.18.18,0,0,0-.18.18V39.63L148.66,23.51a.15.15,0,0,0-.12-.05.11.11,0,0,0-.08,0,.19.19,0,0,0-.1.17V47a.2.2,0,0,0,.2.18h3.52a.17.17,0,0,0,.17-.19V32.42L169,48.5a.18.18,0,0,0,.12,0m10.51-1.35a18.9,18.9,0,0,0,5.54-.64,11.29,11.29,0,0,0,4-2.29A10.86,10.86,0,0,0,193,35.65a11,11,0,0,0-3.67-8.56,10.73,10.73,0,0,0-4-2.28,18.44,18.44,0,0,0-5.62-.69h-4.89a.17.17,0,0,0-.18.18V47a.19.19,0,0,0,.19.18Zm-1.13-3.58V27.71h1.39c2.94,0,5.19.68,6.7,2a7.63,7.63,0,0,1,2.5,5.92,7.5,7.5,0,0,1-2.53,5.87,7.64,7.64,0,0,1-2.77,1.6,13.61,13.61,0,0,1-3.89.49Zm-106-5.38a.11.11,0,0,0,.08,0s0-2.08,0-2.12a.1.1,0,0,0-.1-.07H66.83V31.56h5.5a.13.13,0,0,0,.12-.12v-2a.12.12,0,0,0-.12-.11h-5.5V26.19H72.5a.11.11,0,0,0,.11-.11v-2A.11.11,0,0,0,72.5,24h-8a.11.11,0,0,0-.11.12v14a.11.11,0,0,0,.11.12Zm-10,0a.11.11,0,0,0,.11-.12v-2a.11.11,0,0,0-.11-.11H58.36V24.44a.12.12,0,0,0,0-.09l-.07,0h0L56,24.8a.12.12,0,0,0-.09.12v13.2a.12.12,0,0,0,.12.12Zm-6,34.82a.08.08,0,0,1-.08-.08V43.88a.07.07,0,0,1,.07-.08l4.74,0c2.64,0,5.19.12,7.27,1.56A8.06,8.06,0,0,1,71.73,52a8.19,8.19,0,0,1-2.8,6.3c-2.08,1.71-4.84,1.94-7,1.94h0a.08.08,0,0,1-.09-.08V57.3a.07.07,0,0,1,.07-.08c4.47,0,6.54-1.71,6.54-5.27,0-4.72-3.6-5.11-7.62-5.11h-1a.23.23,0,0,0-.23.23V73a.08.08,0,0,1-.08.08Zm33.36.19V66.06c0-1.47,0-5.38,2.86-5.38A2.08,2.08,0,0,1,94,61.2l.09.06.07,0h0a.1.1,0,0,0,.08-.06l1.08-2.07a.13.13,0,0,0,0-.16,4.45,4.45,0,0,0-2.17-.63c-1.62,0-2.36.82-3.24,2h-.06V58.88a.12.12,0,0,0-.11-.12H87.39a.12.12,0,0,0-.12.12V73.25a.11.11,0,0,0,.12.11h2.29A.11.11,0,0,0,89.79,73.25Zm9.8-20A1.79,1.79,0,0,0,97.81,55a1.78,1.78,0,0,0,3.56,0,1.79,1.79,0,0,0-1.78-1.77m1.14,20.11a.1.1,0,0,0,.11-.1V58.88a.11.11,0,0,0-.11-.11H98.44a.11.11,0,0,0-.1.11V73.25a.1.1,0,0,0,.1.1Zm34.88-6.17v-8.3a.12.12,0,0,0-.11-.12h-2.3a.12.12,0,0,0-.11.12v8c0,2.4-.25,4.55-3.3,4.55s-3.3-2.15-3.3-4.55v-8a.12.12,0,0,0-.11-.12h-2.29a.12.12,0,0,0-.12.12v8.3c0,4.43,1.91,6.59,5.82,6.59S135.61,71.61,135.61,67.18Zm32.2,0v-8.3a.12.12,0,0,0-.11-.12h-2.29a.12.12,0,0,0-.12.12v8c0,2.4-.25,4.55-3.3,4.55s-3.3-2.15-3.3-4.55v-8a.11.11,0,0,0-.11-.12h-2.3a.11.11,0,0,0-.11.12v8.3c0,4.43,1.91,6.59,5.82,6.59S167.81,71.61,167.81,67.18Zm17.49,6.17a.1.1,0,0,0,.09-.06.09.09,0,0,0,0-.1l-6-7.59,5.24-6.66a.09.09,0,0,0,0-.11.1.1,0,0,0-.09-.06h-2.86a.12.12,0,0,0-.08,0l-3.81,4.93L174,58.81a.12.12,0,0,0-.08,0h-2.8a.12.12,0,0,0-.1.06.11.11,0,0,0,0,.11l5.21,6.66-6.11,7.59a.09.09,0,0,0,0,.1.11.11,0,0,0,.1.06h2.86a.09.09,0,0,0,.07,0l4.66-5.88,4.62,5.88a.09.09,0,0,0,.08,0ZM76.62,56.25,80.91,52s0,0,0,0l0,0L78.28,50.8h0s0,0,0,0L75,55.35s0,0,0,0,0,0,0,0l1.56.87h0Zm7.12,13.59a.11.11,0,0,0,0-.11.09.09,0,0,0-.09,0H80.94a.1.1,0,0,0-.08,0,4.51,4.51,0,0,1-3.6,1.74,4.72,4.72,0,0,1-4.81-4.87H83.87a.11.11,0,0,0,.11-.1,8.32,8.32,0,0,0-2-6.1,6.58,6.58,0,0,0-4.94-2c-4.92,0-7.12,4-7.12,7.88,0,4.35,3,7.51,7.18,7.51A7.42,7.42,0,0,0,83.74,69.84Zm-2.39-5.36H72.57A4.64,4.64,0,0,1,77,60.67,4.48,4.48,0,0,1,81.35,64.48Zm71.36,5.36a.11.11,0,0,0,0-.11.11.11,0,0,0-.09,0H149.9a.12.12,0,0,0-.08,0,4.5,4.5,0,0,1-3.6,1.74,4.72,4.72,0,0,1-4.81-4.87h11.43a.1.1,0,0,0,.1-.1,8.31,8.31,0,0,0-2-6.1,6.62,6.62,0,0,0-4.95-2c-4.92,0-7.12,4-7.12,7.88,0,4.35,3,7.51,7.18,7.51A7.43,7.43,0,0,0,152.71,69.84Zm-2.4-5.36h-8.77A4.63,4.63,0,0,1,146,60.67,4.48,4.48,0,0,1,150.31,64.48ZM117.79,78.91C119.3,77,119.3,75,119.3,72.64V58.88a.11.11,0,0,0-.11-.11H116.9a.11.11,0,0,0-.1.11v1.94s-.06,0-.07,0a6.13,6.13,0,0,0-5-2.48c-4.61,0-7.09,4-7.09,7.76,0,4.34,3,7.62,7,7.62a6.53,6.53,0,0,0,5.08-2.4h.08v1.73c0,2.63-.49,6.11-4.72,6.11a4.49,4.49,0,0,1-4.23-2.43.11.11,0,0,0-.09,0h-2.43a.09.09,0,0,0-.08,0,.15.15,0,0,0,0,.09c.88,2.87,3.51,4.65,6.88,4.65A7.14,7.14,0,0,0,117.79,78.91Zm-.87-13c0,2.75-1.51,5.52-4.9,5.52-3.16,0-4.81-2.79-4.81-5.55A5,5,0,0,1,112,60.67C114.89,60.67,116.92,62.84,116.92,65.94ZM57.19,87.3A2.66,2.66,0,0,0,59.84,90a2.72,2.72,0,0,0,1.8-.68l.06,0V90.3h0a3.75,3.75,0,0,1-1.81.47,3.49,3.49,0,1,1,.07-7,3.47,3.47,0,0,1,1.74.45h0v1l-.06,0a2.79,2.79,0,0,0-1.78-.64A2.68,2.68,0,0,0,57.19,87.3Zm10.24,1.26a2.3,2.3,0,1,1-2.3-2.23A2.23,2.23,0,0,1,67.43,88.56Zm-.88,0A1.42,1.42,0,1,0,65.13,90,1.41,1.41,0,0,0,66.55,88.56Zm6.7-2.23A1.58,1.58,0,0,0,72,87a1.41,1.41,0,0,0-1.23-.7,1.46,1.46,0,0,0-1.11.6v-.47h-.88v4.18h.88v-2c0-.74.11-1.48.91-1.48s.75.63.75,1.32v2.21h.88v-2c0-.74.11-1.48.9-1.48s.76.62.76,1.17v2.36h.88V88.15C74.69,86.94,74.21,86.33,73.25,86.33Zm7.61,0a1.61,1.61,0,0,0-1.31.7,1.38,1.38,0,0,0-1.22-.7,1.42,1.42,0,0,0-1.11.6v-.47h-.88v4.18h.88v-2c0-.74.11-1.48.91-1.48s.75.63.75,1.32v2.21h.88v-2c0-.74.11-1.48.9-1.48s.76.62.76,1.17v2.36h.88V88.15C82.3,86.94,81.81,86.33,80.86,86.33Zm5.85.13v2.31c0,.84-.29,1.21-.95,1.21s-.94-.37-.94-1.21V86.46h-.88v2.4a1.83,1.83,0,1,0,3.65,0v-2.4Zm4.7-.13a1.5,1.5,0,0,0-1.26.63v-.5h-.88v4.18h.88V88.72c0-.76,0-1.61,1-1.61.76,0,.9.38.9,1.14v2.39H93V88.15C93,86.91,92.46,86.33,91.41,86.33Zm7.3.13v4.18h-.88V90a1.81,1.81,0,0,1-1.43.74,2.23,2.23,0,0,1,0-4.45,1.81,1.81,0,0,1,1.46.77v-.64Zm-2.19.65a1.45,1.45,0,1,0,1.35,1.44A1.33,1.33,0,0,0,96.52,87.11Zm6.57-.65v2.31c0,.84-.29,1.21-.94,1.21s-1-.37-1-1.21V86.46h-.88v2.4a1.83,1.83,0,1,0,3.65,0v-2.4Zm3.56,0V84.88h-.88v1.58h-.45v.8h.45v3.38h.88V87.26h.8v-.8Zm4.87-1.93-.82-.42-1.15,1.48,0,0,.45.27Zm.76,5.08,0,0a2.23,2.23,0,0,1-2,1.14,2.06,2.06,0,0,1-2.12-2.19,2,2,0,0,1,2.1-2.26,2,2,0,0,1,2,2.23v.16H109A1.27,1.27,0,0,0,110.28,90a1.37,1.37,0,0,0,1.24-.78l0,0,0,0Zm-.9-1.56a1.09,1.09,0,0,0-1.13-1,1.16,1.16,0,0,0-1.17,1Zm10.56-5.11h.88v7.7h-.88V90a1.78,1.78,0,0,1-1.43.74,2.23,2.23,0,0,1,0-4.45,1.79,1.79,0,0,1,1.46.77Zm-2.61,5.61A1.35,1.35,0,0,0,120.64,90a1.46,1.46,0,1,0-1.31-1.46Zm5.84-4.76-1,2.48.54.22h0l1.22-2.38v0l-.75-.29Zm5.15-.11,3.29,7h-1L131.84,89h-3.09L128,90.64h-1l0,0,3.29-7Zm-1.19,4.48h2.33l-1.17-2.58Zm8.68-1.7h.89v4.07c0,1.15-.24,2.47-2.1,2.47a1.91,1.91,0,0,1-2.09-1.9v0h.89v0a1.1,1.1,0,0,0,1.23,1.13c1,0,1.18-.75,1.18-1.48V90a1.77,1.77,0,0,1-1.42.74,2.23,2.23,0,0,1,0-4.45,1.75,1.75,0,0,1,1.46.78Zm-2.6,2.09a1.33,1.33,0,1,0,1.3-1.44A1.34,1.34,0,0,0,135.21,88.55Zm8.29-2.09h.88v4.07c0,1.15-.24,2.47-2.1,2.47a1.91,1.91,0,0,1-2.08-1.9v0h.88v0a1.1,1.1,0,0,0,1.24,1.13c1,0,1.18-.75,1.18-1.48V90a1.79,1.79,0,0,1-1.43.74,2.23,2.23,0,0,1,0-4.45,1.77,1.77,0,0,1,1.46.78Zm-2.61,2.09A1.35,1.35,0,0,0,142.2,90a1.46,1.46,0,1,0-1.31-1.46Zm5.17,2.09H147v-7.7h-.89Zm6.85-2.08a2.3,2.3,0,1,1-2.3-2.23A2.23,2.23,0,0,1,152.91,88.56Zm-.88,0a1.42,1.42,0,1,0-1.42,1.4A1.41,1.41,0,0,0,152,88.56Zm6.7-2.23a1.59,1.59,0,0,0-1.3.7,1.38,1.38,0,0,0-1.22-.7,1.46,1.46,0,0,0-1.12.6v-.47h-.88v4.18h.88v-2c0-.74.11-1.48.92-1.48.65,0,.74.63.74,1.32v2.21h.88v-2c0-.74.11-1.48.91-1.48s.75.62.75,1.17v2.36h.88V88.15C160.17,86.94,159.69,86.33,158.73,86.33Zm6.2,2.89.72.39,0,0a2.21,2.21,0,0,1-2,1.14,2.06,2.06,0,0,1-2.12-2.19,2,2,0,0,1,2.1-2.26,2,2,0,0,1,2,2.23v.16H162.4A1.28,1.28,0,0,0,163.65,90a1.35,1.35,0,0,0,1.24-.78l0,0Zm-.18-1.17a1.09,1.09,0,0,0-1.13-1,1.16,1.16,0,0,0-1.17,1Zm.14-3.52-.82-.42-1.15,1.48,0,0,.45.27Zm4.13,1.8a1.24,1.24,0,0,0-1.16.74v-.61H167v4.18h.88v-2c0-.67.11-1.43,1-1.43a.69.69,0,0,1,.47.16l0,0,.4-.78,0,0A1.35,1.35,0,0,0,169,86.33Zm4.9.13h.88v4.18h-.88V90a1.77,1.77,0,0,1-1.42.74,2.23,2.23,0,0,1,0-4.45,1.78,1.78,0,0,1,1.45.77Zm-2.61,2.09A1.35,1.35,0,0,0,172.62,90a1.46,1.46,0,1,0-1.31-1.46Zm6.14-3.67h-.88v1.58h-.44v.8h.44v3.38h.88V87.26h.8v-.8h-.8ZM179.9,84a.6.6,0,0,0-.59.59.6.6,0,0,0,1.19,0A.6.6,0,0,0,179.9,84Zm-.44,6.62h.88V86.46h-.88Zm7-2.08a2.3,2.3,0,1,1-2.3-2.23A2.24,2.24,0,0,1,186.46,88.56Zm-.89,0a1.42,1.42,0,1,0-1.41,1.4A1.41,1.41,0,0,0,185.57,88.56Zm4.36-2.23a1.5,1.5,0,0,0-1.26.63v-.5h-.88v4.18h.88V88.72c0-.76,0-1.61,1-1.61.77,0,.91.38.91,1.14v2.39h.88V88.15C191.47,86.91,191,86.33,189.93,86.33Z" fill="#fff"/></svg>