<?xml version="1.0" encoding="utf-8"?>
<!-- Generator: Adobe Illustrator 21.0.0, SVG Export Plug-In . SVG Version: 6.00 Build 0)  -->
<svg version="1.1" id="Calque_2" xmlns="http://www.w3.org/2000/svg" xmlns:xlink="http://www.w3.org/1999/xlink" x="0px" y="0px"
	 viewBox="0 0 125.4 65.8" style="enable-background:new 0 0 125.4 65.8;" xml:space="preserve">
<style type="text/css">
	.st0{fill:url(#SVGID_1_);}
	.st1{fill:#FFFFFF;}
</style>
<linearGradient id="SVGID_1_" gradientUnits="userSpaceOnUse" x1="0.2" y1="203.3" x2="125.2" y2="203.3" gradientTransform="matrix(1 0 0 1 0 -170)">
	<stop  offset="0" style="stop-color:#7D2C6C"/>
	<stop  offset="0.2472" style="stop-color:#AA267B"/>
	<stop  offset="0.8146" style="stop-color:#DF242F"/>
	<stop  offset="1" style="stop-color:#DF242F"/>
</linearGradient>
<path class="st0" d="M2.6,1C1.1,1,0.2,1.7,0.2,3v60.8c0,1.1,0.7,2,2,2h109.4c0.9,0,1.7,0,2.2-1.5c0,0,11-34.5,11.2-35.1
	c0.4-1.3,0.2-2-0.9-2.7C88.6,4.1,35.2,0.8,11.1,0.8C7.6,0.8,4.8,1,2.6,1z"/>
<path class="st1" d="M25.2,39.9c-4.1-1.8-6.8-2.9-6.1-4.9c0.7-2.4,4.8-3.3,8.5-3.1c1.8,0,3.1,0.2,4.8,0.7l1.3-4.2
	c-1.8-0.4-3.3-0.5-5.5-0.5c-7.4-0.2-14,1.8-15.6,6c-2,4.9,3.7,7.9,8.7,10.2c4.1,1.8,7,3.7,5.9,5.8c-0.7,1.8-3.7,2.6-7.7,2.6
	c-3.5,0-7.9-1.1-11.4-2.7l-2,4.4c2.6,1.1,7.7,2.7,12.2,2.9c8.3,0.2,13.8-1.8,16-6.4C36.7,45.2,30.4,42.4,25.2,39.9z"/>
<path class="st1" d="M36.7,47.4c0,0,0,0.2,0.2,0.2c0,0,0.2,0,0.2-0.2c0-0.2,4.1-12.6,4.1-12.6c4.1,5.8,8.1,13.5,10.5,21.7h6.6
	l3.3-10.4c0,0,0-0.2,0.2-0.2c0,0,0.2,0,0.2,0.2c0.9,6.4,7.5,10.8,16.8,10.8c5.9,0,11.4-1.6,12.7-2.2l3.5-11h13.4l1.3-4.2H96.1
	l2.4-7.1h16L116,28H93.4l-7.5,23.7c-1.7,0.4-3.7,0.5-5.7,0.5c-4.4,0-8.1-1.1-10.1-3.5c-1.5-1.8-2.2-4-1.7-6.6
	c0.9-6,6.8-9.9,14.7-9.9c1.7,0,3.3,0,5,0.4l1.7-4.6c-1.8-0.4-4.2-0.4-6.4-0.4c-7,0-13.3,2.4-17.1,6.6c0,0.2-0.2,0.2-0.4,0.2
	c-0.2,0-0.2,0-0.2-0.2l2-6.2h-5.9l-6.6,19.9c-2-5.8-6.3-13.7-11.4-19.9h-6.3l-4.6,14.6C35.2,44.4,35.9,45.7,36.7,47.4z"/>
</svg>
