<?xml version="1.0" encoding="UTF-8" standalone="no"?>
<svg
   xmlns:dc="http://purl.org/dc/elements/1.1/"
   xmlns:cc="http://creativecommons.org/ns#"
   xmlns:rdf="http://www.w3.org/1999/02/22-rdf-syntax-ns#"
   xmlns:svg="http://www.w3.org/2000/svg"
   xmlns="http://www.w3.org/2000/svg"
   xmlns:sodipodi="http://sodipodi.sourceforge.net/DTD/sodipodi-0.dtd"
   xmlns:inkscape="http://www.inkscape.org/namespaces/inkscape"
   width="434"
   height="225"
   viewBox="0 0 434 225"
   version="1.1"
   id="svg28"
   sodipodi:docname="logo-twitter.svg"
   inkscape:version="0.92.3 (2405546, 2018-03-11)"
   style="fill:none">
  <metadata
     id="metadata34">
    <rdf:RDF>
      <cc:Work
         rdf:about="">
        <dc:format>image/svg+xml</dc:format>
        <dc:type
           rdf:resource="http://purl.org/dc/dcmitype/StillImage" />
        <dc:title></dc:title>
      </cc:Work>
    </rdf:RDF>
  </metadata>
  <defs
     id="defs32" />
  <sodipodi:namedview
     pagecolor="#ffffff"
     bordercolor="#666666"
     borderopacity="1"
     objecttolerance="10"
     gridtolerance="10"
     guidetolerance="10"
     inkscape:pageopacity="0"
     inkscape:pageshadow="2"
     inkscape:window-width="2560"
     inkscape:window-height="1385"
     id="namedview30"
     showgrid="false"
     inkscape:zoom="1.6818182"
     inkscape:cx="75.463234"
     inkscape:cy="63.517139"
     inkscape:window-x="0"
     inkscape:window-y="27"
     inkscape:window-maximized="1"
     inkscape:current-layer="svg28" />
  <g
     id="g875"
     transform="matrix(2.7496342,0,0,2.7496342,36.654242,-477.11781)"
     style="stroke-width:0.36368474">
    <path
       style="fill:#1f1f1f;stroke-width:0.36368474"
       inkscape:connector-curvature="0"
       id="path2"
       d="m 12.27,209.09 c 1.0933,0 1.96,0.35333 2.6,1.06 0.64,0.7 0.96,1.80667 0.96,3.32 v 6.5 c 0,0.1657 -0.1343,0.3 -0.3,0.3 h -3.45 c -0.1657,0 -0.3,-0.1343 -0.3,-0.3 v -6.27 c 0,-0.39333 -0.08,-0.67 -0.24,-0.83 -0.1533,-0.16667 -0.37,-0.25 -0.65,-0.25 -0.18,0 -0.3533,0.03 -0.52,0.09 -0.1109,0.0355 -0.2144,0.0813 -0.3106,0.13748 -0.08985,0.0525 -0.13363,0.15564 -0.13118,0.25967 0.00119,0.0505 0.00178,0.1081 0.00178,0.17285 v 6.69 c 0,0.1657 -0.13431,0.3 -0.3,0.3 H 6.26 c -0.16568,0 -0.3,-0.1343 -0.3,-0.3 v -6.27 c 0,-0.39333 -0.07,-0.67 -0.21,-0.83 -0.14,-0.16667 -0.35,-0.25 -0.63,-0.25 -0.20667,0 -0.40667,0.0433 -0.6,0.13 -0.15548,0.0643 -0.2851,0.14808 -0.38884,0.25123 C 4.08243,213.04968 4.06,213.11749 4.06,213.18621 V 219.97 c 0,0.1657 -0.13431,0.3 -0.3,0.3 H 0.3 c -0.165686,0 -0.3,-0.1343 -0.3,-0.3 v -10.4 c 0,-0.16568 0.134315,-0.3 0.3,-0.3 h 2.81786 c 0.13669,0 0.2561,0.0924 0.2904,0.22471 l 0.1951,0.75254 c 0.01569,0.0605 0.07028,0.10275 0.13278,0.10275 0.04049,0 0.07882,-0.018 0.10537,-0.0486 0.34382,-0.39568 0.73999,-0.69283 1.18849,-0.89145 0.47333,-0.21333 1.01333,-0.32 1.62,-0.32 0.56,0 1.06333,0.11 1.51,0.33 0.33265,0.16384 0.62092,0.39239 0.86483,0.68564 0.12806,0.15398 0.36769,0.17326 0.51391,0.0364 0.32101,-0.30041 0.68146,-0.53776 1.08126,-0.71205 0.52,-0.22667 1.07,-0.34 1.65,-0.34 z" />
    <path
       style="fill:#1f1f1f;stroke-width:0.36368474"
       inkscape:connector-curvature="0"
       id="path4"
       d="m 27.1091,215.65 c 0,0.1657 -0.1344,0.3 -0.3,0.3 H 21.547 c -0.1762,0 -0.3176,0.1522 -0.2774,0.3238 0.0516,0.2198 0.1347,0.3985 0.2495,0.5362 0.1666,0.2 0.4333,0.3467 0.8,0.44 0.3666,0.0867 0.88,0.13 1.54,0.13 0.6625,0 1.4256,-0.0799 2.2893,-0.2398 0.1866,-0.0345 0.3607,0.1074 0.3607,0.2972 v 2.4684 c 0,0.1422 -0.0999,0.2652 -0.2395,0.2921 -1.0102,0.1947 -2.0004,0.2921 -2.9705,0.2921 -1.46,0 -2.6434,-0.2 -3.55,-0.6 -0.9,-0.4067 -1.5634,-1.03 -1.99,-1.87 -0.42,-0.84 -0.63,-1.9367 -0.63,-3.29 0,-1.17333 0.1966,-2.18 0.59,-3.02 0.4,-0.84667 0.9866,-1.49333 1.76,-1.94 0.78,-0.45333 1.73,-0.68 2.85,-0.68 1.5733,0 2.7633,0.50333 3.57,1.51 0.8066,1 1.21,2.42333 1.21,4.27 z m -4.82,-4.02 c -0.26,0 -0.4667,0.06 -0.62,0.18 -0.1534,0.11333 -0.27,0.31333 -0.35,0.6 -0.0586,0.2289 -0.0959,0.5343 -0.1119,0.91621 -0.0071,0.16702 0.1285,0.30379 0.2957,0.30379 h 1.5423 c 0.1672,0 0.3028,-0.13679 0.2956,-0.30383 -0.0161,-0.37596 -0.0534,-0.67801 -0.1117,-0.90617 -0.0734,-0.29333 -0.1867,-0.49667 -0.34,-0.61 -0.1467,-0.12 -0.3467,-0.18 -0.6,-0.18 z" />
    <path
       style="fill:#1f1f1f;stroke-width:0.36368474"
       inkscape:connector-curvature="0"
       id="path6"
       d="m 31.6398,220.49 c -1.2119,0 -2.2964,-0.1449 -3.2534,-0.4346 -0.1238,-0.0375 -0.2066,-0.1527 -0.2066,-0.2821 v -2.3989 c 0,-0.2042 0.1999,-0.349 0.3968,-0.2949 0.3759,0.1033 0.777,0.1868 1.2032,0.2505 0.5867,0.0867 1.18,0.13 1.78,0.13 0.4934,0 0.84,-0.05 1.04,-0.15 0.2067,-0.1067 0.31,-0.2567 0.31,-0.45 0,-0.12 -0.0366,-0.2133 -0.11,-0.28 -0.0733,-0.0667 -0.2,-0.1167 -0.38,-0.15 l -1.79,-0.36 c -0.9333,-0.18 -1.6366,-0.5367 -2.11,-1.07 -0.4666,-0.54 -0.7,-1.27667 -0.7,-2.21 0,-0.76 0.1967,-1.41667 0.59,-1.97 0.3934,-0.55333 0.9867,-0.98 1.78,-1.28 0.7934,-0.3 1.77,-0.45 2.93,-0.45 0.9619,0 1.8431,0.0917 2.6437,0.27515 0.1336,0.0306 0.2263,0.15072 0.2263,0.28777 v 2.41117 c 0,0.19876 -0.1898,0.34262 -0.3836,0.29821 -0.7046,-0.16153 -1.4734,-0.2423 -2.3064,-0.2423 -1.1866,0 -1.78,0.21333 -1.78,0.64 0,0.10667 0.04,0.19 0.12,0.25 0.08,0.06 0.2134,0.10667 0.4,0.14 l 1.79,0.36 c 0.92,0.18667 1.6134,0.5333 2.08,1.04 0.4667,0.5 0.7,1.2333 0.7,2.2 0,0.7667 -0.2,1.4333 -0.6,2 -0.4,0.56 -0.9733,0.99 -1.72,1.29 -0.7466,0.3 -1.63,0.45 -2.65,0.45 z" />
    <path
       style="fill:#1f1f1f;stroke-width:0.36368474"
       inkscape:connector-curvature="0"
       id="path8"
       d="m 38.1711,216.21 c -0.1657,0 -0.3,-0.1343 -0.3,-0.3 v -2.68 c 0,-0.16569 0.1343,-0.3 0.3,-0.3 h 6.25 c 0.1657,0 0.3,0.13431 0.3,0.3 v 2.68 c 0,0.1657 -0.1343,0.3 -0.3,0.3 z" />
    <path
       style="fill:#1f1f1f;stroke-width:0.36368474"
       inkscape:connector-curvature="0"
       id="path10"
       d="m 50.4748,209.09 c 1.2534,0 2.2567,0.15667 3.01,0.47 0.76,0.31333 1.3167,0.82667 1.67,1.54 0.36,0.70667 0.54,1.67 0.54,2.89 v 5.98 c 0,0.1657 -0.1343,0.3 -0.3,0.3 h -2.7789 c -0.1362,0 -0.2553,-0.0917 -0.2901,-0.2234 l -0.1961,-0.7426 c -0.0147,-0.0554 -0.0648,-0.094 -0.122,-0.094 -0.0451,0 -0.0866,0.0242 -0.1102,0.0626 -0.4982,0.8116 -1.3324,1.2174 -2.5027,1.2174 -0.6933,0 -1.3,-0.1367 -1.82,-0.41 -0.52,-0.28 -0.92,-0.6667 -1.2,-1.16 -0.2733,-0.5 -0.41,-1.0767 -0.41,-1.73 0,-1.1133 0.37,-1.97 1.11,-2.57 0.74,-0.6067 1.9234,-0.95667 3.55,-1.05 l 0.8016,-0.0433 c 0.1689,-0.009 0.3003,-0.15702 0.2623,-0.32182 -0.0415,-0.18046 -0.1062,-0.33207 -0.1939,-0.45485 -0.1333,-0.18667 -0.3466,-0.32333 -0.64,-0.41 -0.2866,-0.0867 -0.68,-0.13 -1.18,-0.13 -0.4266,0 -0.8866,0.0333 -1.38,0.1 -0.3533,0.0478 -0.693,0.10919 -1.019,0.18431 -0.1928,0.0444 -0.381,-0.0993 -0.381,-0.29709 v -2.46299 c 0,-0.13766 0.0936,-0.25807 0.2279,-0.28847 0.4704,-0.10654 0.9778,-0.18846 1.5221,-0.24576 0.64,-0.0733 1.25,-0.11 1.83,-0.11 z m 0.37,8.55 c 0.285,0 0.5384,-0.0563 0.7602,-0.1689 0.0901,-0.0456 0.1398,-0.1419 0.1398,-0.2428 v -1.1893 c 0,-0.1729 -0.1458,-0.31 -0.3184,-0.2994 l -0.3316,0.0204 c -0.3933,0.02 -0.69,0.1167 -0.89,0.29 -0.1933,0.1733 -0.29,0.4133 -0.29,0.72 0,0.28 0.0834,0.4967 0.25,0.65 0.1667,0.1467 0.3934,0.22 0.68,0.22 z" />
    <path
       style="fill:#1f1f1f;stroke-width:0.36368474"
       inkscape:connector-curvature="0"
       id="path12"
       d="m 57.6828,220.27 c -0.1657,0 -0.3,-0.1343 -0.3,-0.3 v -10.4 c 0,-0.16568 0.1343,-0.3 0.3,-0.3 h 3.48 c 0.1657,0 0.3,0.13432 0.3,0.3 v 10.4 c 0,0.1657 -0.1343,0.3 -0.3,0.3 z m 1.74,-12.09 c -0.8267,0 -1.44,-0.18 -1.84,-0.54 -0.4,-0.36 -0.6,-0.87667 -0.6,-1.55 0,-0.67333 0.2,-1.19 0.6,-1.55 0.4,-0.36 1.0133,-0.54 1.84,-0.54 0.8267,0 1.44,0.18 1.84,0.54 0.4,0.36 0.6,0.87667 0.6,1.55 0,0.67333 -0.2,1.19 -0.6,1.55 -0.4,0.36 -1.0133,0.54 -1.84,0.54 z" />
    <path
       style="fill:#1f1f1f;stroke-width:0.36368474"
       inkscape:connector-curvature="0"
       id="path14"
       d="m 67.0631,220.48 c -0.7866,0 -1.5033,-0.1967 -2.15,-0.59 -0.64,-0.4 -1.1533,-1.01 -1.54,-1.83 -0.3866,-0.82 -0.58,-1.8433 -0.58,-3.07 0,-1.90667 0.5034,-3.36667 1.51,-4.38 1.0134,-1.01333 2.5334,-1.52 4.56,-1.52 0.0635,0 0.1376,0.002 0.2222,0.005 0.1725,0.006 0.3178,-0.13008 0.3178,-0.3027 V 204.41 c 0,-0.16569 0.1343,-0.3 0.3,-0.3 h 3.46 c 0.1657,0 0.3,0.13431 0.3,0.3 v 15.56 c 0,0.1657 -0.1343,0.3 -0.3,0.3 h -2.8698 c -0.1404,0 -0.262,-0.0974 -0.2927,-0.2344 l -0.1857,-0.8284 c -0.0127,-0.0568 -0.0632,-0.0972 -0.1214,-0.0972 -0.0436,0 -0.084,0.0231 -0.1073,0.06 -0.2556,0.4045 -0.5899,0.7212 -1.0031,0.95 -0.4266,0.24 -0.9333,0.36 -1.52,0.36 z m 1.33,-3.33 c 0.3399,0 0.6309,-0.0629 0.873,-0.1886 0.0885,-0.046 0.137,-0.1412 0.137,-0.2408 v -4.26041 c 0,-0.1493 -0.1097,-0.27679 -0.2581,-0.29296 -0.1667,-0.0181 -0.3106,-0.0272 -0.4319,-0.0272 -0.42,0 -0.7633,0.08 -1.03,0.24 -0.26,0.15333 -0.4566,0.41333 -0.59,0.78 -0.1266,0.36667 -0.19,0.8667 -0.19,1.5 0,0.6467 0.0567,1.1533 0.17,1.52 0.12,0.36 0.2867,0.6133 0.5,0.76 0.22,0.14 0.4934,0.21 0.82,0.21 z" />
    <path
       style="fill:#1f1f1f;stroke-width:0.36368474"
       inkscape:connector-curvature="0"
       id="path16"
       d="m 84.7848,215.65 c 0,0.1657 -0.1343,0.3 -0.3,0.3 h -5.262 c -0.1762,0 -0.3176,0.1522 -0.2774,0.3238 0.0516,0.2198 0.1347,0.3985 0.2494,0.5362 0.1667,0.2 0.4334,0.3467 0.8,0.44 0.3667,0.0867 0.88,0.13 1.54,0.13 0.6626,0 1.4257,-0.0799 2.2894,-0.2398 0.1866,-0.0345 0.3606,0.1074 0.3606,0.2972 v 2.4684 c 0,0.1422 -0.0998,0.2652 -0.2394,0.2921 -1.0102,0.1947 -2.0004,0.2921 -2.9706,0.2921 -1.46,0 -2.6433,-0.2 -3.55,-0.6 -0.9,-0.4067 -1.5633,-1.03 -1.99,-1.87 -0.42,-0.84 -0.63,-1.9367 -0.63,-3.29 0,-1.17333 0.1967,-2.18 0.59,-3.02 0.4,-0.84667 0.9867,-1.49333 1.76,-1.94 0.78,-0.45333 1.73,-0.68 2.85,-0.68 1.5734,0 2.7634,0.50333 3.57,1.51 0.8067,1 1.21,2.42333 1.21,4.27 z m -4.82,-4.02 c -0.26,0 -0.4666,0.06 -0.62,0.18 -0.1533,0.11333 -0.27,0.31333 -0.35,0.6 -0.0585,0.2289 -0.0958,0.5343 -0.1119,0.91621 -0.007,0.16702 0.1286,0.30379 0.2958,0.30379 h 1.5423 c 0.1672,0 0.3028,-0.13679 0.2956,-0.30383 -0.0161,-0.37596 -0.0534,-0.67801 -0.1118,-0.90617 -0.0733,-0.29333 -0.1866,-0.49667 -0.34,-0.61 -0.1466,-0.12 -0.3466,-0.18 -0.6,-0.18 z" />
    <path
       style="fill:#1f1f1f;stroke-width:0.36368474"
       inkscape:connector-curvature="0"
       id="path18"
       d="m 89.3156,220.49 c -1.2119,0 -2.2964,-0.1449 -3.2535,-0.4346 -0.1238,-0.0375 -0.2065,-0.1527 -0.2065,-0.2821 v -2.3989 c 0,-0.2042 0.1998,-0.349 0.3968,-0.2949 0.3759,0.1033 0.7769,0.1868 1.2032,0.2505 0.5867,0.0867 1.18,0.13 1.78,0.13 0.4934,0 0.84,-0.05 1.04,-0.15 0.2067,-0.1067 0.31,-0.2567 0.31,-0.45 0,-0.12 -0.0366,-0.2133 -0.11,-0.28 -0.0733,-0.0667 -0.2,-0.1167 -0.38,-0.15 l -1.79,-0.36 c -0.9333,-0.18 -1.6366,-0.5367 -2.11,-1.07 -0.4666,-0.54 -0.7,-1.27667 -0.7,-2.21 0,-0.76 0.1967,-1.41667 0.59,-1.97 0.3934,-0.55333 0.9867,-0.98 1.78,-1.28 0.7934,-0.3 1.77,-0.45 2.93,-0.45 0.9618,0 1.8431,0.0917 2.6437,0.27515 0.1336,0.0306 0.2263,0.15072 0.2263,0.28777 v 2.41117 c 0,0.19876 -0.1899,0.34262 -0.3836,0.29821 -0.7047,-0.16153 -1.4734,-0.2423 -2.3064,-0.2423 -1.1866,0 -1.78,0.21333 -1.78,0.64 0,0.10667 0.04,0.19 0.12,0.25 0.08,0.06 0.2134,0.10667 0.4,0.14 l 1.79,0.36 c 0.92,0.18667 1.6134,0.5333 2.08,1.04 0.4667,0.5 0.7,1.2333 0.7,2.2 0,0.7667 -0.2,1.4333 -0.6,2 -0.4,0.56 -0.9733,0.99 -1.72,1.29 -0.7466,0.3 -1.63,0.45 -2.65,0.45 z" />
    <path
       style="fill:#40ceb3;stroke-width:0.36368474"
       inkscape:connector-curvature="0"
       id="path20"
       d="m 97.4697,220.47 c -0.5133,0 -0.9633,-0.1 -1.35,-0.3 -0.3867,-0.2 -0.6867,-0.4833 -0.9,-0.85 -0.2133,-0.3733 -0.32,-0.81 -0.32,-1.31 0,-0.76 0.23,-1.3567 0.69,-1.79 0.46,-0.44 1.0867,-0.66 1.88,-0.66 0.52,0 0.9733,0.1033 1.36,0.31 0.3867,0.2 0.6833,0.4833 0.89,0.85 0.2133,0.3667 0.3203,0.7967 0.3203,1.29 0,0.4867 -0.107,0.9167 -0.3203,1.29 -0.2133,0.3733 -0.5167,0.6633 -0.91,0.87 -0.3867,0.2 -0.8333,0.3 -1.34,0.3 z" />
    <path
       style="fill:#40ceb3;stroke-width:0.36368474"
       inkscape:connector-curvature="0"
       id="path22"
       d="m 106.005,220.49 c -1.713,0 -3.04,-0.4767 -3.98,-1.43 -0.933,-0.96 -1.4,-2.37 -1.4,-4.23 0,-1.9 0.46,-3.33 1.38,-4.29 0.927,-0.96667 2.26,-1.45 4,-1.45 1.727,0 3.053,0.48666 3.98,1.46 0.927,0.97333 1.39,2.39 1.39,4.25 0,1.8733 -0.467,3.29 -1.4,4.25 -0.933,0.96 -2.257,1.44 -3.97,1.44 z m 0,-3 c 0.3,0 0.54,-0.0733 0.72,-0.22 0.18,-0.1467 0.313,-0.41 0.4,-0.79 0.093,-0.3867 0.14,-0.9367 0.14,-1.65 0,-0.7267 -0.047,-1.29 -0.14,-1.69 -0.093,-0.4 -0.23,-0.67334 -0.41,-0.82 -0.18,-0.15334 -0.417,-0.23 -0.71,-0.23 -0.293,0 -0.53,0.0767 -0.71,0.23 -0.18,0.14666 -0.32,0.41666 -0.42,0.81 -0.093,0.39333 -0.14,0.95 -0.14,1.67 0,0.72 0.043,1.2767 0.13,1.67 0.093,0.3867 0.23,0.6533 0.41,0.8 0.187,0.1467 0.43,0.22 0.73,0.22 z" />
    <path
       style="fill:#40ceb3;stroke-width:0.36368474"
       inkscape:connector-curvature="0"
       id="path24"
       d="m 112.695,209.57 c 0,-0.16569 0.135,-0.3 0.3,-0.3 h 2.777 c 0.142,0 0.264,0.0991 0.294,0.23769 l 0.24,1.13146 c 0.011,0.053 0.058,0.0908 0.112,0.0908 0.047,0 0.089,-0.0284 0.107,-0.0712 0.232,-0.53676 0.559,-0.9297 0.98,-1.17881 0.44,-0.26 0.967,-0.39 1.58,-0.39 0.198,0 0.405,0.014 0.621,0.042 0.145,0.0188 0.249,0.14445 0.249,0.29031 v 3.07368 c 0,0.19193 -0.178,0.33543 -0.369,0.31317 -0.223,-0.0261 -0.477,-0.0392 -0.761,-0.0392 -0.42,0 -0.82,0.0667 -1.2,0.2 -0.329,0.11559 -0.591,0.26123 -0.785,0.43694 -0.057,0.0512 -0.085,0.12547 -0.085,0.20169 V 219.97 c 0,0.1657 -0.134,0.3 -0.3,0.3 h -3.46 c -0.165,0 -0.3,-0.1343 -0.3,-0.3 z" />
    <path
       style="fill:#40ceb3;stroke-width:0.36368474"
       inkscape:connector-curvature="0"
       id="path26"
       d="m 124.898,224.87 c -1.225,0 -2.342,-0.1092 -3.349,-0.3275 -0.136,-0.0295 -0.231,-0.1506 -0.231,-0.2896 v -2.5281 c 0,-0.1953 0.184,-0.3385 0.374,-0.2959 0.959,0.2141 1.908,0.3211 2.846,0.3211 0.907,0 1.563,-0.1667 1.97,-0.5 0.407,-0.3333 0.61,-0.8867 0.61,-1.66 v -0.3937 c 0,-0.0642 -0.052,-0.1163 -0.116,-0.1163 -0.04,0 -0.077,0.0203 -0.099,0.0533 -0.255,0.3806 -0.584,0.6728 -0.985,0.8767 -0.413,0.2133 -0.89,0.32 -1.43,0.32 -0.7,0 -1.353,-0.1967 -1.96,-0.59 -0.607,-0.4 -1.097,-1 -1.47,-1.8 -0.367,-0.8067 -0.55,-1.7933 -0.55,-2.96 0,-1.9 0.513,-3.35334 1.54,-4.36 1.033,-1.01334 2.613,-1.52334 4.74,-1.53 0.747,0 1.51,0.06 2.29,0.18 0.703,0.10122 1.336,0.24499 1.9,0.4313 0.121,0.0397 0.2,0.15317 0.2,0.2798 v 8.8589 c 0,1.4067 -0.23,2.5533 -0.69,3.44 -0.453,0.8867 -1.143,1.54 -2.07,1.96 -0.92,0.42 -2.093,0.63 -3.52,0.63 z m 1.31,-7.84 c 0.27,0 0.514,-0.0365 0.732,-0.1094 0.111,-0.0371 0.178,-0.1455 0.178,-0.2626 v -4.20944 c 0,-0.14418 -0.102,-0.26928 -0.245,-0.28787 -0.158,-0.0205 -0.309,-0.0307 -0.455,-0.0307 -0.607,0 -1.06,0.19 -1.36,0.57 -0.293,0.37333 -0.44,1.01666 -0.44,1.93 0,0.6267 0.057,1.1133 0.17,1.46 0.12,0.3467 0.293,0.59 0.52,0.73 0.227,0.14 0.527,0.21 0.9,0.21 z" />
  </g>
</svg>
