<?xml version="1.0" encoding="UTF-8" standalone="no"?>
<!-- Created with Inkscape (http://www.inkscape.org/) -->
<svg xmlns:dc="http://purl.org/dc/elements/1.1/" xmlns:cc="http://creativecommons.org/ns#" xmlns:rdf="http://www.w3.org/1999/02/22-rdf-syntax-ns#" xmlns:svg="http://www.w3.org/2000/svg" xmlns="http://www.w3.org/2000/svg" xmlns:sodipodi="http://sodipodi.sourceforge.net/DTD/sodipodi-0.dtd" xmlns:inkscape="http://www.inkscape.org/namespaces/inkscape" width="70.555557mm" height="105.60915mm" viewBox="0 0 250.00001 374.20563" id="svg4768" version="1.1" inkscape:version="0.91 r13725" sodipodi:docname="Marne (51) logo 2018.svg">
  <defs id="defs4770">
    <clipPath clipPathUnits="userSpaceOnUse" id="clipPath500">
      <path d="m 504.837,0 61.229,0 0,98.042 -61.229,0 0,-98.042 z" id="path502" inkscape:connector-curvature="0"/>
    </clipPath>
  </defs>
  <sodipodi:namedview id="base" pagecolor="#ffffff" bordercolor="#666666" borderopacity="1.0" inkscape:pageopacity="0.0" inkscape:pageshadow="2" inkscape:zoom="1.2675676" inkscape:cx="127.14286" inkscape:cy="214.41365" inkscape:document-units="px" inkscape:current-layer="layer1" showgrid="false" fit-margin-top="0" fit-margin-left="0" fit-margin-right="0" fit-margin-bottom="0" inkscape:window-width="1366" inkscape:window-height="705" inkscape:window-x="-8" inkscape:window-y="-8" inkscape:window-maximized="1"/>
  <metadata id="metadata4773">
    <rdf:RDF>
      <cc:Work rdf:about="">
        <dc:format>image/svg+xml</dc:format>
        <dc:type rdf:resource="http://purl.org/dc/dcmitype/StillImage"/>
        <dc:title/>
      </cc:Work>
    </rdf:RDF>
  </metadata>
  <g inkscape:label="Calque 1" inkscape:groupmode="layer" id="layer1" transform="translate(-260.36933,-430.36103)">
    <g transform="matrix(5.0307074,0,0,-5.0307074,-2307.7253,893.86827)" id="g496">
      <g id="g498" clip-path="url(#clipPath500)">
        <g id="g504" transform="translate(544.5462,63.1606)">
          <path d="M 0,0 0,11.51 -0.018,11.499 C -2.606,9.608 -5.794,8.49 -9.244,8.49 l 0,0.002 12.054,12.051 6.577,0 0,-32.738 C 4.203,-12.195 0,-6.735 0,0 m -9.242,28.975 c -13.697,0 -24.801,-11.103 -24.801,-24.801 0,-6.272 2.329,-12.001 6.17,-16.369 -0.063,0.071 -0.124,0.142 -0.186,0.214 0.062,-0.002 0.123,-0.003 0.185,-0.003 4.444,0 8.047,3.603 8.047,8.047 0,4.444 -3.603,8.046 -8.047,8.046 l 0,16.434 c 0,0 0,0 0,0 l 6.577,0 12.053,-12.051 0,-0.002 c -3.45,0 -6.638,1.118 -9.226,3.009 l -0.018,0.011 0.002,-3.024 c 1.92,-2.194 3.085,-5.064 3.085,-8.208 0,-6.888 -5.584,-12.473 -12.472,-12.473 4.545,-5.169 11.207,-8.431 18.631,-8.431 13.697,0 24.801,11.103 24.801,24.8 0,13.698 -11.104,24.801 -24.801,24.801" style="fill:#60ad45;fill-opacity:1;fill-rule:nonzero;stroke:none" id="path506" inkscape:connector-curvature="0"/>
        </g>
        <g id="g508" transform="translate(524.6449,24.2691)">
          <path d="m 0,0 c -1.97,0 -3.568,2.075 -3.568,4.635 l 0,4.374 -0.006,-0.004 C -4.558,8.286 -5.769,7.861 -7.081,7.861 l 0,0.001 4.581,4.58 2.5,0 L 0,0 Z" style="fill:#60ad45;fill-opacity:1;fill-rule:nonzero;stroke:none" id="path510" inkscape:connector-curvature="0"/>
        </g>
        <g id="g512" transform="translate(510.4838,24.2691)">
          <path d="m 0,0 c 1.97,0 3.568,2.075 3.568,4.635 l 0,4.374 0.006,-0.004 C 4.558,8.286 5.769,7.861 7.081,7.861 l 0,0.001 -4.581,4.58 -2.5,0 L 0,0 Z" style="fill:#60ad45;fill-opacity:1;fill-rule:nonzero;stroke:none" id="path514" inkscape:connector-curvature="0"/>
        </g>
        <g id="g516" transform="translate(547.683,29.5688)">
          <path d="M 0,0 C 0,0.904 -0.733,1.638 -1.637,1.638 -2.542,1.638 -3.275,0.904 -3.275,0 l 0,-3.182 c 0,-1.169 -0.948,-2.118 -2.118,-2.118 l 0,8.877 1.043,0 1.22,-1.219 c 0.524,0.738 1.385,1.219 2.358,1.219 1.596,0 2.89,-1.294 2.89,-2.89 l 0,-3.892 C 2.118,-4.362 1.157,-5.3 0,-5.3 L 0,0 Z" style="fill:#60ad45;fill-opacity:1;fill-rule:nonzero;stroke:none" id="path518" inkscape:connector-curvature="0"/>
        </g>
        <g id="g520" transform="translate(538.8267,31.9269)">
          <path d="m 0,0 -1.22,1.219 -1.043,0 0,-8.877 c 1.17,0 2.118,0.949 2.118,2.118 l 0,3.182 c 0,0.904 0.733,1.638 1.637,1.638 0.319,0 0.615,-0.094 0.866,-0.252 l 0,2.191 C 1.385,1.219 0.524,0.738 0,0" style="fill:#60ad45;fill-opacity:1;fill-rule:nonzero;stroke:none" id="path522" inkscape:connector-curvature="0"/>
        </g>
        <g id="g524" transform="translate(530.6538,26.3878)">
          <path d="m 0,0 c -1.281,0 -2.32,1.039 -2.32,2.32 0,1.281 1.039,2.32 2.32,2.32 1.281,0 2.32,-1.039 2.32,-2.32 C 2.32,1.039 1.281,0 0,0 M 3.466,6.758 2.494,5.84 C 1.771,6.395 0.872,6.733 -0.104,6.756 -2.507,6.7 -4.438,4.736 -4.438,2.32 c 0,-2.451 1.987,-4.438 4.438,-4.438 1.014,0 1.949,0.34 2.696,0.912 0.383,-0.551 1.02,-0.913 1.742,-0.913 l 0,8.877 -0.972,0 z" style="fill:#60ad45;fill-opacity:1;fill-rule:nonzero;stroke:none" id="path526" inkscape:connector-curvature="0"/>
        </g>
        <g id="g528" transform="translate(510.4838,17.7513)">
          <path d="m 0,0 0,3.664 0.89,0 0,-2.95 1.418,0 L 2.308,0 0,0 Z" style="fill:#60ad45;fill-opacity:1;fill-rule:nonzero;stroke:none" id="path530" inkscape:connector-curvature="0"/>
        </g>
        <g id="g532" transform="translate(521.0402,19.6026)">
          <path d="m 0,0 c 0,0.214 -0.034,0.392 -0.101,0.533 -0.067,0.141 -0.157,0.254 -0.269,0.338 -0.112,0.084 -0.24,0.144 -0.383,0.18 -0.143,0.035 -0.291,0.053 -0.442,0.053 l -0.44,0 0,-2.219 0.419,0 c 0.159,0 0.311,0.019 0.458,0.056 0.147,0.038 0.276,0.099 0.388,0.185 0.112,0.086 0.202,0.2 0.269,0.343 C -0.034,-0.388 0,-0.211 0,0 m 0.895,-0.009 c 0,-0.321 -0.059,-0.597 -0.178,-0.83 -0.119,-0.233 -0.276,-0.425 -0.471,-0.575 -0.195,-0.15 -0.415,-0.26 -0.66,-0.331 -0.245,-0.071 -0.493,-0.106 -0.745,-0.106 l -1.366,0 0,3.664 1.324,0 c 0.259,0 0.515,-0.03 0.766,-0.091 0.252,-0.06 0.477,-0.16 0.673,-0.3 C 0.435,1.282 0.593,1.095 0.714,0.861 0.835,0.626 0.895,0.336 0.895,-0.009" style="fill:#60ad45;fill-opacity:1;fill-rule:nonzero;stroke:none" id="path534" inkscape:connector-curvature="0"/>
        </g>
        <g id="g536" transform="translate(528.2124,20.2821)">
          <path d="m 0,0 c 0,0.086 -0.017,0.157 -0.052,0.212 -0.034,0.056 -0.081,0.099 -0.14,0.13 -0.058,0.031 -0.125,0.051 -0.199,0.062 -0.074,0.01 -0.151,0.015 -0.23,0.015 l -0.383,0 0,-0.864 0.367,0 c 0.083,0 0.163,0.007 0.239,0.021 0.075,0.013 0.144,0.038 0.204,0.072 0.06,0.035 0.108,0.081 0.142,0.138 C -0.017,-0.158 0,-0.086 0,0 m 0.885,0.005 c 0,-0.214 -0.04,-0.394 -0.119,-0.541 C 0.687,-0.682 0.58,-0.8 0.445,-0.89 0.311,-0.98 0.155,-1.045 -0.021,-1.087 -0.197,-1.128 -0.38,-1.149 -0.569,-1.149 l -0.435,0 0,-1.381 -0.89,0 0,3.664 1.346,0 c 0.2,0 0.387,-0.02 0.561,-0.06 C 0.187,1.034 0.339,0.97 0.468,0.883 0.598,0.795 0.699,0.679 0.774,0.536 0.848,0.392 0.885,0.216 0.885,0.005" style="fill:#60ad45;fill-opacity:1;fill-rule:nonzero;stroke:none" id="path538" inkscape:connector-curvature="0"/>
        </g>
        <g id="g540" transform="translate(531.1633,20.4373)">
          <path d="m 0,0 -0.466,-1.257 0.921,0 L 0,0 Z m 0.983,-2.686 -0.285,0.72 -1.417,0 -0.27,-0.72 -0.962,0 1.537,3.664 0.859,0 1.521,-3.664 -0.983,0 z" style="fill:#60ad45;fill-opacity:1;fill-rule:nonzero;stroke:none" id="path542" inkscape:connector-curvature="0"/>
        </g>
        <g id="g544" transform="translate(535.7029,20.2926)">
          <path d="m 0,0 c 0,0.086 -0.018,0.156 -0.055,0.209 -0.036,0.054 -0.083,0.095 -0.14,0.125 -0.057,0.029 -0.121,0.049 -0.193,0.059 -0.071,0.011 -0.139,0.016 -0.205,0.016 l -0.442,0 0,-0.854 0.39,0 c 0.073,0 0.147,0.006 0.224,0.018 0.076,0.012 0.145,0.034 0.208,0.065 0.062,0.031 0.113,0.076 0.153,0.134 C -0.02,-0.169 0,-0.093 0,0 m 0.036,-2.541 -0.807,1.475 -0.264,0 0,-1.475 -0.89,0 0,3.664 1.397,0 c 0.176,0 0.348,-0.018 0.515,-0.054 C 0.154,1.032 0.304,0.971 0.437,0.885 0.57,0.799 0.676,0.685 0.756,0.543 0.835,0.402 0.875,0.226 0.875,0.015 0.875,-0.233 0.807,-0.442 0.673,-0.611 0.538,-0.78 0.352,-0.9 0.114,-0.973 l 0.957,-1.568 -1.035,0 z" style="fill:#60ad45;fill-opacity:1;fill-rule:nonzero;stroke:none" id="path546" inkscape:connector-curvature="0"/>
        </g>
        <g id="g548" transform="translate(547.6241,17.7518)">
          <path d="m 0,0 0,2.593 -0.015,0 L -0.926,0 l -0.621,0 -0.849,2.593 -0.015,0 0,-2.593 -0.891,0 0,3.664 1.26,0 0.834,-2.35 0.02,0 0.798,2.35 1.28,0 L 0.89,0 0,0 Z" style="fill:#60ad45;fill-opacity:1;fill-rule:nonzero;stroke:none" id="path550" inkscape:connector-curvature="0"/>
        </g>
        <g id="g552" transform="translate(555.4199,17.7518)">
          <path d="m 0,0 -1.423,2.396 -0.016,0 0,-2.396 -0.89,0 0,3.664 1.009,0 1.418,-2.391 0.016,0 0,2.391 0.89,0 L 1.004,0 0,0 Z" style="fill:#60ad45;fill-opacity:1;fill-rule:nonzero;stroke:none" id="path554" inkscape:connector-curvature="0"/>
        </g>
        <g id="g556" transform="translate(523.7531,21.7253)">
          <path d="m 0,0 0,0 0,0.89 c 0,0.492 0.399,0.674 0.89,0.674 l 0,-0.674 C 0.89,0.399 0.492,0 0,0" style="fill:#60ad45;fill-opacity:1;fill-rule:nonzero;stroke:none" id="path558" inkscape:connector-curvature="0"/>
        </g>
        <g id="g560" transform="translate(553.5186,29.376)">
          <path d="M 0,0 C 0.287,0.955 1.172,1.652 2.221,1.652 3.27,1.652 4.155,0.955 4.443,0 L 0,0 Z m 6.66,-0.668 c 0,2.451 -1.988,4.438 -4.439,4.438 -2.451,0 -4.438,-1.987 -4.438,-4.438 0,-2.452 1.987,-4.439 4.438,-4.439 1.825,0 3.393,1.102 4.075,2.676 -0.357,0.254 -0.799,0.406 -1.28,0.406 C 4.5,-2.025 4.026,-2.2 3.656,-2.491 3.261,-2.802 2.763,-2.988 2.221,-2.988 1.172,-2.988 0.287,-2.292 0,-1.336 l 6.609,0 c 0.033,0.218 0.051,0.441 0.051,0.668" style="fill:#60ad45;fill-opacity:1;fill-rule:nonzero;stroke:none" id="path562" inkscape:connector-curvature="0"/>
        </g>
        <g id="g564" transform="translate(537.1386,20.7014)">
          <path d="m 0,0 0,0.714 2.955,0 0,-0.714 -1.032,0 0,-2.95 -0.891,0 0,2.95 L 0,0 Z" style="fill:#60ad45;fill-opacity:1;fill-rule:nonzero;stroke:none" id="path566" inkscape:connector-curvature="0"/>
        </g>
        <g id="g568" transform="translate(557.1702,20.7014)">
          <path d="m 0,0 0,0.714 2.955,0 0,-0.714 -1.032,0 0,-2.95 -0.891,0 0,2.95 L 0,0 Z" style="fill:#60ad45;fill-opacity:1;fill-rule:nonzero;stroke:none" id="path570" inkscape:connector-curvature="0"/>
        </g>
        <g id="g572" transform="translate(516.1646,21.4151)">
          <path d="m 0,0 -2.556,0 0,-3.663 2.556,0 0,0.713 -1.666,0 0,0.761 1.257,0 0,0.714 -1.257,0 0,0.761 1.666,0 L 0,0 Z" style="fill:#60ad45;fill-opacity:1;fill-rule:nonzero;stroke:none" id="path574" inkscape:connector-curvature="0"/>
        </g>
        <g id="g576" transform="translate(525.4194,21.4151)">
          <path d="m 0,0 -2.556,0 0,-3.663 2.556,0 0,0.713 -1.666,0 0,0.761 1.257,0 0,0.714 -1.257,0 0,0.761 1.666,0 L 0,0 Z" style="fill:#60ad45;fill-opacity:1;fill-rule:nonzero;stroke:none" id="path578" inkscape:connector-curvature="0"/>
        </g>
        <g id="g580" transform="translate(543.3948,21.4151)">
          <path d="m 0,0 -2.556,0 0,-3.663 2.556,0 0,0.713 -1.666,0 0,0.761 1.257,0 0,0.714 -1.257,0 0,0.761 1.666,0 L 0,0 Z" style="fill:#60ad45;fill-opacity:1;fill-rule:nonzero;stroke:none" id="path582" inkscape:connector-curvature="0"/>
        </g>
        <g id="g584" transform="translate(552.1636,21.4151)">
          <path d="m 0,0 -2.556,0 0,-3.663 2.556,0 0,0.713 -1.666,0 0,0.761 1.257,0 0,0.714 -1.257,0 0,0.761 1.666,0 L 0,0 Z" style="fill:#60ad45;fill-opacity:1;fill-rule:nonzero;stroke:none" id="path586" inkscape:connector-curvature="0"/>
        </g>
      </g>
    </g>
  </g>
</svg>