<svg width="181" height="54" viewBox="0 0 181 54" xmlns="http://www.w3.org/2000/svg" xmlns:xlink="http://www.w3.org/1999/xlink"><defs><path id="a" d="M0 53.8872h180.9004V0H0z"/></defs><g fill="none" fill-rule="evenodd"><path fill="#FFF" d="M89.0969 13.2972V5.5696h5.9235V6.934h-4.2243v1.7496h3.5242v1.3184H90.796v1.9307h4.2243v1.3646z"/><g transform="translate(0 .2841)"><path d="M94.4806 2.7848c-.2206.0624-1.3308.2256-2.341.2347-1.0654.0095-2.1675-.1769-2.3412-.2347v.8944c.642.2576 1.4547.3931 2.3411.3931.886 0 1.6992-.1355 2.3411-.393v-.8945zM98.518 10.0558l1.3628-2.6855 1.3624 2.6855H98.518zm1.8262-4.885c-.0986-.1954-.2558-.2974-.4634-.2974-.208 0-.3648.102-.4634.2975l-4.0065 7.5776h1.7412l.6966-1.3737h4.0638l.6966 1.3737h1.7413l-4.0062-7.5776zM119.9206 12.6367l-4.619-4.5601v4.5373h-1.6504V5.3113c0-.3773.4465-.5774.7289-.3262l4.6183 4.5598v-4.535h1.6507v7.3003c0 .3773-.4465.5773-.7285.3265M120.6667 23.7403v-7.7276h5.9235v1.3642h-4.2244v1.7496h3.5243v1.3184h-3.5243v1.9308h4.2244v1.3646zM126.0504 13.924c-.2207.0624-1.3309.2257-2.3411.2348-1.0653.0094-2.1674-.177-2.341-.2347v.8944c.6418.2575 1.4546.393 2.341.393.886 0 1.6991-.1355 2.341-.393v-.8944zM104.531 23.7403v-7.7276h5.9235v1.3642h-4.2243v1.7496h3.5242v1.3184h-3.5242v1.9308h4.2243v1.3646zM109.9147 13.924c-.2206.0624-1.3308.2257-2.341.2348-1.0654.0094-2.1675-.177-2.3411-.2347v.8944c.6419.2575 1.4546.393 2.341.393.886 0 1.6992-.1355 2.3411-.393v-.8944zM128.3837 23.7403v-7.7276h5.9236v1.3642h-4.2244v1.7496h3.5242v1.3184h-3.5242v1.9308h4.2244v1.3646zM138.936 19.1865c-1.0715-.3847-1.6405-.5743-1.6405-1.1303 0-.4743.4729-.7119 1.515-.7119.877 0 1.6304.2085 2.3699.5483v-1.4441c-.5416-.2088-1.4288-.4358-2.3699-.4358-1.7514 0-3.4113.5693-3.4113 2.3073 0 1.366 1.509 1.899 2.4091 2.2279.9584.3503 1.924.5886 1.924 1.2966 0 .7186-.8622.838-1.7128.838-.8201 0-1.6304-.2655-2.4249-.6295v1.4746c.5437.2477 1.4876.475 2.425.475 2.2147 0 3.5862-.86 3.5862-2.4793 0-1.4687-1.628-1.963-2.6697-2.3368M84.4621 19.7813h-2.0843v-2.485h2.0843c.6205 0 1.3361.239 1.3361 1.2427 0 1.0034-.7156 1.2423-1.336 1.2423m0-3.7686h-3.784v7.7276h1.6996v-2.675h2.0843c1.1555 0 3.0696-.3412 3.0696-2.5263 0-2.1855-1.9141-2.5263-3.0696-2.5263M117.816 23.7974l-4.619-4.5818v4.559h-1.6505v-7.324c0-.3773.4465-.5773.729-.3265l4.6182 4.5815v-4.6554h1.6508v7.4207c0 .3773-.4466.5774-.7286.3265M106.932 8.4512V6.1574h2.062c.5163 0 1.2571.206 1.2571 1.147 0 .9408-.8724 1.1468-1.3315 1.1468h-1.9875zm3.0395 1.1246c.8482-.1801 2.0131-.7424 2.0131-2.2713 0-1.7756-1.3757-2.431-2.9907-2.431h-3.7613v7.7279h1.6995V9.7352h1.301l2.013 2.8662h2.0304l-2.305-3.0256zM97.8116 19.5904v-2.2937h2.0618c.5164 0 1.2572.206 1.2572 1.147 0 .9407-.8724 1.1467-1.3315 1.1467h-1.9875zm3.0394 1.1246c.8482-.18 2.0131-.7424 2.0131-2.2713 0-1.7755-1.3757-2.431-2.9907-2.431h-3.761v7.728h1.6992v-2.8663h1.301l2.013 2.8662h2.0304l-2.305-3.0256zM91.0174 23.7406h-2.0089L90.802 20.83l-3.1082-4.8172h2.0548l2.0303 3.3647 1.8612-3.3647h1.963zM84.904 11.317h-2.5266V9.1427h2.4211c.4592 0 1.415.1132 1.415 1.0276 0 .9407-.793 1.1467-1.3094 1.1467zm-.2939-5.1613c.4466 0 1.0436.2102 1.0436.8797 0 .6699-.6332.9204-1.0436.9204h-2.2327V6.1557h2.2327zM86.3545 8.34c.41-.1734 1.0306-.5665 1.0306-1.5135 0-1.0766-.9797-1.9532-2.4652-1.9532h-4.2416v7.7276h4.278c1.4428 0 2.9908-.5055 2.9908-2.3872 0-1.1005-.8542-1.6348-1.5926-1.8737zM36.1677 17.8989c-1.8836 0-4.3605-.2947-6.5647-1.1162l5.3023-8.7811 2.2116 4.223 1.469-1.7713 3.8221 6.3329c-2.4505.8744-4.5997 1.1127-6.2403 1.1127zM37.5186.9512C37.1064.3539 36.6592 0 36.0056 0c-.6534 0-1.101.3539-1.5132.9512L18.942 24.2675l6.1427.0007 2.1741-3.5942c2.8052 1.1884 6.1888 1.6704 8.747 1.6894 2.5578-.019 5.9414-.501 8.7465-1.6894l2.1742 3.5942 6.1427-.0007L37.5186.9512zM11.845 16.2804c-3.0798 0-5.423-.451-6.9415-1.3384l.0017-5.965 9.2714.0004c2.4666.18 3.996 1.4115 3.996 3.3885 0 2.1848-1.8914 3.9145-6.3276 3.9145m2.5122-11.4066L.005 4.8734 0 24.0738h4.901l.0014-4.6379c1.8872.7127 4.1494 1.0903 7.098 1.0903 6.9429 0 10.7996-3.507 10.7996-7.9854 0-4.8022-4.1216-7.59-8.4428-7.667M73.4607 5.5419c-.2936-.4253-.7418-.6685-1.3785-.6685h-3.4618l.0386 2.2153c0 5.2492-.2315 8.8799-1.5013 10.6256-1.0745 1.4768-2.4828 2.3298-4.9326 2.3298-2.4498 0-3.8196-.853-4.8937-2.3298-1.2702-1.7457-1.603-5.0768-1.603-10.6256h.0035c0-.6468-.072-1.1835-.3227-1.5468-.2933-.4253-.7416-.6685-1.3786-.6685h-3.519v2.2153c0 7.7549.6069 11.4024 3.498 14.2714 1.8913 1.8768 4.3573 3.0827 8.2155 3.0914 3.8578-.0087 6.3237-1.2146 8.2155-3.0914 2.891-2.869 3.3425-6.6332 3.3425-14.2714 0-.6468-.0716-1.1835-.3224-1.5468M25.2313 32.028v21.4829H20.312l.1519-14.3544-6.9117 6.4765a1.3896 1.3896 0 0 1-.9366.3608 1.3892 1.3892 0 0 1-.9369-.3608L4.767 39.1565l.152 14.3544H0V32.0286c0-1.2034 1.4256-1.84 2.3235-1.0384l10.2921 9.1917 10.2918-9.1917c.8987-.8023 2.3239-.1657 2.3239 1.0377M47.6917 41.6162c0-6.4436-3.9763-7.73-6.8678-7.73v-.0074.0074c-2.8904 0-7.0204 1.2864-7.0204 7.73 0 6.444 4.129 7.7304 7.0204 7.7304v.0074-.0074c2.8915 0 6.8689-1.2864 6.8678-7.7304m5.193-.0003c0 8.1434-5.7556 11.6788-12.0608 11.6788-6.3055 0-12.0603-3.5354-12.0603-11.6788 0-8.1438 5.7558-11.6792 12.0603-11.6792 6.3056 0 12.0607 3.5354 12.0607 11.6792M72.2376 46.053c0-2.6615-2.7824-2.9908-4.1195-2.9908h-7.0474v6.329h7.355c1.503 0 3.8119-.5994 3.8119-3.3381zm-11.167-6.447h6.4992c1.1944 0 3.0377-.7287 3.0377-2.6788 0-1.9496-1.7374-2.5613-3.0377-2.5613h-6.4991v5.2401zm11.577 1.119c2.1496.6958 4.6359 2.2517 4.6359 5.455 0 5.4783-4.5054 6.949-8.7055 6.949H56.124V30.633h12.348c4.3244 0 7.1765 2.5522 7.1765 5.6857 0 2.7569-1.8065 3.9015-3.0009 4.4067v-.0004z" fill="#FFF"/><mask id="b" fill="#fff"><use xlink:href="#a"/></mask><path fill="#FFF" mask="url(#b)" d="M80.6783 53.1182h4.9445V30.6329h-4.9445zM107.7764 48.8559v4.2717H91.2016V30.633h4.9445v18.223zM111.5465 53.1182h4.9445V30.6329h-4.9445zM139.8151 30.633v3.9956h-7.7865v18.5001h-4.9456v-18.5h-7.8194v-3.9958zM151.7271 28.1151c-2.5796 0-4.946-.3948-6.8149-1.1446v-2.6034c.5048.1678 3.714.7108 6.8153.6832 2.9409-.0263 6.1726-.5017 6.8152-.6832v2.6034c-1.869.7498-4.2356 1.1446-6.8156 1.1446zm-3.6642 6.577v5.0938h10.2595v3.8377h-10.2595v5.621h12.2982v3.9725h-17.2448V30.721h17.2448v3.9712h-12.2982zM180.8281 45.978c0 4.7133-3.9932 7.2176-10.4401 7.2176-2.728 0-5.4756-.6619-7.059-1.3829V47.52c2.3123 1.0602 4.6723 1.8334 7.059 1.8334 2.4761 0 4.9863-.3486 4.9863-2.4398 0-2.0611-2.8104-2.7541-5.6016-3.7743-2.6199-.9579-7.013-2.5092-7.013-6.485 0-5.06 4.8323-6.7175 9.9308-6.7175 2.7395 0 5.3212.6611 6.8976 1.2683v4.2038c-2.152-.9898-4.3454-1.5959-6.898-1.5959-3.0335 0-4.4103.6913-4.4103 2.0727 0 1.6186 1.6564 2.1704 4.7758 3.2898 3.0328 1.0888 7.7722 2.528 7.7725 6.8027"/></g></g></svg>