<?xml version="1.0" encoding="UTF-8" standalone="no"?>
<svg xmlns:dc="http://purl.org/dc/elements/1.1/" xmlns:cc="http://creativecommons.org/ns#" xmlns:rdf="http://www.w3.org/1999/02/22-rdf-syntax-ns#" xmlns:svg="http://www.w3.org/2000/svg" xmlns="http://www.w3.org/2000/svg" xmlns:sodipodi="http://sodipodi.sourceforge.net/DTD/sodipodi-0.dtd" xmlns:inkscape="http://www.inkscape.org/namespaces/inkscape" viewBox="0 0 198.82668 198.82668" height="198.82668" width="198.82668" xml:space="preserve" version="1.1" id="svg2" inkscape:version="0.48.2 r9819" sodipodi:docname="Somme (80) logo 2015.svg"><sodipodi:namedview pagecolor="#ffffff" bordercolor="#666666" borderopacity="1" objecttolerance="10" gridtolerance="10" guidetolerance="10" inkscape:pageopacity="0" inkscape:pageshadow="2" inkscape:window-width="1366" inkscape:window-height="706" id="namedview36" showgrid="false" inkscape:zoom="3.7771232" inkscape:cx="63.323656" inkscape:cy="61.985832" inkscape:window-x="-8" inkscape:window-y="-8" inkscape:window-maximized="1" inkscape:current-layer="g12"/><metadata id="metadata8"><rdf:RDF><cc:Work rdf:about=""><dc:format>image/svg+xml</dc:format><dc:type rdf:resource="http://purl.org/dc/dcmitype/StillImage"/></cc:Work></rdf:RDF></metadata><defs id="defs6"><clipPath id="clipPath30" clipPathUnits="userSpaceOnUse"><path id="path32" d="m 465.543,649.184 54.125,0 -9.609,-114.454 c -3.258,-38.515 22.093,-45.359 32.789,-45.359 34.304,0 35,26.317 36.918,49.207 l 9.32,110.606 54.176,0 -9.254,-109.856 c -2.074,-24.812 1.504,-49.957 32.039,-49.957 30.894,0 35.023,21.727 37.219,48.024 l 9.433,111.789 54.153,0 -11.129,-131.993 c -4.305,-51.089 -36.078,-70.57 -78.008,-70.57 -27.485,0 -46.762,15.629 -56.762,32.801 -12.652,-23.641 -35.566,-32.801 -60.348,-32.801 -25.55,0 -45.167,11.82 -57.574,32.051 l -0.746,0 -2.258,-26.692 -51.109,0 16.625,197.204 z"/></clipPath><linearGradient id="linearGradient34" spreadMethod="pad" gradientTransform="matrix(-8.9e-6,-202.559,-202.559,8.9e-6,607.886,649.183)" gradientUnits="userSpaceOnUse" y2="0" x2="1" y1="0" x1="0"><stop id="stop36" offset="0" style="stop-opacity:1;stop-color:#ffffff"/><stop id="stop38" offset="0.27369544" style="stop-opacity:1;stop-color:#a80c30"/><stop id="stop40" offset="0.79" style="stop-opacity:1;stop-color:#a80c30"/><stop id="stop42" offset="1" style="stop-opacity:1;stop-color:#a80c30"/></linearGradient><clipPath id="clipPath50" clipPathUnits="userSpaceOnUse"><path id="path52" d="m 752.34,649.184 14.512,0 -9.782,-115.969 c -4.234,-50.344 28.282,-72.074 56.114,-72.074 12.578,0 46.55,4.589 50.671,53.773 l 11.34,134.27 14.461,0 -9.773,-115.969 c -3.945,-46.906 19.863,-72.074 55.359,-72.074 11.457,0 47.238,3.8 51.438,53.773 l 11.308,134.27 14.532,0 -11.29,-133.868 c -3.867,-46.175 -31.601,-66.796 -67.05,-66.796 -31.66,0 -49.492,14.902 -58.684,41.601 l -0.75,0 c -5.898,-20.199 -25.234,-41.601 -62.605,-41.601 -29.387,0 -53.649,19.839 -57.707,44.656 l -0.746,0 -3.368,-40.067 -14.504,0 16.524,196.075 z"/></clipPath><linearGradient id="linearGradient54" spreadMethod="pad" gradientTransform="matrix(-8.8e-6,-200.664,-200.664,8.8e-6,874.17,649.183)" gradientUnits="userSpaceOnUse" y2="0" x2="1" y1="0" x1="0"><stop id="stop56" offset="0" style="stop-opacity:1;stop-color:#ffffff"/><stop id="stop58" offset="0.27369544" style="stop-opacity:1;stop-color:#a80c30"/><stop id="stop60" offset="0.79" style="stop-opacity:1;stop-color:#a80c30"/><stop id="stop62" offset="1" style="stop-opacity:1;stop-color:#a80c30"/></linearGradient></defs><g transform="matrix(1.3333333,0,0,-1.3333333,0,198.82667)" id="g10"><g transform="scale(0.1)" id="g12"><path id="path14" style="fill:#a80c30;fill-opacity:1;fill-rule:nonzero;stroke:none" d="m 0,0 1491.19,0 0,1491.18 L 0,1491.18 0,0 Z"/><path id="path16" style="fill:#ffffff;fill-opacity:1;fill-rule:nonzero;stroke:none" d="m 1201.99,798.586 c 0,30.016 -9,57.687 -43.94,57.687 -37.05,0 -48.17,-27.671 -48.17,-57.687 l 0,-13.109 88.38,0 c 2.67,0 3.73,1.39 3.73,3.304 l 0,9.805 z m -92.11,-64.668 c -0.53,-33.289 4.74,-70.77 54.51,-70.77 44.45,0 77.28,26.25 84.67,64.676 l 8.49,0 c -8.49,-43.133 -44.46,-72.195 -93.16,-72.195 -61.93,0 -105.31,42.207 -105.31,104.09 0,45.449 41.27,104.043 98.97,104.043 62.47,0 94.75,-61.86 94.75,-81.563 0,-2.816 -1.59,-4.207 -4.77,-4.207 l -138.15,0 0,-44.074"/><path id="path18" style="fill:#ffffff;fill-opacity:1;fill-rule:nonzero;stroke:none" d="m 68.6523,729.477 6.0743,0 c 3.7109,-23.75 15.8046,-65.586 64.6444,-65.586 25.567,0 45.117,16.746 45.117,43.269 0,36.699 -27.91,37.18 -52.578,40.004 -30.222,3.219 -59.5389,7.406 -59.5389,55.793 0,33.469 21.8633,59.996 58.1519,59.996 25.137,0 42.321,-16.281 46.989,-16.281 2.781,0 3.246,3.269 3.246,9.777 l 0,3.707 6.527,0 1.848,-55.344 -6.059,0 c -3.254,26.528 -17.195,50.715 -53.957,50.715 -23.707,0 -42.7967,-13.031 -42.7967,-37.207 0,-24.195 18.1757,-32.574 48.8517,-34.429 l 15.82,-0.934 c 37.68,-2.324 53.031,-22.797 53.031,-54.879 0,-43.25 -28.847,-71.648 -64.652,-71.648 -36.742,0 -47.9101,20.019 -57.2304,20.019 -6.0429,0 -4.6406,-7.433 -5.5781,-17.219 l -6.9727,0 -0.9375,70.247"/><path id="path20" style="fill:#ffffff;fill-opacity:1;fill-rule:nonzero;stroke:none" d="m 392.184,777.98 c 0,40.79 -1.891,78.293 -54.364,78.293 -52.508,0 -54.379,-37.503 -54.379,-78.293 l 0,-36.562 c 0,-40.789 1.871,-78.27 54.379,-78.27 52.473,0 54.364,37.481 54.364,78.27 l 0,36.562 z m -54.364,85.782 c 60.442,0 99.36,-50.164 99.36,-104.043 0,-53.914 -38.918,-104.09 -99.36,-104.09 -60.457,0 -99.386,50.176 -99.386,104.09 0,53.879 38.929,104.043 99.386,104.043"/><path id="path22" style="fill:#ffffff;fill-opacity:1;fill-rule:nonzero;stroke:none" d="m 482.73,855.617 51.082,0 -2.234,-26.679 0.766,0 c 15.804,20.207 37.383,32.046 62.953,32.046 24.781,0 46.156,-9.168 54.836,-32.832 12.894,17.164 34.777,32.832 62.262,32.832 41.96,0 70.437,-19.461 66.16,-70.566 l -11.071,-131.977 -54.14,0 9.351,111.774 c 2.223,26.297 1.754,48.047 -29.133,48.047 -30.503,0 -38.363,-25.192 -40.433,-49.992 l -9.211,-109.829 -54.188,0 9.278,110.582 c 1.933,22.903 5.66,49.239 -28.637,49.239 -10.707,0 -37.219,-6.891 -40.449,-45.418 l -9.59,-114.403 -54.156,0 16.554,197.176"/><path id="path24" style="fill:#ffffff;fill-opacity:1;fill-rule:nonzero;stroke:none" d="m 769.41,854.484 14.516,0 -3.352,-40.058 0.754,0 c 8.203,24.797 35.789,44.613 65.176,44.613 37.383,0 53.105,-21.336 55.644,-41.566 l 0.723,0 c 13.691,26.711 34.004,41.566 65.684,41.566 35.465,0 59.705,-20.586 55.825,-66.73 l -11.25,-133.868 -14.497,0 11.257,134.235 c 4.21,49.988 -30.937,53.781 -42.41,53.781 -35.488,0 -63.515,-25.172 -67.429,-72.074 l -9.77,-115.942 -14.48,0 11.277,134.235 c 4.133,49.203 -29.07,53.781 -41.629,53.781 -27.871,0 -64.004,-21.727 -68.242,-72.074 l -9.723,-115.942 -14.492,0 16.418,196.043"/><g id="g26"><g clip-path="url(#clipPath30)" id="g28"><path id="path44" style="fill:url(#linearGradient34);fill-opacity:1;fill-rule:nonzero;stroke:none" d="m 465.543,649.184 54.125,0 -9.609,-114.454 c -3.258,-38.515 22.093,-45.359 32.789,-45.359 34.304,0 35,26.317 36.918,49.207 l 9.32,110.606 54.176,0 -9.254,-109.856 c -2.074,-24.812 1.504,-49.957 32.039,-49.957 30.894,0 35.023,21.727 37.219,48.024 l 9.433,111.789 54.153,0 -11.129,-131.993 c -4.305,-51.089 -36.078,-70.57 -78.008,-70.57 -27.485,0 -46.762,15.629 -56.762,32.801 -12.652,-23.641 -35.566,-32.801 -60.348,-32.801 -25.55,0 -45.167,11.82 -57.574,32.051 l -0.746,0 -2.258,-26.692 -51.109,0 16.625,197.204"/></g></g><g id="g46"><g clip-path="url(#clipPath50)" id="g48"><path id="path64" style="fill:url(#linearGradient54);fill-opacity:1;fill-rule:nonzero;stroke:none" d="m 752.34,649.184 14.512,0 -9.782,-115.969 c -4.234,-50.344 28.282,-72.074 56.114,-72.074 12.578,0 46.55,4.589 50.671,53.773 l 11.34,134.27 14.461,0 -9.773,-115.969 c -3.945,-46.906 19.863,-72.074 55.359,-72.074 11.457,0 47.238,3.8 51.438,53.773 l 11.308,134.27 14.532,0 -11.29,-133.868 c -3.867,-46.175 -31.601,-66.796 -67.05,-66.796 -31.66,0 -49.492,14.902 -58.684,41.601 l -0.75,0 c -5.898,-20.199 -25.234,-41.601 -62.605,-41.601 -29.387,0 -53.649,19.839 -57.707,44.656 l -0.746,0 -3.368,-40.067 -14.504,0 16.524,196.075"/></g></g><g transform="scale(10)" id="g66"><g transform="matrix(1,0,0,-1,23.9898,45.741)" style="font-size:8px;font-variant:normal;font-weight:normal;writing-mode:lr-tb;fill:#ffffff;fill-opacity:1;fill-rule:nonzero;stroke:none;font-family:HelveticaNeue;-inkscape-font-specification:HelveticaNeue-Roman" id="text68"><path d="m 0.5859375,0 0,-5.7265625 0.7578125,0 0,5.05078125 2.8203125,0 0,0.67578125 z" style="" id="path3014"/><path d="m 5.2568383,0 0,-5.7265625 4.140625,0 0,0.6757813 -3.3828125,0 0,1.7539062 3.1679688,0 0,0.671875 -3.1679688,0 0,1.94921875 3.515625,0 0,0.67578125 z" style="" id="path3016"/><path d="m 16.791018,-2.0078125 0.757812,0.1914063 c -0.158859,0.622397 -0.444666,1.09700588 -0.857422,1.42382807 -0.412764,0.32682299 -0.917321,0.49023428 -1.513672,0.49023438 -0.61719,-1e-7 -1.119142,-0.12565101 -1.505859,-0.37695313 -0.38672,-0.25130155 -0.680991,-0.61523348 -0.882813,-1.09179682 -0.201823,-0.4765607 -0.302734,-0.9882789 -0.302734,-1.5351563 0,-0.5963507 0.113932,-1.1165324 0.341797,-1.5605469 0.227864,-0.4440055 0.552082,-0.7812447 0.972656,-1.0117187 0.420571,-0.2304631 0.883461,-0.3456973 1.388672,-0.3457031 0.572913,5.8e-6 1.054683,0.145839 1.445313,0.4375 0.39062,0.2916717 0.662755,0.7018276 0.816406,1.2304687 L 16.70508,-3.9804688 C 16.572263,-4.397131 16.379555,-4.7005161 16.126955,-4.890625 15.874347,-5.0807241 15.556639,-5.1757761 15.17383,-5.1757812 c -0.440107,5.1e-6 -0.807945,0.1054738 -1.103516,0.3164062 -0.295574,0.2109421 -0.503256,0.494145 -0.623046,0.8496094 -0.119793,0.3554724 -0.179689,0.7220085 -0.179688,1.0996093 -1e-6,0.4869816 0.07096,0.9121114 0.212891,1.2753907 0.141925,0.3632825 0.362628,0.6347666 0.662109,0.8144531 0.299477,0.17968814 0.623695,0.2695318 0.972656,0.26953125 0.424476,5.5e-7 0.783851,-0.12239516 1.078125,-0.3671875 0.294267,-0.24479055 0.493485,-0.60807135 0.597657,-1.08984375 z" style="" id="path3018"/><path d="m 18.426765,-2.7890625 c 0,-0.9505171 0.255208,-1.694657 0.765625,-2.2324219 0.510415,-0.5377548 1.169269,-0.8066348 1.976563,-0.8066406 0.528642,5.8e-6 1.005204,0.1263078 1.429687,0.3789063 0.424475,0.2526093 0.748042,0.6048225 0.970704,1.0566406 0.22265,0.4518268 0.333978,0.9641961 0.333984,1.5371093 -6e-6,0.5807315 -0.117193,1.1002622 -0.351563,1.5585938 -0.23438,0.45833417 -0.566411,0.80533903 -0.996093,1.04101562 -0.429692,0.23567711 -0.893233,0.35351553 -1.390625,0.35351563 -0.539065,-1e-7 -1.020836,-0.1302083 -1.445313,-0.390625 C 19.295254,-0.55338486 18.97364,-0.90885326 18.75489,-1.359375 18.53614,-1.809894 18.426765,-2.286456 18.426765,-2.7890625 z m 0.78125,0.011719 c -1e-6,0.6901063 0.185546,1.2337256 0.556641,1.6308594 0.371092,0.39713619 0.836586,0.5957037 1.396484,0.59570315 0.570309,5.5e-7 1.03971,-0.20052008 1.408204,-0.60156245 0.368484,-0.4010402 0.552729,-0.97005 0.552734,-1.7070313 -5e-6,-0.4661425 -0.07878,-0.8730431 -0.236328,-1.2207031 -0.157557,-0.3476518 -0.388025,-0.6171828 -0.691406,-0.8085938 -0.30339,-0.1914011 -0.643884,-0.2871042 -1.021485,-0.2871093 -0.536461,5.1e-6 -0.998049,0.1842497 -1.384765,0.5527343 -0.386721,0.3684939 -0.58008,0.9837276 -0.580079,1.8457031 z" style="" id="path3020"/><path d="m 24.905289,0 0,-5.7265625 0.777343,0 3.007813,4.4960938 0,-4.4960938 0.726562,0 0,5.7265625 -0.777343,0 -3.007813,-4.5 0,4.5 z" style="" id="path3022"/><path d="m 30.607449,-1.8398437 0.714843,-0.0625 c 0.03385,0.2864599 0.112629,0.5214857 0.236328,0.7050781 0.123697,0.1835947 0.315754,0.33203209 0.576172,0.44531248 0.260415,0.11328188 0.553383,0.16992245 0.878907,0.16992187 0.289059,5.8e-7 0.544267,-0.0429681 0.765625,-0.12890625 0.22135,-0.0859367 0.386063,-0.20377513 0.49414,-0.3535156 0.108069,-0.1497384 0.162105,-0.3131497 0.16211,-0.4902344 -5e-6,-0.1796858 -0.05209,-0.3365867 -0.15625,-0.4707031 -0.104171,-0.1341124 -0.276046,-0.2467425 -0.515625,-0.3378907 -0.15365,-0.059893 -0.493493,-0.1529922 -1.019532,-0.2792968 C 32.218124,-2.7688774 31.849634,-2.8880179 31.638699,-3 31.36526,-3.143226 31.161484,-3.3209602 31.02737,-3.5332031 30.893255,-3.745439 30.826198,-3.9830689 30.826199,-4.2460937 c -10e-7,-0.289058 0.08203,-0.55924 0.246093,-0.8105469 0.164062,-0.2512968 0.403645,-0.4420518 0.71875,-0.5722656 0.315103,-0.1302026 0.665363,-0.1953067 1.050782,-0.1953125 0.424476,5.8e-6 0.798824,0.068365 1.123046,0.2050781 0.324215,0.1367242 0.573564,0.3378959 0.748047,0.6035156 0.174475,0.2656298 0.268225,0.5664107 0.28125,0.9023438 l -0.726562,0.054687 c -0.03907,-0.3619748 -0.171228,-0.635412 -0.396485,-0.8203125 -0.225263,-0.1848908 -0.557945,-0.2773386 -0.998046,-0.2773438 -0.458336,5.2e-6 -0.79232,0.083989 -1.001954,0.2519531 -0.209636,0.1679735 -0.314454,0.3704473 -0.314453,0.6074219 -1e-6,0.2057333 0.07422,0.3750039 0.222657,0.5078125 0.145831,0.1328162 0.52669,0.2688837 1.142578,0.4082031 0.615882,0.1393262 1.038407,0.2610709 1.267578,0.3652344 0.333329,0.1536487 0.579422,0.34831 0.738281,0.5839844 0.158849,0.2356793 0.238276,0.5071634 0.238281,0.8144531 -5e-6,0.3046888 -0.08724,0.5917979 -0.261718,0.86132813 -0.174484,0.26953173 -0.425135,0.47916694 -0.751954,0.62890625 -0.326826,0.14973956 -0.694664,0.22460927 -1.103515,0.22460937 -0.518232,-1e-7 -0.952476,-0.07552086 -1.302735,-0.2265625 -0.350261,-0.15104139 -0.625,-0.3782547 -0.824218,-0.68164063 -0.19922,-0.30338432 -0.304037,-0.64648292 -0.314453,-1.02929682 z" style="" id="path3024"/><path d="m 36.240746,0 0,-5.7265625 4.140625,0 0,0.6757813 -3.382813,0 0,1.7539062 3.167969,0 0,0.671875 -3.167969,0 0,1.94921875 3.515625,0 0,0.67578125 z" style="" id="path3026"/><path d="m 41.417999,0 0,-5.7265625 0.757813,0 0,5.7265625 z" style="" id="path3028"/><path d="m 43.505402,0 0,-5.7265625 0.757812,0 0,5.05078125 2.820313,0 0,0.67578125 z" style="" id="path3030"/><path d="m 50.560581,0 0,-5.7265625 1.972656,0 c 0.44531,5.7e-6 0.785153,0.027349 1.019532,0.082031 0.328121,0.075526 0.608068,0.212245 0.839843,0.4101562 0.302079,0.2552133 0.52799,0.5813849 0.677735,0.9785156 0.149734,0.3971393 0.224604,0.8509149 0.224609,1.3613281 -5e-6,0.4348983 -0.05079,0.8203146 -0.152344,1.1562501 -0.101567,0.3359389 -0.231775,0.6139334 -0.390625,0.83398432 -0.158858,0.22005277 -0.332686,0.39322968 -0.521484,0.51953125 -0.188806,0.12630235 -0.41667,0.22200538 -0.683594,0.28710938 C 53.279979,-0.03255205 52.973339,0 52.626987,0 z m 0.757813,-0.67578125 1.222656,0 c 0.377601,6.8e-7 0.673825,-0.0351555 0.888672,-0.10546875 0.21484,-0.0703116 0.386064,-0.16926988 0.513672,-0.296875 0.179683,-0.1796862 0.319657,-0.4212225 0.419922,-0.7246094 0.100255,-0.3033833 0.150386,-0.6712215 0.15039,-1.1035156 -4e-6,-0.5989548 -0.09831,-1.0592408 -0.294922,-1.3808594 -0.196618,-0.3216099 -0.43555,-0.5371045 -0.716797,-0.6464843 -0.203128,-0.07812 -0.52995,-0.1171825 -0.980468,-0.1171875 l -1.203125,0 z" style="" id="path3032"/><path d="m 56.383835,0 0,-5.7265625 4.140625,0 0,0.6757813 -3.382813,0 0,1.7539062 3.167969,0 0,0.671875 -3.167969,0 0,1.94921875 3.515625,0 0,0.67578125 z m 1.5625,-6.0859375 0.519531,-1.09375 0.921875,0 -0.859375,1.09375 z" style="" id="path3034"/><path d="m 61.432663,0 0,-5.7265625 2.160156,0 c 0.380205,5.7e-6 0.67057,0.018235 0.871094,0.054687 0.281246,0.046881 0.516923,0.1360732 0.707031,0.2675781 0.1901,0.1315157 0.343094,0.3157603 0.458985,0.5527344 0.11588,0.2369838 0.173823,0.4974002 0.173828,0.78125 -5e-6,0.4869827 -0.154953,0.8990917 -0.464844,1.2363281 -0.3099,0.3372421 -0.869795,0.5058617 -1.679688,0.5058594 l -1.46875,0 0,2.328125 z m 0.757812,-3.0039063 1.480469,0 c 0.48958,3.1e-6 0.837236,-0.091143 1.042969,-0.2734375 0.205725,-0.1822882 0.30859,-0.4387983 0.308594,-0.7695312 -4e-6,-0.239579 -0.06055,-0.444657 -0.181641,-0.6152344 C 64.719768,-4.8326775 64.560263,-4.9453076 64.36235,-5 c -0.127607,-0.033849 -0.363284,-0.050776 -0.707031,-0.050781 l -1.464844,0 z" style="" id="path3036"/><path d="m 65.571831,0 2.199218,-5.7265625 0.816407,0 L 70.931206,0 l -0.863282,0 -0.667968,-1.734375 -2.394532,0 L 66.376518,0 z m 1.652343,-2.3515625 1.941407,0 L 68.567924,-3.9375 c -0.182294,-0.4817664 -0.317711,-0.8775994 -0.40625,-1.1875 -0.07292,0.3671923 -0.175783,0.7317752 -0.308593,1.09375 z" style="" id="path3038"/><path d="m 71.572815,0 0,-5.7265625 2.539062,0 c 0.510413,5.7e-6 0.898434,0.051438 1.164063,0.1542969 0.26562,0.10287 0.47786,0.2845105 0.636719,0.5449219 0.158849,0.2604214 0.238276,0.5481815 0.238281,0.8632812 -5e-6,0.4062538 -0.131516,0.7487013 -0.394531,1.0273437 -0.263026,0.2786487 -0.669275,0.4557319 -1.21875,0.53125 0.200517,0.096357 0.35286,0.1914087 0.457031,0.2851563 0.22135,0.2031271 0.430985,0.4570331 0.628906,0.7617188 L 76.61969,0 75.666565,0 74.908752,-1.1914062 c -0.221357,-0.3437485 -0.403649,-0.6067691 -0.546875,-0.7890625 -0.143232,-0.1822896 -0.271487,-0.3098936 -0.384765,-0.3828126 -0.113284,-0.072914 -0.228519,-0.1236954 -0.345703,-0.1523437 -0.08594,-0.018227 -0.226565,-0.027341 -0.421875,-0.027344 l -0.878907,0 0,2.5429688 z m 0.757812,-3.1992188 1.628907,0 c 0.34635,3.2e-6 0.617184,-0.035804 0.8125,-0.1074218 0.195308,-0.071611 0.343746,-0.1861944 0.445312,-0.34375 0.101558,-0.1575483 0.15234,-0.3287721 0.152344,-0.5136719 -4e-6,-0.2708289 -0.09831,-0.4934849 -0.294922,-0.6679687 C 74.87815,-5.0065054 74.567603,-5.0937449 74.143127,-5.09375 l -1.8125,0 z" style="" id="path3040"/><path d="m 78.531311,0 0,-5.0507812 -1.886719,0 0,-0.6757813 4.539063,0 0,0.6757813 -1.894531,0 0,5.0507812 z" style="" id="path3042"/><path d="m 81.857979,0 0,-5.7265625 4.140625,0 0,0.6757813 -3.382813,0 0,1.7539062 3.167969,0 0,0.671875 -3.167969,0 0,1.94921875 3.515625,0 0,0.67578125 z" style="" id="path3044"/><path d="m 86.882881,0 0,-5.7265625 1.140625,0 1.355469,4.0546875 c 0.124997,0.3776055 0.216142,0.6601573 0.273437,0.84765625 0.0651,-0.20833235 0.166664,-0.51432155 0.304688,-0.91796875 l 1.371094,-3.984375 1.019531,0 0,5.7265625 -0.730469,0 0,-4.7929687 L 89.953194,0 89.2696,0 l -1.65625,-4.875 0,4.875 z" style="" id="path3046"/><path d="m 94.065994,0 0,-5.7265625 4.140625,0 0,0.6757813 -3.382812,0 0,1.7539062 3.167969,0 0,0.671875 -3.167969,0 0,1.94921875 3.515625,0 0,0.67578125 z" style="" id="path3048"/><path d="m 99.106033,0 0,-5.7265625 0.777344,0 3.007813,4.4960938 0,-4.4960938 0.72656,0 0,5.7265625 -0.77734,0 -3.007814,-4.5 0,4.5 z" style="" id="path3050"/><path d="m 106.52255,0 0,-5.0507812 -1.88672,0 0,-0.6757813 4.53907,0 0,0.6757813 -1.89454,0 0,5.0507812 z" style="" id="path3052"/><path d="m 108.47031,0 2.19922,-5.7265625 0.81641,0 L 113.82969,0 l -0.86328,0 -0.66797,-1.734375 -2.39453,0 L 109.275,0 z m 1.65235,-2.3515625 1.9414,0 -0.59765,-1.5859375 c -0.1823,-0.4817664 -0.31771,-0.8775994 -0.40625,-1.1875 -0.0729,0.3671923 -0.17579,0.7317752 -0.3086,1.09375 z" style="" id="path3054"/><path d="m 114.42784,0 0,-5.7265625 0.75781,0 0,5.05078125 2.82032,0 0,0.67578125 z" style="" id="path3056"/></g>
</g></g></g></svg>