<?xml version="1.0" encoding="UTF-8" standalone="no"?>
<svg
   xmlns:dc="http://purl.org/dc/elements/1.1/"
   xmlns:cc="http://creativecommons.org/ns#"
   xmlns:rdf="http://www.w3.org/1999/02/22-rdf-syntax-ns#"
   xmlns:svg="http://www.w3.org/2000/svg"
   xmlns="http://www.w3.org/2000/svg"
   id="svg8"
   height="52.400391"
   width="366.57776"
   version="1.1">
  <defs
     id="defs12" />
  <metadata
     id="metadata2">
    <rdf:RDF>
      <cc:Work>
        <dc:format>image/svg+xml</dc:format>
        <dc:type
           rdf:resource="http://purl.org/dc/dcmitype/StillImage" />
        <dc:title>Logo Mes Aides</dc:title>
      </cc:Work>
    </rdf:RDF>
  </metadata>
  <g
     id="text6"
     style="font-size:50px;fill:#000000"
     transform="skewX(-8)"
     aria-label="     Mes-Aides.org  ">
    <path
       id="path12"
       style="font-style:normal;font-variant:normal;font-weight:normal;font-stretch:normal;font-size:50px;font-family:'Century Gothic Std';-inkscape-font-specification:'Century Gothic Std, Normal';font-variant-ligatures:normal;font-variant-caps:normal;font-variant-numeric:normal;font-feature-settings:normal;text-align:start;writing-mode:lr-tb;text-anchor:start;fill:#000000"
       d="M 9.9072266,5.5498047 H 17.255859 L 26.557617,30.354492 35.908203,5.5498047 h 7.348633 V 42 h -4.80957 V 9.9931641 L 29.047852,34.993164 H 24.091797 L 14.692383,9.9931641 V 42 H 9.9072266 Z" />
    <path
       id="path14"
       style="font-style:normal;font-variant:normal;font-weight:normal;font-stretch:normal;font-size:50px;font-family:'Century Gothic Std';-inkscape-font-specification:'Century Gothic Std, Normal';font-variant-ligatures:normal;font-variant-caps:normal;font-variant-numeric:normal;font-feature-settings:normal;text-align:start;writing-mode:lr-tb;text-anchor:start;fill:#000000"
       d="m 76.264648,27.205078 v 2.197266 H 55.610352 q 0.292968,4.638672 2.783203,7.080078 2.514648,2.416992 6.982422,2.416992 2.58789,0 5.004882,-0.634766 2.441407,-0.634765 4.833985,-1.904296 v 4.248046 q -2.416992,1.025391 -4.956055,1.5625 -2.539062,0.53711 -5.151367,0.53711 -6.542969,0 -10.375977,-3.808594 -3.808593,-3.808594 -3.808593,-10.302734 0,-6.713868 3.613281,-10.644532 3.637695,-3.955078 9.790039,-3.955078 5.517578,0 8.71582,3.564453 3.222656,3.540039 3.222656,9.643555 z M 71.772461,25.886719 Q 71.723633,22.200195 69.697266,20.00293 67.695312,17.805664 64.375,17.805664 q -3.759766,0 -6.030273,2.124023 -2.246094,2.124024 -2.587891,5.981446 z" />
    <path
       id="path16"
       style="font-style:normal;font-variant:normal;font-weight:normal;font-stretch:normal;font-size:50px;font-family:'Century Gothic Std';-inkscape-font-specification:'Century Gothic Std, Normal';font-variant-ligatures:normal;font-variant-caps:normal;font-variant-numeric:normal;font-feature-settings:normal;text-align:start;writing-mode:lr-tb;text-anchor:start;fill:#000000"
       d="m 101.06934,15.461914 v 4.248047 q -1.904301,-0.976563 -3.955082,-1.464844 -2.050781,-0.488281 -4.248047,-0.488281 -3.344727,0 -5.029297,1.025391 -1.660156,1.02539 -1.660156,3.076171 0,1.5625 1.196289,2.465821 1.196289,0.878906 4.80957,1.68457 l 1.538086,0.341797 q 4.785156,1.025391 6.787107,2.905273 2.02637,1.855469 2.02637,5.200196 0,3.808593 -3.027344,6.030273 -3.00293,2.22168 -8.276367,2.22168 -2.197266,0 -4.589844,-0.439453 -2.368164,-0.415039 -5.004883,-1.269532 v -4.638671 q 2.490235,1.293945 4.907227,1.953125 2.416992,0.634765 4.785156,0.634765 3.173828,0 4.882812,-1.074219 1.708985,-1.098632 1.708985,-3.076171 0,-1.831055 -1.245117,-2.807618 -1.220703,-0.976562 -5.395508,-1.879882 l -1.5625,-0.366211 q -4.174805,-0.878907 -6.030274,-2.685547 -1.855468,-1.831055 -1.855468,-5.004883 0,-3.857422 2.734375,-5.957031 2.734375,-2.09961 7.763672,-2.09961 2.490234,0 4.6875,0.366211 2.197265,0.366211 4.052738,1.098633 z" />
    <path
       id="path18"
       style="font-style:normal;font-variant:normal;font-weight:normal;font-stretch:normal;font-size:50px;font-family:'Century Gothic Std';-inkscape-font-specification:'Century Gothic Std, Normal';font-variant-ligatures:normal;font-variant-caps:normal;font-variant-numeric:normal;font-feature-settings:normal;text-align:start;writing-mode:lr-tb;text-anchor:start;fill:#000000"
       d="m 107.44141,26.301758 h 13.15918 v 4.003906 h -13.15918 z" />
    <path
       id="path20"
       style="font-style:normal;font-variant:normal;font-weight:normal;font-stretch:normal;font-size:50px;font-family:'Century Gothic Std';-inkscape-font-specification:'Century Gothic Std, Normal';font-variant-ligatures:normal;font-variant-caps:normal;font-variant-numeric:normal;font-feature-settings:normal;text-align:start;writing-mode:lr-tb;text-anchor:start;fill:#000000"
       d="m 139.08203,10.408203 -6.68945,18.139649 h 13.40332 z m -2.7832,-4.8583983 h 5.59082 L 155.78125,42 h -5.12695 l -3.32032,-9.350586 H 130.90332 L 127.58301,42 h -5.2002 z" />
    <path
       id="path22"
       style="font-style:normal;font-variant:normal;font-weight:normal;font-stretch:normal;font-size:50px;font-family:'Century Gothic Std';-inkscape-font-specification:'Century Gothic Std, Normal';font-variant-ligatures:normal;font-variant-caps:normal;font-variant-numeric:normal;font-feature-settings:normal;text-align:start;writing-mode:lr-tb;text-anchor:start;fill:#000000"
       d="m 160.88379,14.65625 h 4.49219 V 42 h -4.49219 z m 0,-10.6445313 h 4.49219 v 5.6884766 h -4.49219 z" />
    <path
       id="path24"
       style="font-style:normal;font-variant:normal;font-weight:normal;font-stretch:normal;font-size:50px;font-family:'Century Gothic Std';-inkscape-font-specification:'Century Gothic Std, Normal';font-variant-ligatures:normal;font-variant-caps:normal;font-variant-numeric:normal;font-feature-settings:normal;text-align:start;writing-mode:lr-tb;text-anchor:start;fill:#000000"
       d="M 192.74414,18.806641 V 4.0117187 h 4.49219 V 42 h -4.49219 v -4.101563 q -1.41602,2.441407 -3.58887,3.637696 -2.14843,1.171875 -5.17578,1.171875 -4.95605,0 -8.08105,-3.955078 -3.10059,-3.955078 -3.10059,-10.400391 0,-6.445312 3.10059,-10.400391 3.125,-3.955078 8.08105,-3.955078 3.02735,0 5.17578,1.196289 2.17285,1.171875 3.58887,3.613282 z m -15.30762,9.545898 q 0,4.956055 2.02637,7.788086 2.05078,2.807617 5.61523,2.807617 3.56446,0 5.61524,-2.807617 2.05078,-2.832031 2.05078,-7.788086 0,-4.956055 -2.05078,-7.763672 -2.05078,-2.832031 -5.61524,-2.832031 -3.56445,0 -5.61523,2.832031 -2.02637,2.807617 -2.02637,7.763672 z" />
    <path
       id="path26"
       style="font-style:normal;font-variant:normal;font-weight:normal;font-stretch:normal;font-size:50px;font-family:'Century Gothic Std';-inkscape-font-specification:'Century Gothic Std, Normal';font-variant-ligatures:normal;font-variant-caps:normal;font-variant-numeric:normal;font-feature-settings:normal;text-align:start;writing-mode:lr-tb;text-anchor:start;fill:#000000"
       d="m 229.87793,27.205078 v 2.197266 h -20.6543 q 0.29297,4.638672 2.78321,7.080078 2.51464,2.416992 6.98242,2.416992 2.58789,0 5.00488,-0.634766 2.44141,-0.634765 4.83398,-1.904296 v 4.248046 q -2.41699,1.025391 -4.95605,1.5625 -2.53906,0.53711 -5.15137,0.53711 -6.54297,0 -10.37597,-3.808594 -3.8086,-3.808594 -3.8086,-10.302734 0,-6.713868 3.61328,-10.644532 3.6377,-3.955078 9.79004,-3.955078 5.51758,0 8.71582,3.564453 3.22266,3.540039 3.22266,9.643555 z m -4.49219,-1.318359 q -0.0488,-3.686524 -2.07519,-5.883789 -2.00196,-2.197266 -5.32227,-2.197266 -3.75976,0 -6.03027,2.124023 -2.2461,2.124024 -2.58789,5.981446 z" />
    <path
       id="path28"
       style="font-style:normal;font-variant:normal;font-weight:normal;font-stretch:normal;font-size:50px;font-family:'Century Gothic Std';-inkscape-font-specification:'Century Gothic Std, Normal';font-variant-ligatures:normal;font-variant-caps:normal;font-variant-numeric:normal;font-feature-settings:normal;text-align:start;writing-mode:lr-tb;text-anchor:start;fill:#000000"
       d="m 254.68262,15.461914 v 4.248047 q -1.9043,-0.976563 -3.95508,-1.464844 -2.05078,-0.488281 -4.24805,-0.488281 -3.34472,0 -5.02929,1.025391 -1.66016,1.02539 -1.66016,3.076171 0,1.5625 1.19629,2.465821 1.19629,0.878906 4.80957,1.68457 l 1.53808,0.341797 q 4.78516,1.025391 6.78711,2.905273 2.02637,1.855469 2.02637,5.200196 0,3.808593 -3.02734,6.030273 -3.00293,2.22168 -8.27637,2.22168 -2.19727,0 -4.58984,-0.439453 -2.36817,-0.415039 -5.00489,-1.269532 v -4.638671 q 2.49024,1.293945 4.90723,1.953125 2.41699,0.634765 4.78516,0.634765 3.17382,0 4.88281,-1.074219 1.70898,-1.098632 1.70898,-3.076171 0,-1.831055 -1.24511,-2.807618 -1.22071,-0.976562 -5.39551,-1.879882 l -1.5625,-0.366211 q -4.17481,-0.878907 -6.03028,-2.685547 -1.85546,-1.831055 -1.85546,-5.004883 0,-3.857422 2.73437,-5.957031 2.73438,-2.09961 7.76367,-2.09961 2.49024,0 4.6875,0.366211 2.19727,0.366211 4.05274,1.098633 z" />
    <path
       id="path30"
       style="font-style:normal;font-variant:normal;font-weight:normal;font-stretch:normal;font-size:50px;font-family:'Century Gothic Std';-inkscape-font-specification:'Century Gothic Std, Normal';font-variant-ligatures:normal;font-variant-caps:normal;font-variant-numeric:normal;font-feature-settings:normal;text-align:start;writing-mode:lr-tb;text-anchor:start;fill:#000000"
       d="m 263.95996,35.798828 h 5.15137 V 42 h -5.15137 z" />
    <path
       id="path32"
       style="font-style:normal;font-variant:normal;font-weight:normal;font-stretch:normal;font-size:50px;font-family:'Century Gothic Std';-inkscape-font-specification:'Century Gothic Std, Normal';font-variant-ligatures:normal;font-variant-caps:normal;font-variant-numeric:normal;font-feature-settings:normal;text-align:start;writing-mode:lr-tb;text-anchor:start;fill:#000000"
       d="m 289.83887,17.805664 q -3.61328,0 -5.71289,2.832031 -2.09961,2.807617 -2.09961,7.714844 0,4.907227 2.07519,7.739258 2.09961,2.807617 5.73731,2.807617 3.58886,0 5.68847,-2.832031 2.09961,-2.832031 2.09961,-7.714844 0,-4.858398 -2.09961,-7.69043 -2.09961,-2.856445 -5.68847,-2.856445 z m 0,-3.808594 q 5.85937,0 9.2041,3.808594 3.34473,3.808594 3.34473,10.546875 0,6.713867 -3.34473,10.546875 -3.34473,3.808594 -9.2041,3.808594 -5.88379,0 -9.22852,-3.808594 -3.32031,-3.833008 -3.32031,-10.546875 0,-6.738281 3.32031,-10.546875 3.34473,-3.808594 9.22852,-3.808594 z" />
    <path
       id="path34"
       style="font-style:normal;font-variant:normal;font-weight:normal;font-stretch:normal;font-size:50px;font-family:'Century Gothic Std';-inkscape-font-specification:'Century Gothic Std, Normal';font-variant-ligatures:normal;font-variant-caps:normal;font-variant-numeric:normal;font-feature-settings:normal;text-align:start;writing-mode:lr-tb;text-anchor:start;fill:#000000"
       d="m 325.6543,18.855469 q -0.75684,-0.439453 -1.66016,-0.634766 -0.87891,-0.219726 -1.95312,-0.219726 -3.8086,0 -5.85938,2.490234 -2.02637,2.46582 -2.02637,7.104492 V 42 h -4.5166 V 14.65625 h 4.5166 v 4.248047 q 1.41602,-2.490235 3.68653,-3.686524 2.2705,-1.220703 5.51757,-1.220703 0.46387,0 1.0254,0.07324 0.56152,0.04883 1.24511,0.170898 z" />
    <path
       id="path36"
       style="font-style:normal;font-variant:normal;font-weight:normal;font-stretch:normal;font-size:50px;font-family:'Century Gothic Std';-inkscape-font-specification:'Century Gothic Std, Normal';font-variant-ligatures:normal;font-variant-caps:normal;font-variant-numeric:normal;font-feature-settings:normal;text-align:start;writing-mode:lr-tb;text-anchor:start;fill:#000000"
       d="m 347.5293,28.010742 q 0,-4.882812 -2.02637,-7.568359 -2.00195,-2.685547 -5.63965,-2.685547 -3.61328,0 -5.63965,2.685547 -2.00195,2.685547 -2.00195,7.568359 0,4.858399 2.00195,7.543945 2.02637,2.685547 5.63965,2.685547 3.6377,0 5.63965,-2.685547 2.02637,-2.685546 2.02637,-7.543945 z m 4.49218,10.595703 q 0,6.982422 -3.10058,10.375977 -3.10059,3.417969 -9.49707,3.417969 -2.36817,0 -4.46778,-0.366211 -2.0996,-0.341797 -4.07714,-1.074219 v -4.370117 q 1.97754,1.074218 3.90625,1.586914 1.92871,0.512695 3.93066,0.512695 4.41895,0 6.61621,-2.319336 2.19727,-2.294922 2.19727,-6.958008 V 37.19043 q -1.3916,2.416992 -3.56446,3.613281 Q 341.79199,42 338.76465,42 q -5.0293,0 -8.10547,-3.833008 -3.07617,-3.833008 -3.07617,-10.15625 0,-6.347656 3.07617,-10.180664 3.07617,-3.833008 8.10547,-3.833008 3.02734,0 5.20019,1.196289 2.17286,1.196289 3.56446,3.613282 V 14.65625 h 4.49218 z" />
  </g>
  <g
     id="text824"
     style="font-style:normal;font-weight:normal;font-size:40px;line-height:1.25;font-family:sans-serif;letter-spacing:0px;word-spacing:0px;fill:#000000;fill-opacity:1;stroke:none" />
</svg>
