<?xml version="1.0" encoding="UTF-8"?> <svg xmlns="http://www.w3.org/2000/svg" id="Calque_1" data-name="Calque 1" viewBox="0 0 265.4 220.38"><defs><style>.cls-1{fill:#a5c71a;}.cls-2{fill:#2eaa54;}.cls-3{fill:#07918b;}.cls-4{fill:#2bb6b8;}.cls-5{fill:#ffcc07;}.cls-6{fill:#4f5d69;}</style></defs><path class="cls-1" d="M16.66,196.15c-.18-.4-.29-.63-.38-.86-6.64-13.61-14-48-12.86-65.24a2.5,2.5,0,0,1,.9-2,122.75,122.75,0,0,1,21.6-14.62,241.19,241.19,0,0,1,36.85-16,364.2,364.2,0,0,1,47-12.73c8.06-1.63,16.15-3.09,24.29-4.16,6.82-.9,13.65-1.66,20.49-2.34a368.69,368.69,0,0,1,42.56-1.52c2.58,0,5.16.16,7.74.24a2.12,2.12,0,0,1,.85.21c-14.89,6-29.78,12-44.32,18.92-.23-.16-.44-.29-.64-.45a4.69,4.69,0,0,0-3-1c-2.92,0-5.83,0-8.75,0a4.67,4.67,0,0,0-4.68,3.61c-.49,1.8-.91,3.62-1.37,5.43a7.69,7.69,0,0,1-.32.83c-.53-2.14-1-4.05-1.49-6a4.75,4.75,0,0,0-3.46-3.75,5.36,5.36,0,0,0-1.44-.17c-2.8,0-5.61,0-8.41,0a4.87,4.87,0,0,0-5,5v17c-6.71,3.91-13.43,7.73-20.05,11.72s-13.07,8.13-19.61,12.21c-5.75-3.59-11.65-4-17.53-.23a12.65,12.65,0,0,0-5.24,7.33,15.89,15.89,0,0,0,.14,9.16q-11.73,8.92-22.72,18.75C30.48,182,23.48,188.82,16.66,196.15Z"></path><path class="cls-2" d="M211.32,71.57v3c-1.42-.15-2.78-.31-4.13-.44-3.65-.36-7.29-.76-10.94-1q-7.81-.59-15.66-1c-2.9-.17-5.82-.26-8.73-.3-7.22-.12-14.44-.21-21.64.27-5.36.35-10.73.78-16.06,1.47A446.33,446.33,0,0,0,36.47,97.94,287.57,287.57,0,0,0,8.78,109.82c-.29.15-.6.27-.88.39-.08-.11-.16-.16-.16-.21a98.18,98.18,0,0,1,.1-11.76A88.77,88.77,0,0,1,11,81.52a6,6,0,0,1,.86-2.37,5.84,5.84,0,0,1,2.2-1,158.16,158.16,0,0,1,23.35-7c9.14-2.12,18.37-3.72,27.66-5,8.29-1.15,16.61-2,25-2.71a401.07,401.07,0,0,1,43-1.22c5.75.15,11.49.62,17.23,1,3.17.2,6.34.46,9.5.74,4.32.4,8.63.8,12.94,1.29s8.45,1,12.67,1.61c7,1,13.93,2.23,20.83,3.73Z"></path><path class="cls-3" d="M21.88,63.92a27.79,27.79,0,0,1,1.6-6.81,89.72,89.72,0,0,1,5.33-11.47A1.45,1.45,0,0,1,30,44.87c3.16-.55,6.32-1.19,9.49-1.63a246.21,246.21,0,0,1,33.78-2c8.37,0,16.74.22,25.1.79,5.59.38,11.18.72,16.76,1.23a327.64,327.64,0,0,1,37.79,5.5c14.65,3.1,29.24,6.46,43.64,10.58,4.45,1.28,8.86,2.69,13.29,4,.5.15,1,.34,1.52.53v4.13c-.36-.06-.67-.1-1-.18q-15.72-3.83-31.67-6.64c-7.1-1.25-14.22-2.33-21.34-3.48q-9.08-1.46-18.25-2.15-14.31-1.12-28.68-.85c-4.26.08-8.52.15-12.77.38q-9.69.51-19.35,1.27-7.48.59-15,1.43-8.46,1-16.89,2.15c-5.92.84-11.81,1.8-17.72,2.74-1.88.3-3.74.67-5.62,1Z"></path><path class="cls-4" d="M152.3,11.71c-3.14,5.85-8.63,21.81-9.87,27.49a455.11,455.11,0,0,0-53.24-7.65A178.52,178.52,0,0,1,103.33,5.16C120.74,4.24,137,7.68,152.3,11.71Z"></path><path class="cls-4" d="M101.21,182.33c-.19,1.83-1.09,7.1-1.34,10.23-.13,1.54,0,1.3-1.42,1.65-23.22,7.22-36.66,13.27-51.32,21.6l-1.27.33c0-.44-.07-.8-.08-1.16-.09-8.45,0-21.13.46-29.57a2.17,2.17,0,0,1,.46-1.2,31.19,31.19,0,0,1,2.62-2.77,84,84,0,0,1,10.18-7.51,4.18,4.18,0,0,1,.55-.25,14.72,14.72,0,0,0,11.17,8.81c5.06.92,9.74,0,13.71-3.61l.34.67a4.66,4.66,0,0,0,4.39,2.77c3.4,0,6.8,0,10.2,0Z"></path><path class="cls-5" d="M67.88,6.86a13.49,13.49,0,0,1,10.89,5.49,12.66,12.66,0,0,1-1.87,17.1,13.71,13.71,0,0,1-18.06.08,12.2,12.2,0,0,1-4.18-12.2c1-4.9,4.13-8.08,8.81-9.75A12.87,12.87,0,0,1,67.88,6.86Z"></path><path class="cls-6" d="M222.36,84.2h11.73v5.49H215.68V57h6.68Z"></path><path class="cls-6" d="M254.3,81.12H243.11l-2.56,8.57h-4.28L246.93,57h3.57l10.69,32.74h-4.28Zm-10.09-3.53h9L248.71,62.7Z"></path><path class="cls-6" d="M139.53,100.22l6.26,23.68L152,100.22h8.73V133H154v-8.86l.61-13.66L148,133h-4.55l-6.61-22.52.61,13.66V133h-6.68V100.22Z"></path><path class="cls-6" d="M188.54,119.47q0,6.7-2.88,10.33a9.91,9.91,0,0,1-8.21,3.62,10,10,0,0,1-8.08-3.52q-3-3.53-3.08-10v-6.16q0-6.56,2.93-10.29a11,11,0,0,1,16.33-.15q2.92,3.55,3,10.17Zm-4.16-5.73c0-3.47-.57-6-1.71-7.73a6.64,6.64,0,0,0-10.46,0c-1.17,1.71-1.77,4.22-1.78,7.55v5.87c0,3.35.58,5.89,1.76,7.65a6.65,6.65,0,0,0,10.44.2c1.12-1.62,1.71-4.1,1.75-7.44Z"></path><path class="cls-6" d="M213.71,103.75H205V133h-4.16V103.75h-8.68v-3.53h21.55Z"></path><path class="cls-6" d="M238.3,103.75h-8.7V133h-4.16V103.75h-8.69v-3.53H238.3Z"></path><path class="cls-6" d="M259.06,117.83H247.35v11.6H261V133h-17.8V100.22h17.57v3.53H247.35V114.3h11.71Z"></path><path class="cls-6" d="M81.8,167.91a4.09,4.09,0,0,0-1-3A12,12,0,0,0,77,162.76c-3.32-1.25-5.71-2.7-7.16-4.38a8.7,8.7,0,0,1-2.19-5.92,8.27,8.27,0,0,1,3-6.65,12.46,12.46,0,0,1,13-1.23,8.86,8.86,0,0,1,3.67,3.58,10.65,10.65,0,0,1,1.28,5.27H81.89a5.39,5.39,0,0,0-1-3.5,3.48,3.48,0,0,0-2.85-1.21,3.62,3.62,0,0,0-2.73,1,3.82,3.82,0,0,0-1,2.75,3.35,3.35,0,0,0,1.09,2.44,12.51,12.51,0,0,0,3.86,2.26,16.69,16.69,0,0,1,7,4.25,9.43,9.43,0,0,1,2.19,6.41,8.41,8.41,0,0,1-2.75,6.68A10.94,10.94,0,0,1,78.3,177a13,13,0,0,1-5.84-1.31,9.88,9.88,0,0,1-4.13-3.73,10.77,10.77,0,0,1-1.48-5.73h6.7a6.14,6.14,0,0,0,1.12,4.11,4.55,4.55,0,0,0,3.63,1.28C80.64,171.57,81.8,170.35,81.8,167.91Z"></path><path class="cls-6" d="M109.74,161.36H98V173h13.64v3.53H93.87V143.75h17.57v3.54H98v10.54h11.71Z"></path><path class="cls-6" d="M127,163.25h-5.82V176.5H117V143.75h9.27c3.25,0,5.7.84,7.37,2.51s2.5,4.12,2.5,7.34a10.14,10.14,0,0,1-1.35,5.3,8.53,8.53,0,0,1-3.83,3.41l6.41,13.92v.27h-4.48Zm-5.82-3.53h5a5.44,5.44,0,0,0,4.17-1.66,6.29,6.29,0,0,0,1.56-4.47q0-6.3-5.78-6.3h-5Z"></path><path class="cls-6" d="M150.72,170.18l7.57-26.43h4.57l-10.3,32.75h-3.63l-10.28-32.75h4.55Z"></path><path class="cls-6" d="M188.57,163q0,6.69-2.89,10.32a9.89,9.89,0,0,1-8.2,3.62,10,10,0,0,1-8.08-3.52q-3-3.52-3.08-10v-6.16q0-6.57,2.93-10.29a9.82,9.82,0,0,1,8.18-3.72,9.94,9.94,0,0,1,8.15,3.56q2.92,3.57,3,10.18Zm-4.16-5.74c0-3.46-.57-6-1.72-7.72a6.64,6.64,0,0,0-10.45,0c-1.18,1.71-1.77,4.23-1.79,7.56V163q0,5,1.77,7.64a6.65,6.65,0,0,0,10.44.2c1.12-1.62,1.71-4.1,1.75-7.44Z"></path><path class="cls-6" d="M199.19,173h13v3.53H195V143.75h4.19Z"></path><path class="cls-6" d="M233,161.36H221.28V173h13.64v3.53h-17.8V143.75h17.57v3.54H221.28v10.54H233Z"></path><path class="cls-6" d="M249.54,156.3l6.22-12.55h4.89L252,160l8.79,16.51H255.9l-6.36-12.77-6.39,12.77h-4.93L247.06,160l-8.66-16.24h4.86Z"></path></svg> 