<?xml version="1.0" encoding="UTF-8" standalone="no"?>
<!-- Created with Inkscape (http://www.inkscape.org/) -->

<svg
   xmlns:dc="http://purl.org/dc/elements/1.1/"
   xmlns:cc="http://creativecommons.org/ns#"
   xmlns:rdf="http://www.w3.org/1999/02/22-rdf-syntax-ns#"
   xmlns:svg="http://www.w3.org/2000/svg"
   xmlns="http://www.w3.org/2000/svg"
   xmlns:sodipodi="http://sodipodi.sourceforge.net/DTD/sodipodi-0.dtd"
   xmlns:inkscape="http://www.inkscape.org/namespaces/inkscape"
   id="svg2"
   version="1.1"
   inkscape:version="0.48.5 r10040"
   width="319.62927"
   height="319.76376"
   xml:space="preserve"
   sodipodi:docname="Logo Hauts-de-France 2016.svg"><metadata
     id="metadata8"><rdf:RDF><cc:Work
         rdf:about=""><dc:format>image/svg+xml</dc:format><dc:type
           rdf:resource="http://purl.org/dc/dcmitype/StillImage" /><dc:title></dc:title></cc:Work></rdf:RDF></metadata><defs
     id="defs6"><clipPath
       clipPathUnits="userSpaceOnUse"
       id="clipPath38"><path
         d="m 0,0 841.89,0 0,595.276 L 0,595.276 0,0 z"
         id="path40"
         inkscape:connector-curvature="0" /></clipPath><clipPath
       clipPathUnits="userSpaceOnUse"
       id="clipPath86"><path
         d="m 0,0 841.89,0 0,595.276 L 0,595.276 0,0 z"
         id="path88"
         inkscape:connector-curvature="0" /></clipPath><clipPath
       clipPathUnits="userSpaceOnUse"
       id="clipPath112"><path
         d="m 0,0 841.89,0 0,595.276 L 0,595.276 0,0 z"
         id="path114"
         inkscape:connector-curvature="0" /></clipPath><clipPath
       clipPathUnits="userSpaceOnUse"
       id="clipPath134"><path
         d="m 0,0 841.89,0 0,595.276 L 0,595.276 0,0 z"
         id="path136"
         inkscape:connector-curvature="0" /></clipPath></defs><sodipodi:namedview
     pagecolor="#ffffff"
     bordercolor="#666666"
     borderopacity="1"
     objecttolerance="10"
     gridtolerance="10"
     guidetolerance="10"
     inkscape:pageopacity="0"
     inkscape:pageshadow="2"
     inkscape:window-width="1280"
     inkscape:window-height="669"
     id="namedview4"
     showgrid="false"
     fit-margin-top="0"
     fit-margin-left="0"
     fit-margin-right="0"
     fit-margin-bottom="0"
     inkscape:zoom="0.63432763"
     inkscape:cx="262.51075"
     inkscape:cy="-19.303902"
     inkscape:window-x="0"
     inkscape:window-y="1"
     inkscape:window-maximized="1"
     inkscape:current-layer="g10" /><g
     id="g10"
     inkscape:groupmode="layer"
     inkscape:label="CharteGraphiqueHDF_Web"
     transform="matrix(1.25,0,0,-1.25,-177.54187,598.88)"><g
       id="g34"><g
         id="g36"
         clip-path="url(#clipPath38)"><g
           id="g42"
           transform="translate(301.3909,479.1039)"><path
             d="m 0,0 c -10.541,0 -20.186,-4.279 -27.12,-11.374 2.612,-2.346 5.602,-4.986 8.309,-7.283 4.887,4.781 11.543,7.653 18.811,7.653 14.859,0 26.949,-12.088 26.949,-26.949 0,-7.3 -2.738,-13.897 -7.913,-19.075 l -50.595,-50.68 -41.848,41.917 c -3.891,-1.331 -7.891,-2.417 -12.39,-3.16 l 50.346,-50.428 c 1.032,-1.034 2.776,-2.305 3.892,-2.305 1.164,0 2.861,1.271 3.892,2.305 l 54.481,54.574 c 7.282,7.285 11.132,16.571 11.132,26.852 C 37.946,-17.027 20.924,0 0,0"
             style="fill:#8dc63f;fill-opacity:1;fill-rule:nonzero;stroke:none"
             id="path44"
             inkscape:connector-curvature="0" /></g><g
           id="g46"
           transform="translate(355.5817,418.1956)"><path
             d="m 0,0 c -5.128,0.865 -9.987,1.904 -14.674,3.109 -2.76,-4.609 -4.294,-6.61 -6.981,-9.517 3.822,-1.1 7.736,-2.084 11.785,-2.934 -0.552,-0.863 -1.096,-1.719 -1.635,-2.565 -18.243,-28.643 -30.469,-47.848 -12.333,-84.565 -3.728,-4.182 -9.379,-8.245 -16.586,-11.928 -10.352,4.078 -19.687,6.141 -27.777,6.141 -16.011,0 -24.798,-8.033 -28.301,-16.841 -27.159,2.461 -43.97,16.249 -50.093,22.251 12.357,20.093 15.516,38.87 9.388,55.855 -6.573,18.231 -22.828,28.244 -32.523,32.55 -0.155,1.582 -0.375,4.855 -0.636,6.678 5.216,-0.934 10.407,-1.408 15.505,-1.408 l 0.006,0 c 23.212,0 45.712,9.949 65.631,28.876 C -91.678,27.6 -94.43,30 -97.526,32.971 -115.265,16.288 -134.505,7.83 -154.855,7.825 l -0.006,0 c -6.803,0 -13.82,0.971 -20.854,2.887 -1.839,0.494 -4.883,1.247 -6.306,-0.088 -1.379,-1.29 -0.905,-4.43 -0.53,-6.299 1.094,-5.478 1.974,-14.053 2.057,-16.641 0.118,-3.782 0.43,-4.049 3.918,-5.269 4.099,-1.438 22.398,-8.772 29.024,-27.138 5.251,-14.562 1.679,-31.272 -10.554,-49.708 -2.029,-3.059 -1.938,-3.605 0.269,-6.466 0.88,-1.135 22.362,-27.461 65.113,-29.484 5.091,-0.237 4.818,0.277 5.646,4.474 1.587,8.024 8.405,12.643 18.877,12.643 7.236,0 15.913,-2.169 25.888,-6.238 2.122,-0.867 2.423,-0.867 4.492,0.117 11.623,5.532 20.028,11.994 24.992,19.114 1.789,2.566 1.756,3.079 0.36,5.721 -17.554,33.151 -8.226,47.737 10.245,76.735 1.919,3.016 3.916,6.169 5.991,9.479 C 6.034,-4.716 6.397,-1.077 0,0"
             style="fill:#0050a3;fill-opacity:1;fill-rule:nonzero;stroke:none"
             id="path48"
             inkscape:connector-curvature="0" /></g><g
           id="g50"
           transform="translate(212.5397,433.129)"><path
             d="m 0,0 c -0.796,2.567 -1.217,5.26 -1.217,8.022 0,14.861 12.088,26.949 26.945,26.949 6.141,0 11.842,-2.03 16.42,-5.568 9.374,-7.594 13.398,-12.193 20.684,-18.386 11.498,-9.778 23.5,-17.698 35.423,-23.509 2.093,2.206 4.888,5.256 7.776,8.494 -12.655,5.766 -26.383,15.08 -37.592,24.691 -6.16,5.288 -13.813,12.298 -16.163,14.464 -0.002,0.003 -0.004,0.003 -0.004,0.005 -6.888,6.754 -16.287,10.813 -26.544,10.813 -20.922,0 -37.943,-17.027 -37.943,-37.953 0,-3.082 0.369,-6.104 1.079,-9.024 C -7.529,-1.017 -3.629,-0.665 0,0"
             style="fill:#0050a3;fill-opacity:1;fill-rule:nonzero;stroke:none"
             id="path52"
             inkscape:connector-curvature="0" /></g><g
           id="g54"
           transform="translate(158.0975,258.6732)"><path
             d="m 0,0 -5.084,0 c -2.732,4.808 -3.998,6.301 -5.085,6.301 l -1.822,0 0,-6.301 -4.073,0 0,17.636 9.841,0 c 3.618,0 4.831,-2.252 4.831,-5.162 0,-2.529 -1.061,-4.73 -4.401,-4.909 C -4.603,7.136 -3.288,5.541 0,0 m -11.991,9.64 4.529,0 c 0.885,0 1.544,0.633 1.544,2.202 0,1.595 -0.583,2.327 -1.494,2.327 l -4.579,0 0,-4.529 z"
             style="fill:#8dc63f;fill-opacity:1;fill-rule:nonzero;stroke:none"
             id="path56"
             inkscape:connector-curvature="0" /></g><g
           id="g58"
           transform="translate(170.414,259.0263)"><path
             d="m 0,0 c -1.289,-0.429 -3.211,-0.706 -4.679,-0.706 -3.643,0 -6.35,1.593 -6.35,6.906 0,5.213 2.378,6.756 6.096,6.756 4.302,0 6.174,-1.314 5.819,-7.971 l -7.918,0 c 0.051,-2.075 0.986,-2.453 2.857,-2.453 0.938,0 2.634,0.177 3.594,0.43 L 0,0 z m -7.234,14.02 3.111,3.263 3.972,0 -3.795,-3.263 -3.288,0 z m 0.227,-6.176 4.503,0 c -0.05,1.798 -0.632,2.179 -2.15,2.179 -1.619,0 -2.125,-0.533 -2.353,-2.179"
             style="fill:#8dc63f;fill-opacity:1;fill-rule:nonzero;stroke:none"
             id="path60"
             inkscape:connector-curvature="0" /></g><g
           id="g62"
           transform="translate(178.6599,258.3954)"><path
             d="m 0,0 c -3.339,0 -5.212,1.416 -5.212,6.654 0,5.289 1.973,6.933 6.375,6.933 2.024,0 4.453,-0.379 5.869,-0.91 l 0,-11.362 c 0,-5.187 -3.061,-6.199 -7.158,-6.199 -1.671,0 -3.543,0.33 -4.732,0.759 l 0.683,3.037 c 1.341,-0.355 2.631,-0.582 3.972,-0.582 2.101,0 3.34,0.531 3.34,2.403 C 2.378,0.354 1.265,0 0,0 M 3.137,10.146 C 2.529,10.4 1.745,10.5 1.163,10.5 c -1.847,0 -2.453,-0.456 -2.453,-3.77 0,-2.732 0.531,-3.466 2.352,-3.466 1.139,0 2.075,0.353 2.075,0.911 l 0,5.971 z"
             style="fill:#8dc63f;fill-opacity:1;fill-rule:nonzero;stroke:none"
             id="path64"
             inkscape:connector-curvature="0" /></g><g
           id="g66"
           transform="translate(193.1774,275.3989)"><path
             d="m 0,0 c 0,-1.747 -0.557,-2.05 -2.2,-2.05 -1.67,0 -2.201,0.303 -2.201,2.05 0,1.592 0.531,1.846 2.201,1.846 C -0.557,1.846 0,1.592 0,0 m -0.253,-16.726 -3.895,0 0,12.955 3.895,0 0,-12.955 z"
             style="fill:#8dc63f;fill-opacity:1;fill-rule:nonzero;stroke:none"
             id="path68"
             inkscape:connector-curvature="0" /></g><g
           id="g70"
           transform="translate(195.7059,265.2266)"><path
             d="m 0,0 c 0,5.288 2.151,6.756 6.273,6.756 4.201,0 6.326,-1.468 6.326,-6.756 0,-5.313 -2.1,-6.906 -6.326,-6.906 C 2.1,-6.906 0,-5.313 0,0 m 3.922,-0.075 c 0,-3.265 0.53,-3.796 2.351,-3.796 1.848,0 2.38,0.531 2.38,3.796 0,3.39 -0.532,3.795 -2.38,3.795 -1.821,0 -2.351,-0.405 -2.351,-3.795"
             style="fill:#8dc63f;fill-opacity:1;fill-rule:nonzero;stroke:none"
             id="path72"
             inkscape:connector-curvature="0" /></g><g
           id="g74"
           transform="translate(215.0305,258.6732)"><path
             d="m 0,0 -3.896,0 0,12.145 c 1.671,0.607 4.251,1.164 6.578,1.164 3.568,0 5.339,-1.492 5.339,-6.149 l 0,-7.16 -3.897,0 0,6.858 C 4.124,9.209 3.745,9.843 1.847,9.843 1.215,9.843 0.633,9.766 0,9.616 L 0,0 z"
             style="fill:#8dc63f;fill-opacity:1;fill-rule:nonzero;stroke:none"
             id="path76"
             inkscape:connector-curvature="0" /></g></g></g><g
       id="g78"
       transform="translate(147.4864,223.791)"><path
         d="m 0,0 -5.364,0 0,23.193 5.364,0 0,-8.451 8.729,0 0,8.451 5.363,0 0,-23.193 -5.363,0 0,9.784 L 0,9.784 0,0 z"
         style="fill:#0050a3;fill-opacity:1;fill-rule:nonzero;stroke:none"
         id="path80"
         inkscape:connector-curvature="0" /></g><g
       id="g82"><g
         id="g84"
         clip-path="url(#clipPath86)"><g
           id="g90"
           transform="translate(181.234,224.6573)"><path
             d="m 0,0 c -2.298,-0.831 -5.596,-1.332 -8.095,-1.332 -5.629,0 -7.295,1.199 -7.295,5.657 0,4.791 2.598,5.557 6.662,5.557 1.265,0 2.565,-0.165 3.865,-0.433 0,2.364 -0.533,3.028 -3.865,3.028 -1.966,0 -3.863,-0.365 -5.296,-0.798 l -0.799,4.062 c 1.965,0.497 4.796,0.897 7.328,0.897 C -2.398,16.638 0,15.075 0,10.016 L 0,0 z m -7.694,2.463 c 0.965,0 2.032,0.166 2.831,0.464 l 0,3.228 c -0.766,0.201 -1.732,0.234 -2.765,0.234 -1.833,0 -2.5,-0.2 -2.5,-1.897 0,-1.731 0.434,-2.029 2.434,-2.029"
             style="fill:#0050a3;fill-opacity:1;fill-rule:nonzero;stroke:none"
             id="path92"
             inkscape:connector-curvature="0" /></g><g
           id="g94"
           transform="translate(195.8925,240.829)"><path
             d="m 0,0 5.064,0 0,-16.006 c -2.166,-0.765 -5.596,-1.53 -8.627,-1.53 -4.73,0 -6.997,1.997 -6.997,8.086 l 0,9.45 5.065,0 0,-9.051 c 0,-3.06 0.533,-3.926 3.031,-3.926 0.832,0 1.566,0.133 2.464,0.333 L 0,0 z"
             style="fill:#0050a3;fill-opacity:1;fill-rule:nonzero;stroke:none"
             id="path96"
             inkscape:connector-curvature="0" /></g><g
           id="g98"
           transform="translate(211.3178,236.4366)"><path
             d="m 0,0 0,-6.356 c 0,-1.731 0.5,-2.427 2.299,-2.427 1.065,0 1.933,0.198 2.732,0.464 l 0.832,-3.927 c -1.266,-0.531 -3.298,-0.866 -5.13,-0.866 -3.764,0 -5.862,1.131 -5.862,6.223 l 0,6.889 -2.765,0 0,4.392 2.765,0 0,2.529 L 0,8.983 0,4.392 5.33,4.392 5.33,0 0,0 z"
             style="fill:#0050a3;fill-opacity:1;fill-rule:nonzero;stroke:none"
             id="path100"
             inkscape:connector-curvature="0" /></g><g
           id="g102"
           transform="translate(231.0068,236.5711)"><path
             d="m 0,0 c -1.332,0.363 -3.298,0.731 -5.03,0.731 -1.6,0 -2.398,-0.133 -2.398,-1.464 0,-0.899 0.466,-1.132 3.097,-1.464 3.963,-0.501 5.729,-1.697 5.729,-5.19 0,-4.627 -3.33,-5.859 -7.627,-5.859 -1.833,0 -4.498,0.367 -6.064,0.933 l 0.999,3.86 c 1.267,-0.365 3.166,-0.7 4.831,-0.7 1.999,0 2.931,0.166 2.931,1.5 0,0.929 -0.567,1.296 -3.397,1.563 -3.564,0.332 -5.463,1.363 -5.463,4.991 0,4.623 3.297,5.824 7.562,5.824 1.832,0 4.23,-0.367 5.83,-0.935 L 0,0 z"
             style="fill:#0050a3;fill-opacity:1;fill-rule:nonzero;stroke:none"
             id="path104"
             inkscape:connector-curvature="0" /></g></g></g><path
       d="m 234.406,235.703 8.76,0 0,-4.89 -8.76,0 0,4.89 z"
       style="fill:#0050a3;fill-opacity:1;fill-rule:nonzero;stroke:none"
       id="path106"
       inkscape:connector-curvature="0" /><g
       id="g108"><g
         id="g110"
         clip-path="url(#clipPath112)"><g
           id="g116"
           transform="translate(261.7224,224.5244)"><path
             d="m 0,0 c -1.866,-0.698 -5.063,-1.199 -7.73,-1.199 -5.795,0 -8.392,2.064 -8.392,9.053 0,6.852 2.998,8.917 7.227,8.917 1.666,0 2.8,-0.334 3.765,-0.734 l 0,7.255 5.13,0 L 0,0 z m -5.13,11.313 c 0,0.734 -1.166,1.297 -2.665,1.297 -2.398,0 -3.164,-1.065 -3.164,-4.69 0,-4.127 0.799,-4.826 3.229,-4.826 0.868,0 1.968,0.134 2.6,0.4 l 0,7.819 z"
             style="fill:#0050a3;fill-opacity:1;fill-rule:nonzero;stroke:none"
             id="path118"
             inkscape:connector-curvature="0" /></g><g
           id="g120"
           transform="translate(279.9789,224.2586)"><path
             d="m 0,0 c -1.698,-0.567 -4.23,-0.934 -6.161,-0.934 -4.798,0 -8.362,2.098 -8.362,9.086 0,6.855 3.13,8.885 8.028,8.885 5.662,0 8.129,-1.732 7.662,-10.483 l -10.427,0 c 0.067,-2.728 1.299,-3.228 3.764,-3.228 1.234,0 3.464,0.235 4.731,0.568 L 0,0 z m -9.227,10.314 5.929,0 c -0.066,2.362 -0.831,2.863 -2.832,2.863 -2.131,0 -2.797,-0.7 -3.097,-2.863"
             style="fill:#0050a3;fill-opacity:1;fill-rule:nonzero;stroke:none"
             id="path122"
             inkscape:connector-curvature="0" /></g></g></g><path
       d="m 283.347,235.703 8.761,0 0,-4.89 -8.761,0 0,4.89 z"
       style="fill:#0050a3;fill-opacity:1;fill-rule:nonzero;stroke:none"
       id="path124"
       inkscape:connector-curvature="0" /><g
       id="g126"
       transform="translate(312.6617,246.9844)"><path
         d="m 0,0 0,-4.692 -11.559,0 0,-5.391 8.56,0 0,-4.591 -8.56,0 0,-8.519 -5.363,0 0,23.193 L 0,0 z"
         style="fill:#0050a3;fill-opacity:1;fill-rule:nonzero;stroke:none"
         id="path128"
         inkscape:connector-curvature="0" /></g><g
       id="g130"><g
         id="g132"
         clip-path="url(#clipPath134)"><g
           id="g138"
           transform="translate(314.8611,240.829)"><path
             d="m 0,0 5.131,0 0,-1.332 c 0.566,1.001 1.665,1.799 4.131,1.799 0.5,0 1.1,-0.034 1.699,-0.1 l 0,-4.759 c -0.668,0.2 -1.566,0.265 -2.398,0.265 -1.833,0 -3.432,-0.598 -3.432,-1.729 l 0,-11.182 -5.131,0 L 0,0 z"
             style="fill:#0050a3;fill-opacity:1;fill-rule:nonzero;stroke:none"
             id="path140"
             inkscape:connector-curvature="0" /></g><g
           id="g142"
           transform="translate(342.812,224.6573)"><path
             d="m 0,0 c -2.299,-0.831 -5.597,-1.332 -8.095,-1.332 -5.63,0 -7.294,1.199 -7.294,5.657 0,4.791 2.597,5.557 6.662,5.557 1.264,0 2.565,-0.165 3.864,-0.433 0,2.364 -0.533,3.028 -3.864,3.028 -1.965,0 -3.865,-0.365 -5.298,-0.798 l -0.799,4.062 c 1.966,0.497 4.798,0.897 7.329,0.897 C -2.399,16.638 0,15.075 0,10.016 L 0,0 z m -7.695,2.463 c 0.966,0 2.032,0.166 2.832,0.464 l 0,3.228 c -0.766,0.201 -1.733,0.234 -2.765,0.234 -1.832,0 -2.5,-0.2 -2.5,-1.897 0,-1.731 0.435,-2.029 2.433,-2.029"
             style="fill:#0050a3;fill-opacity:1;fill-rule:nonzero;stroke:none"
             id="path144"
             inkscape:connector-curvature="0" /></g><g
           id="g146"
           transform="translate(352.1749,223.791)"><path
             d="m 0,0 -5.13,0 0,15.974 c 2.198,0.797 5.596,1.531 8.661,1.531 4.697,0 7.028,-1.965 7.028,-8.086 l 0,-9.419 -5.129,0 0,9.019 c 0,3.095 -0.5,3.926 -2.998,3.926 -0.834,0 -1.6,-0.099 -2.432,-0.299 L 0,0 z"
             style="fill:#0050a3;fill-opacity:1;fill-rule:nonzero;stroke:none"
             id="path148"
             inkscape:connector-curvature="0" /></g><g
           id="g150"
           transform="translate(380.1242,224.1906)"><path
             d="m 0,0 c -1.364,-0.565 -3.664,-0.866 -5.364,-0.866 -5.095,0 -8.495,2.098 -8.495,9.086 0,6.92 3.432,8.885 8.495,8.885 1.766,0 4.032,-0.268 5.364,-0.734 l -1.066,-4.324 c -0.965,0.366 -2.464,0.697 -3.864,0.697 -2.496,0 -3.764,-0.431 -3.764,-4.625 0,-3.992 1.268,-4.59 3.764,-4.59 1.466,0 2.899,0.365 3.864,0.764 L 0,0 z"
             style="fill:#0050a3;fill-opacity:1;fill-rule:nonzero;stroke:none"
             id="path152"
             inkscape:connector-curvature="0" /></g><g
           id="g154"
           transform="translate(396.5145,224.2586)"><path
             d="m 0,0 c -1.697,-0.567 -4.231,-0.934 -6.162,-0.934 -4.797,0 -8.36,2.098 -8.36,9.086 0,6.855 3.131,8.885 8.027,8.885 5.662,0 8.128,-1.732 7.662,-10.483 l -10.427,0 c 0.067,-2.728 1.3,-3.228 3.763,-3.228 1.235,0 3.466,0.235 4.732,0.568 L 0,0 z m -9.226,10.314 5.93,0 c -0.068,2.362 -0.835,2.863 -2.832,2.863 -2.132,0 -2.799,-0.7 -3.098,-2.863"
             style="fill:#0050a3;fill-opacity:1;fill-rule:nonzero;stroke:none"
             id="path156"
             inkscape:connector-curvature="0" /></g></g></g></g></svg>