<svg width="35" height="36" viewBox="0 0 35 36" fill="none" xmlns="http://www.w3.org/2000/svg">
  <g clip-path="url(#clip0_328_78339)">
    <path d="M11.9341 29.4951C11.9207 29.0928 12.001 28.7038 12.1752 28.3417L17.1992 18.3504C17.3465 18.0553 17.2662 17.7334 17.0518 17.492C15.1628 15.534 14.7877 12.4762 16.6231 10.1159C17.8422 8.54675 19.9188 7.70185 21.9552 7.86278C19.5571 9.17708 17.9896 11.6984 18.137 14.5282C18.2442 16.5264 19.1954 18.2833 20.6423 19.5171C20.5887 19.5574 20.5217 19.5976 20.4815 19.6781L18.6863 23.2455C18.271 23.5137 16.891 22.9504 16.6767 23.3796C16.4623 23.8087 17.7753 24.4793 17.8288 24.9621C17.8422 25.123 17.6681 25.4181 17.5475 25.5254C17.1992 25.807 15.9666 25.5924 15.7657 25.9948C15.5647 26.3971 16.7035 26.9872 16.6901 27.4298C16.6901 27.7248 16.5025 27.9394 16.248 28.1003C15.8327 28.3686 14.9082 28.0064 14.6939 28.4356C14.4795 28.8648 15.3504 29.3342 15.3905 29.8036C15.4173 30.0584 15.1494 30.5948 14.9216 30.7423C14.091 31.2788 12.5503 31.8555 12.5503 31.8555C12.336 31.9091 11.9876 31.1983 12.001 30.8899L11.9341 29.5085V29.4951Z" fill="#C9191E"/>
    <path d="M19.919 3.78575C20.0797 3.87963 20.3209 3.8394 20.4147 3.66505C21.3659 2.14958 23.0807 1.2108 24.8626 1.2108C27.7698 1.2108 30.1277 3.55776 30.1277 6.468C30.1277 7.64818 29.7258 8.73449 29.0693 9.61964C28.4798 10.4243 27.6492 11.0412 26.6846 11.3899C26.1219 11.6045 25.5056 11.7252 24.8626 11.7252C24.675 11.7252 24.5276 11.8861 24.5276 12.0739C24.5276 12.2616 24.675 12.4226 24.8626 12.4226C25.5726 12.4226 26.2291 12.3019 26.8454 12.0739C27.3947 11.8861 27.8904 11.6179 28.3325 11.296C28.5736 11.1351 28.788 10.9473 28.9889 10.7462C29.1765 10.5316 29.3641 10.317 29.5516 10.1024C30.3554 9.11001 30.8244 7.83594 30.8244 6.45459C30.8244 3.16883 28.1583 0.5 24.8492 0.5C22.8128 0.5 20.8836 1.55949 19.8118 3.28954C19.6912 3.45047 19.7448 3.66505 19.9056 3.78575H19.919Z" fill="white"/>
    <path d="M18.9676 12.9859C19.4365 10.5853 21.4729 8.62723 23.938 8.21148C25.7199 7.91644 27.3811 8.38583 28.6673 9.31121C28.0912 10.0622 27.3141 10.6389 26.4031 10.9608C26.0682 10.5719 25.5993 10.317 25.0366 10.317C24.0586 10.317 23.2548 11.1083 23.2548 12.0739C23.2548 13.0261 24.0586 13.8174 25.0366 13.8174C25.8404 13.8174 26.4969 13.2943 26.7246 12.597C27.984 12.208 29.0826 11.457 29.8864 10.4377C30.717 11.4704 31.2127 12.7579 31.2127 14.1661C31.2127 16.7544 29.5515 18.9807 27.1936 19.8256C26.9792 19.9061 26.8318 20.0938 26.8318 20.3218V24.4793C26.5773 24.9085 25.0768 24.9755 25.0768 25.4717C25.0768 25.968 26.5773 26.035 26.8318 26.4642C26.9122 26.6117 26.8988 26.9604 26.8318 27.1213C26.6443 27.5371 25.4251 27.8723 25.4251 28.3417C25.4251 28.7977 26.7246 28.8782 26.9256 29.2939C27.0596 29.5756 26.9926 29.8572 26.8318 30.112C26.5773 30.5412 25.5725 30.6082 25.5725 31.1044C25.5725 31.6007 26.5773 31.6677 26.8318 32.0969C26.9658 32.3383 26.9658 32.9552 26.8318 33.1832C26.3227 34.0415 25.184 35.2619 25.184 35.2619C25.0098 35.4095 24.3801 34.873 24.2462 34.5914L23.5495 33.3173C23.3485 32.9552 23.2414 32.5395 23.2414 32.1237V20.523C23.2414 20.1877 23.027 19.9061 22.7189 19.7854C20.1064 18.7527 18.3782 16.0436 18.9676 13.0127V12.9859Z" fill="white"/>
    <path d="M13.7027 6.69596C15.5917 5.12685 18.4051 4.91227 20.5754 6.17292C21.3525 6.6289 21.4597 6.60208 21.9554 7.25923C19.6778 6.37409 17.5343 7.56769 15.8998 9.56596C13.984 11.8995 14.2117 15.2791 16.3285 17.3713C16.1276 17.3177 15.9132 17.2774 15.7122 17.2104C15.4979 17.1299 15.2701 17.1835 15.1228 17.3579L12.4835 20.5632C12.0146 20.7375 10.8088 19.8256 10.5007 20.2145C10.1926 20.6034 11.3045 21.6092 11.2242 22.0921C11.1974 22.253 10.9562 22.5212 10.8088 22.5883C10.3935 22.7894 9.24136 22.2798 8.94662 22.6285C8.65188 22.9772 9.61648 23.8623 9.49591 24.3183C9.41553 24.6134 9.18777 24.7877 8.90643 24.895C8.43753 25.0693 7.62029 24.4792 7.31216 24.8548C7.00402 25.2303 7.72747 25.9277 7.64709 26.4239C7.6069 26.6921 7.20498 27.1749 6.95043 27.2688C6.01262 27.6175 4.36476 27.8321 4.36476 27.8321C4.137 27.8321 3.98963 27.0274 4.07002 26.7189L4.33796 25.2973C4.41835 24.8816 4.59251 24.5061 4.86046 24.1842L12.2156 15.2255C12.4299 14.9707 12.4433 14.6086 12.2825 14.3135C10.916 11.8593 11.3045 8.66741 13.6759 6.69596H13.7027Z" fill="#0071BC"/>
  </g>
  <defs>
    <clipPath id="clip0_328_78339">
      <rect width="35" height="35" fill="white" transform="translate(0 0.5)"/>
    </clipPath>
  </defs>
</svg>