<svg width="132" height="21" viewBox="0 0 132 21" fill="none" xmlns="http://www.w3.org/2000/svg">
<path d="M12.27 5.09C13.3633 5.09 14.23 5.44333 14.87 6.15C15.51 6.85 15.83 7.95667 15.83 9.47V15.97C15.83 16.1357 15.6957 16.27 15.53 16.27H12.08C11.9143 16.27 11.78 16.1357 11.78 15.97V9.7C11.78 9.30667 11.7 9.03 11.54 8.87C11.3867 8.70333 11.17 8.62 10.89 8.62C10.71 8.62 10.5367 8.65 10.37 8.71C10.2591 8.74549 10.1556 8.79132 10.0594 8.84748C9.96955 8.89996 9.92577 9.00312 9.92822 9.10715C9.92941 9.15763 9.93 9.21525 9.93 9.28V15.97C9.93 16.1357 9.79569 16.27 9.63 16.27H6.26C6.09432 16.27 5.96 16.1357 5.96 15.97V9.7C5.96 9.30667 5.89 9.03 5.75 8.87C5.61 8.70333 5.4 8.62 5.12 8.62C4.91333 8.62 4.71333 8.66333 4.52 8.75C4.36452 8.81434 4.2349 8.89808 4.13116 9.00123C4.08243 9.04968 4.06 9.11749 4.06 9.18621V15.97C4.06 16.1357 3.92569 16.27 3.76 16.27H0.3C0.134314 16.27 0 16.1357 0 15.97V5.57C0 5.40432 0.134315 5.27 0.3 5.27H3.11786C3.25455 5.27 3.37396 5.3624 3.40826 5.49471L3.60336 6.24725C3.61905 6.30775 3.67364 6.35 3.73614 6.35C3.77663 6.35 3.81496 6.33201 3.84151 6.30145C4.18533 5.90577 4.5815 5.60862 5.03 5.41C5.50333 5.19667 6.04333 5.09 6.65 5.09C7.21 5.09 7.71333 5.2 8.16 5.42C8.49265 5.58384 8.78092 5.81239 9.02483 6.10564C9.15289 6.25962 9.39252 6.2789 9.53874 6.14205C9.85975 5.84164 10.2202 5.60429 10.62 5.43C11.14 5.20333 11.69 5.09 12.27 5.09Z" fill="#1F1F1F"/>
<path d="M27.1091 11.65C27.1091 11.8157 26.9747 11.95 26.8091 11.95H21.547C21.3708 11.95 21.2294 12.1022 21.2696 12.2738C21.3212 12.4936 21.4043 12.6723 21.5191 12.81C21.6857 13.01 21.9524 13.1567 22.3191 13.25C22.6857 13.3367 23.1991 13.38 23.8591 13.38C24.5216 13.38 25.2847 13.3001 26.1484 13.1402C26.335 13.1057 26.5091 13.2476 26.5091 13.4374V15.9058C26.5091 16.048 26.4092 16.171 26.2696 16.1979C25.2594 16.3926 24.2692 16.49 23.2991 16.49C21.8391 16.49 20.6557 16.29 19.7491 15.89C18.8491 15.4833 18.1857 14.86 17.7591 14.02C17.3391 13.18 17.1291 12.0833 17.1291 10.73C17.1291 9.55667 17.3257 8.55 17.7191 7.71C18.1191 6.86333 18.7057 6.21667 19.4791 5.77C20.2591 5.31667 21.2091 5.09 22.3291 5.09C23.9024 5.09 25.0924 5.59333 25.8991 6.6C26.7057 7.6 27.1091 9.02333 27.1091 10.87V11.65ZM22.2891 7.63C22.0291 7.63 21.8224 7.69 21.6691 7.81C21.5157 7.92333 21.3991 8.12333 21.3191 8.41C21.2605 8.6389 21.2232 8.9443 21.2072 9.32621C21.2001 9.49323 21.3357 9.63 21.5029 9.63H23.0452C23.2124 9.63 23.348 9.49321 23.3408 9.32617C23.3247 8.95021 23.2874 8.64816 23.2291 8.42C23.1557 8.12667 23.0424 7.92333 22.8891 7.81C22.7424 7.69 22.5424 7.63 22.2891 7.63Z" fill="#1F1F1F"/>
<path d="M31.6398 16.49C30.4279 16.49 29.3434 16.3451 28.3864 16.0554C28.2626 16.0179 28.1798 15.9027 28.1798 15.7733V13.3744C28.1798 13.1702 28.3797 13.0254 28.5766 13.0795C28.9525 13.1828 29.3536 13.2663 29.7798 13.33C30.3665 13.4167 30.9598 13.46 31.5598 13.46C32.0532 13.46 32.3998 13.41 32.5998 13.31C32.8065 13.2033 32.9098 13.0533 32.9098 12.86C32.9098 12.74 32.8732 12.6467 32.7998 12.58C32.7265 12.5133 32.5998 12.4633 32.4198 12.43L30.6298 12.07C29.6965 11.89 28.9932 11.5333 28.5198 11C28.0532 10.46 27.8198 9.72333 27.8198 8.79C27.8198 8.03 28.0165 7.37333 28.4098 6.82C28.8032 6.26667 29.3965 5.84 30.1898 5.54C30.9832 5.24 31.9598 5.09 33.1198 5.09C34.0817 5.09 34.9629 5.18172 35.7635 5.36515C35.8971 5.39576 35.9898 5.51587 35.9898 5.65292V8.06409C35.9898 8.26285 35.8 8.40671 35.6062 8.3623C34.9016 8.20077 34.1328 8.12 33.2998 8.12C32.1132 8.12 31.5198 8.33333 31.5198 8.76C31.5198 8.86667 31.5598 8.95 31.6398 9.01C31.7198 9.07 31.8532 9.11667 32.0398 9.15L33.8298 9.51C34.7498 9.69667 35.4432 10.0433 35.9098 10.55C36.3765 11.05 36.6098 11.7833 36.6098 12.75C36.6098 13.5167 36.4098 14.1833 36.0098 14.75C35.6098 15.31 35.0365 15.74 34.2898 16.04C33.5432 16.34 32.6598 16.49 31.6398 16.49Z" fill="#1F1F1F"/>
<path d="M38.1711 12.21C38.0054 12.21 37.8711 12.0757 37.8711 11.91V9.23C37.8711 9.06431 38.0054 8.93 38.1711 8.93H44.4211C44.5868 8.93 44.7211 9.06431 44.7211 9.23V11.91C44.7211 12.0757 44.5868 12.21 44.4211 12.21H38.1711Z" fill="#1F1F1F"/>
<path d="M50.4748 5.09C51.7282 5.09 52.7315 5.24667 53.4848 5.56C54.2448 5.87333 54.8015 6.38667 55.1548 7.1C55.5148 7.80667 55.6948 8.77 55.6948 9.99V15.97C55.6948 16.1357 55.5605 16.27 55.3948 16.27H52.6159C52.4797 16.27 52.3606 16.1783 52.3258 16.0466L52.1297 15.304C52.115 15.2486 52.0649 15.21 52.0077 15.21C51.9626 15.21 51.9211 15.2342 51.8975 15.2726C51.3993 16.0842 50.5651 16.49 49.3948 16.49C48.7015 16.49 48.0948 16.3533 47.5748 16.08C47.0548 15.8 46.6548 15.4133 46.3748 14.92C46.1015 14.42 45.9648 13.8433 45.9648 13.19C45.9648 12.0767 46.3348 11.22 47.0748 10.62C47.8148 10.0133 48.9982 9.66333 50.6248 9.57L51.4264 9.52667C51.5953 9.51754 51.7267 9.36965 51.6887 9.20485C51.6472 9.02439 51.5825 8.87278 51.4948 8.75C51.3615 8.56333 51.1482 8.42667 50.8548 8.34C50.5682 8.25333 50.1748 8.21 49.6748 8.21C49.2482 8.21 48.7882 8.24333 48.2948 8.31C47.9415 8.35775 47.6018 8.41919 47.2758 8.49431C47.083 8.53873 46.8948 8.39504 46.8948 8.19722V5.73423C46.8948 5.59657 46.9884 5.47616 47.1227 5.44576C47.5931 5.33922 48.1005 5.2573 48.6448 5.2C49.2848 5.12667 49.8948 5.09 50.4748 5.09ZM50.8448 13.64C51.1298 13.64 51.3832 13.5837 51.605 13.4711C51.6951 13.4255 51.7448 13.3292 51.7448 13.2283V12.039C51.7448 11.8661 51.599 11.729 51.4264 11.7396L51.0948 11.76C50.7015 11.78 50.4048 11.8767 50.2048 12.05C50.0115 12.2233 49.9148 12.4633 49.9148 12.77C49.9148 13.05 49.9982 13.2667 50.1648 13.42C50.3315 13.5667 50.5582 13.64 50.8448 13.64Z" fill="#1F1F1F"/>
<path d="M57.6828 16.27C57.5171 16.27 57.3828 16.1357 57.3828 15.97V5.57C57.3828 5.40432 57.5171 5.27 57.6828 5.27H61.1628C61.3285 5.27 61.4628 5.40432 61.4628 5.57V15.97C61.4628 16.1357 61.3285 16.27 61.1628 16.27H57.6828ZM59.4228 4.18C58.5961 4.18 57.9828 4 57.5828 3.64C57.1828 3.28 56.9828 2.76333 56.9828 2.09C56.9828 1.41667 57.1828 0.9 57.5828 0.54C57.9828 0.18 58.5961 0 59.4228 0C60.2495 0 60.8628 0.18 61.2628 0.54C61.6628 0.9 61.8628 1.41667 61.8628 2.09C61.8628 2.76333 61.6628 3.28 61.2628 3.64C60.8628 4 60.2495 4.18 59.4228 4.18Z" fill="#1F1F1F"/>
<path d="M67.0631 16.48C66.2765 16.48 65.5598 16.2833 64.9131 15.89C64.2731 15.49 63.7598 14.88 63.3731 14.06C62.9865 13.24 62.7931 12.2167 62.7931 10.99C62.7931 9.08333 63.2965 7.62333 64.3031 6.61C65.3165 5.59667 66.8365 5.09 68.8631 5.09C68.9266 5.09 69.0007 5.09151 69.0853 5.09453C69.2578 5.10069 69.4031 4.96445 69.4031 4.79183V0.410001C69.4031 0.244315 69.5374 0.11 69.7031 0.11H73.1631C73.3288 0.11 73.4631 0.244315 73.4631 0.41V15.97C73.4631 16.1357 73.3288 16.27 73.1631 16.27H70.2933C70.1529 16.27 70.0313 16.1726 70.0006 16.0356L69.8149 15.2072C69.8022 15.1504 69.7517 15.11 69.6935 15.11C69.6499 15.11 69.6095 15.1331 69.5862 15.17C69.3306 15.5745 68.9963 15.8912 68.5831 16.12C68.1565 16.36 67.6498 16.48 67.0631 16.48ZM68.3931 13.15C68.733 13.15 69.024 13.0871 69.2661 12.9614C69.3546 12.9154 69.4031 12.8202 69.4031 12.7206V8.46019C69.4031 8.31089 69.2934 8.1834 69.145 8.16723C68.9783 8.14908 68.8344 8.14 68.7131 8.14C68.2931 8.14 67.9498 8.22 67.6831 8.38C67.4231 8.53333 67.2265 8.79333 67.0931 9.16C66.9665 9.52667 66.9031 10.0267 66.9031 10.66C66.9031 11.3067 66.9598 11.8133 67.0731 12.18C67.1931 12.54 67.3598 12.7933 67.5731 12.94C67.7931 13.08 68.0665 13.15 68.3931 13.15Z" fill="#1F1F1F"/>
<path d="M84.7848 11.65C84.7848 11.8157 84.6505 11.95 84.4848 11.95H79.2228C79.0466 11.95 78.9052 12.1022 78.9454 12.2738C78.997 12.4936 79.0801 12.6723 79.1948 12.81C79.3615 13.01 79.6282 13.1567 79.9948 13.25C80.3615 13.3367 80.8748 13.38 81.5348 13.38C82.1974 13.38 82.9605 13.3001 83.8242 13.1402C84.0108 13.1057 84.1848 13.2476 84.1848 13.4374V15.9058C84.1848 16.048 84.085 16.171 83.9454 16.1979C82.9352 16.3926 81.945 16.49 80.9748 16.49C79.5148 16.49 78.3315 16.29 77.4248 15.89C76.5248 15.4833 75.8615 14.86 75.4348 14.02C75.0148 13.18 74.8048 12.0833 74.8048 10.73C74.8048 9.55667 75.0015 8.55 75.3948 7.71C75.7948 6.86333 76.3815 6.21667 77.1548 5.77C77.9348 5.31667 78.8848 5.09 80.0048 5.09C81.5782 5.09 82.7682 5.59333 83.5748 6.6C84.3815 7.6 84.7848 9.02333 84.7848 10.87V11.65ZM79.9648 7.63C79.7048 7.63 79.4982 7.69 79.3448 7.81C79.1915 7.92333 79.0748 8.12333 78.9948 8.41C78.9363 8.6389 78.899 8.9443 78.8829 9.32621C78.8759 9.49323 79.0115 9.63 79.1787 9.63H80.721C80.8882 9.63 81.0238 9.49321 81.0166 9.32617C81.0005 8.95021 80.9632 8.64816 80.9048 8.42C80.8315 8.12667 80.7182 7.92333 80.5648 7.81C80.4182 7.69 80.2182 7.63 79.9648 7.63Z" fill="#1F1F1F"/>
<path d="M89.3156 16.49C88.1037 16.49 87.0192 16.3451 86.0621 16.0554C85.9383 16.0179 85.8556 15.9027 85.8556 15.7733V13.3744C85.8556 13.1702 86.0554 13.0254 86.2524 13.0795C86.6283 13.1828 87.0293 13.2663 87.4556 13.33C88.0423 13.4167 88.6356 13.46 89.2356 13.46C89.729 13.46 90.0756 13.41 90.2756 13.31C90.4823 13.2033 90.5856 13.0533 90.5856 12.86C90.5856 12.74 90.549 12.6467 90.4756 12.58C90.4023 12.5133 90.2756 12.4633 90.0956 12.43L88.3056 12.07C87.3723 11.89 86.669 11.5333 86.1956 11C85.729 10.46 85.4956 9.72333 85.4956 8.79C85.4956 8.03 85.6923 7.37333 86.0856 6.82C86.479 6.26667 87.0723 5.84 87.8656 5.54C88.659 5.24 89.6356 5.09 90.7956 5.09C91.7574 5.09 92.6387 5.18172 93.4393 5.36515C93.5729 5.39576 93.6656 5.51587 93.6656 5.65292V8.06409C93.6656 8.26285 93.4757 8.40671 93.282 8.3623C92.5773 8.20077 91.8086 8.12 90.9756 8.12C89.789 8.12 89.1956 8.33333 89.1956 8.76C89.1956 8.86667 89.2356 8.95 89.3156 9.01C89.3956 9.07 89.529 9.11667 89.7156 9.15L91.5056 9.51C92.4256 9.69667 93.119 10.0433 93.5856 10.55C94.0523 11.05 94.2856 11.7833 94.2856 12.75C94.2856 13.5167 94.0856 14.1833 93.6856 14.75C93.2856 15.31 92.7123 15.74 91.9656 16.04C91.219 16.34 90.3356 16.49 89.3156 16.49Z" fill="#1F1F1F"/>
<path d="M97.4697 16.47C96.9564 16.47 96.5064 16.37 96.1197 16.17C95.733 15.97 95.433 15.6867 95.2197 15.32C95.0064 14.9467 94.8997 14.51 94.8997 14.01C94.8997 13.25 95.1297 12.6533 95.5897 12.22C96.0497 11.78 96.6764 11.56 97.4697 11.56C97.9897 11.56 98.443 11.6633 98.8297 11.87C99.2164 12.07 99.513 12.3533 99.7197 12.72C99.933 13.0867 100.04 13.5167 100.04 14.01C100.04 14.4967 99.933 14.9267 99.7197 15.3C99.5064 15.6733 99.203 15.9633 98.8097 16.17C98.423 16.37 97.9764 16.47 97.4697 16.47Z" fill="#40CEB3"/>
<path d="M106.005 16.49C104.292 16.49 102.965 16.0133 102.025 15.06C101.092 14.1 100.625 12.69 100.625 10.83C100.625 8.93 101.085 7.5 102.005 6.54C102.932 5.57333 104.265 5.09 106.005 5.09C107.732 5.09 109.058 5.57666 109.985 6.55C110.912 7.52333 111.375 8.94 111.375 10.8C111.375 12.6733 110.908 14.09 109.975 15.05C109.042 16.01 107.718 16.49 106.005 16.49ZM106.005 13.49C106.305 13.49 106.545 13.4167 106.725 13.27C106.905 13.1233 107.038 12.86 107.125 12.48C107.218 12.0933 107.265 11.5433 107.265 10.83C107.265 10.1033 107.218 9.54 107.125 9.14C107.032 8.74 106.895 8.46666 106.715 8.32C106.535 8.16666 106.298 8.09 106.005 8.09C105.712 8.09 105.475 8.16666 105.295 8.32C105.115 8.46666 104.975 8.73666 104.875 9.13C104.782 9.52333 104.735 10.08 104.735 10.8C104.735 11.52 104.778 12.0767 104.865 12.47C104.958 12.8567 105.095 13.1233 105.275 13.27C105.462 13.4167 105.705 13.49 106.005 13.49Z" fill="#40CEB3"/>
<path d="M112.695 5.57C112.695 5.40431 112.83 5.27 112.995 5.27H115.772C115.914 5.27 116.036 5.3691 116.066 5.50769L116.306 6.63915C116.317 6.69212 116.364 6.73 116.418 6.73C116.465 6.73 116.507 6.70162 116.525 6.65881C116.757 6.12205 117.084 5.72911 117.505 5.48C117.945 5.22 118.472 5.09 119.085 5.09C119.283 5.09 119.49 5.104 119.706 5.13202C119.851 5.15081 119.955 5.27647 119.955 5.42233V8.49601C119.955 8.68794 119.777 8.83144 119.586 8.80918C119.363 8.78306 119.109 8.77 118.825 8.77C118.405 8.77 118.005 8.83666 117.625 8.97C117.296 9.08559 117.034 9.23123 116.84 9.40694C116.783 9.45809 116.755 9.53241 116.755 9.60863V15.97C116.755 16.1357 116.621 16.27 116.455 16.27H112.995C112.83 16.27 112.695 16.1357 112.695 15.97V5.57Z" fill="#40CEB3"/>
<path d="M124.898 20.87C123.673 20.87 122.556 20.7608 121.549 20.5425C121.413 20.513 121.318 20.3919 121.318 20.2529V17.7248C121.318 17.5295 121.502 17.3863 121.692 17.4289C122.651 17.643 123.6 17.75 124.538 17.75C125.445 17.75 126.101 17.5833 126.508 17.25C126.915 16.9167 127.118 16.3633 127.118 15.59V15.1963C127.118 15.1321 127.066 15.08 127.002 15.08C126.962 15.08 126.925 15.1003 126.903 15.1333C126.648 15.5139 126.319 15.8061 125.918 16.01C125.505 16.2233 125.028 16.33 124.488 16.33C123.788 16.33 123.135 16.1333 122.528 15.74C121.921 15.34 121.431 14.74 121.058 13.94C120.691 13.1333 120.508 12.1467 120.508 10.98C120.508 9.08 121.021 7.62666 122.048 6.62C123.081 5.60666 124.661 5.09666 126.788 5.09C127.535 5.09 128.298 5.15 129.078 5.27C129.781 5.37122 130.414 5.51499 130.978 5.7013C131.099 5.741 131.178 5.85447 131.178 5.9811V14.84C131.178 16.2467 130.948 17.3933 130.488 18.28C130.035 19.1667 129.345 19.82 128.418 20.24C127.498 20.66 126.325 20.87 124.898 20.87ZM126.208 13.03C126.478 13.03 126.722 12.9935 126.94 12.9206C127.051 12.8835 127.118 12.7751 127.118 12.658V8.44856C127.118 8.30438 127.016 8.17928 126.873 8.16069C126.715 8.14023 126.564 8.13 126.418 8.13C125.811 8.13 125.358 8.32 125.058 8.7C124.765 9.07333 124.618 9.71666 124.618 10.63C124.618 11.2567 124.675 11.7433 124.788 12.09C124.908 12.4367 125.081 12.68 125.308 12.82C125.535 12.96 125.835 13.03 126.208 13.03Z" fill="#40CEB3"/>
</svg>
