<svg xmlns="http://www.w3.org/2000/svg" width="16" height="16" viewBox="0 0 16 16"><path d="M1.398 2.846h.612l.61 2.502 1.24-2.502h.58l.05 3.592h-.63l-.03-2.15-1.065 2.15H2.25l-.546-2.256-.574 2.256H.486l.912-3.592zM7.085 5.66l.574.297a1.3 1.3 0 0 1-.52.4c-.21.1-.45.15-.71.15-.41 0-.73-.115-.96-.343-.24-.228-.35-.53-.35-.908 0-.43.14-.796.43-1.095a1.432 1.432 0 0 1 1.06-.44c.25 0 .47.06.66.17.19.11.35.27.46.48s.17.44.17.68a1.9 1.9 0 0 1-.02.27h-2.1a.608.608 0 0 0 .18.44.66.66 0 0 0 .47.17.96.96 0 0 0 .65-.25zm.166-.84a.687.687 0 0 0-.24-.37.678.678 0 0 0-.41-.124c-.16 0-.3.043-.43.13s-.22.208-.29.365h1.38zm2.87-.668l-.31.498a.912.912 0 0 0-.25-.263.476.476 0 0 0-.24-.084c-.06 0-.11.016-.15.05-.04.032-.06.068-.06.11 0 .038.02.077.05.116s.13.11.28.22c.25.18.42.33.5.46a.79.79 0 0 1 .12.41c0 .19-.08.38-.24.56s-.4.26-.7.26c-.18 0-.34-.04-.48-.11A1.797 1.797 0 0 1 8.12 6l.403-.47c.183.243.382.363.6.363a.31.31 0 0 0 .204-.062.18.18 0 0 0 .077-.14.226.226 0 0 0-.06-.14c-.035-.05-.143-.13-.32-.26-.2-.14-.34-.26-.414-.37a.745.745 0 0 1-.16-.45c0-.22.082-.4.25-.54s.367-.21.6-.21a.992.992 0 0 1 .82.44zm-6.1 4.694h.57l.9 3.592h-.66l-.19-.764H3.21l-.41.764h-.725l1.94-3.592zm.46 2.193l-.29-1.19-.63 1.18h.92zm1.75-1.26h.65l-.36 2.65h-.65l.36-2.66zm.45-1.09a.4.4 0 0 1 .29.68c-.08.08-.17.12-.28.12s-.2-.04-.28-.12a.39.39 0 0 1-.11-.28.4.4 0 0 1 .12-.29.38.38 0 0 1 .286-.12zm2.93.06h.66l-.51 3.68H9.1l.04-.29a1.44 1.44 0 0 1-.396.27 1.04 1.04 0 0 1-.416.08c-.355 0-.634-.13-.84-.39a1.397 1.397 0 0 1-.314-.9c0-.27.065-.52.2-.75.13-.24.31-.42.533-.56.226-.13.46-.2.704-.2.17 0 .32.04.46.11a.94.94 0 0 1 .34.33l.2-1.4zm-1.12 3.17c.16 0 .3-.04.42-.11s.22-.19.3-.34a.988.988 0 0 0 .12-.47.7.7 0 0 0-.18-.51.628.628 0 0 0-.48-.19.78.78 0 0 0-.59.25.93.93 0 0 0-.24.66c0 .2.06.37.19.5.12.12.28.19.47.19zm3.96-.27l.58.29c-.13.17-.3.3-.51.4-.21.1-.45.15-.71.15-.4 0-.72-.12-.95-.35-.23-.23-.35-.53-.35-.91a1.5 1.5 0 0 1 .44-1.1c.29-.3.65-.45 1.06-.45.25 0 .47.05.668.16.196.11.35.27.46.475.113.21.17.434.17.68a2.3 2.3 0 0 1-.023.27h-2.12a.61.61 0 0 0 .18.44c.115.11.27.162.475.162a.95.95 0 0 0 .645-.25zm.17-.84a.68.68 0 0 0-.25-.37.67.67 0 0 0-.41-.13c-.15 0-.3.04-.43.13s-.22.21-.29.36h1.38zm2.86-.67l-.31.5a.912.912 0 0 0-.25-.27.465.465 0 0 0-.25-.09c-.06 0-.11.02-.15.05s-.06.07-.06.11a.18.18 0 0 0 .05.11c.03.03.13.11.28.22.25.18.42.33.49.46a.77.77 0 0 1 .12.413c0 .195-.08.38-.24.56s-.39.26-.7.26c-.18 0-.34-.033-.48-.105a1.806 1.806 0 0 1-.487-.39l.4-.47c.18.24.38.363.6.363.083 0 .153-.02.204-.06a.186.186 0 0 0 .077-.15c0-.046-.02-.093-.06-.14s-.144-.135-.32-.26a1.978 1.978 0 0 1-.42-.37.752.752 0 0 1-.16-.453.67.67 0 0 1 .255-.54.902.902 0 0 1 .597-.21 1 1 0 0 1 .82.44z"/></svg>