<svg width="127" height="110" viewBox="0 0 127 110" fill="none" xmlns="http://www.w3.org/2000/svg">
<path d="M22.2137 17.1501C22.4271 16.9367 22.6405 16.7233 22.8345 16.4905C23.2225 16.0443 23.6105 15.6369 24.0567 15.2489C24.1926 15.1325 24.3284 15.0161 24.4642 14.9385C24.503 14.8997 24.503 14.8221 24.5418 14.7833C24.3672 14.8609 24.2508 14.9967 24.0567 15.0743C24.0179 15.0743 23.9791 15.0355 24.0179 14.9967C24.1537 14.8997 24.2896 14.8027 24.406 14.7057H24.3866C24.3478 14.7057 24.3478 14.6669 24.3478 14.6281C23.8627 14.5505 23.5135 14.8803 23.1837 15.1713C23.1061 15.2101 23.0285 15.1325 23.0091 15.1325C22.4659 15.3071 22.0585 15.7921 21.5153 16.0055V15.9279C21.3019 16.0055 21.0885 16.1413 20.8556 16.1801C20.5258 16.2577 20.2348 16.2189 19.9438 16.2189C19.4976 16.2577 19.0514 16.3547 18.6052 16.4517C18.5858 16.4517 18.5858 16.4517 18.5664 16.4711C18.3336 16.5293 18.1008 16.6263 17.8874 16.7427L17.8098 16.8203C17.7322 16.8979 17.6545 16.9949 17.5575 17.0337C17.3247 17.1501 17.1501 17.3441 16.9561 17.5187C16.9367 17.5381 16.9173 17.5381 16.8979 17.5381C16.7039 17.7322 16.5099 17.9262 16.3159 18.1008C16.2965 18.1202 16.2383 18.1202 16.1995 18.1202C16.1995 18.1008 16.2189 18.1008 16.2189 18.0814C16.2577 18.0232 16.2771 17.9844 16.3159 17.9262L16.4323 17.7516C16.4905 17.6739 16.5293 17.5963 16.5875 17.5381C16.6069 17.5187 16.6069 17.4993 16.5875 17.4993C16.5681 17.4799 16.5487 17.4799 16.5293 17.4799C16.7039 17.3053 16.9367 17.1501 17.1501 17.0143C17.1307 17.0143 17.0919 16.9949 17.1113 16.9755C17.1307 16.9367 17.1501 16.9173 17.1695 16.8785C17.1695 16.8591 17.1695 16.8591 17.1889 16.8397C17.1889 16.8203 17.1695 16.8203 17.1695 16.8009L16.9949 16.9173C16.8979 16.9949 16.8397 17.1501 16.7039 17.1501H16.6457C16.6263 17.1501 16.6069 17.1501 16.6069 17.1307V17.1113C16.6069 17.0919 16.6263 17.0919 16.6263 17.0725C16.6263 17.0531 16.6457 17.0531 16.6457 17.0337C16.6457 17.0337 16.6457 17.0143 16.6651 17.0143C16.6651 16.9949 16.6845 16.9755 16.6845 16.9755C16.6845 16.9561 16.7039 16.9561 16.7039 16.9367C16.7233 16.9173 16.7427 16.8785 16.7427 16.8591C16.7427 16.8397 16.7621 16.8397 16.7621 16.8203C16.7815 16.8009 16.7815 16.7815 16.8009 16.7621C16.8203 16.7233 16.8009 16.7039 16.7815 16.7039C16.8397 16.6069 16.9367 16.5487 17.0337 16.4905H17.0143C17.1501 16.4129 17.3053 16.3353 17.4411 16.2577L17.4993 16.1995C17.2859 16.2771 17.1113 16.3741 16.9173 16.4905C16.9173 16.4905 16.8785 16.5099 16.8591 16.5293C16.8591 16.5293 16.8203 16.5487 16.7621 16.4905V16.4711C16.8009 16.3935 16.9173 16.3547 16.9755 16.2965C17.0143 16.2965 17.0531 16.2965 17.0531 16.3353C18.2366 15.4235 19.8468 15.6369 21.2049 15.1713C21.3213 15.0937 21.4183 15.0161 21.5347 14.9579C21.7093 14.8803 21.8645 14.7057 22.0779 14.5893C22.3689 14.3758 22.5823 14.1042 22.6987 13.755C22.6987 13.7162 22.6599 13.6774 22.6599 13.6774C22.1749 14.1818 21.6317 14.5893 21.0497 14.8803C20.2736 15.2877 19.4394 15.2101 18.6246 15.3265C18.6634 15.2489 18.741 15.2489 18.7992 15.2489C18.7992 15.1325 18.8768 15.0937 18.9544 15.0355H19.0708C19.1096 15.0355 19.1096 14.9579 19.1484 14.9579C19.226 14.9579 19.3424 14.9191 19.3036 14.9191C19.1872 14.7639 18.9738 15.0355 18.7992 14.9191C18.8768 14.8415 18.838 14.7445 18.9156 14.7057H19.0708C19.0708 14.6281 19.1484 14.5505 19.1484 14.5505C19.6916 14.2206 20.2154 13.9684 20.7198 13.6774C20.6034 13.6774 20.5452 13.7938 20.4288 13.7162C20.5064 13.7162 20.4288 13.5998 20.5064 13.5998C20.9138 13.4834 21.2437 13.27 21.6511 13.1148C21.4959 13.1148 21.3989 13.2312 21.2437 13.1148C21.3213 13.076 21.3601 12.9984 21.4571 12.9984V12.882C21.4571 12.8432 21.4959 12.8432 21.5347 12.8432C21.4959 12.8432 21.4571 12.8044 21.4571 12.8044C21.4959 12.7268 21.6123 12.7656 21.6705 12.688C21.6317 12.688 21.5541 12.688 21.5541 12.6492C21.6705 12.494 21.8451 12.4746 22.0391 12.4358C22.0003 12.3582 21.8839 12.4358 21.8839 12.3582C21.8839 12.3194 21.9227 12.3194 21.9615 12.3194H21.8839C21.8063 12.2806 21.8451 12.203 21.8451 12.1642C22.0585 11.912 22.0585 11.5822 22.1749 11.2912C22.1361 11.2912 22.0973 11.2912 22.0973 11.2523C21.7287 11.6598 21.1467 11.7956 20.6034 11.9508H20.3512C20.1766 12.0284 19.905 12.0284 19.7304 11.912C19.5752 11.8344 19.517 11.7374 19.3618 11.621C19.0708 11.4464 18.7798 11.2912 18.45 11.1747C17.5381 10.8837 16.5875 10.7285 15.6369 10.7673C16.0443 10.5539 16.4905 10.5345 16.9173 10.3987C17.5381 10.2241 18.1202 9.99131 18.7798 10.0301C18.6634 9.99131 18.5276 10.0301 18.4112 10.0301C17.9068 9.99131 17.3829 10.1465 16.8397 10.2435C16.4711 10.3211 16.1413 10.4569 15.7727 10.5345C15.5593 10.6121 15.4429 10.8255 15.1907 10.7867V10.6703C15.5593 10.2241 16.0055 9.7973 16.5875 9.7585C17.2471 9.6421 17.868 9.7585 18.5276 9.83611C19.0126 9.87491 19.4394 9.99131 19.9244 10.0883C20.099 10.0883 20.1378 10.3793 20.293 10.4181C20.5064 10.4957 20.7392 10.4181 20.9527 10.5733C20.9527 10.4957 20.9138 10.4181 20.9527 10.3599C21.1079 10.2047 21.2825 10.3987 21.4377 10.3211C21.7287 10.1465 21.1855 9.8167 21.0303 9.5451C21.0303 9.5063 21.0691 9.46749 21.0691 9.46749C21.3601 9.7197 21.5735 10.0107 21.9421 10.2047C22.1167 10.2823 22.5629 10.3793 22.4853 10.1659C22.3107 9.7585 21.9421 9.42869 21.6317 9.06008V8.90488C21.5541 8.90488 21.5541 8.86608 21.5153 8.82727V8.67207C21.3601 8.59447 21.3989 8.45866 21.3407 8.34226C21.2243 8.16765 21.3019 7.89605 21.2243 7.68264C21.1467 7.46923 21.1079 7.27523 21.0691 7.06182C20.9527 6.441 20.8168 5.89778 20.7392 5.29636C20.6616 4.59794 21.1467 4.05473 21.4765 3.43391C21.7287 2.98769 22.0197 2.56088 22.5047 2.26987C22.6211 1.82366 22.9121 1.45505 23.2031 1.10583C23.4941 0.756624 23.9791 0.523816 24.3284 0.368611C24.8328 0.135804 25.2984 0 25.2984 0H0V19.4006H17.9844C18.6828 18.8962 19.3812 18.6634 20.3512 18.1784C20.8168 17.9844 21.8645 17.4993 22.2137 17.1501ZM16.5875 14.5117C16.5099 14.5117 16.3741 14.5505 16.4129 14.4728C16.4517 14.2982 16.7039 14.2982 16.8591 14.2206C16.9367 14.1818 17.0337 14.1042 17.1113 14.143C17.1889 14.2594 17.2859 14.2206 17.3635 14.2982C17.1307 14.5117 16.8397 14.4146 16.5875 14.5117ZM10.9613 13.7162C10.9613 13.7162 10.9225 13.6774 10.9225 13.6386C11.4076 13.0178 11.7568 12.4358 12.106 11.7762C12.591 11.524 12.979 11.1553 13.3476 10.7479C13.9684 10.0883 14.6281 9.5063 15.4041 9.13768C15.6951 9.02128 16.0637 9.06008 16.3547 9.17649C16.2383 9.33169 16.0637 9.29289 15.9085 9.38989C15.8697 9.38989 15.8309 9.38989 15.7921 9.35109C15.8309 9.31229 15.8309 9.27349 15.8309 9.23469C15.4623 9.6421 14.9579 9.8167 14.6669 10.3017C14.4534 10.6703 14.2982 11.1359 13.8326 11.2523C13.6774 11.2912 13.8714 11.1359 13.7938 11.1747C12.6492 11.8732 11.8538 12.7268 10.9613 13.7162ZM14.0072 11.2912C13.9684 11.3688 13.9296 11.3688 13.8908 11.4464C13.852 11.524 13.8132 11.5628 13.7356 11.6016C13.6968 11.6016 13.658 11.6016 13.658 11.5628C13.6968 11.4076 13.8132 11.2717 13.949 11.2329C14.0072 11.2135 14.0072 11.2523 14.0072 11.2912ZM15.7145 16.7815C15.6951 16.8203 15.6563 16.8591 15.6175 16.8979C15.6563 16.8979 15.6951 16.9367 15.6563 16.9561C15.5787 17.0337 15.4817 17.1113 15.3847 17.1501H15.3265C15.2877 17.1889 15.2295 17.2277 15.1907 17.2859C15.1519 17.3247 14.9385 17.3053 14.9967 17.2471C15.0937 17.1695 15.1713 17.0725 15.2683 16.9949C15.3265 16.9561 15.3847 16.8979 15.4235 16.8397C15.4429 16.8009 15.4623 16.7815 15.5011 16.7621C15.5593 16.7233 15.7533 16.7039 15.7145 16.7815ZM15.0549 16.4905C14.8997 16.5875 14.7639 16.6845 14.6281 16.7815C14.4728 16.8785 14.2982 16.9367 14.143 17.0143C14.1236 16.9949 14.1042 16.9949 14.0848 16.9949C13.949 17.0725 13.8326 17.1695 13.7162 17.2859L13.658 17.3441L13.5998 17.4023L13.5222 17.4799C13.5028 17.4993 13.5028 17.5187 13.464 17.5381C13.4446 17.5575 13.3864 17.5575 13.3864 17.5187C13.367 17.5381 13.3476 17.5381 13.3282 17.5575C13.3088 17.5769 13.2894 17.5769 13.27 17.5963H13.2312C13.1924 17.6351 13.1342 17.6739 13.0954 17.7127C13.0178 17.7904 12.9402 17.8486 12.882 17.9456V17.965L12.8626 17.9844C12.8626 17.9844 12.8626 18.0038 12.8432 18.0038C12.8432 18.0232 12.8238 18.0232 12.8238 18.0426C12.8238 18.0426 12.8044 18.062 12.785 18.062L12.7656 18.0426C12.7656 18.0426 12.7656 18.0232 12.7462 18.0232C12.7268 18.0038 12.7268 17.9844 12.7074 17.965V17.9456C12.7462 17.9068 12.785 17.868 12.8238 17.8098C12.8432 17.7904 12.8432 17.771 12.8626 17.771C12.882 17.7516 12.9014 17.7127 12.9208 17.6933C12.9208 17.6739 12.9402 17.6739 12.9402 17.6545C12.979 17.5963 13.0178 17.5575 13.0566 17.4993L13.076 17.4799C13.0954 17.4605 13.1148 17.4217 13.1342 17.4023C13.1536 17.3829 13.1536 17.3635 13.173 17.3247V17.3053C13.1924 17.2665 13.1924 17.2471 13.2118 17.2277V17.2083C13.2118 17.1889 13.2118 17.1889 13.2312 17.1695C13.2312 17.1501 13.2312 17.1307 13.2506 17.1113V17.0919C13.2894 17.0143 13.3476 16.9561 13.4058 16.8979H13.3864C13.3282 16.9367 13.2894 16.9755 13.2506 17.0143C13.2118 17.0531 13.1342 16.9949 13.1924 16.9561C13.2312 16.9367 13.2506 16.8979 13.27 16.8785C13.3282 16.8203 13.3864 16.7427 13.464 16.6845C13.5028 16.6457 13.5416 16.6263 13.5804 16.6069L13.5998 16.5875C13.6192 16.5487 13.658 16.5293 13.6774 16.4905C14.0266 16.1607 14.6281 16.1607 15.0743 15.9473C15.2489 15.8697 15.4817 15.9861 15.6563 15.9473C15.7727 15.9473 15.8697 15.9473 15.9861 16.0249C15.6563 16.0831 15.3653 16.2965 15.0549 16.4905ZM15.8115 13.9296C15.7727 13.8908 15.9279 13.9296 15.9667 13.852H15.6757C15.6369 13.852 15.6369 13.8132 15.6369 13.7744C15.4623 13.8132 15.2295 13.8908 15.0549 13.9296C14.8027 14.0072 14.5699 14.1818 14.2788 14.2594C13.8714 14.4146 13.5416 14.7445 13.1148 14.8803C13.076 14.8803 13.076 14.8415 13.076 14.8027C13.1148 14.6863 13.2506 14.6475 13.3282 14.5505C13.3282 14.5117 13.3282 14.4728 13.2894 14.4728C13.5804 14.0654 13.9878 13.852 14.3564 13.5222V13.4058C14.4728 13.2506 14.6475 13.1924 14.7251 12.9984C14.7639 12.882 14.9191 12.7462 15.0937 12.6686C15.0549 12.6298 14.9773 12.6298 14.9773 12.5522C14.8221 12.5522 14.6863 12.6298 14.5311 12.5134C14.6087 12.4552 14.6863 12.4164 14.7639 12.3776C14.7251 12.3776 14.7057 12.3582 14.6863 12.3194C14.6475 12.2418 14.7639 12.1642 14.8609 12.1448C15.0161 12.106 15.1907 12.106 15.3071 11.9896C15.0549 11.9508 14.7639 12.0672 14.4922 11.912C14.6669 11.427 14.9773 11.0389 15.4041 10.8061C15.4429 10.8061 15.5205 10.8061 15.5205 10.8449C15.5205 11.0195 15.4041 11.1747 15.2295 11.2135C15.5205 11.2912 15.8115 11.2912 16.1025 11.427C16.0637 11.5046 15.9861 11.4658 15.9473 11.4658C16.1219 11.5822 16.3547 11.5046 16.5293 11.6404C16.4129 11.7568 16.3159 11.6404 16.1995 11.6404C17.3441 11.9702 18.547 12.2224 19.4976 12.9596C18.6828 13.367 17.8486 13.5416 16.9755 13.7356C16.8591 13.7356 16.8009 13.7356 16.6845 13.6968C16.6845 13.7356 16.6845 13.8132 16.6457 13.8132C16.4905 13.8132 16.3935 13.8132 16.2771 13.8908C16.1413 14.0072 15.9279 14.046 15.8115 13.9296Z" fill="#000091"/>
<path d="M53.4492 0H32.613C32.613 0 32.6518 0 32.807 0.097003C32.9816 0.194006 33.195 0.31041 33.3308 0.368611C33.6024 0.504416 33.8546 0.679021 34.0292 0.95063C34.1068 1.06703 34.2038 1.28044 34.1456 1.43564C34.068 1.61025 34.0292 1.92066 33.8546 1.97886C33.6412 2.09527 33.3502 2.09527 33.0786 2.05646C32.9234 2.05646 32.7876 2.01766 32.6324 1.97886C33.1756 2.19227 33.6994 2.46388 34.068 2.96829C34.1068 3.04589 34.2426 3.0847 34.3978 3.0847C34.4366 3.0847 34.4366 3.1623 34.4366 3.2011C34.359 3.2787 34.2814 3.3175 34.3202 3.41451H34.4366C34.6113 3.3369 34.5919 2.96829 34.8441 3.0847C35.0187 3.2011 35.0963 3.45331 34.9993 3.62791C34.8441 3.78312 34.7083 3.88012 34.5531 3.99652C34.5143 4.07413 34.5143 4.17113 34.5531 4.24873C34.6695 4.40394 34.7083 4.53974 34.7277 4.69495C34.8441 4.94715 34.8829 5.23816 34.9799 5.50977C35.1351 6.05299 35.2709 6.61561 35.2321 7.15882C35.2321 7.44983 35.0769 7.70204 35.1933 7.99305C35.2709 8.28406 35.4455 8.49746 35.6007 8.76907C35.7559 8.98248 35.8917 9.13768 36.0081 9.35109C36.2215 9.7197 36.6289 10.0883 36.4543 10.5151C36.3379 10.7673 35.9499 10.7285 35.6783 10.8837C35.4649 11.0583 35.6395 11.3688 35.7559 11.5434C35.9305 11.8732 35.5425 12.0866 35.2709 12.1836C35.3485 12.3 35.4843 12.2612 35.5231 12.3388C35.5619 12.5134 35.7365 12.6298 35.6395 12.8238C35.4843 13.0372 35.0575 13.1536 35.2709 13.4834C35.4261 13.7356 35.3291 14.0266 35.2321 14.2982C35.1157 14.5893 34.8635 14.7833 34.5725 14.8415C34.359 14.9191 34.0874 14.9191 33.874 14.8803C33.7964 14.8415 33.7188 14.8027 33.6606 14.8027C33.0398 14.7251 32.419 14.5505 31.7982 14.5505C31.6236 14.5893 31.4296 14.6281 31.2938 14.6863C31.1385 14.8027 30.9833 14.9385 30.8475 15.0743C30.8281 15.1131 30.7893 15.1325 30.7699 15.1713C30.7505 15.1907 30.7311 15.2101 30.7311 15.2295L30.6923 15.2683C30.5759 15.4041 30.4983 15.5399 30.4013 15.6951C30.4013 15.7145 30.3819 15.7145 30.3819 15.7145C30.3819 15.7339 30.3625 15.7533 30.3431 15.7727C30.2267 15.9861 30.1297 16.2189 30.0715 16.4517C29.8193 17.2859 29.9357 18.0038 30.1103 18.1784C30.1491 18.2172 31.3132 18.5858 32.128 18.9544C32.516 19.129 32.7682 19.2454 33.001 19.4006H53.4686V0H53.4492Z" fill="#E1000F"/>
<path d="M33.8498 7.10143C34.005 7.14023 34.2184 7.14023 34.2184 7.21783C34.1408 7.50884 33.714 7.58644 33.4812 7.87745H33.3648C33.2484 7.95505 33.2872 8.12966 33.1902 8.12966C33.0738 8.09086 32.9768 8.12966 32.8604 8.16846C33.0156 8.32366 33.1902 8.42067 33.4036 8.38187C33.4424 8.38187 33.52 8.45947 33.52 8.53707C33.52 8.53707 33.5588 8.53707 33.5976 8.49827C33.6364 8.49827 33.6752 8.49827 33.6752 8.53707V8.69228C33.5588 8.84748 33.3842 8.76988 33.229 8.80868C33.52 8.88628 33.811 8.88628 34.0826 8.80868C34.2961 8.73108 34.0826 8.36247 34.2379 8.18786C34.1602 8.18786 34.2379 8.07146 34.1602 8.07146C34.2379 7.99385 34.3155 7.89685 34.3737 7.85805C34.4513 7.85805 34.5483 7.81925 34.5871 7.74165C34.5871 7.66404 34.4319 7.62524 34.4707 7.56704C34.6841 7.41184 34.8781 7.19843 34.8005 6.98502C34.7617 6.86862 34.4707 6.86862 34.2961 6.79102C34.1214 6.71341 33.8886 6.79102 33.6752 6.82982C33.5006 6.82982 33.3066 6.94622 33.132 6.98502C32.8798 7.06263 32.647 7.19843 32.4336 7.35363C32.6858 7.23723 32.938 7.19843 33.229 7.14023C33.4424 7.10143 33.617 7.06263 33.8498 7.10143Z" fill="#808080"/>
<path d="M0 43.6511V29.1006H4.42334C6.02712 29.1006 7.28169 29.4886 8.18705 30.2647C9.10535 31.0407 9.57096 32.1013 9.5839 33.4464C9.5839 34.3129 9.38342 35.0631 8.98248 35.6968C8.58153 36.3435 8.01245 36.8479 7.27523 37.2101L11.815 43.6511H8.30346L4.44274 37.7727H2.94889V43.6511H0ZM2.94889 35.27H4.59794C5.21876 35.27 5.69731 35.1083 6.03359 34.785C6.3828 34.4617 6.5574 34.0025 6.5574 33.4076C6.5574 32.8514 6.3828 32.4117 6.03359 32.0883C5.68438 31.765 5.20583 31.6098 4.59794 31.6227H2.94889V35.27ZM13.8714 43.6511V29.1006H22.3107V31.6227H16.8009V34.979H21.4765V37.5011H16.8009V41.129H22.3107V43.6511H13.8714ZM16.7233 27.859L19.0514 25.0459H22.0779L19.4006 27.859H16.7233ZM25.8998 43.6511V29.1006H30.6918C32.2826 29.1006 33.5307 29.4886 34.4361 30.2647C35.3544 31.0407 35.8135 32.1013 35.8135 33.4464C35.8135 34.7915 35.3544 35.8456 34.4361 36.6087C33.5178 37.3847 32.2697 37.7727 30.6918 37.7727H28.8487V43.6511H25.8998ZM28.8487 35.27H30.8082C31.4419 35.27 31.9334 35.1019 32.2826 34.7656C32.6318 34.4423 32.8064 33.9896 32.8064 33.4076C32.8064 32.8514 32.6253 32.4117 32.2632 32.0883C31.914 31.765 31.429 31.6098 30.8082 31.6227H28.8487V35.27ZM38.1804 37.9667V29.1006H41.1293V38.1995C41.1293 39.1695 41.388 39.9326 41.9053 40.4888C42.4226 41.032 43.1405 41.3036 44.0588 41.3036C44.9641 41.3036 45.6755 41.032 46.1928 40.4888C46.7102 39.9456 46.9689 39.1825 46.9689 38.1995V29.1006H49.9178V37.9667C49.9178 39.8809 49.3939 41.3747 48.3463 42.4482C47.2987 43.5217 45.863 44.0585 44.0394 44.0585C42.2286 44.0585 40.7995 43.5217 39.7518 42.4482C38.7042 41.3618 38.1804 39.868 38.1804 37.9667ZM53.7591 43.6511V29.1006H57.872C59.3852 29.1006 60.5687 29.4498 61.4223 30.1483C62.2889 30.8467 62.7221 31.8167 62.7221 33.0583C62.7221 34.2612 62.2113 35.2183 61.1895 35.9296C61.9526 36.2788 62.5411 36.7445 62.955 37.3265C63.3688 37.9214 63.5758 38.6005 63.5758 39.3635C63.5758 40.6957 63.0908 41.7434 62.1207 42.5064C61.1636 43.2695 59.8509 43.6511 58.1824 43.6511H53.7591ZM56.6886 41.129H58.357C59.0425 41.129 59.5793 40.9609 59.9673 40.6246C60.3553 40.2754 60.5493 39.8033 60.5493 39.2083C60.5493 38.6134 60.3553 38.1478 59.9673 37.8115C59.5793 37.4882 59.0425 37.3265 58.357 37.3265H56.6886V41.129ZM56.6886 34.8044H57.9302C58.4863 34.8044 58.9196 34.6621 59.23 34.3776C59.5404 34.106 59.6957 33.7115 59.6957 33.1942C59.6957 32.7027 59.5404 32.3211 59.23 32.0495C58.9326 31.765 58.4993 31.6227 57.9302 31.6227H56.6886V34.8044ZM66.7769 43.6511V29.1006H69.7064V40.9738H75.2161V43.6511H66.7769ZM78.0098 43.6511V29.1006H80.9393V43.6511H78.0098ZM84.5284 39.3441C84.1533 38.4 83.9658 37.4105 83.9658 36.3758C83.9658 35.3412 84.1533 34.3582 84.5284 33.427C84.9035 32.4828 85.4209 31.6615 86.0805 30.9631C86.753 30.2647 87.5678 29.7085 88.5249 29.2946C89.495 28.8808 90.5361 28.6738 91.6484 28.6738C92.7607 28.6738 93.8019 28.8808 94.7719 29.2946C95.742 29.7085 96.5568 30.2647 97.2164 30.9631C97.876 31.6615 98.3934 32.4828 98.7685 33.427C99.1435 34.3582 99.3311 35.3412 99.3311 36.3758C99.3311 37.5916 99.0789 38.7298 98.5745 39.7904C98.07 40.8509 97.3716 41.7369 96.4792 42.4482L97.3522 43.2825C98.374 44.2137 99.3828 44.6728 100.379 44.6599C100.793 44.6599 101.142 44.6082 101.426 44.5047V47.0074C100.974 47.1885 100.463 47.2725 99.8937 47.2596C98.3287 47.2596 96.8219 46.6258 95.3734 45.3583L93.6467 43.8063C93.013 43.9744 92.3469 44.0585 91.6484 44.0585C90.5361 44.0585 89.495 43.8515 88.5249 43.4377C87.5678 43.0238 86.753 42.4741 86.0805 41.7886C85.4209 41.0902 84.9035 40.2754 84.5284 39.3441ZM88.3115 32.8643C87.432 33.8085 86.9858 34.979 86.9729 36.3758C86.9729 37.7727 87.4191 38.9432 88.3115 39.8874C89.191 40.8315 90.3098 41.3036 91.6678 41.3036C92.5603 41.3036 93.3557 41.0902 94.0541 40.6634C94.7655 40.2366 95.3216 39.6416 95.7226 38.8785C96.1235 38.1284 96.324 37.2941 96.324 36.3758C96.324 34.979 95.8778 33.8085 94.9854 32.8643C94.1059 31.9202 92.9936 31.4481 91.6484 31.4481C90.2904 31.4481 89.1716 31.9202 88.2921 32.8643H88.3115ZM102.086 37.9667V29.1006H105.035V38.1995C105.035 39.1695 105.294 39.9326 105.811 40.4888C106.328 41.032 107.046 41.3036 107.964 41.3036C108.87 41.3036 109.581 41.032 110.098 40.4888C110.616 39.9456 110.874 39.1825 110.874 38.1995V29.1006H113.823V37.9667C113.823 39.8809 113.3 41.3747 112.252 42.4482C111.204 43.5347 109.769 44.0714 107.945 44.0585C106.134 44.0585 104.705 43.5217 103.657 42.4482C102.61 41.3618 102.086 39.868 102.086 37.9667ZM117.665 43.6511V29.1006H126.104V31.6227H120.594V34.979H125.27V37.5011H120.594V41.129H126.104V43.6511H117.665ZM0 64.7007V50.1503H8.43926V52.6724H2.94889V56.0287H7.62444V58.5507H2.94889V64.7007H0ZM11.2329 64.7007V50.1503H15.6563C17.2471 50.1503 18.5082 50.5383 19.4394 51.3143C20.3577 52.0903 20.8168 53.1509 20.8168 54.496C20.8168 55.3626 20.6164 56.1192 20.2154 56.7659C19.8145 57.4126 19.2454 57.9105 18.5082 58.2597L23.0479 64.7007H19.5364L15.6757 58.8223H14.1818V64.7007H11.2329ZM14.1818 56.3197H15.8309C16.4517 56.3197 16.9367 56.158 17.2859 55.8347C17.6351 55.5113 17.8033 55.0522 17.7904 54.4572C17.7904 53.9011 17.6222 53.4613 17.2859 53.138C16.9497 52.8146 16.4646 52.6594 15.8309 52.6724H14.1818V56.3197ZM23.8821 64.7007L29.3725 50.1503H33.2138L38.7042 64.7007H35.5807L34.1839 60.9176H28.3831L27.0056 64.7007H23.8821ZM29.2949 58.3955H33.2914L31.2932 52.944L29.2949 58.3955ZM41.1487 64.7007V50.1503H44.9124L51.3922 60.5684V50.1503H54.3217V64.7007H50.558L44.0782 54.2438V64.7007H41.1487ZM57.3676 57.4255C57.3676 56.3908 57.5551 55.4078 57.9302 54.4766C58.3053 53.5324 58.8226 52.7112 59.4822 52.0127C60.1548 51.3143 60.9696 50.7646 61.9267 50.3637C62.8968 49.9498 63.9444 49.7429 65.0696 49.7429C66.3501 49.7429 67.5141 50.0015 68.5617 50.5189C69.6223 51.0492 70.4889 51.7735 71.1614 52.6918L68.8527 54.496C68.4259 53.8881 67.8892 53.4031 67.2425 53.041C66.5958 52.6788 65.8715 52.4978 65.0696 52.4978C63.7116 52.4978 62.5928 52.9698 61.7133 53.914C60.8338 54.8582 60.3876 56.0287 60.3747 57.4255C60.3747 58.8223 60.8209 59.9993 61.7133 60.9564C62.5928 61.9006 63.7116 62.3662 65.0696 62.3533C65.8715 62.3533 66.5958 62.1786 67.2425 61.8294C67.8892 61.4673 68.4259 60.9758 68.8527 60.355L71.1614 62.1399C70.5923 62.9288 69.881 63.5755 69.0273 64.0799C68.1737 64.5843 67.2296 64.9012 66.1949 65.0305L64.3906 68.057H61.7909L63.6146 64.9917C62.3859 64.7719 61.293 64.2998 60.3359 63.5755C59.3788 62.8512 58.6416 61.9523 58.1242 60.8788C57.6069 59.8053 57.3546 58.6542 57.3676 57.4255ZM72.015 64.7007L77.5054 50.1503H81.3467L86.8371 64.7007H83.7136L82.3362 60.9176H76.5354L75.1385 64.7007H72.015ZM77.4472 58.3955H81.4243L79.4261 52.944L77.4472 58.3955ZM89.2816 64.7007V50.1503H92.2305V64.7007H89.2816ZM95.1794 62.6831L97.3134 60.7236C97.7532 61.2927 98.2447 61.7324 98.7879 62.0428C99.344 62.3533 99.9196 62.5085 100.515 62.5085C101.097 62.5085 101.549 62.3597 101.873 62.0622C102.209 61.7648 102.377 61.3509 102.377 60.8206C102.377 60.5102 102.286 60.2257 102.105 59.967C101.911 59.7083 101.659 59.4949 101.349 59.3268C101.038 59.1457 100.683 58.9646 100.282 58.7835C99.8808 58.5895 99.4734 58.402 99.0595 58.2209C98.6456 58.0399 98.2447 57.82 97.8566 57.5613C97.4557 57.3026 97.1 57.0181 96.7896 56.7077C96.4792 56.3973 96.227 56.0028 96.033 55.5242C95.839 55.0457 95.742 54.5219 95.742 53.9528C95.742 52.7758 96.1817 51.7799 97.0612 50.9651C97.9407 50.1503 99.053 49.7429 100.398 49.7429C102.416 49.7429 104.104 50.5577 105.462 52.1873L103.308 54.1274C102.377 52.9116 101.413 52.3037 100.418 52.3037C99.926 52.3037 99.5186 52.4525 99.1953 52.75C98.8719 53.0474 98.7167 53.4096 98.7297 53.8364C98.7297 54.108 98.8073 54.3602 98.9625 54.593C99.1177 54.8129 99.3181 55.0134 99.5639 55.1944C99.8226 55.3626 100.12 55.5307 100.456 55.6989L101.485 56.1839C101.86 56.352 102.228 56.5201 102.59 56.6883C102.965 56.8694 103.315 57.0892 103.638 57.3479C103.974 57.5936 104.272 57.8782 104.53 58.2015C104.789 58.5119 104.99 58.8806 105.132 59.3074C105.287 59.7471 105.365 60.2321 105.365 60.7624C105.339 62.0816 104.867 63.1357 103.948 63.9247C103.043 64.7137 101.911 65.1081 100.553 65.1081C99.3634 65.1081 98.3352 64.9077 97.4686 64.5067C96.6021 64.0928 95.839 63.485 95.1794 62.6831ZM108.643 64.7007V50.1503H117.083V52.6724H111.592V56.0287H116.268V58.5507H111.592V62.1786H117.083V64.7007H108.643Z" fill="black"/>
<path d="M48.1911 104.587C48.6179 104.587 48.9865 104.917 48.7925 105.673L46.8331 106.197C47.1435 105.266 47.7255 104.587 48.1911 104.587ZM49.2775 107.768H48.8895C48.4045 108.35 47.8613 108.816 47.3375 108.816C46.7943 108.816 46.5226 108.486 46.5226 107.768C46.5226 107.477 46.5614 107.167 46.6196 106.895L49.8013 105.848C50.4222 104.373 49.6655 103.733 48.7925 103.733C47.2793 103.733 45.572 106.372 45.572 108.447C45.572 109.437 46.0376 109.98 46.7749 109.98C47.6479 109.98 48.5403 109.146 49.2775 107.768ZM48.7731 103.035L50.5774 101.386V101.153H49.3745L48.3075 103.054H48.7731V103.035ZM42.0023 104.626H43.0499L41.3815 109.204C41.2263 109.592 41.4397 109.98 41.8471 109.98C43.0305 109.98 44.4468 108.971 44.99 107.536H44.699C44.2722 108.137 43.3409 108.797 42.6425 108.932L44.1752 104.626H45.7466L45.9406 103.966H44.408L44.99 102.317H44.3886L43.3021 103.966L42.0023 104.141V104.626ZM40.9159 104.393C41.0517 103.966 40.7607 103.733 40.5473 103.733C39.6354 103.733 38.5296 104.567 38.1028 105.712H38.3938C38.6848 105.285 39.1892 104.82 39.6742 104.742L37.9088 109.321C37.7536 109.747 38.064 109.98 38.2968 109.98C39.1698 109.98 40.198 109.146 40.6249 108.001H40.3339C40.0428 108.428 39.5384 108.894 39.0534 108.971L40.9159 104.393ZM41.0905 102.569C41.4785 102.569 41.8083 102.239 41.8083 101.851C41.8083 101.463 41.4785 101.133 41.0905 101.133C40.8965 101.133 40.7219 101.211 40.5861 101.347C40.4503 101.483 40.3727 101.657 40.3727 101.851C40.3727 102.259 40.6831 102.569 41.0905 102.569ZM32.5736 105.014C32.8452 105.014 33.0004 105.44 32.5736 106.391L31.332 109.146C31.0992 109.67 31.3514 110 31.8558 110C32.1662 110 32.302 109.922 32.4378 109.592L33.66 106.372C34.2227 105.673 35.2703 104.936 35.7359 104.936C36.0657 104.936 36.0269 105.208 35.8135 105.634L33.9317 109.223C33.757 109.573 33.9899 110 34.3973 110C35.3091 110 36.4149 109.165 36.8417 108.021H36.5119C36.2209 108.447 35.7165 108.913 35.2315 108.991L36.8417 105.731C37.0551 105.324 37.1522 104.936 37.1522 104.626C37.1522 104.102 36.8611 103.753 36.2985 103.753C35.5031 103.753 34.8241 104.645 33.854 105.751V104.897C33.854 104.296 33.66 103.753 33.1168 103.753C32.4766 103.753 31.8946 104.761 31.429 105.731H31.72C32.0498 105.266 32.3408 105.014 32.5736 105.014ZM31.3126 105.13C31.526 104.373 31.4096 103.733 30.847 103.733C30.1291 103.733 29.8963 104.218 29.1979 105.731V104.878C29.1979 104.276 29.0039 103.733 28.4607 103.733C27.8205 103.733 27.2384 104.742 26.7728 105.712H27.0638C27.3743 105.266 27.6653 104.994 27.8981 104.994C28.1697 104.994 28.3249 105.421 27.8981 106.372L26.6564 109.126C26.4236 109.65 26.6758 109.98 27.1802 109.98C27.4907 109.98 27.6265 109.903 27.7623 109.573L28.9457 106.352C29.2949 105.925 29.6053 105.557 29.9933 105.149H31.3126V105.13ZM24.5418 104.587C24.9686 104.587 25.3372 104.917 25.1432 105.673L23.1837 106.197C23.5135 105.266 24.0761 104.587 24.5418 104.587ZM25.6282 107.768H25.2402C24.7552 108.35 24.212 108.816 23.6881 108.816C23.1449 108.816 22.8733 108.486 22.8733 107.768C22.8733 107.477 22.9121 107.167 22.9703 106.895L26.152 105.848C26.7728 104.373 26.0356 103.733 25.1432 103.733C23.6299 103.733 21.9227 106.372 21.9227 108.447C21.9227 109.437 22.3883 109.98 23.1255 109.98C23.9985 109.98 24.891 109.146 25.6282 107.768ZM18.353 104.626H19.4006L17.7322 109.204C17.5769 109.592 17.7904 109.98 18.1978 109.98C19.3812 109.98 20.8168 108.971 21.3407 107.536H21.0497C20.6228 108.137 19.6916 108.797 18.9932 108.932L20.5258 104.626H22.0973L22.2913 103.966H20.7586L21.3407 102.317H20.7392L19.6528 103.966L18.353 104.141V104.626ZM12.785 108.195C12.785 106.779 14.3564 104.858 15.2489 104.858C15.4429 104.858 15.6369 104.878 15.7921 104.936L14.8803 107.38C14.3564 108.021 13.5416 108.797 13.1536 108.797C12.9208 108.797 12.785 108.622 12.785 108.195ZM17.6157 103.462L17.1307 103.423L16.5875 103.966H16.4905C14.1818 103.966 11.6986 106.837 11.6986 109.107C11.6986 109.631 11.9896 109.98 12.5522 109.98C13.2312 109.98 13.8908 109.01 14.6475 107.982L14.6087 108.35C14.5117 109.398 14.8415 109.98 15.3847 109.98C16.0249 109.98 16.6069 108.971 17.0531 108.001H16.7621C16.4517 108.447 16.1607 108.719 15.9279 108.719C15.6951 108.719 15.5205 108.273 15.9279 107.342L17.6157 103.462ZM12.6686 105.13C12.882 104.373 12.7656 103.733 12.203 103.733C11.4852 103.733 11.2523 104.218 10.5539 105.731V104.878C10.5539 104.276 10.3599 103.733 9.7973 103.733C9.15708 103.733 8.57507 104.742 8.12885 105.712H8.41986C8.73027 105.266 9.02128 104.994 9.25409 104.994C9.5257 104.994 9.6809 105.421 9.25409 106.372L7.99305 109.146C7.76024 109.67 8.01245 110 8.51686 110C8.82727 110 8.96308 109.922 9.09888 109.592L10.3211 106.352C10.6703 105.925 10.9807 105.557 11.3688 105.149H12.6686V105.13ZM4.53974 109.767L4.65614 109.418C3.1235 109.126 2.92949 109.126 3.55031 107.458L4.13233 105.887H5.35457C6.11119 105.887 6.13059 106.216 6.01419 107.051H6.4604L7.46923 104.276H7.02302C6.63501 104.936 6.344 105.44 5.50977 105.44H4.28753L5.12176 103.171C5.41277 102.356 5.54857 102.2 6.5962 102.2H6.86781C7.93485 102.2 8.07065 102.491 8.07065 103.617H8.49746L8.84667 101.735H2.92949L2.81309 102.084C4.03533 102.336 4.15173 102.453 3.58911 104.044L2.32807 107.477C1.74605 109.049 1.51325 109.185 0.097003 109.437L0 109.786H4.53974V109.767ZM33.8929 91.2197C34.3197 91.2197 34.6883 91.5495 34.4943 92.3062L32.5348 92.83C32.8452 91.8988 33.4272 91.2197 33.8929 91.2197ZM34.9793 94.4014H34.5913C34.1063 94.9835 33.563 95.4491 33.0392 95.4491C32.496 95.4491 32.2244 95.1193 32.2244 94.4014C32.2244 94.1104 32.2632 93.8 32.3214 93.5284L35.5031 92.4808C36.1239 91.0063 35.3673 90.3661 34.4943 90.3661C32.981 90.3661 31.2738 93.0046 31.2738 95.0805C31.2738 96.0699 31.7394 96.6131 32.4766 96.6131C33.3496 96.6325 34.2421 95.7789 34.9793 94.4014ZM34.4749 89.6677L36.2791 88.0186V87.7858H35.0763L34.0093 89.6871H34.4749V89.6677ZM27.7041 91.2585H28.7517L27.0832 95.8371C26.928 96.2251 27.1414 96.6131 27.5489 96.6131C28.7323 96.6131 30.1485 95.6043 30.6918 94.1686H30.4007C29.9739 94.77 29.0427 95.4297 28.3443 95.5655L29.8769 91.2585H31.4484L31.6424 90.5989H30.1097L30.6918 88.9499H30.0903L29.0039 90.5989L27.7041 90.7929V91.2585ZM26.6176 91.0451C26.7534 90.6183 26.4624 90.3855 26.2296 90.3855C25.3178 90.3855 24.212 91.2197 23.7851 92.3644H24.0761C24.3672 91.9376 24.8716 91.4719 25.3566 91.3943L23.5911 95.9729C23.4359 96.3997 23.7463 96.6325 23.9791 96.6325C24.8522 96.6325 25.8804 95.7983 26.3072 94.6536H26.0162C25.7252 95.0805 25.2208 95.5461 24.7358 95.6237L26.6176 91.0451ZM26.7922 89.2215C27.1802 89.2215 27.5101 88.8917 27.5101 88.5037C27.5101 88.1156 27.1802 87.7858 26.7922 87.7858C26.54 87.7858 26.3072 87.9216 26.1714 88.135C26.0356 88.3484 26.0356 88.6395 26.1714 88.8723C26.3072 89.0857 26.54 89.2409 26.7922 89.2215ZM21.1661 95.6237L24.0761 87.9022L23.9791 87.7664L21.9615 87.9992V88.232L22.3495 88.5231C22.6987 88.7947 22.5823 89.0469 22.2719 89.9199L20.0602 95.8177C19.8662 96.1669 20.1184 96.5937 20.5258 96.5937C21.4377 96.5937 22.4271 95.7595 22.8539 94.6148H22.5629C22.2525 95.0611 21.6317 95.5267 21.1661 95.6237ZM15.2295 94.8283C15.2295 93.412 16.8009 91.4913 17.6933 91.4913C17.8874 91.4913 18.062 91.5107 18.2366 91.5689L17.3053 94.0134C16.7815 94.6536 15.9667 95.4297 15.5787 95.4297C15.3653 95.4491 15.2295 95.2551 15.2295 94.8283ZM20.0602 90.1139L19.5752 90.0751L19.032 90.6183H18.935C16.6263 90.6183 14.143 93.4896 14.143 95.7595C14.143 96.2833 14.434 96.6325 14.9967 96.6325C15.6757 96.6325 16.3353 95.6625 17.0919 94.6342L17.0531 95.0029C16.9561 96.0505 17.2859 96.6325 17.8292 96.6325C18.4694 96.6325 19.0514 95.6237 19.4976 94.6536H19.2066C18.8962 95.0999 18.6052 95.3715 18.3724 95.3715C18.1396 95.3715 17.965 94.9253 18.3724 94.0134L20.0602 90.1139ZM8.82727 97.7383C8.82727 97.1369 9.40929 96.7489 10.2435 96.4191C10.5151 96.5549 10.9419 96.7101 11.4852 96.8847C12.3582 97.1757 12.688 97.2921 12.688 97.5443C12.688 98.107 11.8926 98.5338 10.4375 98.5338C9.35109 98.5532 8.82727 98.3204 8.82727 97.7383ZM11.2135 94.0328C10.8255 94.0328 10.6897 93.703 10.6897 93.3344C10.6897 92.1898 11.2329 90.8123 12.106 90.8123C12.494 90.8123 12.6298 91.1421 12.6298 91.5107C12.6298 92.636 12.0672 94.0328 11.2135 94.0328ZM13.6968 97.1757C13.6968 96.4385 13.0372 96.1669 11.9702 95.8565C11.0583 95.5849 10.6315 95.5073 10.6315 95.1969C10.6315 94.9641 10.8255 94.673 11.2135 94.4596C12.7268 94.382 13.6774 93.024 13.6774 91.8212C13.6774 91.6077 13.6386 91.4137 13.5804 91.2391H14.6087L14.8027 90.5795H13.0566C12.8238 90.4243 12.5328 90.3467 12.203 90.3467C10.6121 90.3467 9.5839 91.7436 9.5839 92.9852C9.5839 93.7806 10.0495 94.3238 10.7867 94.4208C10.0495 94.77 9.6227 95.1387 9.6227 95.6043C9.6227 95.8759 9.7197 96.0699 9.95251 96.2445C8.24526 96.7489 7.54683 97.3891 7.54683 98.1264C7.54683 98.9218 8.59447 99.2516 9.83611 99.2516C11.9314 99.271 13.6968 98.1264 13.6968 97.1757ZM5.78138 92.5196C6.538 92.5196 6.5574 92.8494 6.441 93.6836H6.88721L7.89605 90.9093H7.44983C7.06182 91.5689 6.77081 92.0734 5.93658 92.0734H4.24873L5.08296 89.8035C5.37397 88.9887 5.52917 88.8335 6.5574 88.8335H7.29463C8.36166 88.8335 8.49746 89.1245 8.49746 90.2497H8.92428L9.27349 88.3678H2.92949L2.81309 88.7171C4.03533 88.9693 4.15173 89.0857 3.58911 90.6765L2.32807 94.1104C1.74605 95.6819 1.51325 95.8177 0.097003 96.0699L0 96.4191H7.06182L8.32286 94.4208H7.83784C7.02302 95.2357 6.18879 95.9535 4.61734 95.9535C2.73548 95.9535 2.91009 95.8565 3.53091 94.1104L4.11293 92.539H5.78138V92.5196ZM6.69321 87.7858L8.49746 86.4666V86.2338H7.29463L6.22759 87.7858H6.69321ZM33.66 77.8721C34.0869 77.8721 34.4555 78.2019 34.2615 78.9586L32.302 79.4824C32.6124 78.5317 33.1944 77.8721 33.66 77.8721ZM34.7465 81.0538H34.3585C33.8735 81.6358 33.3302 82.1015 32.8064 82.1015C32.2632 82.1015 31.9916 81.7716 31.9916 81.0538C31.9916 80.7628 32.0304 80.4524 32.0886 80.1808L35.2703 79.1332C35.8911 77.6587 35.1345 77.0185 34.2615 77.0185C32.7482 77.0185 31.041 79.657 31.041 81.7328C31.041 82.7223 31.5066 83.2655 32.2438 83.2655C33.1168 83.2655 34.0093 82.4313 34.7465 81.0538ZM34.2421 76.3201L36.0463 74.671V74.4382H34.8435L33.7764 76.3395H34.2421V76.3201ZM27.4713 77.8915H28.5383L26.8698 82.4701C26.7146 82.8581 26.928 83.2461 27.3354 83.2461C28.5189 83.2461 29.9545 82.2373 30.4783 80.8016H30.1873C29.7605 81.403 28.8293 82.0627 28.1309 82.1985L29.6635 77.8915H31.235L31.429 77.2319H29.8963L30.4783 75.5829H29.8769L28.7905 77.2319L27.4907 77.4065V77.8915H27.4713ZM26.928 78.4153C27.1414 77.6587 27.025 77.0185 26.4624 77.0185C25.7446 77.0185 25.5118 77.5035 24.8134 79.0168V78.1631C24.8134 77.5617 24.6194 77.0185 24.0761 77.0185C23.4359 77.0185 22.8539 78.0273 22.3883 78.9974H22.6793C22.9897 78.5511 23.2807 78.2795 23.5135 78.2795C23.7851 78.2795 23.9403 78.7063 23.5135 79.657L22.2719 82.4119C22.0391 82.9357 22.2913 83.2655 22.7957 83.2655C23.1061 83.2655 23.2419 83.1879 23.3777 82.8581L24.6 79.6376C24.9492 79.2108 25.2596 78.8422 25.6476 78.4347H26.928V78.4153ZM20.1572 77.8721C20.584 77.8721 20.9527 78.2019 20.7586 78.9586L18.7992 79.4824C19.1096 78.5317 19.6916 77.8721 20.1572 77.8721ZM21.2437 81.0538H20.8556C20.3706 81.6358 19.8274 82.1015 19.3036 82.1015C18.7604 82.1015 18.4888 81.7716 18.4888 81.0538C18.4888 80.7628 18.5276 80.4524 18.5858 80.1808L21.7675 79.1332C22.3883 77.6587 21.6511 77.0185 20.7586 77.0185C19.2454 77.0185 17.5381 79.657 17.5381 81.7328C17.5381 82.7223 18.0038 83.2655 18.741 83.2655C19.614 83.2655 20.5064 82.4313 21.2437 81.0538ZM13.8326 82.3343C13.5222 82.3343 13.076 82.0433 13.076 81.791C13.076 81.7134 13.2118 81.3448 13.3864 80.8986L13.8908 79.5406C14.434 78.881 15.2877 78.1631 15.7727 78.1631C16.0637 78.1631 16.2771 78.3571 16.2771 78.7646C16.2577 80.045 15.0937 82.3343 13.8326 82.3343ZM17.3635 78.2795C17.3635 77.3483 17.1307 76.9991 16.4711 76.9991C15.6563 76.9991 14.8997 77.8721 14.1236 78.9198L15.7533 74.5352L15.6563 74.3994L13.6386 74.6322V74.865L14.0266 75.156C14.3758 75.4276 14.2594 75.6993 13.949 76.5529L12.1836 81.1896C12.0284 81.5776 11.8538 82.0433 11.8538 82.1597C11.8538 82.7029 12.591 83.2267 13.27 83.2267C14.8027 83.2655 17.3635 80.4524 17.3635 78.2795ZM11.4076 77.6781C11.524 77.2513 11.2523 77.0185 11.0195 77.0185C10.1077 77.0185 9.00188 77.8527 8.57507 78.9974H8.86608C9.15708 78.5705 9.6615 78.1049 10.1465 78.0273L8.38106 82.6059C8.22585 83.0327 8.53627 83.2655 8.76907 83.2655C9.6421 83.2655 10.6703 82.4313 11.0971 81.2866H10.8061C10.5151 81.7134 10.0107 82.1791 9.5257 82.2567L11.4076 77.6781ZM11.6016 75.8545C11.9896 75.8545 12.3194 75.5246 12.3194 75.1366C12.3194 74.7486 11.9896 74.4188 11.6016 74.4188C11.3494 74.4188 11.1165 74.5546 10.9807 74.768C10.8449 74.9814 10.8449 75.2724 10.9807 75.5052C11.1165 75.7187 11.3494 75.8739 11.6016 75.8545ZM7.12002 74.9814H2.92949L2.81309 75.3306C4.03533 75.5829 4.15173 75.6993 3.58911 77.2901L2.32807 80.724C1.74605 82.2955 1.51325 82.4313 0.097003 82.6835L0 83.0327H6.3634L7.74084 80.5688H7.25583C6.4604 81.4418 5.54857 82.5477 4.13233 82.5477C3.0653 82.5477 2.91009 82.3537 3.51151 80.7046L4.77255 77.2707C5.35457 75.6993 5.58737 75.5635 7.00362 75.3112L7.12002 74.9814Z" fill="black"/>
</svg>
